<?xml version="1.0" encoding="UTF-8" standalone="no"?>
<svg
   xmlns:dc="http://purl.org/dc/elements/1.1/"
   xmlns:cc="http://creativecommons.org/ns#"
   xmlns:rdf="http://www.w3.org/1999/02/22-rdf-syntax-ns#"
   xmlns:svg="http://www.w3.org/2000/svg"
   xmlns="http://www.w3.org/2000/svg"
   version="1.1"
   id="Layer_1"
   x="0px"
   y="0px"
   viewBox="0 0 124.34 125.76"
   style="enable-background:new 0 0 124.34 125.76"
   xml:space="preserve"><metadata
     id="metadata11"><rdf:RDF><cc:Work
         rdf:about=""><dc:format>image/svg+xml</dc:format><dc:type
           rdf:resource="http://purl.org/dc/dcmitype/StillImage" /><dc:title></dc:title></cc:Work></rdf:RDF></metadata><defs
     id="defs9" /><g
     id="g4"><path
       d="M 2.8,19.56 61.05,0.17 c 0.7,-0.24 1.42,-0.21 2.07,0.01 V 0.17 l 59.01,20.21 c 1.45,0.49 2.33,1.9 2.2,3.37 0.01,0.07 0.01,0.15 0.01,0.24 v 68.63 h -0.01 c 0,1.19 -0.65,2.33 -1.79,2.91 L 63.95,125.3 c -0.49,0.3 -1.07,0.47 -1.69,0.47 -0.66,0 -1.26,-0.19 -1.77,-0.52 L 1.76,94.61 C 0.65,94.03 0.01,92.9 0.01,91.72 H 0 V 22.8 c 0,-1.65 1.22,-3.01 2.8,-3.24 z m 56.19,97.56 V 51.48 L 6.53,27.7 v 62.06 z m 58.8,-88.64 -52.27,23.03 v 65.67 L 117.8,90.61 V 28.48 Z M 62.04,6.69 12.42,23.21 62.27,45.82 112.12,23.85 Z"
       id="path2"
       style="fill:#545454;fill-opacity:1" /><g
       aria-label="3"
       transform="matrix(0.9728137,0.41579066,-0.28182208,0.90749237,0,0)"
       id="text838"
       style="font-style:normal;font-variant:normal;font-weight:bold;font-stretch:normal;font-size:64px;line-height:1.25;font-family:'Noto Sans';-inkscape-font-specification:'Noto Sans, Bold';font-variant-ligatures:normal;font-variant-caps:normal;font-variant-numeric:normal;font-variant-east-asian:normal;letter-spacing:0px;word-spacing:0px;fill:#1a81c4;fill-opacity:1;stroke:none"><path
         d="m 65.664026,43.976426 q 0,4.736 -2.88,7.552 -2.816,2.816 -6.976,3.84 v 0.192 q 5.504,0.64 8.32,3.328 2.88,2.688 2.88,7.232 0,3.968 -1.984,7.168 -1.92,3.136 -6.016,4.992 -4.032,1.792 -10.432,1.792 -7.424,0 -13.184,-2.496 v -8.192 q 2.944,1.472 6.144,2.24 3.264,0.768 6.016,0.768 5.184,0 7.232,-1.792 2.112,-1.792 2.112,-5.056 0,-1.92 -0.96,-3.2 -0.96,-1.344 -3.392,-1.984 -2.368,-0.704 -6.656,-0.704 h -3.456 v -7.424 h 3.52 q 4.224,0 6.4,-0.768 2.24,-0.832 3.008,-2.176 0.832,-1.408 0.832,-3.2 0,-2.432 -1.536,-3.776 -1.472,-1.408 -4.992,-1.408 -3.264,0 -5.696,1.152 -2.368,1.088 -4.032,2.176 l -4.48,-6.656 q 2.688,-1.92 6.272,-3.2 3.648,-1.28 8.64,-1.28 7.04,0 11.136,2.88 4.16,2.816 4.16,8 z"
         id="path838" /></g><g
       aria-label="D"
       transform="matrix(1.1123739,-0.54588475,0.00522823,0.89641261,0,0)"
       id="text838-6"
       style="font-style:normal;font-variant:normal;font-weight:bold;font-stretch:normal;font-size:62.1199px;line-height:1.25;font-family:'Noto Sans';-inkscape-font-specification:'Noto Sans, Bold';font-variant-ligatures:normal;font-variant-caps:normal;font-variant-numeric:normal;font-variant-east-asian:normal;letter-spacing:0px;word-spacing:0px;fill:#1a81c4;fill-opacity:1;stroke:none;stroke-width:0.970623"><path
         d="m 101.10054,130.83324 q 0,11.2437 -6.398346,16.95873 -6.33623,5.65292 -17.828412,5.65292 H 64.325563 V 109.09128 H 78.24042 q 6.957429,0 12.051261,2.48479 5.155951,2.4848 7.951347,7.33015 2.857512,4.78323 2.857512,11.92702 z m -9.752821,0.24848 q 0,-7.39227 -3.230235,-10.80886 -3.230234,-3.47872 -9.380105,-3.47872 h -5.031711 v 28.88576 h 4.037793 q 13.604258,0 13.604258,-14.59818 z"
         style="stroke-width:0.970623"
         id="path835" /></g></g></svg>
