<?xml version="1.0" encoding="UTF-8" standalone="no"?>
<svg
   xmlns:dc="http://purl.org/dc/elements/1.1/"
   xmlns:cc="http://creativecommons.org/ns#"
   xmlns:rdf="http://www.w3.org/1999/02/22-rdf-syntax-ns#"
   xmlns:svg="http://www.w3.org/2000/svg"
   xmlns="http://www.w3.org/2000/svg"
   xmlns:sodipodi="http://sodipodi.sourceforge.net/DTD/sodipodi-0.dtd"
   xmlns:inkscape="http://www.inkscape.org/namespaces/inkscape"
   version="1.1"
   id="Layer_1"
   x="0px"
   y="0px"
   viewBox="0 0 124.34 125.76"
   style="enable-background:new 0 0 124.34 125.76"
   xml:space="preserve"
   sodipodi:docname="3d-model.svg"
   inkscape:version="1.0.2 (e86c870879, 2021-01-15)"><metadata
     id="metadata11"><rdf:RDF><cc:Work
         rdf:about=""><dc:format>image/svg+xml</dc:format><dc:type
           rdf:resource="http://purl.org/dc/dcmitype/StillImage" /></cc:Work></rdf:RDF></metadata><defs
     id="defs9" /><sodipodi:namedview
     pagecolor="#ffffff"
     bordercolor="#666666"
     borderopacity="1"
     objecttolerance="10"
     gridtolerance="10"
     guidetolerance="10"
     inkscape:pageopacity="0"
     inkscape:pageshadow="2"
     inkscape:window-width="1920"
     inkscape:window-height="983"
     id="namedview7"
     showgrid="false"
     inkscape:zoom="4.610588"
     inkscape:cx="32.018583"
     inkscape:cy="55.00275"
     inkscape:window-x="0"
     inkscape:window-y="27"
     inkscape:window-maximized="1"
     inkscape:current-layer="g4" /><g
     id="g4"><path
       d="M 2.8,19.56 61.05,0.17 c 0.7,-0.24 1.42,-0.21 2.07,0.01 V 0.17 l 59.01,20.21 c 1.45,0.49 2.33,1.9 2.2,3.37 0.01,0.07 0.01,0.15 0.01,0.24 v 68.63 h -0.01 c 0,1.19 -0.65,2.33 -1.79,2.91 L 63.95,125.3 c -0.49,0.3 -1.07,0.47 -1.69,0.47 -0.66,0 -1.26,-0.19 -1.77,-0.52 L 1.76,94.61 C 0.65,94.03 0.01,92.9 0.01,91.72 H 0 V 22.8 c 0,-1.65 1.22,-3.01 2.8,-3.24 z m 56.19,97.56 V 51.48 L 6.53,27.7 v 62.06 z m 58.8,-88.64 -52.27,23.03 v 65.67 L 117.8,90.61 V 28.48 Z M 62.04,6.69 12.42,23.21 62.27,45.82 112.12,23.85 Z"
       id="path2"
       sodipodi:nodetypes="ccccccsccccsccccsccccccccccccccccc"
       style="fill:#545454;fill-opacity:1" /><text
       xml:space="preserve"
       style="font-style:normal;font-variant:normal;font-weight:bold;font-stretch:normal;font-size:64px;line-height:1.25;font-family:'Noto Sans';-inkscape-font-specification:'Noto Sans, Bold';font-variant-ligatures:normal;font-variant-caps:normal;font-variant-numeric:normal;font-variant-east-asian:normal;letter-spacing:0px;word-spacing:0px;fill:#1a81c4;fill-opacity:1;stroke:none"
       x="32.960026"
       y="79.432426"
       id="text838"
       transform="matrix(0.9728137,0.41579066,-0.28182208,0.90749237,0,0)"><tspan
         sodipodi:role="line"
         id="tspan836"
         x="32.960026"
         y="79.432426">3</tspan></text><text
       xml:space="preserve"
       style="font-style:normal;font-variant:normal;font-weight:bold;font-stretch:normal;font-size:62.1199px;line-height:1.25;font-family:'Noto Sans';-inkscape-font-specification:'Noto Sans, Bold';font-variant-ligatures:normal;font-variant-caps:normal;font-variant-numeric:normal;font-variant-east-asian:normal;letter-spacing:0px;word-spacing:0px;fill:#1a81c4;fill-opacity:1;stroke:none;stroke-width:0.970623"
       x="58.734772"
       y="153.44489"
       id="text838-6"
       transform="matrix(1.1123739,-0.54588475,0.00522823,0.89641261,0,0)"><tspan
         sodipodi:role="line"
         id="tspan864"
         x="58.734772"
         y="153.44489"
         style="stroke-width:0.970623">D</tspan></text></g></svg>
