<?xml version="1.0" encoding="UTF-8" standalone="no"?>
<svg
   xmlns:dc="http://purl.org/dc/elements/1.1/"
   xmlns:cc="http://creativecommons.org/ns#"
   xmlns:rdf="http://www.w3.org/1999/02/22-rdf-syntax-ns#"
   xmlns:svg="http://www.w3.org/2000/svg"
   xmlns="http://www.w3.org/2000/svg"
   viewBox="0 0 503.01642 512"
   version="1.1"
   id="svg1016"
   width="503.01642"
   height="512">
  <metadata
     id="metadata1022">
    <rdf:RDF>
      <cc:Work
         rdf:about="">
        <dc:format>image/svg+xml</dc:format>
        <dc:type
           rdf:resource="http://purl.org/dc/dcmitype/StillImage" />
        <dc:title></dc:title>
      </cc:Work>
    </rdf:RDF>
  </metadata>
  <defs
     id="defs1020" />
  <path
     d="m 384,121.9 c 0,-6.3 -2.5,-12.4 -7,-16.9 L 279.1,7 C 274.6,2.5 268.5,0 262.1,0 H 256 v 128 h 128 z m 0,38.1 H 248 c -13.2,0 -24,-10.8 -24,-24 V 0 H 24 C 10.7,0 0,10.7 0,24 v 464 c 0,13.3 10.7,24 24,24 h 336 c 13.3,0 24,-10.7 24,-24 0.48738,-173.99887 0.32234,-136.24625 0,-328 z"
     id="path1014"
     style="fill:#545454;fill-opacity:1" />
  <path
     class="cls-4"
     d="M 503.01638,381.46345 A 127.90984,127.90984 0 1 1 375.10654,253.34507 128.01228,128.01228 0 0 1 503.01638,381.46345 Z"
     id="path24765"
     style="fill:#bf2641;stroke-width:18.2924" />
  <line
     class="cls-5"
     x1="377.00375"
     y1="319.80496"
     x2="377.00375"
     y2="447.92346"
     id="line24767"
     style="fill:none;stroke:#f5f5f5;stroke-width:36.5848px;stroke-linecap:round;stroke-linejoin:round" />
  <polyline
     class="cls-5"
     points="15.362 17.16 18.111 14.406 20.861 17.16"
     id="polyline24769"
     transform="matrix(18.292433,0,0,18.292433,45.705558,52.270978)"
     style="fill:none;stroke:#f5f5f5;stroke-width:2px;stroke-linecap:round;stroke-linejoin:round" />
</svg>
