<?xml version="1.0" encoding="UTF-8" standalone="no"?>
<svg
   xmlns:dc="http://purl.org/dc/elements/1.1/"
   xmlns:cc="http://creativecommons.org/ns#"
   xmlns:rdf="http://www.w3.org/1999/02/22-rdf-syntax-ns#"
   xmlns:svg="http://www.w3.org/2000/svg"
   xmlns="http://www.w3.org/2000/svg"
   id="Слой_1"
   data-name="Слой 1"
   viewBox="0 0 24 24"
   version="1.1">
  <metadata
     id="metadata43">
    <rdf:RDF>
      <cc:Work
         rdf:about="">
        <cc:license
           rdf:resource="http://creativecommons.org/licenses/by-sa/4.0/" />
        <dc:format>image/svg+xml</dc:format>
        <dc:type
           rdf:resource="http://purl.org/dc/dcmitype/StillImage" />
        <dc:title>html</dc:title>
      </cc:Work>
      <cc:License
         rdf:about="http://creativecommons.org/licenses/by-sa/4.0/">
        <cc:permits
           rdf:resource="http://creativecommons.org/ns#Reproduction" />
        <cc:permits
           rdf:resource="http://creativecommons.org/ns#Distribution" />
        <cc:requires
           rdf:resource="http://creativecommons.org/ns#Notice" />
        <cc:requires
           rdf:resource="http://creativecommons.org/ns#Attribution" />
        <cc:permits
           rdf:resource="http://creativecommons.org/ns#DerivativeWorks" />
        <cc:requires
           rdf:resource="http://creativecommons.org/ns#ShareAlike" />
      </cc:License>
    </rdf:RDF>
  </metadata>
  <defs
     id="defs157629">
    <style
       id="style157627">.cls-1{fill:#b9b9b9;}.cls-2{fill:#1a81c4;}.cls-3{fill:#fff;}.cls-4{fill:#545454;stroke:#545454;stroke-miterlimit:10;stroke-width:0.75px;}</style>
  </defs>
  <title
     id="title157631">html</title>
  <rect
     class="cls-1"
     x="3"
     y="0"
     width="21"
     height="24"
     rx="3.5044518"
     id="rect157633"
     style="stroke-width:0.999998" />
  <rect
     class="cls-2"
     x="0"
     y="2"
     width="22.5"
     height="9"
     id="rect157635"
     style="stroke-width:1.08821" />
  <path
     class="cls-4"
     d="m 6.884917,17.091735 v -0.481468 l 3.499998,-1.902291 v 0.498663 l -3.048298,1.635713 3.048698,1.627476 v 0.523684 z"
     id="path157645" />
  <path
     class="cls-4"
     d="m 12.315515,19.5 h -0.4433 l 2.1539,-6.088054 h 0.4593 z"
     id="path157647" />
  <path
     class="cls-4"
     d="m 19.472715,16.609753 v 0.481982 l -3.5,1.902292 v -0.506489 l 3.0571,-1.628196 -3.0571,-1.62758 v -0.523786 z"
     id="path157649" />
  <g
     aria-label="html"
     id="text859"
     style="font-style:normal;font-variant:normal;font-weight:bold;font-stretch:normal;font-size:8px;line-height:1.25;font-family:'Noto Sans';-inkscape-font-specification:'Noto Sans, Bold';font-variant-ligatures:normal;font-variant-caps:normal;font-variant-numeric:normal;font-variant-east-asian:normal;letter-spacing:0px;word-spacing:0px;fill:#ffffff;fill-opacity:1;stroke:none">
    <path
       d="m 4.2461248,4.2361509 q 0,0.32 -0.024,0.616 -0.016,0.296 -0.032,0.416 h 0.064 q 0.208,-0.336 0.536,-0.488 0.328,-0.152 0.728,-0.152 0.712,0 1.136,0.384 0.432,0.376 0.432,1.216 v 2.848 h -1.192 v -2.552 q 0,-0.944 -0.704,-0.944 -0.536,0 -0.744,0.376 -0.2,0.368 -0.2,1.064 v 2.056 h -1.192 v -6.08 h 1.192 z"
       id="path11513" />
    <path
       d="m 10.150121,8.2041509 q 0.2,0 0.384,-0.04 0.184,-0.04 0.368,-0.096 v 0.888 q -0.192,0.08 -0.48,0.136 -0.28,0.064 -0.6159995,0.064 -0.392,0 -0.704,-0.128 -0.304,-0.128 -0.488,-0.44 -0.176,-0.32 -0.176,-0.88 v -2.104 h -0.568 v -0.504 l 0.656,-0.4 0.344,-0.92 h 0.76 v 0.928 h 1.2239995 v 0.896 H 9.6301215 v 2.104 q 0,0.248 0.144,0.376 0.144,0.12 0.3759995,0.12 z"
       id="path11515" />
    <path
       d="m 16.910106,4.6281509 q 0.744,0 1.12,0.384 0.384,0.376 0.384,1.216 v 2.848 h -1.192 v -2.552 q 0,-0.944 -0.656,-0.944 -0.472,0 -0.672,0.336 -0.2,0.336 -0.2,0.968 v 2.192 h -1.192 v -2.552 q 0,-0.944 -0.656,-0.944 -0.496,0 -0.688,0.376 -0.184,0.368 -0.184,1.064 v 2.056 h -1.192 v -4.368 h 0.912 l 0.16,0.56 h 0.064 q 0.2,-0.336 0.544,-0.488 0.352,-0.152 0.728,-0.152 0.48,0 0.816,0.16 0.336,0.152 0.512,0.48 h 0.104 q 0.2,-0.336 0.552,-0.488 0.36,-0.152 0.736,-0.152 z"
       id="path11517" />
    <path
       d="m 20.830094,9.0761509 h -1.192 v -6.08 h 1.192 z"
       id="path11519" />
  </g>
  <path
     class="cls-3"
     d="M 2,9.0361 H 0.9267 V 8 H 2 Z"
     id="path26647"
     style="fill:#ffffff" />
</svg>
