<?xml version="1.0" encoding="UTF-8" standalone="no"?>
<svg
   xmlns:dc="http://purl.org/dc/elements/1.1/"
   xmlns:cc="http://creativecommons.org/ns#"
   xmlns:rdf="http://www.w3.org/1999/02/22-rdf-syntax-ns#"
   xmlns:svg="http://www.w3.org/2000/svg"
   xmlns="http://www.w3.org/2000/svg"
   id="Слой_1"
   data-name="Слой 1"
   viewBox="0 0 24 24"
   version="1.1">
  <metadata
     id="metadata43">
    <rdf:RDF>
      <cc:Work
         rdf:about="">
        <cc:license
           rdf:resource="http://creativecommons.org/licenses/by-sa/4.0/" />
        <dc:format>image/svg+xml</dc:format>
        <dc:type
           rdf:resource="http://purl.org/dc/dcmitype/StillImage" />
        <dc:title>svg_file</dc:title>
      </cc:Work>
      <cc:License
         rdf:about="http://creativecommons.org/licenses/by-sa/4.0/">
        <cc:permits
           rdf:resource="http://creativecommons.org/ns#Reproduction" />
        <cc:permits
           rdf:resource="http://creativecommons.org/ns#Distribution" />
        <cc:requires
           rdf:resource="http://creativecommons.org/ns#Notice" />
        <cc:requires
           rdf:resource="http://creativecommons.org/ns#Attribution" />
        <cc:permits
           rdf:resource="http://creativecommons.org/ns#DerivativeWorks" />
        <cc:requires
           rdf:resource="http://creativecommons.org/ns#ShareAlike" />
      </cc:License>
    </rdf:RDF>
  </metadata>
  <defs
     id="defs27305">
    <style
       id="style27303">.cls-1{fill:#b9b9b9;}.cls-2{fill:#1a81c4;}.cls-3{fill:#fff;}</style>
  </defs>
  <title
     id="title27307">svg_file</title>
  <rect
     class="cls-1"
     x="3"
     y="0"
     width="21"
     height="24"
     rx="3.5044518"
     id="rect27309"
     style="stroke-width:0.999998" />
  <g
     id="layer3">
    <path
       id="polygon26469"
       class="st0"
       d="m 10.15,6.7499992 h 7.7 v 7.3499998 l -1.05,1.4 h -6.65 z"
       style="fill:#f3f3f3;stroke:#545454;stroke-width:0.7" />
    <polygon
       id="polygon26471"
       class="st1"
       points="18,10 16,12 16,10 "
       style="fill:#1a81c4"
       transform="matrix(0.7,0,0,0.7,5.6000004,5.6999992)" />
    <path
       id="path26473"
       class="st2"
       d="M 6.3700004,8.4999992 H 21.63 c 0.42,0 0.77,0.35 0.77,0.77 v 4.0599998 c 0,0.42 -0.35,0.77 -0.77,0.77 v 0 H 6.3700004 c -0.42,0 -0.77,-0.35 -0.77,-0.77 V 9.2699992 c 0,-0.42 0.35,-0.77 0.77,-0.77 z"
       style="fill:#545454;fill-opacity:1;stroke-width:0.7" />
    <path
       id="polygon26475"
       class="st0"
       d="m 10.15,11.649999 c 2.8,0 0.21,0 7.7,0 v 5.6 l -1.4,1.4 h -6.3 z"
       style="fill:#f3f3f3;stroke:#545454;stroke-width:0.7" />
    <polygon
       id="polygon26477"
       class="st3"
       points="17.5,16 15,18.6 15,16 "
       style="fill:#545454;fill-opacity:1"
       transform="matrix(0.7,0,0,0.7,5.6000004,5.6999992)" />
    <rect
       id="rect26479"
       x="7"
       y="11.299999"
       class="st3"
       width="14"
       height="0.69999999"
       style="fill:#727272;fill-opacity:1;stroke-width:0.7" />
    <rect
       id="rect26485"
       x="7"
       y="14.099998"
       class="st3"
       width="0.69999999"
       height="7"
       style="fill:#545454;fill-opacity:1;stroke-width:0.7" />
    <rect
       id="rect26487"
       x="5.6000004"
       y="21.099998"
       class="st3"
       width="3.5"
       height="0.69999999"
       style="fill:#545454;fill-opacity:1;stroke-width:0.7" />
    <rect
       id="rect26489"
       x="20.300001"
       y="14.099998"
       class="st3"
       width="0.69999999"
       height="7"
       style="fill:#545454;fill-opacity:1;stroke-width:0.7" />
    <rect
       id="rect26491"
       x="18.9"
       y="21.099998"
       class="st3"
       width="3.5"
       height="0.69999999"
       style="fill:#545454;fill-opacity:1;stroke-width:0.7" />
  </g>
  <g
     id="layer4"
     style="display:inline">
    <rect
       class="cls-2"
       x="0"
       y="1"
       width="15"
       height="10"
       id="rect27311"
       style="stroke-width:0.936584" />
    <path
       class="cls-3"
       d="M 2.0688,7.9416479 H 0.99590004 V 6.8772203 H 2.0688 Z"
       id="path27313"
       style="stroke-width:1" />
    <g
       aria-label="plt"
       id="text909"
       style="font-style:normal;font-variant:normal;font-weight:bold;font-stretch:normal;font-size:8px;line-height:1.25;font-family:'Noto Sans';-inkscape-font-specification:'Noto Sans, Bold';font-variant-ligatures:normal;font-variant-caps:normal;font-variant-numeric:normal;font-variant-east-asian:normal;letter-spacing:0px;word-spacing:0px;fill:#ffffff;fill-opacity:1;stroke:none">
      <path
         d="m 6.1986811,3.5996418 q 0.736,0 1.192,0.576 0.456,0.568 0.456,1.68 0,1.112 -0.472,1.696 -0.472,0.576 -1.208,0.576 -0.472,0 -0.752,-0.168 -0.28,-0.176 -0.456,-0.392 h -0.064 q 0.064,0.336 0.064,0.64 v 1.76 h -1.192 v -6.288 h 0.968 l 0.168,0.568 h 0.056 q 0.176,-0.264 0.472,-0.456 0.296,-0.192 0.768,-0.192 z m -0.384,0.952 q -0.464,0 -0.656,0.288 -0.184,0.288 -0.2,0.88 v 0.128 q 0,0.632 0.184,0.976 0.192,0.336 0.688,0.336 0.408,0 0.6,-0.336 0.2,-0.344 0.2,-0.984 0,-1.288 -0.816,-1.288 z"
         id="path13617" />
      <path
         d="M 10.022676,8.0476418 H 8.8306765 v -6.08 h 1.1919995 z"
         id="path13619" />
      <path
         d="m 13.110664,7.1756418 q 0.2,0 0.384,-0.04 0.184,-0.04 0.368,-0.096 v 0.888 q -0.192,0.08 -0.48,0.136 -0.28,0.064 -0.616,0.064 -0.392,0 -0.704,-0.128 -0.304,-0.128 -0.488,-0.44 -0.176,-0.32 -0.176,-0.88 v -2.104 h -0.568 v -0.504 l 0.656,-0.4 0.344,-0.92 h 0.76 v 0.928 h 1.224 v 0.896 h -1.224 v 2.104 q 0,0.248 0.144,0.376 0.144,0.12 0.376,0.12 z"
         id="path13621" />
    </g>
  </g>
</svg>
