<?xml version="1.0" encoding="UTF-8" standalone="no"?>
<svg
   xmlns:dc="http://purl.org/dc/elements/1.1/"
   xmlns:cc="http://creativecommons.org/ns#"
   xmlns:rdf="http://www.w3.org/1999/02/22-rdf-syntax-ns#"
   xmlns:svg="http://www.w3.org/2000/svg"
   xmlns="http://www.w3.org/2000/svg"
   id="Слой_1"
   data-name="Слой 1"
   viewBox="0 0 24 24"
   version="1.1">
  <metadata
     id="metadata43">
    <rdf:RDF>
      <cc:Work
         rdf:about="">
        <cc:license
           rdf:resource="http://creativecommons.org/licenses/by-sa/4.0/" />
        <dc:format>image/svg+xml</dc:format>
        <dc:type
           rdf:resource="http://purl.org/dc/dcmitype/StillImage" />
        <dc:title>svg_file</dc:title>
      </cc:Work>
      <cc:License
         rdf:about="http://creativecommons.org/licenses/by-sa/4.0/">
        <cc:permits
           rdf:resource="http://creativecommons.org/ns#Reproduction" />
        <cc:permits
           rdf:resource="http://creativecommons.org/ns#Distribution" />
        <cc:requires
           rdf:resource="http://creativecommons.org/ns#Notice" />
        <cc:requires
           rdf:resource="http://creativecommons.org/ns#Attribution" />
        <cc:permits
           rdf:resource="http://creativecommons.org/ns#DerivativeWorks" />
        <cc:requires
           rdf:resource="http://creativecommons.org/ns#ShareAlike" />
      </cc:License>
    </rdf:RDF>
  </metadata>
  <defs
     id="defs27305">
    <style
       id="style27303">.cls-1{fill:#b9b9b9;}.cls-2{fill:#1a81c4;}.cls-3{fill:#fff;}</style>
  </defs>
  <title
     id="title27307">svg_file</title>
  <rect
     class="cls-1"
     x="3"
     y="0"
     width="21"
     height="24"
     rx="3.5044518"
     id="rect27309"
     style="stroke-width:0.999998" />
  <circle
     class="st1"
     cx="-19.45447"
     cy="9.0794182"
     r="2.7276506"
     id="circle8"
     style="fill:#545454;fill-opacity:1;stroke-width:0.340956"
     transform="scale(-1,1)" />
  <path
     class="st1"
     d="M 3.6,13.273181 6.907277,10 l 6.546362,6.580458 3.273181,-3.307277 6.580457,6.580457 v 2.182121 H 3.6 Z"
     id="path10"
     style="fill:#545454;fill-opacity:1;stroke-width:0.340956" />
  <g
     id="layer3" />
  <g
     id="layer4"
     style="display:inline">
    <rect
       class="cls-2"
       x="0"
       y="2"
       width="19"
       height="9"
       id="rect27311"
       style="stroke-width:0.999998" />
    <path
       class="cls-3"
       d="M 2.0688,7.9416479 H 0.99590004 V 6.8772203 H 2.0688 Z"
       id="path27313"
       style="stroke-width:1" />
    <g
       aria-label="png"
       id="text909"
       style="font-style:normal;font-variant:normal;font-weight:bold;font-stretch:normal;font-size:8px;line-height:1.25;font-family:'Noto Sans';-inkscape-font-specification:'Noto Sans, Bold';font-variant-ligatures:normal;font-variant-caps:normal;font-variant-numeric:normal;font-variant-east-asian:normal;letter-spacing:0px;word-spacing:0px;fill:#ffffff;fill-opacity:1;stroke:none">
      <path
         d="m 6.1986811,3.5996418 q 0.736,0 1.192,0.576 0.456,0.568 0.456,1.68 0,1.112 -0.472,1.696 -0.472,0.576 -1.208,0.576 -0.472,0 -0.752,-0.168 -0.28,-0.176 -0.456,-0.392 h -0.064 q 0.064,0.336 0.064,0.64 v 1.76 h -1.192 v -6.288 h 0.968 l 0.168,0.568 h 0.056 q 0.176,-0.264 0.472,-0.456 0.296,-0.192 0.768,-0.192 z m -0.384,0.952 q -0.464,0 -0.656,0.288 -0.184,0.288 -0.2,0.88 v 0.128 q 0,0.632 0.184,0.976 0.192,0.336 0.688,0.336 0.408,0 0.6,-0.336 0.2,-0.344 0.2,-0.984 0,-1.288 -0.816,-1.288 z"
         id="path14312" />
      <path
         d="m 11.310676,3.5996418 q 0.704,0 1.128,0.384 0.424,0.376 0.424,1.216 v 2.848 h -1.192 v -2.552 q 0,-0.472 -0.168,-0.704 -0.168,-0.24 -0.536,-0.24 -0.544,0 -0.744,0.376 -0.2,0.368 -0.2,1.064 v 2.056 H 8.8306765 v -4.368 h 0.912 l 0.16,0.56 h 0.064 q 0.2079995,-0.336 0.5679995,-0.488 0.368,-0.152 0.776,-0.152 z"
         id="path14314" />
      <path
         d="m 15.502673,3.5996418 q 0.808,0 1.264,0.64 h 0.032 l 0.096,-0.56 h 1.008 v 4.376 q 0,0.936 -0.552,1.424 -0.552,0.488 -1.632,0.488 -0.464,0 -0.864,-0.056 -0.392,-0.056 -0.768,-0.2 v -0.952 q 0.808,0.336 1.704,0.336 0.92,0 0.92,-0.992 v -0.088 q 0,-0.136 0.008,-0.28 0.016,-0.144 0.024,-0.256 h -0.032 q -0.224,0.344 -0.536,0.496 -0.312,0.152 -0.704,0.152 -0.776,0 -1.216,-0.592 -0.432,-0.6 -0.432,-1.664 0,-1.072 0.448,-1.672 0.448,-0.6 1.232,-0.6 z m 0.376,0.968 q -0.84,0 -0.84,1.32 0,1.304 0.856,1.304 0.456,0 0.672,-0.256 0.224,-0.264 0.224,-0.912 v -0.144 q 0,-0.704 -0.216,-1.008 -0.216,-0.304 -0.696,-0.304 z"
         id="path14316" />
    </g>
  </g>
</svg>
