<?xml version="1.0" encoding="UTF-8" standalone="no"?>
<svg
   xmlns:dc="http://purl.org/dc/elements/1.1/"
   xmlns:cc="http://creativecommons.org/ns#"
   xmlns:rdf="http://www.w3.org/1999/02/22-rdf-syntax-ns#"
   xmlns:svg="http://www.w3.org/2000/svg"
   xmlns="http://www.w3.org/2000/svg"
   xmlns:xlink="http://www.w3.org/1999/xlink"
   id="Слой_1"
   data-name="Слой 1"
   viewBox="0 0 24 24"
   version="1.1">
  <metadata
     id="metadata43">
    <rdf:RDF>
      <cc:Work
         rdf:about="">
        <cc:license
           rdf:resource="http://creativecommons.org/licenses/by-sa/4.0/" />
        <dc:format>image/svg+xml</dc:format>
        <dc:type
           rdf:resource="http://purl.org/dc/dcmitype/StillImage" />
        <dc:title>export_footprint_names</dc:title>
      </cc:Work>
      <cc:License
         rdf:about="http://creativecommons.org/licenses/by-sa/4.0/">
        <cc:permits
           rdf:resource="http://creativecommons.org/ns#Reproduction" />
        <cc:permits
           rdf:resource="http://creativecommons.org/ns#Distribution" />
        <cc:requires
           rdf:resource="http://creativecommons.org/ns#Notice" />
        <cc:requires
           rdf:resource="http://creativecommons.org/ns#Attribution" />
        <cc:permits
           rdf:resource="http://creativecommons.org/ns#DerivativeWorks" />
        <cc:requires
           rdf:resource="http://creativecommons.org/ns#ShareAlike" />
      </cc:License>
    </rdf:RDF>
  </metadata>
  <defs
     id="defs24723">
    <style
       id="style24721">.cls-1{fill:#b9b9b9;}.cls-2,.cls-4{fill:none;stroke-linecap:round;stroke-width:2px;}.cls-2{stroke:#545454;stroke-miterlimit:10;}.cls-3{fill:#bf2641;}.cls-4{stroke:#f5f5f5;stroke-linejoin:round;}</style>
  </defs>
  <title
     id="title24725">export_footprint_names</title>
  <path
     class="cls-1"
     d="m 6.5,0 h 13.9816 a 3.4978,4.0043896 0 0 1 3.4978,4.0043896 V 20.03351 A 3.4978,4.0043896 0 0 1 20.4816,24.0379 H 6.4999 A 3.4978,4.0043896 0 0 1 3.0021,20.03351 V 4.0045041 A 3.4979,4.0045041 0 0 1 6.5,0 Z"
     id="path24727"
     style="stroke-width:1.06997" />
  <g
     id="g1014"
     transform="matrix(0.502816,0,0,0.502816,2.449312,9.706352)">
    <rect
       style="fill:#545454;fill-opacity:1;stroke:#545454;stroke-width:1.18893;stroke-miterlimit:10;stroke-dasharray:none;stroke-opacity:1"
       id="rect931"
       width="4.1612401"
       height="4.1612401"
       x="5.1379852"
       y="5.286047"
       ry="1.4861572" />
    <rect
       style="fill:#545454;fill-opacity:1;stroke:#545454;stroke-width:1.18893;stroke-miterlimit:10;stroke-dasharray:none;stroke-opacity:1"
       id="rect931-2"
       width="4.1612401"
       height="4.1612401"
       x="5.1379852"
       y="11.338759"
       ry="1.4861572" />
    <rect
       style="fill:#545454;fill-opacity:1;stroke:#545454;stroke-width:1.18893;stroke-miterlimit:10;stroke-dasharray:none;stroke-opacity:1"
       id="rect931-0"
       width="4.1612401"
       height="4.1612401"
       x="5.1379852"
       y="17.391472"
       ry="1.4861572" />
    <rect
       style="fill:#545454;fill-opacity:1;stroke:#545454;stroke-width:1.18893;stroke-miterlimit:10;stroke-dasharray:none;stroke-opacity:1"
       id="rect931-5"
       width="4.1612401"
       height="4.1612401"
       x="11.568993"
       y="5.286047"
       ry="1.4861572" />
    <rect
       style="fill:#545454;fill-opacity:1;stroke:#545454;stroke-width:1.18893;stroke-miterlimit:10;stroke-dasharray:none;stroke-opacity:1"
       id="rect931-2-5"
       width="4.1612401"
       height="4.1612401"
       x="11.568993"
       y="11.338759"
       ry="1.4861572" />
    <rect
       style="fill:#545454;fill-opacity:1;stroke:#545454;stroke-width:1.18893;stroke-miterlimit:10;stroke-dasharray:none;stroke-opacity:1"
       id="rect931-0-2"
       width="4.1612401"
       height="4.1612401"
       x="11.568993"
       y="17.391472"
       ry="1.4861572" />
    <rect
       style="fill:#545454;fill-opacity:1;stroke:#545454;stroke-width:1.18893;stroke-miterlimit:10;stroke-dasharray:none;stroke-opacity:1"
       id="rect931-9"
       width="4.1612401"
       height="4.1612401"
       x="18"
       y="5.286047"
       ry="1.4861572" />
    <rect
       style="fill:#545454;fill-opacity:1;stroke:#545454;stroke-width:1.18893;stroke-miterlimit:10;stroke-dasharray:none;stroke-opacity:1"
       id="rect931-2-0"
       width="4.1612401"
       height="4.1612401"
       x="18"
       y="11.338759"
       ry="1.4861572" />
    <rect
       style="fill:#545454;fill-opacity:1;stroke:#545454;stroke-width:1.18893;stroke-miterlimit:10;stroke-dasharray:none;stroke-opacity:1"
       id="rect931-0-28"
       width="4.1612401"
       height="4.1612401"
       x="18"
       y="17.391472"
       ry="1.4861572" />
  </g>
  <g
     id="layer1" />
  <g
     id="layer2">
    <g
       id="g905"
       transform="translate(-1,18)">
      <rect
         class="cls-2"
         x="1"
         y="-16"
         width="20.5"
         height="9"
         id="rect26645"
         style="fill:#1a81c4;stroke-width:0;stroke-miterlimit:10;stroke-dasharray:none" />
      <path
         class="cls-3"
         d="m 3.0692009,-9.0631 h -1.0733 v -1.0361 h 1.0733 z"
         id="path26647"
         style="fill:#ffffff" />
      <g
         aria-label="xyrs"
         id="text909"
         style="font-style:normal;font-variant:normal;font-weight:bold;font-stretch:normal;font-size:8px;line-height:1.25;font-family:'Noto Sans';-inkscape-font-specification:'Noto Sans, Bold';font-variant-ligatures:normal;font-variant-caps:normal;font-variant-numeric:normal;font-variant-east-asian:normal;letter-spacing:0px;word-spacing:0px;fill:#ffffff;fill-opacity:1;stroke:none">
        <path
           d="m 5.580039,-11.453505 -1.408,-2.136 h 1.352 l 0.848,1.392 0.856,-1.392 h 1.352 l -1.424,2.136 1.488,2.2319998 h -1.352 l -0.92,-1.4959998 -0.92,1.4959998 h -1.352 z"
           id="path20613" />
        <path
           d="m 8.684032,-13.589505 h 1.304 l 0.824,2.456 q 0.064,0.176 0.096,0.368 0.032,0.184 0.048,0.392 h 0.024 q 0.024,-0.208 0.064,-0.392 0.048,-0.192 0.104,-0.368 l 0.808,-2.456 h 1.28 l -1.848,4.9279998 q -0.248,0.68 -0.728,1.016 -0.472,0.344 -1.096,0.344 -0.2,0 -0.352,-0.024 -0.144,-0.016 -0.256,-0.04 v -0.944 q 0.088,0.016 0.208,0.032 0.128,0.016 0.264,0.016 0.376,0 0.592,-0.232 0.224,-0.224 0.328,-0.544 l 0.072,-0.216 z"
           id="path20615" />
        <path
           d="m 16.300019,-13.669505 q 0.088,0 0.208,0.008 0.12,0.008 0.192,0.024 l -0.088,1.12 q -0.056,-0.016 -0.168,-0.024 -0.104,-0.016 -0.184,-0.016 -0.304,0 -0.584,0.112 -0.28,0.104 -0.456,0.344 -0.168,0.24 -0.168,0.656 v 2.2239998 h -1.192 v -4.3679998 h 0.904 l 0.176,0.736 h 0.056 q 0.192,-0.336 0.528,-0.576 0.336,-0.24 0.776,-0.24 z"
           id="path20617" />
        <path
           d="m 20.540007,-10.517505 q 0,0.6639998 -0.472,1.0239998 -0.464,0.352 -1.392,0.352 -0.456,0 -0.784,-0.064 -0.328,-0.056 -0.656,-0.192 v -0.9839998 q 0.352,0.16 0.76,0.264 0.408,0.104 0.72,0.104 0.352,0 0.496,-0.104 0.152,-0.104 0.152,-0.272 0,-0.112 -0.064,-0.2 -0.056,-0.088 -0.256,-0.2 -0.2,-0.112 -0.624,-0.288 -0.408,-0.176 -0.672,-0.344 -0.264,-0.176 -0.392,-0.416 -0.128,-0.248 -0.128,-0.616 0,-0.608 0.472,-0.912 0.472,-0.304 1.256,-0.304 0.408,0 0.776,0.08 0.368,0.08 0.76,0.264 l -0.36,0.856 q -0.32,-0.136 -0.608,-0.224 -0.288,-0.096 -0.584,-0.096 -0.528,0 -0.528,0.288 0,0.104 0.064,0.192 0.072,0.08 0.264,0.176 0.2,0.096 0.584,0.256 0.376,0.152 0.648,0.32 0.272,0.16 0.416,0.408 0.152,0.24 0.152,0.632 z"
           id="path20619" />
      </g>
    </g>
  </g>
  <g
     id="g2645"
     transform="translate(-13,-0.25)">
    <path
       style="fill:none;stroke:#545454;stroke-width:0.666667;stroke-linecap:butt;stroke-linejoin:miter;stroke-miterlimit:4;stroke-dasharray:none;stroke-opacity:1"
       d="M 32,21.25 V 12.583333"
       id="path863" />
    <path
       style="fill:none;stroke:#545454;stroke-width:0.666667;stroke-linecap:butt;stroke-linejoin:miter;stroke-miterlimit:4;stroke-dasharray:none;stroke-opacity:1"
       d="M 32,21.25 V 12.583333"
       id="use2615" />
    <circle
       style="fill:none;stroke:#545454;stroke-width:1;stroke-linecap:round;stroke-linejoin:round;stroke-miterlimit:4;stroke-dasharray:none;stroke-opacity:1"
       id="use2617"
       cx="32"
       cy="17.25"
       r="2.3333333" />
    <path
       style="fill:none;stroke:#545454;stroke-width:0.666667;stroke-linecap:butt;stroke-linejoin:miter;stroke-miterlimit:4;stroke-dasharray:none;stroke-opacity:1"
       d="m 28,17.25 h 8"
       id="use2619" />
    <circle
       style="fill:none;stroke:#545454;stroke-width:1;stroke-linecap:round;stroke-linejoin:round;stroke-miterlimit:4;stroke-dasharray:none;stroke-opacity:1"
       id="path859"
       cx="32"
       cy="17.25"
       r="2.3333333" />
    <path
       style="fill:none;stroke:#545454;stroke-width:0.666667;stroke-linecap:butt;stroke-linejoin:miter;stroke-miterlimit:4;stroke-dasharray:none;stroke-opacity:1"
       d="m 28,17.25 h 8"
       id="path861" />
    <path
       style="fill:none;stroke:#545454;stroke-width:0.666667;stroke-linecap:butt;stroke-linejoin:miter;stroke-miterlimit:4;stroke-dasharray:none;stroke-opacity:1"
       d="M 32,21.25 V 12.583333"
       id="path2603" />
    <circle
       style="fill:none;stroke:#545454;stroke-width:1;stroke-linecap:round;stroke-linejoin:round;stroke-miterlimit:4;stroke-dasharray:none;stroke-opacity:1"
       id="circle2605"
       cx="32"
       cy="17.25"
       r="2.3333333" />
    <path
       style="fill:none;stroke:#545454;stroke-width:0.666667;stroke-linecap:butt;stroke-linejoin:miter;stroke-miterlimit:4;stroke-dasharray:none;stroke-opacity:1"
       d="m 28,17.25 h 8"
       id="path2607" />
    <use
       x="0"
       y="0"
       xlink:href="#path2603"
       id="use2609"
       width="100%"
       height="100%" />
    <use
       x="0"
       y="0"
       xlink:href="#circle2605"
       id="use2611"
       width="100%"
       height="100%" />
    <use
       x="0"
       y="0"
       xlink:href="#path2607"
       id="use2613"
       width="100%"
       height="100%" />
  </g>
</svg>
