<?xml version="1.0" encoding="UTF-8" standalone="no"?>
<svg
   xmlns:dc="http://purl.org/dc/elements/1.1/"
   xmlns:cc="http://creativecommons.org/ns#"
   xmlns:rdf="http://www.w3.org/1999/02/22-rdf-syntax-ns#"
   xmlns:svg="http://www.w3.org/2000/svg"
   xmlns="http://www.w3.org/2000/svg"
   id="Слой_1"
   data-name="Слой 1"
   viewBox="0 0 24 24"
   version="1.1">
  <metadata
     id="metadata43">
    <rdf:RDF>
      <cc:Work
         rdf:about="">
        <cc:license
           rdf:resource="http://creativecommons.org/licenses/by-sa/4.0/" />
        <dc:format>image/svg+xml</dc:format>
        <dc:type
           rdf:resource="http://purl.org/dc/dcmitype/StillImage" />
        <dc:title>export_footprint_names</dc:title>
      </cc:Work>
      <cc:License
         rdf:about="http://creativecommons.org/licenses/by-sa/4.0/">
        <cc:permits
           rdf:resource="http://creativecommons.org/ns#Reproduction" />
        <cc:permits
           rdf:resource="http://creativecommons.org/ns#Distribution" />
        <cc:requires
           rdf:resource="http://creativecommons.org/ns#Notice" />
        <cc:requires
           rdf:resource="http://creativecommons.org/ns#Attribution" />
        <cc:permits
           rdf:resource="http://creativecommons.org/ns#DerivativeWorks" />
        <cc:requires
           rdf:resource="http://creativecommons.org/ns#ShareAlike" />
      </cc:License>
    </rdf:RDF>
  </metadata>
  <defs
     id="defs24723">
    <style
       id="style24721">.cls-1{fill:#b9b9b9;}.cls-2,.cls-4{fill:none;stroke-linecap:round;stroke-width:2px;}.cls-2{stroke:#545454;stroke-miterlimit:10;}.cls-3{fill:#bf2641;}.cls-4{stroke:#f5f5f5;stroke-linejoin:round;}</style>
  </defs>
  <title
     id="title24725">export_footprint_names</title>
  <path
     class="cls-1"
     d="m 6.5,0 h 13.9816 a 3.4978,4.0043896 0 0 1 3.4978,4.0043896 V 20.03351 A 3.4978,4.0043896 0 0 1 20.4816,24.0379 H 6.4999 A 3.4978,4.0043896 0 0 1 3.0021,20.03351 V 4.0045041 A 3.4979,4.0045041 0 0 1 6.5,0 Z"
     id="path24727"
     style="stroke-width:1.06997" />
  <g
     id="g1014">
    <rect
       style="fill:#545454;fill-opacity:1;stroke:#545454;stroke-width:1.18893;stroke-miterlimit:10;stroke-dasharray:none;stroke-opacity:1"
       id="rect931"
       width="4.1612401"
       height="4.1612401"
       x="5.1379852"
       y="5.286047"
       ry="1.4861572" />
    <rect
       style="fill:#545454;fill-opacity:1;stroke:#545454;stroke-width:1.18893;stroke-miterlimit:10;stroke-dasharray:none;stroke-opacity:1"
       id="rect931-2"
       width="4.1612401"
       height="4.1612401"
       x="5.1379852"
       y="11.338759"
       ry="1.4861572" />
    <rect
       style="fill:#545454;fill-opacity:1;stroke:#545454;stroke-width:1.18893;stroke-miterlimit:10;stroke-dasharray:none;stroke-opacity:1"
       id="rect931-0"
       width="4.1612401"
       height="4.1612401"
       x="5.1379852"
       y="17.391472"
       ry="1.4861572" />
    <rect
       style="fill:#545454;fill-opacity:1;stroke:#545454;stroke-width:1.18893;stroke-miterlimit:10;stroke-dasharray:none;stroke-opacity:1"
       id="rect931-5"
       width="4.1612401"
       height="4.1612401"
       x="11.568993"
       y="5.286047"
       ry="1.4861572" />
    <rect
       style="fill:#545454;fill-opacity:1;stroke:#545454;stroke-width:1.18893;stroke-miterlimit:10;stroke-dasharray:none;stroke-opacity:1"
       id="rect931-2-5"
       width="4.1612401"
       height="4.1612401"
       x="11.568993"
       y="11.338759"
       ry="1.4861572" />
    <rect
       style="fill:#545454;fill-opacity:1;stroke:#545454;stroke-width:1.18893;stroke-miterlimit:10;stroke-dasharray:none;stroke-opacity:1"
       id="rect931-0-2"
       width="4.1612401"
       height="4.1612401"
       x="11.568993"
       y="17.391472"
       ry="1.4861572" />
    <rect
       style="fill:#545454;fill-opacity:1;stroke:#545454;stroke-width:1.18893;stroke-miterlimit:10;stroke-dasharray:none;stroke-opacity:1"
       id="rect931-9"
       width="4.1612401"
       height="4.1612401"
       x="18"
       y="5.286047"
       ry="1.4861572" />
    <rect
       style="fill:#545454;fill-opacity:1;stroke:#545454;stroke-width:1.18893;stroke-miterlimit:10;stroke-dasharray:none;stroke-opacity:1"
       id="rect931-2-0"
       width="4.1612401"
       height="4.1612401"
       x="18"
       y="11.338759"
       ry="1.4861572" />
    <rect
       style="fill:#545454;fill-opacity:1;stroke:#545454;stroke-width:1.18893;stroke-miterlimit:10;stroke-dasharray:none;stroke-opacity:1"
       id="rect931-0-28"
       width="4.1612401"
       height="4.1612401"
       x="18"
       y="17.391472"
       ry="1.4861572" />
  </g>
  <g
     id="layer1" />
  <g
     id="layer2">
    <g
       id="g905"
       transform="translate(-1,18)">
      <rect
         class="cls-2"
         x="1"
         y="-16"
         width="20"
         height="9"
         id="rect26645"
         style="fill:#1a81c4;stroke-width:0;stroke-miterlimit:10;stroke-dasharray:none" />
      <path
         class="cls-3"
         d="m 3.0692009,-9.0631 h -1.0733 v -1.0361 h 1.0733 z"
         id="path26647"
         style="fill:#ffffff" />
      <g
         aria-label="xlsx"
         id="text909"
         style="font-style:normal;font-variant:normal;font-weight:bold;font-stretch:normal;font-size:8px;line-height:1.25;font-family:'Noto Sans';-inkscape-font-specification:'Noto Sans, Bold';font-variant-ligatures:normal;font-variant-caps:normal;font-variant-numeric:normal;font-variant-east-asian:normal;letter-spacing:0px;word-spacing:0px;fill:#ffffff;fill-opacity:1;stroke:none">
        <path
           d="m 5.580039,-11.453505 -1.408,-2.136 h 1.352 l 0.848,1.392 0.856,-1.392 h 1.352 l -1.424,2.136 1.488,2.2319998 h -1.352 l -0.92,-1.4959998 -0.92,1.4959998 h -1.352 z"
           id="path19195" />
        <path
           d="m 10.500032,-9.2215052 h -1.192 v -6.0799998 h 1.192 z"
           id="path19197" />
        <path
           d="m 14.796019,-10.517505 q 0,0.6639998 -0.472,1.0239998 -0.464,0.352 -1.392,0.352 -0.456,0 -0.784,-0.064 -0.328,-0.056 -0.656,-0.192 v -0.9839998 q 0.352,0.16 0.76,0.264 0.408,0.104 0.72,0.104 0.352,0 0.496,-0.104 0.152,-0.104 0.152,-0.272 0,-0.112 -0.064,-0.2 -0.056,-0.088 -0.256,-0.2 -0.2,-0.112 -0.624,-0.288 -0.408,-0.176 -0.672,-0.344 -0.264,-0.176 -0.392,-0.416 -0.128,-0.248 -0.128,-0.616 0,-0.608 0.472,-0.912 0.472,-0.304 1.256,-0.304 0.408,0 0.776,0.08 0.368,0.08 0.76,0.264 l -0.36,0.856 q -0.32,-0.136 -0.608,-0.224 -0.288,-0.096 -0.584,-0.096 -0.528,0 -0.528,0.288 0,0.104 0.064,0.192 0.072,0.08 0.264,0.176 0.2,0.096 0.584,0.256 0.376,0.152 0.648,0.32 0.272,0.16 0.416,0.408 0.152,0.24 0.152,0.632 z"
           id="path19199" />
        <path
           d="m 16.620017,-11.453505 -1.408,-2.136 h 1.352 l 0.848,1.392 0.856,-1.392 h 1.352 l -1.424,2.136 1.488,2.2319998 h -1.352 l -0.92,-1.4959998 -0.92,1.4959998 h -1.352 z"
           id="path19201" />
      </g>
    </g>
  </g>
</svg>
