<?xml version="1.0" encoding="UTF-8" standalone="no"?>
<svg
   xmlns:dc="http://purl.org/dc/elements/1.1/"
   xmlns:cc="http://creativecommons.org/ns#"
   xmlns:rdf="http://www.w3.org/1999/02/22-rdf-syntax-ns#"
   xmlns:svg="http://www.w3.org/2000/svg"
   xmlns="http://www.w3.org/2000/svg"
   id="Слой_1"
   data-name="Слой 1"
   viewBox="0 0 16 17"
   version="1.1"
   width="16"
   height="17">
  <metadata
     id="metadata43">
    <rdf:RDF>
      <cc:Work
         rdf:about="">
        <cc:license
           rdf:resource="http://creativecommons.org/licenses/by-sa/4.0/" />
        <dc:format>image/svg+xml</dc:format>
        <dc:type
           rdf:resource="http://purl.org/dc/dcmitype/StillImage" />
        <dc:title>zip</dc:title>
      </cc:Work>
      <cc:License
         rdf:about="http://creativecommons.org/licenses/by-sa/4.0/">
        <cc:permits
           rdf:resource="http://creativecommons.org/ns#Reproduction" />
        <cc:permits
           rdf:resource="http://creativecommons.org/ns#Distribution" />
        <cc:requires
           rdf:resource="http://creativecommons.org/ns#Notice" />
        <cc:requires
           rdf:resource="http://creativecommons.org/ns#Attribution" />
        <cc:permits
           rdf:resource="http://creativecommons.org/ns#DerivativeWorks" />
        <cc:requires
           rdf:resource="http://creativecommons.org/ns#ShareAlike" />
      </cc:License>
    </rdf:RDF>
  </metadata>
  <defs
     id="defs27736">
    <style
       id="style27734">.cls-1{fill:#545454;}.cls-2{fill:#e49435;}.cls-3{fill:#9e9e9e;}.cls-4{fill:#b9b9b9;}</style>
  </defs>
  <title
     id="title27738">zip</title>
  <polygon
     class="cls-1"
     points="12.883,10.331 24,5.82 23.989,20.14 12.883,25 "
     id="polygon27740"
     transform="matrix(0.72727273,0,0,0.70833333,-1.4545455,-0.70833333)"
     style="stroke-width:1.39326" />
  <polygon
     class="cls-2"
     points="12.883,10.05 2,5.46 2,20.084 12.883,25 "
     id="polygon27742"
     transform="matrix(0.72727273,0,0,0.70833333,-1.4545455,-0.70833333)"
     style="stroke-width:1.39326" />
  <polygon
     class="cls-3"
     points="12.894,10.41 23.761,5.92 24,5.82 17.927,3.3 7.369,7.895 "
     id="polygon27744"
     transform="matrix(0.72727273,0,0,0.70833333,-1.4545455,-0.70833333)"
     style="stroke-width:1.39326" />
  <polygon
     class="cls-4"
     points="12.384,1 2,5.46 7.369,7.895 17.927,3.3 "
     id="polygon27746"
     transform="matrix(0.72727273,0,0,0.70833333,-1.4545455,-0.70833333)"
     style="stroke-width:1.39326" />
  <g
     id="g5473"
     transform="translate(2.9364447,1.5574999)">
    <rect
       class="cls-2"
       x="0"
       y="6.5"
       width="10.555555"
       height="6.5"
       id="rect27311"
       style="fill:#1a81c4;stroke-width:0.633429" />
    <path
       class="cls-3"
       d="M 1.158115,11 H 0.56205953 V 10.408651 H 1.158115 Z"
       id="path27313"
       style="fill:#ffffff;stroke-width:0.555556" />
    <g
       aria-label="zip"
       id="text4813"
       style="font-style:normal;font-variant:normal;font-weight:bold;font-stretch:normal;font-size:5.33333px;line-height:1.25;font-family:'Noto Sans';-inkscape-font-specification:'Noto Sans, Bold';font-variant-ligatures:normal;font-variant-caps:normal;font-variant-numeric:normal;font-variant-east-asian:normal;letter-spacing:0px;word-spacing:0px;fill:#ffffff;fill-opacity:1;stroke:none">
      <path
         d="M 4.3417096,11.011206 H 2.0430443 V 10.541873 L 3.3923768,8.707207 H 2.1230443 V 8.0992074 h 2.1706653 v 0.517333 L 2.9817104,10.403206 h 1.3599992 z"
         id="path4077" />
      <path
         d="m 5.3177034,6.9578748 q 0.1759999,0 0.3039998,0.085333 0.1279999,0.08 0.1279999,0.3039999 0,0.2186665 -0.1279999,0.3039998 -0.1279999,0.085333 -0.3039998,0.085333 -0.1813333,0 -0.3093332,-0.085333 -0.1226666,-0.085333 -0.1226666,-0.3039998 0,-0.2239999 0.1226666,-0.3039999 0.1279999,-0.085333 0.3093332,-0.085333 z M 5.7123698,8.0992074 V 11.011206 H 4.9177036 V 8.0992074 Z"
         id="path4079" />
      <path
         d="m 8.1656932,8.0458741 q 0.4906664,0 0.7946662,0.3839998 0.3039998,0.3786664 0.3039998,1.1199993 0,0.7413328 -0.3146664,1.1306658 -0.3146665,0.384 -0.8053329,0.384 -0.3146665,0 -0.501333,-0.112 -0.1866666,-0.117333 -0.3039998,-0.261333 h -0.042667 q 0.042667,0.224 0.042667,0.426666 v 1.173333 H 6.5443609 V 8.0992074 h 0.6453329 l 0.1119999,0.3786664 h 0.037333 Q 7.4563603,8.301874 7.6536935,8.173874 7.8510267,8.0458741 8.1656932,8.0458741 Z M 7.9096934,8.6805404 q -0.3093332,0 -0.4373331,0.1919999 -0.1226666,0.1919999 -0.1333332,0.5866663 v 0.085333 q 0,0.4213331 0.1226665,0.6506661 0.128,0.224 0.4586664,0.224 0.2719999,0 0.3999998,-0.224 0.1333333,-0.229333 0.1333333,-0.6559994 0,-0.8586662 -0.5439997,-0.8586662 z"
         id="path4081" />
    </g>
  </g>
</svg>
