<?xml version="1.0" encoding="UTF-8" standalone="no"?>
<svg
   xmlns:dc="http://purl.org/dc/elements/1.1/"
   xmlns:cc="http://creativecommons.org/ns#"
   xmlns:rdf="http://www.w3.org/1999/02/22-rdf-syntax-ns#"
   xmlns:svg="http://www.w3.org/2000/svg"
   xmlns="http://www.w3.org/2000/svg"
   id="Слой_1"
   data-name="Слой 1"
   viewBox="0 0 24 24"
   version="1.1">
  <metadata
     id="metadata43">
    <rdf:RDF>
      <cc:Work
         rdf:about="">
        <cc:license
           rdf:resource="http://creativecommons.org/licenses/by-sa/4.0/" />
        <dc:format>image/svg+xml</dc:format>
        <dc:type
           rdf:resource="http://purl.org/dc/dcmitype/StillImage" />
        <dc:title>svg_file</dc:title>
      </cc:Work>
      <cc:License
         rdf:about="http://creativecommons.org/licenses/by-sa/4.0/">
        <cc:permits
           rdf:resource="http://creativecommons.org/ns#Reproduction" />
        <cc:permits
           rdf:resource="http://creativecommons.org/ns#Distribution" />
        <cc:requires
           rdf:resource="http://creativecommons.org/ns#Notice" />
        <cc:requires
           rdf:resource="http://creativecommons.org/ns#Attribution" />
        <cc:permits
           rdf:resource="http://creativecommons.org/ns#DerivativeWorks" />
        <cc:requires
           rdf:resource="http://creativecommons.org/ns#ShareAlike" />
      </cc:License>
    </rdf:RDF>
  </metadata>
  <defs
     id="defs27305">
    <style
       id="style27303">.cls-1{fill:#b9b9b9;}.cls-2{fill:#1a81c4;}.cls-3{fill:#fff;}</style>
  </defs>
  <title
     id="title27307">svg_file</title>
  <rect
     class="cls-1"
     x="3"
     y="0"
     width="21"
     height="24"
     rx="3.5044518"
     id="rect27309"
     style="stroke-width:0.999998" />
  <g
     id="layer3">
    <path
       class="st1"
       d="M 9.1640628,9.109375 4.558594,18.882812 5.4375002,19.761719 11.167969,14.03125 c -0.210937,-0.457031 -0.140625,-1.019531 0.246094,-1.40625 0.492187,-0.492188 1.265625,-0.492188 1.757812,0 0.492188,0.492187 0.492188,1.265625 0,1.757812 -0.386718,0.386719 -0.949218,0.457032 -1.40625,0.246094 L 6.0351565,20.324219 6.9140627,21.203125 16.6875,16.597656 18.761719,10.761719 15,7 Z M 22.558594,7.949219 17.8125,3.203125 c -0.386719,-0.386719 -1.019531,-0.386719 -1.40625,0 l -1.125,1.125 c -0.386718,0.386719 -0.386718,1.019531 0,1.40625 l 4.746094,4.746094 c 0.386719,0.386718 1.019531,0.386718 1.40625,0 l 1.125,-1.125 c 0.386719,-0.386719 0.386719,-1.019532 0,-1.40625 z"
       id="path8"
       style="display:inline;fill:#545454;fill-opacity:1;stroke-width:0.351562" />
  </g>
  <g
     id="layer4"
     style="display:inline">
    <rect
       class="cls-2"
       x="0"
       y="2"
       width="14"
       height="9"
       id="rect27311"
       style="stroke-width:0.858393" />
    <path
       class="cls-3"
       d="M 2.0688,7.9416479 H 0.99590004 V 6.8772203 H 2.0688 Z"
       id="path27313"
       style="stroke-width:1" />
    <g
       aria-label="ps"
       id="text909"
       style="font-style:normal;font-variant:normal;font-weight:bold;font-stretch:normal;font-size:8px;line-height:1.25;font-family:'Noto Sans';-inkscape-font-specification:'Noto Sans, Bold';font-variant-ligatures:normal;font-variant-caps:normal;font-variant-numeric:normal;font-variant-east-asian:normal;letter-spacing:0px;word-spacing:0px;fill:#ffffff;fill-opacity:1;stroke:none">
      <path
         d="m 6.1986811,3.5996418 q 0.736,0 1.192,0.576 0.456,0.568 0.456,1.68 0,1.112 -0.472,1.696 -0.472,0.576 -1.208,0.576 -0.472,0 -0.752,-0.168 -0.28,-0.176 -0.456,-0.392 h -0.064 q 0.064,0.336 0.064,0.64 v 1.76 h -1.192 v -6.288 h 0.968 l 0.168,0.568 h 0.056 q 0.176,-0.264 0.472,-0.456 0.296,-0.192 0.768,-0.192 z m -0.384,0.952 q -0.464,0 -0.656,0.288 -0.184,0.288 -0.2,0.88 v 0.128 q 0,0.632 0.184,0.976 0.192,0.336 0.688,0.336 0.408,0 0.6,-0.336 0.2,-0.344 0.2,-0.984 0,-1.288 -0.816,-1.288 z"
         id="path15677" />
      <path
         d="m 11.878676,6.7516418 q 0,0.664 -0.472,1.024 -0.464,0.352 -1.392,0.352 -0.4559995,0 -0.7839995,-0.064 -0.328,-0.056 -0.656,-0.192 v -0.984 q 0.352,0.16 0.76,0.264 0.408,0.104 0.7199995,0.104 0.352,0 0.496,-0.104 0.152,-0.104 0.152,-0.272 0,-0.112 -0.064,-0.2 -0.056,-0.088 -0.256,-0.2 -0.2,-0.112 -0.6239995,-0.288 -0.408,-0.176 -0.672,-0.344 -0.264,-0.176 -0.392,-0.416 -0.128,-0.248 -0.128,-0.616 0,-0.608 0.472,-0.912 0.472,-0.304 1.2559995,-0.304 0.408,0 0.776,0.08 0.368,0.08 0.76,0.264 l -0.36,0.856 q -0.32,-0.136 -0.608,-0.224 -0.288,-0.096 -0.584,-0.096 -0.5279995,0 -0.5279995,0.288 0,0.104 0.064,0.192 0.072,0.08 0.2639995,0.176 0.2,0.096 0.584,0.256 0.376,0.152 0.648,0.32 0.272,0.16 0.416,0.408 0.152,0.24 0.152,0.632 z"
         id="path15679" />
    </g>
  </g>
</svg>
