<?xml version="1.0" encoding="UTF-8" standalone="no"?>
<svg
   xmlns:dc="http://purl.org/dc/elements/1.1/"
   xmlns:cc="http://creativecommons.org/ns#"
   xmlns:rdf="http://www.w3.org/1999/02/22-rdf-syntax-ns#"
   xmlns:svg="http://www.w3.org/2000/svg"
   xmlns="http://www.w3.org/2000/svg"
   id="Слой_1"
   data-name="Слой 1"
   viewBox="0 0 24 24"
   version="1.1">
  <metadata
     id="metadata43">
    <rdf:RDF>
      <cc:Work
         rdf:about="">
        <cc:license
           rdf:resource="http://creativecommons.org/licenses/by-sa/4.0/" />
        <dc:format>image/svg+xml</dc:format>
        <dc:type
           rdf:resource="http://purl.org/dc/dcmitype/StillImage" />
        <dc:title>post_gerber</dc:title>
      </cc:Work>
      <cc:License
         rdf:about="http://creativecommons.org/licenses/by-sa/4.0/">
        <cc:permits
           rdf:resource="http://creativecommons.org/ns#Reproduction" />
        <cc:permits
           rdf:resource="http://creativecommons.org/ns#Distribution" />
        <cc:requires
           rdf:resource="http://creativecommons.org/ns#Notice" />
        <cc:requires
           rdf:resource="http://creativecommons.org/ns#Attribution" />
        <cc:permits
           rdf:resource="http://creativecommons.org/ns#DerivativeWorks" />
        <cc:requires
           rdf:resource="http://creativecommons.org/ns#ShareAlike" />
      </cc:License>
    </rdf:RDF>
  </metadata>
  <defs
     id="defs26639">
    <style
       id="style26637">.cls-1{fill:#b9b9b9;}.cls-2{fill:#1a81c4;}.cls-3{fill:#fff;}.cls-4{fill:#bf2641;}.cls-5{fill:none;stroke:#f5f5f5;stroke-linecap:round;stroke-linejoin:round;stroke-width:2px;}</style>
    <clipPath
       clipPathUnits="userSpaceOnUse"
       id="clipPath935">
      <rect
         class="cls-1"
         x="3.0000002"
         y="0"
         width="21"
         height="24"
         rx="3.5045271"
         id="rect937"
         style="stroke-width:1" />
    </clipPath>
  </defs>
  <title
     id="title26641">post_gerber</title>
  <rect
     class="cls-1"
     x="3.0000002"
     y="0"
     width="21"
     height="24"
     rx="3.5045271"
     id="rect26643"
     style="stroke-width:1" />
  <g
     id="g966"
     transform="translate(0,1)">
    <path
       style="fill:none;stroke:#545454;stroke-width:1px;stroke-linecap:butt;stroke-linejoin:miter;stroke-opacity:1"
       d="M 13,20 V 7 L 7,17 Z"
       id="path922" />
    <path
       style="fill:none;stroke:#545454;stroke-width:1px;stroke-linecap:butt;stroke-linejoin:miter;stroke-opacity:1"
       d="M 14,20 V 7 l 6,10 z"
       id="path922-7" />
  </g>
  <rect
     class="cls-2"
     x="0"
     y="2"
     width="17.5"
     height="9"
     id="rect26645"
     style="stroke-width:0.959713" />
  <path
     class="cls-3"
     d="M 2.0692,8.9369001 H 0.99590001 v -1.0361 H 2.0692 Z"
     id="path26647" />
  <text
     xml:space="preserve"
     style="font-style:normal;font-weight:normal;font-size:40px;line-height:1.25;font-family:sans-serif;letter-spacing:0px;word-spacing:0px;fill:#000000;fill-opacity:1;stroke:none"
     x="3.5"
     y="5"
     id="text855"><tspan
       id="tspan853"
       x="3.5"
       y="5" /></text>
  <g
     aria-label="dxf"
     id="text859"
     style="font-style:normal;font-variant:normal;font-weight:bold;font-stretch:normal;font-size:8px;line-height:1.25;font-family:'Noto Sans';-inkscape-font-specification:'Noto Sans, Bold';font-variant-ligatures:normal;font-variant-caps:normal;font-variant-numeric:normal;font-variant-east-asian:normal;letter-spacing:0px;word-spacing:0px;fill:#ffffff;fill-opacity:1;stroke:none">
    <path
       d="m 5.0582629,9.2532826 q -0.728,0 -1.192,-0.568 -0.456,-0.576 -0.456,-1.688 0,-1.12 0.464,-1.696 0.464,-0.576 1.216,-0.576 0.472,0 0.776,0.184 0.304,0.184 0.48,0.456 h 0.04 q -0.024,-0.128 -0.056,-0.368 -0.032,-0.248 -0.032,-0.504 v -1.4 h 1.192 v 6.08 h -0.912 l -0.232,-0.568 h -0.048 q -0.176,0.272 -0.472,0.464 -0.296,0.184 -0.768,0.184 z m 0.416,-0.952 q 0.496,0 0.696,-0.288 0.2,-0.296 0.208,-0.88 v -0.128 q 0,-0.64 -0.2,-0.976 -0.192,-0.336 -0.72,-0.336 -0.392,0 -0.616,0.344 -0.224,0.336 -0.224,0.976 0,0.64 0.224,0.968 0.224,0.32 0.632,0.32 z"
       id="path8551" />
    <path
       d="m 9.6342583,6.9412826 -1.408,-2.136 h 1.352 l 0.8479997,1.392 0.856,-1.392 h 1.352 l -1.424,2.136 1.488,2.232 h -1.352 l -0.92,-1.496 -0.9199997,1.496 h -1.352 z"
       id="path8553" />
    <path
       d="m 15.778251,5.7012826 h -1.032 v 3.472 h -1.192 v -3.472 h -0.656 v -0.576 l 0.656,-0.32 v -0.32 q 0,-0.56 0.184,-0.864 0.192,-0.312 0.536,-0.44 0.352,-0.128 0.824,-0.128 0.352,0 0.632,0.056 0.288,0.056 0.464,0.128 l -0.304,0.872 q -0.136,-0.04 -0.296,-0.072 -0.16,-0.04 -0.368,-0.04 -0.248,0 -0.368,0.152 -0.112,0.152 -0.112,0.384 v 0.272 h 1.032 z"
       id="path8555" />
  </g>
</svg>
