<?xml version="1.0" encoding="UTF-8" standalone="no"?>
<svg
   xmlns:dc="http://purl.org/dc/elements/1.1/"
   xmlns:cc="http://creativecommons.org/ns#"
   xmlns:rdf="http://www.w3.org/1999/02/22-rdf-syntax-ns#"
   xmlns:svg="http://www.w3.org/2000/svg"
   xmlns="http://www.w3.org/2000/svg"
   id="Слой_1"
   data-name="Слой 1"
   viewBox="0 0 20.0389 19.999857"
   version="1.1"
   width="20.0389"
   height="19.999857">
  <metadata
     id="metadata43">
    <rdf:RDF>
      <cc:Work
         rdf:about="">
        <cc:license
           rdf:resource="http://creativecommons.org/licenses/by-sa/4.0/" />
        <dc:format>image/svg+xml</dc:format>
        <dc:type
           rdf:resource="http://purl.org/dc/dcmitype/StillImage" />
        <dc:title>options_generic</dc:title>
      </cc:Work>
      <cc:License
         rdf:about="http://creativecommons.org/licenses/by-sa/4.0/">
        <cc:permits
           rdf:resource="http://creativecommons.org/ns#Reproduction" />
        <cc:permits
           rdf:resource="http://creativecommons.org/ns#Distribution" />
        <cc:requires
           rdf:resource="http://creativecommons.org/ns#Notice" />
        <cc:requires
           rdf:resource="http://creativecommons.org/ns#Attribution" />
        <cc:permits
           rdf:resource="http://creativecommons.org/ns#DerivativeWorks" />
        <cc:requires
           rdf:resource="http://creativecommons.org/ns#ShareAlike" />
      </cc:License>
    </rdf:RDF>
  </metadata>
  <defs
     id="defs26095">
    <style
       id="style26093">.cls-1{fill:#8f8f8f;}.cls-2{fill:#42B8EB;}</style>
  </defs>
  <title
     id="title26097">options_generic</title>
  <path
     class="cls-2"
     d="M 0.64428577,16.44059 11.319986,5.7807901 a 4.0842,4.0842 0 0 1 0.0472,-2.8155 c 0.936,-2.30719997 3.1741,-3.19779997 5.5343,-2.91439997 l -2.6043,2.63119997 0.5333,2.3491 2.4241,0.6133 2.7144,-2.5185 a 4.93,4.93 0 0 1 -3.0781,5.424 4.0486,4.0486 0 0 1 -2.54,0.0606 L 3.5063858,19.43059 a 2.0833,2.0833 0 0 1 -2.93420003,-0.0716 2.0566,2.0566 0 0 1 0.0721,-2.9184 z m 1.15000003,2.6823 a 0.8618,0.8618 0 1 0 -0.86630003,-0.8619 0.864,0.864 0 0 0 0.86640003,0.8619 z"
     id="path26101"
     style="fill:#545454;fill-opacity:1" />
</svg>
