<?xml version="1.0" standalone="no"?>
 <!DOCTYPE svg PUBLIC "-//W3C//DTD SVG 1.1//EN" 
 "http://www.w3.org/Graphics/SVG/1.1/DTD/svg11.dtd"> 
<svg
  xmlns:svg="http://www.w3.org/2000/svg"
  xmlns="http://www.w3.org/2000/svg"
  xmlns:xlink="http://www.w3.org/1999/xlink"
  version="1.1"
  width="29.700220cm" height="21.000720cm" viewBox="0 0 116930 82680">
<title>SVG Picture created as Top_Level.svg date 2022/11/25 15:14:00 </title>
  <desc>Picture generated by Eeschema-SVG </desc>
<g style="fill:#000000; fill-opacity:1.000000;stroke:#000000; stroke-opacity:1.000000;
stroke-linecap:round; stroke-linejoin:round;"
 transform="translate(0 0) scale(1 1)">
</g>
<g style="fill:#840000; fill-opacity:0.0; 
stroke:#840000; stroke-width:0.000000; stroke-opacity:1; 
stroke-linecap:round; stroke-linejoin:round;">
</g>
<g style="fill:#840000; fill-opacity:0.0; 
stroke:#840000; stroke-width:60.000000; stroke-opacity:1; 
stroke-linecap:round; stroke-linejoin:round;">
<rect x="69685.905512" y="65357.165354" width="42519.685039" height="12598.425197" rx="0.000000" />
<rect x="3937.007874" y="3937.007874" width="109055.984252" height="74805.984252" rx="0.000000" />
<rect x="4724.409449" y="4724.409449" width="107481.181102" height="73231.181102" rx="0.000000" />
<path d="M23622 4724
L23622 3937
" />
<path d="M43307 4724
L43307 3937
" />
<path d="M62992 4724
L62992 3937
" />
<path d="M82677 4724
L82677 3937
" />
<path d="M102362 4724
L102362 3937
" />
<text x="13779.527559" y="4586.614173"
textLength="549.960630" font-size="682.401575" lengthAdjust="spacingAndGlyphs"
text-anchor="start" opacity="0">1</text>
<g class="stroked-text"><desc>1</desc>
<path d="M14199 4562
L13907 4562
" />
<path d="M14053 4562
L14053 4050
L14004 4123
L13955 4172
L13907 4196
" />
</g><text x="33464.566929" y="4586.614173"
textLength="547.440945" font-size="682.401575" lengthAdjust="spacingAndGlyphs"
text-anchor="start" opacity="0">2</text>
<g class="stroked-text"><desc>2</desc>
<path d="M33592 4099
L33616 4074
L33665 4050
L33787 4050
L33835 4074
L33860 4099
L33884 4147
L33884 4196
L33860 4269
L33567 4562
L33884 4562
" />
</g><text x="53149.606299" y="4586.614173"
textLength="547.440945" font-size="682.401575" lengthAdjust="spacingAndGlyphs"
text-anchor="start" opacity="0">3</text>
<g class="stroked-text"><desc>3</desc>
<path d="M53252 4050
L53569 4050
L53398 4245
L53472 4245
L53520 4269
L53545 4294
L53569 4342
L53569 4464
L53545 4513
L53520 4537
L53472 4562
L53325 4562
L53277 4537
L53252 4513
" />
</g><text x="72834.645669" y="4586.614173"
textLength="547.440945" font-size="682.401575" lengthAdjust="spacingAndGlyphs"
text-anchor="start" opacity="0">4</text>
<g class="stroked-text"><desc>4</desc>
<path d="M73205 4221
L73205 4562
" />
<path d="M73083 4026
L72962 4391
L73278 4391
" />
</g><text x="92519.685039" y="4586.614173"
textLength="547.440945" font-size="682.401575" lengthAdjust="spacingAndGlyphs"
text-anchor="start" opacity="0">5</text>
<g class="stroked-text"><desc>5</desc>
<path d="M92915 4050
L92671 4050
L92647 4294
L92671 4269
L92720 4245
L92842 4245
L92890 4269
L92915 4294
L92939 4342
L92939 4464
L92915 4513
L92890 4537
L92842 4562
L92720 4562
L92671 4537
L92647 4513
" />
</g><text x="112204.724409" y="4586.614173"
textLength="547.440945" font-size="682.401575" lengthAdjust="spacingAndGlyphs"
text-anchor="start" opacity="0">6</text>
<g class="stroked-text"><desc>6</desc>
<path d="M112575 4050
L112478 4050
L112429 4074
L112405 4099
L112356 4172
L112332 4269
L112332 4464
L112356 4513
L112380 4537
L112429 4562
L112527 4562
L112575 4537
L112600 4513
L112624 4464
L112624 4342
L112600 4294
L112575 4269
L112527 4245
L112429 4245
L112380 4269
L112356 4294
L112332 4342
" />
</g><path d="M23622 77955
L23622 78742
" />
<path d="M43307 77955
L43307 78742
" />
<path d="M62992 77955
L62992 78742
" />
<path d="M82677 77955
L82677 78742
" />
<path d="M102362 77955
L102362 78742
" />
<text x="13779.527559" y="78605.196850"
textLength="547.440945" font-size="682.401575" lengthAdjust="spacingAndGlyphs"
text-anchor="start" opacity="0">1</text>
<g class="stroked-text"><desc>1</desc>
<path d="M14199 78580
L13907 78580
" />
<path d="M14053 78580
L14053 78068
L14004 78142
L13955 78190
L13907 78215
" />
</g><text x="33464.566929" y="78605.196850"
textLength="547.440945" font-size="682.401575" lengthAdjust="spacingAndGlyphs"
text-anchor="start" opacity="0">2</text>
<g class="stroked-text"><desc>2</desc>
<path d="M33592 78117
L33616 78093
L33665 78068
L33787 78068
L33835 78093
L33860 78117
L33884 78166
L33884 78215
L33860 78288
L33567 78580
L33884 78580
" />
</g><text x="53149.606299" y="78605.196850"
textLength="547.440945" font-size="682.401575" lengthAdjust="spacingAndGlyphs"
text-anchor="start" opacity="0">3</text>
<g class="stroked-text"><desc>3</desc>
<path d="M53252 78068
L53569 78068
L53398 78263
L53472 78263
L53520 78288
L53545 78312
L53569 78361
L53569 78483
L53545 78532
L53520 78556
L53472 78580
L53325 78580
L53277 78556
L53252 78532
" />
</g><text x="72834.645669" y="78605.196850"
textLength="547.440945" font-size="682.401575" lengthAdjust="spacingAndGlyphs"
text-anchor="start" opacity="0">4</text>
<g class="stroked-text"><desc>4</desc>
<path d="M73205 78239
L73205 78580
" />
<path d="M73083 78044
L72962 78410
L73278 78410
" />
</g><text x="92519.685039" y="78605.196850"
textLength="547.440945" font-size="682.401575" lengthAdjust="spacingAndGlyphs"
text-anchor="start" opacity="0">5</text>
<g class="stroked-text"><desc>5</desc>
<path d="M92915 78068
L92671 78068
L92647 78312
L92671 78288
L92720 78263
L92842 78263
L92890 78288
L92915 78312
L92939 78361
L92939 78483
L92915 78532
L92890 78556
L92842 78580
L92720 78580
L92671 78556
L92647 78532
" />
</g><text x="112204.724409" y="78605.196850"
textLength="547.440945" font-size="682.401575" lengthAdjust="spacingAndGlyphs"
text-anchor="start" opacity="0">6</text>
<g class="stroked-text"><desc>6</desc>
<path d="M112575 78068
L112478 78068
L112429 78093
L112405 78117
L112356 78190
L112332 78288
L112332 78483
L112356 78532
L112380 78556
L112429 78580
L112527 78580
L112575 78556
L112600 78532
L112624 78483
L112624 78361
L112600 78312
L112575 78288
L112527 78263
L112429 78263
L112380 78288
L112356 78312
L112332 78361
" />
</g><path d="M3937 23622
L4724 23622
" />
<path d="M3937 43307
L4724 43307
" />
<path d="M3937 62992
L4724 62992
" />
<text x="4330.708661" y="14035.433071"
textLength="498.700787" font-size="682.401575" lengthAdjust="spacingAndGlyphs"
text-anchor="middle" opacity="0">A</text>
<g class="stroked-text"><desc>A</desc>
<path d="M4208 13864
L4452 13864
" />
<path d="M4160 14011
L4330 13499
L4501 14011
" />
</g><text x="4330.708661" y="33720.472441"
textLength="571.811024" font-size="682.401575" lengthAdjust="spacingAndGlyphs"
text-anchor="middle" opacity="0">B</text>
<g class="stroked-text"><desc>B</desc>
<path d="M4367 33427
L4440 33452
L4464 33476
L4489 33525
L4489 33598
L4464 33647
L4440 33671
L4391 33696
L4196 33696
L4196 33184
L4367 33184
L4415 33208
L4440 33233
L4464 33281
L4464 33330
L4440 33379
L4415 33403
L4367 33427
L4196 33427
" />
</g><text x="4330.708661" y="53405.511811"
textLength="571.811024" font-size="682.401575" lengthAdjust="spacingAndGlyphs"
text-anchor="middle" opacity="0">C</text>
<g class="stroked-text"><desc>C</desc>
<path d="M4489 53332
L4464 53356
L4391 53381
L4342 53381
L4269 53356
L4221 53307
L4196 53259
L4172 53161
L4172 53088
L4196 52991
L4221 52942
L4269 52893
L4342 52869
L4391 52869
L4464 52893
L4489 52918
" />
</g><text x="4330.708661" y="73090.551181"
textLength="571.811024" font-size="682.401575" lengthAdjust="spacingAndGlyphs"
text-anchor="middle" opacity="0">D</text>
<g class="stroked-text"><desc>D</desc>
<path d="M4196 73066
L4196 72554
L4318 72554
L4391 72578
L4440 72627
L4464 72676
L4489 72773
L4489 72846
L4464 72944
L4440 72993
L4391 73041
L4318 73066
L4196 73066
" />
</g><path d="M112992 23622
L112205 23622
" />
<path d="M112992 43307
L112205 43307
" />
<path d="M112992 62992
L112205 62992
" />
<text x="112599.291339" y="14035.433071"
textLength="498.700787" font-size="682.401575" lengthAdjust="spacingAndGlyphs"
text-anchor="middle" opacity="0">A</text>
<g class="stroked-text"><desc>A</desc>
<path d="M112477 13864
L112721 13864
" />
<path d="M112428 14011
L112599 13499
L112769 14011
" />
</g><text x="112599.291339" y="33720.472441"
textLength="571.811024" font-size="682.401575" lengthAdjust="spacingAndGlyphs"
text-anchor="middle" opacity="0">B</text>
<g class="stroked-text"><desc>B</desc>
<path d="M112635 33427
L112708 33452
L112733 33476
L112757 33525
L112757 33598
L112733 33647
L112708 33671
L112660 33696
L112465 33696
L112465 33184
L112635 33184
L112684 33208
L112708 33233
L112733 33281
L112733 33330
L112708 33379
L112684 33403
L112635 33427
L112465 33427
" />
</g><text x="112599.291339" y="53405.511811"
textLength="571.811024" font-size="682.401575" lengthAdjust="spacingAndGlyphs"
text-anchor="middle" opacity="0">C</text>
<g class="stroked-text"><desc>C</desc>
<path d="M112757 53332
L112733 53356
L112660 53381
L112611 53381
L112538 53356
L112489 53307
L112465 53259
L112440 53161
L112440 53088
L112465 52991
L112489 52942
L112538 52893
L112611 52869
L112660 52869
L112733 52893
L112757 52918
" />
</g><text x="112599.291339" y="73090.551181"
textLength="571.811024" font-size="682.401575" lengthAdjust="spacingAndGlyphs"
text-anchor="middle" opacity="0">D</text>
<g class="stroked-text"><desc>D</desc>
<path d="M112465 73066
L112465 72554
L112587 72554
L112660 72578
L112708 72627
L112733 72676
L112757 72773
L112757 72846
L112733 72944
L112708 72993
L112660 73041
L112587 73066
L112465 73066
" />
</g><text x="78741.023622" y="76321.732283"
textLength="2759.645669" font-size="787.401575" lengthAdjust="spacingAndGlyphs"
text-anchor="start" opacity="0">Date: </text>
<g class="stroked-text"><desc>Date: </desc>
<path d="M78911 76293
L78911 75703
L79052 75703
L79136 75731
L79192 75787
L79220 75843
L79249 75956
L79249 76040
L79220 76152
L79192 76209
L79136 76265
L79052 76293
L78911 76293
" />
<path d="M79755 76293
L79755 75984
L79727 75928
L79670 75899
L79558 75899
L79502 75928
" />
<path d="M79755 76265
L79699 76293
L79558 76293
L79502 76265
L79474 76209
L79474 76152
L79502 76096
L79558 76068
L79699 76068
L79755 76040
" />
<path d="M79952 75899
L80177 75899
" />
<path d="M80036 75703
L80036 76209
L80064 76265
L80120 76293
L80177 76293
" />
<path d="M80598 76265
L80542 76293
L80430 76293
L80373 76265
L80345 76209
L80345 75984
L80373 75928
L80430 75899
L80542 75899
L80598 75928
L80627 75984
L80627 76040
L80345 76096
" />
<path d="M80880 76237
L80908 76265
L80880 76293
L80852 76265
L80880 76237
L80880 76293
" />
<path d="M80880 75928
L80908 75956
L80880 75984
L80852 75956
L80880 75928
L80880 75984
" />
</g><path d="M69685 76577
L112205 76577
" />
<text x="70079.606299" y="77424.094488"
textLength="21826.023622" font-size="787.401575" lengthAdjust="spacingAndGlyphs"
text-anchor="start" opacity="0">KiCad E.D.A.  eeschema 6.0.9+dfsg-1~bpo11+1</text>
<g class="stroked-text"><desc>KiCad E.D.A.  eeschema 6.0.9+dfsg-1~bpo11+1</desc>
<path d="M70250 77395
L70250 76805
" />
<path d="M70587 77395
L70334 77058
" />
<path d="M70587 76805
L70250 77142
" />
<path d="M70840 77395
L70840 77002
" />
<path d="M70840 76805
L70812 76833
L70840 76861
L70868 76833
L70840 76805
L70840 76861
" />
<path d="M71459 77339
L71431 77367
L71346 77395
L71290 77395
L71206 77367
L71150 77311
L71121 77255
L71093 77142
L71093 77058
L71121 76946
L71150 76889
L71206 76833
L71290 76805
L71346 76805
L71431 76833
L71459 76861
" />
<path d="M71965 77395
L71965 77086
L71937 77030
L71881 77002
L71768 77002
L71712 77030
" />
<path d="M71965 77367
L71909 77395
L71768 77395
L71712 77367
L71684 77311
L71684 77255
L71712 77199
L71768 77170
L71909 77170
L71965 77142
" />
<path d="M72499 77395
L72499 76805
" />
<path d="M72499 77367
L72443 77395
L72331 77395
L72274 77367
L72246 77339
L72218 77283
L72218 77114
L72246 77058
L72274 77030
L72331 77002
L72443 77002
L72499 77030
" />
<path d="M73231 77086
L73427 77086
" />
<path d="M73512 77395
L73231 77395
L73231 76805
L73512 76805
" />
<path d="M73765 77339
L73793 77367
L73765 77395
L73737 77367
L73765 77339
L73765 77395
" />
<path d="M74046 77395
L74046 76805
L74187 76805
L74271 76833
L74327 76889
L74355 76946
L74384 77058
L74384 77142
L74355 77255
L74327 77311
L74271 77367
L74187 77395
L74046 77395
" />
<path d="M74637 77339
L74665 77367
L74637 77395
L74609 77367
L74637 77339
L74637 77395
" />
<path d="M74890 77227
L75171 77227
" />
<path d="M74834 77395
L75030 76805
L75227 77395
" />
<path d="M75424 77339
L75452 77367
L75424 77395
L75396 77367
L75424 77339
L75424 77395
" />
<path d="M76830 77367
L76774 77395
L76661 77395
L76605 77367
L76577 77311
L76577 77086
L76605 77030
L76661 77002
L76774 77002
L76830 77030
L76858 77086
L76858 77142
L76577 77199
" />
<path d="M77336 77367
L77280 77395
L77168 77395
L77111 77367
L77083 77311
L77083 77086
L77111 77030
L77168 77002
L77280 77002
L77336 77030
L77364 77086
L77364 77142
L77083 77199
" />
<path d="M77589 77367
L77646 77395
L77758 77395
L77814 77367
L77842 77311
L77842 77283
L77814 77227
L77758 77199
L77674 77199
L77618 77170
L77589 77114
L77589 77086
L77618 77030
L77674 77002
L77758 77002
L77814 77030
" />
<path d="M78349 77367
L78292 77395
L78180 77395
L78124 77367
L78096 77339
L78067 77283
L78067 77114
L78096 77058
L78124 77030
L78180 77002
L78292 77002
L78349 77030
" />
<path d="M78602 77395
L78602 76805
" />
<path d="M78855 77395
L78855 77086
L78827 77030
L78771 77002
L78686 77002
L78630 77030
L78602 77058
" />
<path d="M79361 77367
L79305 77395
L79192 77395
L79136 77367
L79108 77311
L79108 77086
L79136 77030
L79192 77002
L79305 77002
L79361 77030
L79389 77086
L79389 77142
L79108 77199
" />
<path d="M79642 77395
L79642 77002
" />
<path d="M79642 77058
L79670 77030
L79727 77002
L79811 77002
L79867 77030
L79895 77086
L79895 77395
" />
<path d="M79895 77086
L79923 77030
L79980 77002
L80064 77002
L80120 77030
L80148 77086
L80148 77395
" />
<path d="M80683 77395
L80683 77086
L80655 77030
L80598 77002
L80486 77002
L80430 77030
" />
<path d="M80683 77367
L80627 77395
L80486 77395
L80430 77367
L80402 77311
L80402 77255
L80430 77199
L80486 77170
L80627 77170
L80683 77142
" />
<path d="M81667 76805
L81555 76805
L81498 76833
L81470 76861
L81414 76946
L81386 77058
L81386 77283
L81414 77339
L81442 77367
L81498 77395
L81611 77395
L81667 77367
L81695 77339
L81723 77283
L81723 77142
L81695 77086
L81667 77058
L81611 77030
L81498 77030
L81442 77058
L81414 77086
L81386 77142
" />
<path d="M81976 77339
L82004 77367
L81976 77395
L81948 77367
L81976 77339
L81976 77395
" />
<path d="M82370 76805
L82426 76805
L82483 76833
L82511 76861
L82539 76917
L82567 77030
L82567 77170
L82539 77283
L82511 77339
L82483 77367
L82426 77395
L82370 77395
L82314 77367
L82286 77339
L82258 77283
L82229 77170
L82229 77030
L82258 76917
L82286 76861
L82314 76833
L82370 76805
" />
<path d="M82820 77339
L82848 77367
L82820 77395
L82792 77367
L82820 77339
L82820 77395
" />
<path d="M83129 77395
L83242 77395
L83298 77367
L83326 77339
L83382 77255
L83411 77142
L83411 76917
L83382 76861
L83354 76833
L83298 76805
L83186 76805
L83129 76833
L83101 76861
L83073 76917
L83073 77058
L83101 77114
L83129 77142
L83186 77170
L83298 77170
L83354 77142
L83382 77114
L83411 77058
" />
<path d="M83664 77170
L84114 77170
" />
<path d="M83889 77395
L83889 76946
" />
<path d="M84648 77395
L84648 76805
" />
<path d="M84648 77367
L84592 77395
L84479 77395
L84423 77367
L84395 77339
L84367 77283
L84367 77114
L84395 77058
L84423 77030
L84479 77002
L84592 77002
L84648 77030
" />
<path d="M84845 77002
L85070 77002
" />
<path d="M84929 77395
L84929 76889
L84957 76833
L85013 76805
L85070 76805
" />
<path d="M85238 77367
L85295 77395
L85407 77395
L85463 77367
L85492 77311
L85492 77283
L85463 77227
L85407 77199
L85323 77199
L85267 77170
L85238 77114
L85238 77086
L85267 77030
L85323 77002
L85407 77002
L85463 77030
" />
<path d="M85998 77002
L85998 77480
L85970 77536
L85941 77564
L85885 77592
L85801 77592
L85745 77564
" />
<path d="M85998 77367
L85941 77395
L85829 77395
L85773 77367
L85745 77339
L85717 77283
L85717 77114
L85745 77058
L85773 77030
L85829 77002
L85941 77002
L85998 77030
" />
<path d="M86279 77170
L86729 77170
" />
<path d="M87319 77395
L86982 77395
" />
<path d="M87151 77395
L87151 76805
L87094 76889
L87038 76946
L86982 76974
" />
<path d="M87488 77170
L87516 77142
L87573 77114
L87685 77170
L87741 77142
L87769 77114
" />
<path d="M87994 77395
L87994 76805
" />
<path d="M87994 77030
L88051 77002
L88163 77002
L88219 77030
L88247 77058
L88276 77114
L88276 77283
L88247 77339
L88219 77367
L88163 77395
L88051 77395
L87994 77367
" />
<path d="M88529 77002
L88529 77592
" />
<path d="M88529 77030
L88585 77002
L88697 77002
L88754 77030
L88782 77058
L88810 77114
L88810 77283
L88782 77339
L88754 77367
L88697 77395
L88585 77395
L88529 77367
" />
<path d="M89147 77395
L89091 77367
L89063 77339
L89035 77283
L89035 77114
L89063 77058
L89091 77030
L89147 77002
L89232 77002
L89288 77030
L89316 77058
L89344 77114
L89344 77283
L89316 77339
L89288 77367
L89232 77395
L89147 77395
" />
<path d="M89907 77395
L89569 77395
" />
<path d="M89738 77395
L89738 76805
L89682 76889
L89625 76946
L89569 76974
" />
<path d="M90469 77395
L90132 77395
" />
<path d="M90300 77395
L90300 76805
L90244 76889
L90188 76946
L90132 76974
" />
<path d="M90722 77170
L91172 77170
" />
<path d="M90947 77395
L90947 76946
" />
<path d="M91763 77395
L91425 77395
" />
<path d="M91594 77395
L91594 76805
L91538 76889
L91481 76946
L91425 76974
" />
</g><path d="M69685 75396
L112205 75396
" />
</g>
<g style="fill:#840000; fill-opacity:0.0; 
stroke:#840000; stroke-width:118.110236; stroke-opacity:1; 
stroke-linecap:round; stroke-linejoin:round;">
<text x="103544.173228" y="76321.732283"
textLength="2337.834646" font-size="787.401575" lengthAdjust="spacingAndGlyphs"
text-anchor="start" opacity="0">Rev: </text>
<g class="stroked-text"><desc>Rev: </desc>
<path d="M104098 76293
L103902 76012
" />
<path d="M103761 76293
L103761 75703
L103986 75703
L104042 75731
L104070 75759
L104098 75815
L104098 75899
L104070 75956
L104042 75984
L103986 76012
L103761 76012
" />
<path d="M104577 76265
L104520 76293
L104408 76293
L104352 76265
L104323 76209
L104323 75984
L104352 75928
L104408 75899
L104520 75899
L104577 75928
L104605 75984
L104605 76040
L104323 76096
" />
<path d="M104802 75899
L104942 76293
L105083 75899
" />
<path d="M105308 76237
L105336 76265
L105308 76293
L105280 76265
L105308 76237
L105308 76293
" />
<path d="M105308 75928
L105336 75956
L105308 75984
L105280 75956
L105308 75928
L105308 75984
" />
</g></g>
<g style="fill:#840000; fill-opacity:0.0; 
stroke:#840000; stroke-width:60.000000; stroke-opacity:1; 
stroke-linecap:round; stroke-linejoin:round;">
<text x="70079.606299" y="76321.732283"
textLength="3781.220472" font-size="787.401575" lengthAdjust="spacingAndGlyphs"
text-anchor="start" opacity="0">Size: A4</text>
<g class="stroked-text"><desc>Size: A4</desc>
<path d="M70222 76265
L70306 76293
L70447 76293
L70503 76265
L70531 76237
L70559 76181
L70559 76124
L70531 76068
L70503 76040
L70447 76012
L70334 75984
L70278 75956
L70250 75928
L70222 75871
L70222 75815
L70250 75759
L70278 75731
L70334 75703
L70475 75703
L70559 75731
" />
<path d="M70812 76293
L70812 75899
" />
<path d="M70812 75703
L70784 75731
L70812 75759
L70840 75731
L70812 75703
L70812 75759
" />
<path d="M71037 75899
L71346 75899
L71037 76293
L71346 76293
" />
<path d="M71796 76265
L71740 76293
L71628 76293
L71571 76265
L71543 76209
L71543 75984
L71571 75928
L71628 75899
L71740 75899
L71796 75928
L71825 75984
L71825 76040
L71543 76096
" />
<path d="M72078 76237
L72106 76265
L72078 76293
L72049 76265
L72078 76237
L72078 76293
" />
<path d="M72078 75928
L72106 75956
L72078 75984
L72049 75956
L72078 75928
L72078 75984
" />
<path d="M72781 76124
L73062 76124
" />
<path d="M72724 76293
L72921 75703
L73118 76293
" />
<path d="M73568 75899
L73568 76293
" />
<path d="M73427 75674
L73287 76096
L73652 76096
" />
</g><text x="103544.173228" y="77424.094488"
textLength="3350.196850" font-size="787.401575" lengthAdjust="spacingAndGlyphs"
text-anchor="start" opacity="0">Id: 1/3</text>
<g class="stroked-text"><desc>Id: 1/3</desc>
<path d="M103714 77395
L103714 76805
" />
<path d="M104249 77395
L104249 76805
" />
<path d="M104249 77367
L104192 77395
L104080 77395
L104024 77367
L103995 77339
L103967 77283
L103967 77114
L103995 77058
L104024 77030
L104080 77002
L104192 77002
L104249 77030
" />
<path d="M104530 77339
L104558 77367
L104530 77395
L104502 77367
L104530 77339
L104530 77395
" />
<path d="M104530 77030
L104558 77058
L104530 77086
L104502 77058
L104530 77030
L104530 77086
" />
<path d="M105570 77395
L105233 77395
" />
<path d="M105402 77395
L105402 76805
L105345 76889
L105289 76946
L105233 76974
" />
<path d="M106245 76777
L105739 77536
" />
<path d="M106386 76805
L106751 76805
L106555 77030
L106639 77030
L106695 77058
L106723 77086
L106751 77142
L106751 77283
L106723 77339
L106695 77367
L106639 77395
L106470 77395
L106414 77367
L106386 77339
" />
</g><path d="M69685 73821
L112205 73821
" />
</g>
<g style="fill:#840000; fill-opacity:0.0; 
stroke:#840000; stroke-width:157.480315; stroke-opacity:1; 
stroke-linecap:round; stroke-linejoin:round;">
<text x="70079.606299" y="74924.094488"
textLength="18066.220472" font-size="1049.842520" lengthAdjust="spacingAndGlyphs"
text-anchor="start" opacity="0">Title: Filter A + B (Top level)</text>
<g class="stroked-text"><desc>Title: Filter A + B (Top level)</desc>
<path d="M70360 74099
L70810 74099
" />
<path d="M70486 74886
L70585 74099
" />
<path d="M70974 74886
L71039 74361
" />
<path d="M71072 74099
L71030 74136
L71063 74174
L71105 74136
L71072 74099
L71063 74174
" />
<path d="M71302 74361
L71602 74361
" />
<path d="M71447 74099
L71363 74774
L71391 74849
L71461 74886
L71536 74886
" />
<path d="M71911 74886
L71841 74849
L71812 74774
L71897 74099
" />
<path d="M72516 74849
L72436 74886
L72286 74886
L72216 74849
L72187 74774
L72225 74474
L72272 74399
L72352 74361
L72501 74361
L72572 74399
L72600 74474
L72591 74549
L72206 74624
" />
<path d="M72895 74811
L72928 74849
L72886 74886
L72853 74849
L72895 74811
L72886 74886
" />
<path d="M72947 74399
L72980 74436
L72937 74474
L72905 74436
L72947 74399
L72937 74474
" />
<path d="M74175 74474
L73912 74474
" />
<path d="M73861 74886
L73959 74099
L74334 74099
" />
<path d="M74536 74886
L74601 74361
" />
<path d="M74634 74099
L74592 74136
L74625 74174
L74667 74136
L74634 74099
L74625 74174
" />
<path d="M75023 74886
L74953 74849
L74925 74774
L75009 74099
" />
<path d="M75276 74361
L75576 74361
" />
<path d="M75421 74099
L75337 74774
L75365 74849
L75435 74886
L75510 74886
" />
<path d="M76078 74849
L75998 74886
L75848 74886
L75778 74849
L75750 74774
L75787 74474
L75834 74399
L75914 74361
L76064 74361
L76134 74399
L76162 74474
L76153 74549
L75768 74624
" />
<path d="M76448 74886
L76513 74361
" />
<path d="M76495 74511
L76542 74436
L76584 74399
L76663 74361
L76738 74361
" />
<path d="M77526 74661
L77901 74661
" />
<path d="M77423 74886
L77784 74099
L77948 74886
" />
<path d="M78848 74586
L79447 74586
" />
<path d="M79110 74886
L79185 74286
" />
<path d="M80699 74474
L80807 74511
L80840 74549
L80868 74624
L80854 74736
L80807 74811
L80765 74849
L80685 74886
L80385 74886
L80483 74099
L80746 74099
L80816 74136
L80849 74174
L80877 74249
L80868 74324
L80821 74399
L80779 74436
L80699 74474
L80436 74474
" />
<path d="M81960 75186
L81927 75149
L81866 75036
L81838 74961
L81814 74849
L81800 74661
L81819 74511
L81880 74324
L81932 74211
L81978 74136
L82067 74024
L82110 73986
" />
<path d="M82283 74099
L82733 74099
" />
<path d="M82410 74886
L82508 74099
" />
<path d="M83010 74886
L82939 74849
L82906 74811
L82878 74736
L82906 74511
L82953 74436
L82995 74399
L83075 74361
L83188 74361
L83258 74399
L83291 74436
L83319 74511
L83291 74736
L83244 74811
L83202 74849
L83122 74886
L83010 74886
" />
<path d="M83675 74361
L83577 75149
" />
<path d="M83670 74399
L83750 74361
L83900 74361
L83970 74399
L84003 74436
L84031 74511
L84003 74736
L83956 74811
L83914 74849
L83834 74886
L83684 74886
L83614 74849
" />
<path d="M85034 74886
L84964 74849
L84936 74774
L85020 74099
" />
<path d="M85639 74849
L85559 74886
L85409 74886
L85339 74849
L85311 74774
L85348 74474
L85395 74399
L85475 74361
L85625 74361
L85695 74399
L85723 74474
L85714 74549
L85330 74624
" />
<path d="M86000 74361
L86122 74886
L86375 74361
" />
<path d="M86914 74849
L86834 74886
L86684 74886
L86614 74849
L86586 74774
L86623 74474
L86670 74399
L86750 74361
L86900 74361
L86970 74399
L86998 74474
L86989 74549
L86604 74624
" />
<path d="M87396 74886
L87326 74849
L87298 74774
L87382 74099
" />
<path d="M87584 75186
L87626 75149
L87715 75036
L87762 74961
L87814 74849
L87875 74661
L87893 74511
L87879 74324
L87856 74211
L87828 74136
L87767 74024
L87734 73986
" />
</g></g>
<g style="fill:#840000; fill-opacity:0.0; 
stroke:#840000; stroke-width:60.000000; stroke-opacity:1; 
stroke-linecap:round; stroke-linejoin:round;">
<text x="70079.606299" y="73408.346457"
textLength="11340.826772" font-size="787.401575" lengthAdjust="spacingAndGlyphs"
text-anchor="start" opacity="0">File: Top_Level.kicad_sch</text>
<g class="stroked-text"><desc>File: Top_Level.kicad_sch</desc>
<path d="M70447 73070
L70250 73070
" />
<path d="M70250 73380
L70250 72789
L70531 72789
" />
<path d="M70756 73380
L70756 72986
" />
<path d="M70756 72789
L70728 72817
L70756 72845
L70784 72817
L70756 72789
L70756 72845
" />
<path d="M71121 73380
L71065 73352
L71037 73295
L71037 72789
" />
<path d="M71571 73352
L71515 73380
L71403 73380
L71346 73352
L71318 73295
L71318 73070
L71346 73014
L71403 72986
L71515 72986
L71571 73014
L71600 73070
L71600 73127
L71318 73183
" />
<path d="M71853 73323
L71881 73352
L71853 73380
L71825 73352
L71853 73323
L71853 73380
" />
<path d="M71853 73014
L71881 73042
L71853 73070
L71825 73042
L71853 73014
L71853 73070
" />
<path d="M72499 72789
L72837 72789
" />
<path d="M72668 73380
L72668 72789
" />
<path d="M73118 73380
L73062 73352
L73034 73323
L73006 73267
L73006 73098
L73034 73042
L73062 73014
L73118 72986
L73202 72986
L73259 73014
L73287 73042
L73315 73098
L73315 73267
L73287 73323
L73259 73352
L73202 73380
L73118 73380
" />
<path d="M73568 72986
L73568 73577
" />
<path d="M73568 73014
L73624 72986
L73737 72986
L73793 73014
L73821 73042
L73849 73098
L73849 73267
L73821 73323
L73793 73352
L73737 73380
L73624 73380
L73568 73352
" />
<path d="M73962 73436
L74412 73436
" />
<path d="M74834 73380
L74552 73380
L74552 72789
" />
<path d="M75255 73352
L75199 73380
L75087 73380
L75030 73352
L75002 73295
L75002 73070
L75030 73014
L75087 72986
L75199 72986
L75255 73014
L75283 73070
L75283 73127
L75002 73183
" />
<path d="M75480 72986
L75621 73380
L75762 72986
" />
<path d="M76211 73352
L76155 73380
L76043 73380
L75986 73352
L75958 73295
L75958 73070
L75986 73014
L76043 72986
L76155 72986
L76211 73014
L76240 73070
L76240 73127
L75958 73183
" />
<path d="M76577 73380
L76521 73352
L76493 73295
L76493 72789
" />
<path d="M76802 73323
L76830 73352
L76802 73380
L76774 73352
L76802 73323
L76802 73380
" />
<path d="M77083 73380
L77083 72789
" />
<path d="M77139 73155
L77308 73380
" />
<path d="M77308 72986
L77083 73211
" />
<path d="M77561 73380
L77561 72986
" />
<path d="M77561 72789
L77533 72817
L77561 72845
L77589 72817
L77561 72789
L77561 72845
" />
<path d="M78096 73352
L78039 73380
L77927 73380
L77871 73352
L77842 73323
L77814 73267
L77814 73098
L77842 73042
L77871 73014
L77927 72986
L78039 72986
L78096 73014
" />
<path d="M78602 73380
L78602 73070
L78574 73014
L78517 72986
L78405 72986
L78349 73014
" />
<path d="M78602 73352
L78546 73380
L78405 73380
L78349 73352
L78321 73295
L78321 73239
L78349 73183
L78405 73155
L78546 73155
L78602 73127
" />
<path d="M79136 73380
L79136 72789
" />
<path d="M79136 73352
L79080 73380
L78967 73380
L78911 73352
L78883 73323
L78855 73267
L78855 73098
L78883 73042
L78911 73014
L78967 72986
L79080 72986
L79136 73014
" />
<path d="M79277 73436
L79727 73436
" />
<path d="M79839 73352
L79895 73380
L80008 73380
L80064 73352
L80092 73295
L80092 73267
L80064 73211
L80008 73183
L79923 73183
L79867 73155
L79839 73098
L79839 73070
L79867 73014
L79923 72986
L80008 72986
L80064 73014
" />
<path d="M80598 73352
L80542 73380
L80430 73380
L80373 73352
L80345 73323
L80317 73267
L80317 73098
L80345 73042
L80373 73014
L80430 72986
L80542 72986
L80598 73014
" />
<path d="M80852 73380
L80852 72789
" />
<path d="M81105 73380
L81105 73070
L81076 73014
L81020 72986
L80936 72986
L80880 73014
L80852 73042
" />
</g><path d="M69685 71459
L112205 71459
" />
<text x="70079.606299" y="72345.354331"
textLength="3856.417323" font-size="787.401575" lengthAdjust="spacingAndGlyphs"
text-anchor="start" opacity="0">Sheet: /</text>
<g class="stroked-text"><desc>Sheet: /</desc>
<path d="M70222 72289
L70306 72317
L70447 72317
L70503 72289
L70531 72260
L70559 72204
L70559 72148
L70531 72092
L70503 72064
L70447 72035
L70334 72007
L70278 71979
L70250 71951
L70222 71895
L70222 71839
L70250 71782
L70278 71754
L70334 71726
L70475 71726
L70559 71754
" />
<path d="M70812 72317
L70812 71726
" />
<path d="M71065 72317
L71065 72007
L71037 71951
L70981 71923
L70897 71923
L70840 71951
L70812 71979
" />
<path d="M71571 72289
L71515 72317
L71403 72317
L71346 72289
L71318 72232
L71318 72007
L71346 71951
L71403 71923
L71515 71923
L71571 71951
L71600 72007
L71600 72064
L71318 72120
" />
<path d="M72078 72289
L72021 72317
L71909 72317
L71853 72289
L71825 72232
L71825 72007
L71853 71951
L71909 71923
L72021 71923
L72078 71951
L72106 72007
L72106 72064
L71825 72120
" />
<path d="M72274 71923
L72499 71923
" />
<path d="M72359 71726
L72359 72232
L72387 72289
L72443 72317
L72499 72317
" />
<path d="M72696 72260
L72724 72289
L72696 72317
L72668 72289
L72696 72260
L72696 72317
" />
<path d="M72696 71951
L72724 71979
L72696 72007
L72668 71979
L72696 71951
L72696 72007
" />
<path d="M73849 71698
L73343 72457
" />
</g></g>
<g style="fill:#840000; fill-opacity:0.0; 
stroke:#840000; stroke-width:118.110236; stroke-opacity:1; 
stroke-linecap:round; stroke-linejoin:round;">
<text x="70079.606299" y="71164.251969"
textLength="60.000000" font-size="787.401575" lengthAdjust="spacingAndGlyphs"
text-anchor="start" opacity="0"></text>
<g class="stroked-text"><desc></desc>
</g></g>
<g style="fill:#840000; fill-opacity:0.0; 
stroke:#840000; stroke-width:60.000000; stroke-opacity:1; 
stroke-linecap:round; stroke-linejoin:round;">
<text x="70079.606299" y="69983.149606"
textLength="118.110236" font-size="787.401575" lengthAdjust="spacingAndGlyphs"
text-anchor="start" opacity="0"></text>
<g class="stroked-text"><desc></desc>
</g><text x="70079.606299" y="68802.047244"
textLength="60.000000" font-size="787.401575" lengthAdjust="spacingAndGlyphs"
text-anchor="start" opacity="0"></text>
<g class="stroked-text"><desc></desc>
</g><text x="70079.606299" y="67620.944882"
textLength="60.000000" font-size="787.401575" lengthAdjust="spacingAndGlyphs"
text-anchor="start" opacity="0"></text>
<g class="stroked-text"><desc></desc>
</g><text x="70079.606299" y="66439.842520"
textLength="60.000000" font-size="787.401575" lengthAdjust="spacingAndGlyphs"
text-anchor="start" opacity="0"></text>
<g class="stroked-text"><desc></desc>
</g><path d="M77559 75396
L77559 76577
" />
<path d="M102756 75396
L102756 77955
" />
</g>
<g style="fill:#FFFFFF; fill-opacity:0.0; 
stroke:#FFFFFF; stroke-width:60.000000; stroke-opacity:1; 
stroke-linecap:round; stroke-linejoin:round;">
</g>
<g style="fill:#FFFFFF; fill-opacity:1.0; 
stroke:#FFFFFF; stroke-width:0.039370; stroke-opacity:1; 
stroke-linecap:round; stroke-linejoin:round;">
<rect x="55000.000000" y="25000.000000" width="15000.000000" height="10000.000000" rx="0.000000" />
</g>
<g style="fill:#840000; fill-opacity:1.0; 
stroke:#840000; stroke-width:0.039370; stroke-opacity:1; 
stroke-linecap:round; stroke-linejoin:round;">
</g>
<g style="fill:#840000; fill-opacity:0.0; 
stroke:#840000; stroke-width:60.000000; stroke-opacity:1; 
stroke-linecap:round; stroke-linejoin:round;">
<rect x="55000.000000" y="25000.000000" width="15000.000000" height="10000.000000" rx="0.000000" />
</g>
<g style="fill:#006464; fill-opacity:0.0; 
stroke:#006464; stroke-width:60.000000; stroke-opacity:1; 
stroke-linecap:round; stroke-linejoin:round;">
<text x="55575.000000" y="30250.000000"
textLength="821.889764" font-size="666.653543" lengthAdjust="spacingAndGlyphs"
text-anchor="start" opacity="0">IN</text>
<g class="stroked-text"><desc>IN</desc>
<path d="M55724 30226
L55724 29726
" />
<path d="M55962 30226
L55962 29726
L56247 30226
L56247 29726
" />
</g><path style="fill:#006464; fill-opacity:0.0; 
stroke:#006464; stroke-width:60.000000; stroke-opacity:1; 
stroke-linecap:round; stroke-linejoin:round;fill:none"
d="M 55500.000000,30000.000000
55250.000000,29750.000000
55000.000000,29750.000000
55000.000000,30250.000000
55250.000000,30250.000000
Z" /> 
<text x="69425.000000" y="30250.000000"
textLength="1488.582677" font-size="666.653543" lengthAdjust="spacingAndGlyphs"
text-anchor="end" opacity="0">OUT</text>
<g class="stroked-text"><desc>OUT</desc>
<path d="M68180 29726
L68275 29726
L68323 29750
L68371 29797
L68395 29892
L68395 30059
L68371 30154
L68323 30202
L68275 30226
L68180 30226
L68133 30202
L68085 30154
L68061 30059
L68061 29892
L68085 29797
L68133 29750
L68180 29726
" />
<path d="M68609 29726
L68609 30130
L68633 30178
L68656 30202
L68704 30226
L68799 30226
L68847 30202
L68871 30178
L68895 30130
L68895 29726
" />
<path d="M69061 29726
L69347 29726
" />
<path d="M69204 30226
L69204 29726
" />
</g><path style="fill:#006464; fill-opacity:0.0; 
stroke:#006464; stroke-width:60.000000; stroke-opacity:1; 
stroke-linecap:round; stroke-linejoin:round;fill:none"
d="M 70000.000000,30000.000000
69750.000000,29750.000000
69500.000000,29750.000000
69500.000000,30250.000000
69750.000000,30250.000000
Z" /> 
<text x="56447.913386" y="24567.322835"
textLength="2893.346457" font-size="666.653543" lengthAdjust="spacingAndGlyphs"
text-anchor="middle" opacity="0">Filter_B</text>
<g class="stroked-text"><desc>Filter_B</desc>
<path d="M55316 24281
L55150 24281
" />
<path d="M55150 24543
L55150 24043
L55388 24043
" />
<path d="M55578 24543
L55578 24210
" />
<path d="M55578 24043
L55555 24067
L55578 24091
L55602 24067
L55578 24043
L55578 24091
" />
<path d="M55888 24543
L55840 24519
L55816 24472
L55816 24043
" />
<path d="M56007 24210
L56197 24210
" />
<path d="M56078 24043
L56078 24472
L56102 24519
L56150 24543
L56197 24543
" />
<path d="M56555 24519
L56507 24543
L56412 24543
L56364 24519
L56340 24472
L56340 24281
L56364 24233
L56412 24210
L56507 24210
L56555 24233
L56578 24281
L56578 24329
L56340 24376
" />
<path d="M56793 24543
L56793 24210
" />
<path d="M56793 24305
L56816 24257
L56840 24233
L56888 24210
L56935 24210
" />
<path d="M56983 24591
L57364 24591
" />
<path d="M57650 24281
L57721 24305
L57745 24329
L57769 24376
L57769 24448
L57745 24495
L57721 24519
L57674 24543
L57483 24543
L57483 24043
L57650 24043
L57697 24067
L57721 24091
L57745 24138
L57745 24186
L57721 24233
L57697 24257
L57650 24281
L57483 24281
" />
</g></g>
<g style="fill:#725600; fill-opacity:0.0; 
stroke:#725600; stroke-width:60.000000; stroke-opacity:1; 
stroke-linecap:round; stroke-linejoin:round;">
<text x="61555.078740" y="35882.637795"
textLength="13107.637795" font-size="666.653543" lengthAdjust="spacingAndGlyphs"
text-anchor="middle" opacity="0">File: ../Filter_B/Filter_B.kicad_sch</text>
<g class="stroked-text"><desc>File: ../Filter_B/Filter_B.kicad_sch</desc>
<path d="M55316 35596
L55150 35596
" />
<path d="M55150 35858
L55150 35358
L55388 35358
" />
<path d="M55578 35858
L55578 35525
" />
<path d="M55578 35358
L55555 35382
L55578 35406
L55602 35382
L55578 35358
L55578 35406
" />
<path d="M55888 35858
L55840 35835
L55816 35787
L55816 35358
" />
<path d="M56269 35835
L56221 35858
L56126 35858
L56078 35835
L56055 35787
L56055 35596
L56078 35549
L56126 35525
L56221 35525
L56269 35549
L56293 35596
L56293 35644
L56055 35692
" />
<path d="M56507 35811
L56531 35835
L56507 35858
L56483 35835
L56507 35811
L56507 35858
" />
<path d="M56507 35549
L56531 35573
L56507 35596
L56483 35573
L56507 35549
L56507 35596
" />
<path d="M57126 35811
L57150 35835
L57126 35858
L57102 35835
L57126 35811
L57126 35858
" />
<path d="M57364 35811
L57388 35835
L57364 35858
L57340 35835
L57364 35811
L57364 35858
" />
<path d="M57959 35335
L57531 35977
" />
<path d="M58293 35596
L58126 35596
" />
<path d="M58126 35858
L58126 35358
L58364 35358
" />
<path d="M58555 35858
L58555 35525
" />
<path d="M58555 35358
L58531 35382
L58555 35406
L58578 35382
L58555 35358
L58555 35406
" />
<path d="M58864 35858
L58816 35835
L58793 35787
L58793 35358
" />
<path d="M58983 35525
L59174 35525
" />
<path d="M59055 35358
L59055 35787
L59078 35835
L59126 35858
L59174 35858
" />
<path d="M59531 35835
L59483 35858
L59388 35858
L59340 35835
L59316 35787
L59316 35596
L59340 35549
L59388 35525
L59483 35525
L59531 35549
L59555 35596
L59555 35644
L59316 35692
" />
<path d="M59769 35858
L59769 35525
" />
<path d="M59769 35620
L59793 35573
L59816 35549
L59864 35525
L59912 35525
" />
<path d="M59959 35906
L60340 35906
" />
<path d="M60626 35596
L60697 35620
L60721 35644
L60745 35692
L60745 35763
L60721 35811
L60697 35835
L60650 35858
L60459 35858
L60459 35358
L60626 35358
L60674 35382
L60697 35406
L60721 35454
L60721 35501
L60697 35549
L60674 35573
L60626 35596
L60459 35596
" />
<path d="M61316 35335
L60888 35977
" />
<path d="M61650 35596
L61483 35596
" />
<path d="M61483 35858
L61483 35358
L61721 35358
" />
<path d="M61912 35858
L61912 35525
" />
<path d="M61912 35358
L61888 35382
L61912 35406
L61936 35382
L61912 35358
L61912 35406
" />
<path d="M62221 35858
L62174 35835
L62150 35787
L62150 35358
" />
<path d="M62340 35525
L62531 35525
" />
<path d="M62412 35358
L62412 35787
L62436 35835
L62483 35858
L62531 35858
" />
<path d="M62888 35835
L62840 35858
L62745 35858
L62697 35835
L62674 35787
L62674 35596
L62697 35549
L62745 35525
L62840 35525
L62888 35549
L62912 35596
L62912 35644
L62674 35692
" />
<path d="M63126 35858
L63126 35525
" />
<path d="M63126 35620
L63150 35573
L63174 35549
L63221 35525
L63269 35525
" />
<path d="M63316 35906
L63697 35906
" />
<path d="M63983 35596
L64055 35620
L64078 35644
L64102 35692
L64102 35763
L64078 35811
L64055 35835
L64007 35858
L63816 35858
L63816 35358
L63983 35358
L64031 35382
L64055 35406
L64078 35454
L64078 35501
L64055 35549
L64031 35573
L63983 35596
L63816 35596
" />
<path d="M64316 35811
L64340 35835
L64316 35858
L64293 35835
L64316 35811
L64316 35858
" />
<path d="M64555 35858
L64555 35358
" />
<path d="M64602 35668
L64745 35858
" />
<path d="M64745 35525
L64555 35715
" />
<path d="M64959 35858
L64959 35525
" />
<path d="M64959 35358
L64936 35382
L64959 35406
L64983 35382
L64959 35358
L64959 35406
" />
<path d="M65412 35835
L65364 35858
L65269 35858
L65221 35835
L65197 35811
L65174 35763
L65174 35620
L65197 35573
L65221 35549
L65269 35525
L65364 35525
L65412 35549
" />
<path d="M65840 35858
L65840 35596
L65816 35549
L65769 35525
L65674 35525
L65626 35549
" />
<path d="M65840 35835
L65793 35858
L65674 35858
L65626 35835
L65602 35787
L65602 35739
L65626 35692
L65674 35668
L65793 35668
L65840 35644
" />
<path d="M66293 35858
L66293 35358
" />
<path d="M66293 35835
L66245 35858
L66150 35858
L66102 35835
L66078 35811
L66055 35763
L66055 35620
L66078 35573
L66102 35549
L66150 35525
L66245 35525
L66293 35549
" />
<path d="M66412 35906
L66793 35906
" />
<path d="M66888 35835
L66936 35858
L67031 35858
L67078 35835
L67102 35787
L67102 35763
L67078 35715
L67031 35692
L66959 35692
L66912 35668
L66888 35620
L66888 35596
L66912 35549
L66959 35525
L67031 35525
L67078 35549
" />
<path d="M67531 35835
L67483 35858
L67388 35858
L67340 35835
L67316 35811
L67293 35763
L67293 35620
L67316 35573
L67340 35549
L67388 35525
L67483 35525
L67531 35549
" />
<path d="M67745 35858
L67745 35358
" />
<path d="M67959 35858
L67959 35596
L67936 35549
L67888 35525
L67816 35525
L67769 35549
L67745 35573
" />
</g></g>
<g style="fill:#FFFFFF; fill-opacity:0.0; 
stroke:#FFFFFF; stroke-width:60.000000; stroke-opacity:1; 
stroke-linecap:round; stroke-linejoin:round;">
</g>
<g style="fill:#FFFFFF; fill-opacity:1.0; 
stroke:#FFFFFF; stroke-width:0.039370; stroke-opacity:1; 
stroke-linecap:round; stroke-linejoin:round;">
<rect x="30000.000000" y="25000.000000" width="15000.000000" height="10000.000000" rx="0.000000" />
</g>
<g style="fill:#840000; fill-opacity:1.0; 
stroke:#840000; stroke-width:0.039370; stroke-opacity:1; 
stroke-linecap:round; stroke-linejoin:round;">
</g>
<g style="fill:#840000; fill-opacity:0.0; 
stroke:#840000; stroke-width:60.000000; stroke-opacity:1; 
stroke-linecap:round; stroke-linejoin:round;">
<rect x="30000.000000" y="25000.000000" width="15000.000000" height="10000.000000" rx="0.000000" />
</g>
<g style="fill:#006464; fill-opacity:0.0; 
stroke:#006464; stroke-width:60.000000; stroke-opacity:1; 
stroke-linecap:round; stroke-linejoin:round;">
<text x="30575.000000" y="30250.000000"
textLength="821.889764" font-size="666.653543" lengthAdjust="spacingAndGlyphs"
text-anchor="start" opacity="0">IN</text>
<g class="stroked-text"><desc>IN</desc>
<path d="M30724 30226
L30724 29726
" />
<path d="M30962 30226
L30962 29726
L31247 30226
L31247 29726
" />
</g><path style="fill:#006464; fill-opacity:0.0; 
stroke:#006464; stroke-width:60.000000; stroke-opacity:1; 
stroke-linecap:round; stroke-linejoin:round;fill:none"
d="M 30500.000000,30000.000000
30250.000000,29750.000000
30000.000000,29750.000000
30000.000000,30250.000000
30250.000000,30250.000000
Z" /> 
<text x="44425.000000" y="30250.000000"
textLength="1488.582677" font-size="666.653543" lengthAdjust="spacingAndGlyphs"
text-anchor="end" opacity="0">OUT</text>
<g class="stroked-text"><desc>OUT</desc>
<path d="M43180 29726
L43275 29726
L43323 29750
L43371 29797
L43395 29892
L43395 30059
L43371 30154
L43323 30202
L43275 30226
L43180 30226
L43133 30202
L43085 30154
L43061 30059
L43061 29892
L43085 29797
L43133 29750
L43180 29726
" />
<path d="M43609 29726
L43609 30130
L43633 30178
L43656 30202
L43704 30226
L43799 30226
L43847 30202
L43871 30178
L43895 30130
L43895 29726
" />
<path d="M44061 29726
L44347 29726
" />
<path d="M44204 30226
L44204 29726
" />
</g><path style="fill:#006464; fill-opacity:0.0; 
stroke:#006464; stroke-width:60.000000; stroke-opacity:1; 
stroke-linecap:round; stroke-linejoin:round;fill:none"
d="M 45000.000000,30000.000000
44750.000000,29750.000000
44500.000000,29750.000000
44500.000000,30250.000000
44750.000000,30250.000000
Z" /> 
<text x="31412.204724" y="24567.322835"
textLength="2821.889764" font-size="666.653543" lengthAdjust="spacingAndGlyphs"
text-anchor="middle" opacity="0">Filter_A</text>
<g class="stroked-text"><desc>Filter_A</desc>
<path d="M30316 24281
L30150 24281
" />
<path d="M30150 24543
L30150 24043
L30388 24043
" />
<path d="M30578 24543
L30578 24210
" />
<path d="M30578 24043
L30555 24067
L30578 24091
L30602 24067
L30578 24043
L30578 24091
" />
<path d="M30888 24543
L30840 24519
L30816 24472
L30816 24043
" />
<path d="M31007 24210
L31197 24210
" />
<path d="M31078 24043
L31078 24472
L31102 24519
L31150 24543
L31197 24543
" />
<path d="M31555 24519
L31507 24543
L31412 24543
L31364 24519
L31340 24472
L31340 24281
L31364 24233
L31412 24210
L31507 24210
L31555 24233
L31578 24281
L31578 24329
L31340 24376
" />
<path d="M31793 24543
L31793 24210
" />
<path d="M31793 24305
L31816 24257
L31840 24233
L31888 24210
L31935 24210
" />
<path d="M31983 24591
L32364 24591
" />
<path d="M32459 24400
L32697 24400
" />
<path d="M32412 24543
L32578 24043
L32745 24543
" />
</g></g>
<g style="fill:#725600; fill-opacity:0.0; 
stroke:#725600; stroke-width:60.000000; stroke-opacity:1; 
stroke-linecap:round; stroke-linejoin:round;">
<text x="36483.622047" y="35882.637795"
textLength="12964.763780" font-size="666.653543" lengthAdjust="spacingAndGlyphs"
text-anchor="middle" opacity="0">File: ../Filter_A/Filter_A.kicad_sch</text>
<g class="stroked-text"><desc>File: ../Filter_A/Filter_A.kicad_sch</desc>
<path d="M30316 35596
L30150 35596
" />
<path d="M30150 35858
L30150 35358
L30388 35358
" />
<path d="M30578 35858
L30578 35525
" />
<path d="M30578 35358
L30555 35382
L30578 35406
L30602 35382
L30578 35358
L30578 35406
" />
<path d="M30888 35858
L30840 35835
L30816 35787
L30816 35358
" />
<path d="M31269 35835
L31221 35858
L31126 35858
L31078 35835
L31055 35787
L31055 35596
L31078 35549
L31126 35525
L31221 35525
L31269 35549
L31293 35596
L31293 35644
L31055 35692
" />
<path d="M31507 35811
L31531 35835
L31507 35858
L31483 35835
L31507 35811
L31507 35858
" />
<path d="M31507 35549
L31531 35573
L31507 35596
L31483 35573
L31507 35549
L31507 35596
" />
<path d="M32126 35811
L32150 35835
L32126 35858
L32102 35835
L32126 35811
L32126 35858
" />
<path d="M32364 35811
L32388 35835
L32364 35858
L32340 35835
L32364 35811
L32364 35858
" />
<path d="M32959 35335
L32531 35977
" />
<path d="M33293 35596
L33126 35596
" />
<path d="M33126 35858
L33126 35358
L33364 35358
" />
<path d="M33555 35858
L33555 35525
" />
<path d="M33555 35358
L33531 35382
L33555 35406
L33578 35382
L33555 35358
L33555 35406
" />
<path d="M33864 35858
L33816 35835
L33793 35787
L33793 35358
" />
<path d="M33983 35525
L34174 35525
" />
<path d="M34055 35358
L34055 35787
L34078 35835
L34126 35858
L34174 35858
" />
<path d="M34531 35835
L34483 35858
L34388 35858
L34340 35835
L34316 35787
L34316 35596
L34340 35549
L34388 35525
L34483 35525
L34531 35549
L34555 35596
L34555 35644
L34316 35692
" />
<path d="M34769 35858
L34769 35525
" />
<path d="M34769 35620
L34793 35573
L34816 35549
L34864 35525
L34912 35525
" />
<path d="M34959 35906
L35340 35906
" />
<path d="M35435 35715
L35674 35715
" />
<path d="M35388 35858
L35555 35358
L35721 35858
" />
<path d="M36245 35335
L35816 35977
" />
<path d="M36578 35596
L36412 35596
" />
<path d="M36412 35858
L36412 35358
L36650 35358
" />
<path d="M36840 35858
L36840 35525
" />
<path d="M36840 35358
L36816 35382
L36840 35406
L36864 35382
L36840 35358
L36840 35406
" />
<path d="M37150 35858
L37102 35835
L37078 35787
L37078 35358
" />
<path d="M37269 35525
L37459 35525
" />
<path d="M37340 35358
L37340 35787
L37364 35835
L37412 35858
L37459 35858
" />
<path d="M37816 35835
L37769 35858
L37674 35858
L37626 35835
L37602 35787
L37602 35596
L37626 35549
L37674 35525
L37769 35525
L37816 35549
L37840 35596
L37840 35644
L37602 35692
" />
<path d="M38055 35858
L38055 35525
" />
<path d="M38055 35620
L38078 35573
L38102 35549
L38150 35525
L38197 35525
" />
<path d="M38245 35906
L38626 35906
" />
<path d="M38721 35715
L38959 35715
" />
<path d="M38674 35858
L38840 35358
L39007 35858
" />
<path d="M39174 35811
L39197 35835
L39174 35858
L39150 35835
L39174 35811
L39174 35858
" />
<path d="M39412 35858
L39412 35358
" />
<path d="M39459 35668
L39602 35858
" />
<path d="M39602 35525
L39412 35715
" />
<path d="M39816 35858
L39816 35525
" />
<path d="M39816 35358
L39793 35382
L39816 35406
L39840 35382
L39816 35358
L39816 35406
" />
<path d="M40269 35835
L40221 35858
L40126 35858
L40078 35835
L40055 35811
L40031 35763
L40031 35620
L40055 35573
L40078 35549
L40126 35525
L40221 35525
L40269 35549
" />
<path d="M40697 35858
L40697 35596
L40674 35549
L40626 35525
L40531 35525
L40483 35549
" />
<path d="M40697 35835
L40650 35858
L40531 35858
L40483 35835
L40459 35787
L40459 35739
L40483 35692
L40531 35668
L40650 35668
L40697 35644
" />
<path d="M41150 35858
L41150 35358
" />
<path d="M41150 35835
L41102 35858
L41007 35858
L40959 35835
L40935 35811
L40912 35763
L40912 35620
L40935 35573
L40959 35549
L41007 35525
L41102 35525
L41150 35549
" />
<path d="M41269 35906
L41650 35906
" />
<path d="M41745 35835
L41793 35858
L41888 35858
L41935 35835
L41959 35787
L41959 35763
L41935 35715
L41888 35692
L41816 35692
L41769 35668
L41745 35620
L41745 35596
L41769 35549
L41816 35525
L41888 35525
L41935 35549
" />
<path d="M42388 35835
L42340 35858
L42245 35858
L42197 35835
L42174 35811
L42150 35763
L42150 35620
L42174 35573
L42197 35549
L42245 35525
L42340 35525
L42388 35549
" />
<path d="M42602 35858
L42602 35358
" />
<path d="M42816 35858
L42816 35596
L42793 35549
L42745 35525
L42674 35525
L42626 35549
L42602 35573
" />
</g><g >
</g>
<g style="fill:#840000; fill-opacity:0.0; 
stroke:#840000; stroke-width:60.000000; stroke-opacity:1; 
stroke-linecap:round; stroke-linejoin:round;">
<path style="fill:#840000; fill-opacity:0.0; 
stroke:#840000; stroke-width:60.000000; stroke-opacity:1; 
stroke-linecap:round; stroke-linejoin:round;fill:none"
d="M 28000.000000,31500.000000
28000.000000,32000.000000
28500.000000,32000.000000
28000.000000,32500.000000
27500.000000,32000.000000
28000.000000,32000.000000
" /> 
</g>
<g style="fill:#006464; fill-opacity:0.0; 
stroke:#006464; stroke-width:60.000000; stroke-opacity:1; 
stroke-linecap:round; stroke-linejoin:round;">
<text x="28000.000000" y="33499.330709"
textLength="2060.000000" font-size="666.653543" lengthAdjust="spacingAndGlyphs"
text-anchor="middle" opacity="0">GND1</text>
<g class="stroked-text"><desc>GND1</desc>
<path d="M27380 32999
L27333 32975
L27261 32975
L27190 32999
L27142 33046
L27119 33094
L27095 33189
L27095 33261
L27119 33356
L27142 33404
L27190 33451
L27261 33475
L27309 33475
L27380 33451
L27404 33427
L27404 33261
L27309 33261
" />
<path d="M27619 33475
L27619 32975
L27904 33475
L27904 32975
" />
<path d="M28142 33475
L28142 32975
L28261 32975
L28333 32999
L28380 33046
L28404 33094
L28428 33189
L28428 33261
L28404 33356
L28380 33404
L28333 33451
L28261 33475
L28142 33475
" />
<path d="M28904 33475
L28619 33475
" />
<path d="M28761 33475
L28761 32975
L28714 33046
L28666 33094
L28619 33118
" />
</g></g>
</g>
<g style="fill:#006464; fill-opacity:0.0; 
stroke:#006464; stroke-width:60.000000; stroke-opacity:1; 
stroke-linecap:round; stroke-linejoin:round;">
<g >
</g>
<g style="fill:#840000; fill-opacity:0.0; 
stroke:#840000; stroke-width:60.000000; stroke-opacity:1; 
stroke-linecap:round; stroke-linejoin:round;">
<path style="fill:#840000; fill-opacity:0.0; 
stroke:#840000; stroke-width:60.000000; stroke-opacity:1; 
stroke-linecap:round; stroke-linejoin:round;fill:none"
d="M 71500.000000,31500.000000
71500.000000,32000.000000
72000.000000,32000.000000
71500.000000,32500.000000
71000.000000,32000.000000
71500.000000,32000.000000
" /> 
</g>
<g style="fill:#006464; fill-opacity:0.0; 
stroke:#006464; stroke-width:60.000000; stroke-opacity:1; 
stroke-linecap:round; stroke-linejoin:round;">
<text x="71500.000000" y="33499.330709"
textLength="2060.000000" font-size="666.653543" lengthAdjust="spacingAndGlyphs"
text-anchor="middle" opacity="0">GND2</text>
<g class="stroked-text"><desc>GND2</desc>
<path d="M70880 32999
L70833 32975
L70761 32975
L70690 32999
L70642 33046
L70619 33094
L70595 33189
L70595 33261
L70619 33356
L70642 33404
L70690 33451
L70761 33475
L70809 33475
L70880 33451
L70904 33427
L70904 33261
L70809 33261
" />
<path d="M71119 33475
L71119 32975
L71404 33475
L71404 32975
" />
<path d="M71642 33475
L71642 32975
L71761 32975
L71833 32999
L71880 33046
L71904 33094
L71928 33189
L71928 33261
L71904 33356
L71880 33404
L71833 33451
L71761 33475
L71642 33475
" />
<path d="M72119 33023
L72142 32999
L72190 32975
L72309 32975
L72357 32999
L72380 33023
L72404 33070
L72404 33118
L72380 33189
L72095 33475
L72404 33475
" />
</g></g>
</g>
<g style="fill:#006464; fill-opacity:0.0; 
stroke:#006464; stroke-width:60.000000; stroke-opacity:1; 
stroke-linecap:round; stroke-linejoin:round;">
<g >
</g>
<g style="fill:#840000; fill-opacity:0.0; 
stroke:#840000; stroke-width:60.000000; stroke-opacity:1; 
stroke-linecap:round; stroke-linejoin:round;">
<path style="fill:#840000; fill-opacity:0.0; 
stroke:#840000; stroke-width:60.000000; stroke-opacity:1; 
stroke-linecap:round; stroke-linejoin:round;fill:none"
d="M 46000.000000,31500.000000
46000.000000,32000.000000
46500.000000,32000.000000
46000.000000,32500.000000
45500.000000,32000.000000
46000.000000,32000.000000
" /> 
</g>
<g style="fill:#006464; fill-opacity:0.0; 
stroke:#006464; stroke-width:60.000000; stroke-opacity:1; 
stroke-linecap:round; stroke-linejoin:round;">
<text x="46000.000000" y="33499.330709"
textLength="2060.000000" font-size="666.653543" lengthAdjust="spacingAndGlyphs"
text-anchor="middle" opacity="0">GND1</text>
<g class="stroked-text"><desc>GND1</desc>
<path d="M45380 32999
L45333 32975
L45261 32975
L45190 32999
L45142 33046
L45119 33094
L45095 33189
L45095 33261
L45119 33356
L45142 33404
L45190 33451
L45261 33475
L45309 33475
L45380 33451
L45404 33427
L45404 33261
L45309 33261
" />
<path d="M45619 33475
L45619 32975
L45904 33475
L45904 32975
" />
<path d="M46142 33475
L46142 32975
L46261 32975
L46333 32999
L46380 33046
L46404 33094
L46428 33189
L46428 33261
L46404 33356
L46380 33404
L46333 33451
L46261 33475
L46142 33475
" />
<path d="M46904 33475
L46619 33475
" />
<path d="M46761 33475
L46761 32975
L46714 33046
L46666 33094
L46619 33118
" />
</g></g>
</g>
<g style="fill:#006464; fill-opacity:0.0; 
stroke:#006464; stroke-width:60.000000; stroke-opacity:1; 
stroke-linecap:round; stroke-linejoin:round;">
<g >
</g>
<g style="fill:#840000; fill-opacity:0.0; 
stroke:#840000; stroke-width:60.000000; stroke-opacity:1; 
stroke-linecap:round; stroke-linejoin:round;">
<path style="fill:#840000; fill-opacity:0.0; 
stroke:#840000; stroke-width:60.000000; stroke-opacity:1; 
stroke-linecap:round; stroke-linejoin:round;fill:none"
d="M 54000.000000,40500.000000
54000.000000,41000.000000
54500.000000,41000.000000
54000.000000,41500.000000
53500.000000,41000.000000
54000.000000,41000.000000
" /> 
</g>
<g style="fill:#006464; fill-opacity:0.0; 
stroke:#006464; stroke-width:60.000000; stroke-opacity:1; 
stroke-linecap:round; stroke-linejoin:round;">
<text x="54000.000000" y="42499.330709"
textLength="2060.000000" font-size="666.653543" lengthAdjust="spacingAndGlyphs"
text-anchor="middle" opacity="0">GND2</text>
<g class="stroked-text"><desc>GND2</desc>
<path d="M53380 41999
L53333 41975
L53261 41975
L53190 41999
L53142 42046
L53119 42094
L53095 42189
L53095 42261
L53119 42356
L53142 42404
L53190 42451
L53261 42475
L53309 42475
L53380 42451
L53404 42427
L53404 42261
L53309 42261
" />
<path d="M53619 42475
L53619 41975
L53904 42475
L53904 41975
" />
<path d="M54142 42475
L54142 41975
L54261 41975
L54333 41999
L54380 42046
L54404 42094
L54428 42189
L54428 42261
L54404 42356
L54380 42404
L54333 42451
L54261 42475
L54142 42475
" />
<path d="M54619 42023
L54642 41999
L54690 41975
L54809 41975
L54857 41999
L54880 42023
L54904 42070
L54904 42118
L54880 42189
L54595 42475
L54904 42475
" />
</g></g>
</g>
<g style="fill:#006464; fill-opacity:0.0; 
stroke:#006464; stroke-width:60.000000; stroke-opacity:1; 
stroke-linecap:round; stroke-linejoin:round;">
<g >
</g>
<g style="fill:#840000; fill-opacity:0.0; 
stroke:#840000; stroke-width:60.000000; stroke-opacity:1; 
stroke-linecap:round; stroke-linejoin:round;">
</g>
<g style="fill:#840000; fill-opacity:1.0; 
stroke:#840000; stroke-width:60.000000; stroke-opacity:1; 
stroke-linecap:round; stroke-linejoin:round;">
<rect x="53800.000000" y="38300.000000" width="400.000000" height="400.000000" rx="0.000000" />
</g>
<g style="fill:#840000; fill-opacity:0.0; 
stroke:#840000; stroke-width:60.000000; stroke-opacity:1; 
stroke-linecap:round; stroke-linejoin:round;">
<path d="M53600.000609 38600.698131 A400.000000 400.000000 0.0 0 0 54399.999391 38600.698131" />
</g>
<g style="fill:#840000; fill-opacity:1.0; 
stroke:#840000; stroke-width:0.039370; stroke-opacity:1; 
stroke-linecap:round; stroke-linejoin:round;">
<path d="M53600.000609 38600.698131 A400.000000 400.000000 0.0 0 0 54399.999391 38600.698131 L 54000.000000 38600.000000 Z" />
</g>
<g style="fill:#840000; fill-opacity:0.0; 
stroke:#840000; stroke-width:60.000000; stroke-opacity:1; 
stroke-linecap:round; stroke-linejoin:round;">
<path d="M53600.000609 38600.698131 A400.000000 400.000000 0.0 0 0 54399.999391 38600.698131" />
<path style="fill:#840000; fill-opacity:0.0; 
stroke:#840000; stroke-width:60.000000; stroke-opacity:1; 
stroke-linecap:round; stroke-linejoin:round;fill:none"
d="M 53600.000000,38600.000000
54400.000000,38600.000000
" /> 
<path style="fill:#840000; fill-opacity:0.0; 
stroke:#840000; stroke-width:60.000000; stroke-opacity:1; 
stroke-linecap:round; stroke-linejoin:round;fill:none"
d="M 53600.000000,38400.000000
54400.000000,38400.000000
" /> 
<path d="M54399.999391 38399.301869 A400.000000 400.000000 0.0 0 0 53600.000609 38399.301869" />
</g>
<g style="fill:#840000; fill-opacity:1.0; 
stroke:#840000; stroke-width:0.039370; stroke-opacity:1; 
stroke-linecap:round; stroke-linejoin:round;">
<path d="M54399.999391 38399.301869 A400.000000 400.000000 0.0 0 0 53600.000609 38399.301869 L 54000.000000 38400.000000 Z" />
</g>
<g style="fill:#840000; fill-opacity:0.0; 
stroke:#840000; stroke-width:60.000000; stroke-opacity:1; 
stroke-linecap:round; stroke-linejoin:round;">
<path d="M54399.999391 38399.301869 A400.000000 400.000000 0.0 0 0 53600.000609 38399.301869" />
<path d="M54000 39000
L54000 40000
" />
</g>
<g style="fill:#A90000; fill-opacity:0.0; 
stroke:#A90000; stroke-width:60.000000; stroke-opacity:1; 
stroke-linecap:round; stroke-linejoin:round;">
<g transform="rotate(-90.000000 54100.000000 39500.000000)">
<text x="54100.000000" y="40000.000000"
textLength="536.181102" font-size="666.653543" lengthAdjust="spacingAndGlyphs"
text-anchor="middle" opacity="0">1</text>
</g>
<g class="stroked-text"><desc>1</desc>
<path d="M54576 39357
L54576 39642
" />
<path d="M54576 39500
L54076 39500
L54147 39547
L54195 39595
L54219 39642
" />
</g></g>
<g style="fill:#840000; fill-opacity:0.0; 
stroke:#840000; stroke-width:60.000000; stroke-opacity:1; 
stroke-linecap:round; stroke-linejoin:round;">
<path d="M54000 38000
L54000 37000
" />
</g>
<g style="fill:#A90000; fill-opacity:0.0; 
stroke:#A90000; stroke-width:60.000000; stroke-opacity:1; 
stroke-linecap:round; stroke-linejoin:round;">
<g transform="rotate(-90.000000 54100.000000 37500.000000)">
<text x="54100.000000" y="38000.000000"
textLength="536.181102" font-size="666.653543" lengthAdjust="spacingAndGlyphs"
text-anchor="middle" opacity="0">2</text>
</g>
<g class="stroked-text"><desc>2</desc>
<path d="M54123 37642
L54100 37619
L54076 37571
L54076 37452
L54100 37404
L54123 37380
L54171 37357
L54219 37357
L54290 37380
L54576 37666
L54576 37357
" />
</g></g>
<g style="fill:#006464; fill-opacity:0.0; 
stroke:#006464; stroke-width:60.000000; stroke-opacity:1; 
stroke-linecap:round; stroke-linejoin:round;">
<text x="56074.094488" y="38421.377953"
textLength="2845.708661" font-size="666.653543" lengthAdjust="spacingAndGlyphs"
text-anchor="middle" opacity="0">JP1001</text>
<g class="stroked-text"><desc>JP1001</desc>
<path d="M54943 37897
L54943 38254
L54919 38326
L54871 38373
L54800 38397
L54752 38397
" />
<path d="M55181 38397
L55181 37897
L55371 37897
L55419 37921
L55443 37945
L55466 37992
L55466 38064
L55443 38111
L55419 38135
L55371 38159
L55181 38159
" />
<path d="M55943 38397
L55657 38397
" />
<path d="M55800 38397
L55800 37897
L55752 37968
L55705 38016
L55657 38040
" />
<path d="M56252 37897
L56300 37897
L56347 37921
L56371 37945
L56395 37992
L56419 38088
L56419 38207
L56395 38302
L56371 38349
L56347 38373
L56300 38397
L56252 38397
L56205 38373
L56181 38349
L56157 38302
L56133 38207
L56133 38088
L56157 37992
L56181 37945
L56205 37921
L56252 37897
" />
<path d="M56728 37897
L56776 37897
L56824 37921
L56847 37945
L56871 37992
L56895 38088
L56895 38207
L56871 38302
L56847 38349
L56824 38373
L56776 38397
L56728 38397
L56681 38373
L56657 38349
L56633 38302
L56609 38207
L56609 38088
L56633 37992
L56657 37945
L56681 37921
L56728 37897
" />
<path d="M57371 38397
L57085 38397
" />
<path d="M57228 38397
L57228 37897
L57181 37968
L57133 38016
L57085 38040
" />
</g><text x="59252.677165" y="39420.157480"
textLength="9202.874016" font-size="666.653543" lengthAdjust="spacingAndGlyphs"
text-anchor="middle" opacity="0">SolderJumper_2_Bridged</text>
<g class="stroked-text"><desc>SolderJumper_2_Bridged</desc>
<path d="M54776 39372
L54847 39396
L54966 39396
L55014 39372
L55038 39348
L55062 39301
L55062 39253
L55038 39205
L55014 39182
L54966 39158
L54871 39134
L54824 39110
L54800 39086
L54776 39039
L54776 38991
L54800 38943
L54824 38920
L54871 38896
L54990 38896
L55062 38920
" />
<path d="M55347 39396
L55300 39372
L55276 39348
L55252 39301
L55252 39158
L55276 39110
L55300 39086
L55347 39062
L55419 39062
L55466 39086
L55490 39110
L55514 39158
L55514 39301
L55490 39348
L55466 39372
L55419 39396
L55347 39396
" />
<path d="M55800 39396
L55752 39372
L55728 39324
L55728 38896
" />
<path d="M56205 39396
L56205 38896
" />
<path d="M56205 39372
L56157 39396
L56062 39396
L56014 39372
L55990 39348
L55966 39301
L55966 39158
L55990 39110
L56014 39086
L56062 39062
L56157 39062
L56205 39086
" />
<path d="M56633 39372
L56585 39396
L56490 39396
L56443 39372
L56419 39324
L56419 39134
L56443 39086
L56490 39062
L56585 39062
L56633 39086
L56657 39134
L56657 39182
L56419 39229
" />
<path d="M56871 39396
L56871 39062
" />
<path d="M56871 39158
L56895 39110
L56919 39086
L56966 39062
L57014 39062
" />
<path d="M57324 38896
L57324 39253
L57300 39324
L57252 39372
L57181 39396
L57133 39396
" />
<path d="M57776 39062
L57776 39396
" />
<path d="M57562 39062
L57562 39324
L57585 39372
L57633 39396
L57705 39396
L57752 39372
L57776 39348
" />
<path d="M58014 39396
L58014 39062
" />
<path d="M58014 39110
L58038 39086
L58085 39062
L58157 39062
L58205 39086
L58228 39134
L58228 39396
" />
<path d="M58228 39134
L58252 39086
L58300 39062
L58371 39062
L58419 39086
L58443 39134
L58443 39396
" />
<path d="M58681 39062
L58681 39562
" />
<path d="M58681 39086
L58728 39062
L58824 39062
L58871 39086
L58895 39110
L58919 39158
L58919 39301
L58895 39348
L58871 39372
L58824 39396
L58728 39396
L58681 39372
" />
<path d="M59324 39372
L59276 39396
L59181 39396
L59133 39372
L59109 39324
L59109 39134
L59133 39086
L59181 39062
L59276 39062
L59324 39086
L59347 39134
L59347 39182
L59109 39229
" />
<path d="M59562 39396
L59562 39062
" />
<path d="M59562 39158
L59585 39110
L59609 39086
L59657 39062
L59705 39062
" />
<path d="M59752 39443
L60133 39443
" />
<path d="M60228 38943
L60252 38920
L60300 38896
L60419 38896
L60466 38920
L60490 38943
L60514 38991
L60514 39039
L60490 39110
L60205 39396
L60514 39396
" />
<path d="M60609 39443
L60990 39443
" />
<path d="M61276 39134
L61347 39158
L61371 39182
L61395 39229
L61395 39301
L61371 39348
L61347 39372
L61300 39396
L61109 39396
L61109 38896
L61276 38896
L61324 38920
L61347 38943
L61371 38991
L61371 39039
L61347 39086
L61324 39110
L61276 39134
L61109 39134
" />
<path d="M61609 39396
L61609 39062
" />
<path d="M61609 39158
L61633 39110
L61657 39086
L61705 39062
L61752 39062
" />
<path d="M61919 39396
L61919 39062
" />
<path d="M61919 38896
L61895 38920
L61919 38943
L61943 38920
L61919 38896
L61919 38943
" />
<path d="M62371 39396
L62371 38896
" />
<path d="M62371 39372
L62324 39396
L62228 39396
L62181 39372
L62157 39348
L62133 39301
L62133 39158
L62157 39110
L62181 39086
L62228 39062
L62324 39062
L62371 39086
" />
<path d="M62824 39062
L62824 39467
L62800 39515
L62776 39539
L62728 39562
L62657 39562
L62609 39539
" />
<path d="M62824 39372
L62776 39396
L62681 39396
L62633 39372
L62609 39348
L62585 39301
L62585 39158
L62609 39110
L62633 39086
L62681 39062
L62776 39062
L62824 39086
" />
<path d="M63252 39372
L63205 39396
L63109 39396
L63062 39372
L63038 39324
L63038 39134
L63062 39086
L63109 39062
L63205 39062
L63252 39086
L63276 39134
L63276 39182
L63038 39229
" />
<path d="M63705 39396
L63705 38896
" />
<path d="M63705 39372
L63657 39396
L63562 39396
L63514 39372
L63490 39348
L63466 39301
L63466 39158
L63490 39110
L63514 39086
L63562 39062
L63657 39062
L63705 39086
" />
</g></g>
</g>
<g style="fill:#006464; fill-opacity:0.0; 
stroke:#006464; stroke-width:62.519685; stroke-opacity:1; 
stroke-linecap:round; stroke-linejoin:round;">
</g>
<g style="fill:#006464; fill-opacity:0.0; 
stroke:#006464; stroke-width:60.000000; stroke-opacity:1; 
stroke-linecap:round; stroke-linejoin:round;">
</g>
<g style="fill:#0000C2; fill-opacity:0.0; 
stroke:#0000C2; stroke-width:60.000000; stroke-opacity:1; 
stroke-linecap:round; stroke-linejoin:round;">
<text x="72000.000000" y="27862.480315"
textLength="1488.582677" font-size="666.653543" lengthAdjust="spacingAndGlyphs"
text-anchor="start" opacity="0">OUT</text>
<g class="stroked-text"><desc>OUT</desc>
<path d="M72244 27338
L72339 27338
L72387 27362
L72434 27410
L72458 27505
L72458 27671
L72434 27767
L72387 27814
L72339 27838
L72244 27838
L72196 27814
L72149 27767
L72125 27671
L72125 27505
L72149 27410
L72196 27362
L72244 27338
" />
<path d="M72672 27338
L72672 27743
L72696 27791
L72720 27814
L72768 27838
L72863 27838
L72910 27814
L72934 27791
L72958 27743
L72958 27338
" />
<path d="M73125 27338
L73410 27338
" />
<path d="M73268 27838
L73268 27338
" />
</g></g>
<g style="fill:#0000C2; fill-opacity:0.0; 
stroke:#0000C2; stroke-width:62.519685; stroke-opacity:1; 
stroke-linecap:round; stroke-linejoin:round;">
</g>
<g style="fill:#0000C2; fill-opacity:0.0; 
stroke:#0000C2; stroke-width:60.000000; stroke-opacity:1; 
stroke-linecap:round; stroke-linejoin:round;">
<text x="25500.000000" y="27362.480315"
textLength="821.889764" font-size="666.653543" lengthAdjust="spacingAndGlyphs"
text-anchor="start" opacity="0">IN</text>
<g class="stroked-text"><desc>IN</desc>
<path d="M25649 27338
L25649 26838
" />
<path d="M25887 27338
L25887 26838
L26172 27338
L26172 26838
" />
</g></g>
<g style="fill:#0000C2; fill-opacity:0.0; 
stroke:#0000C2; stroke-width:62.519685; stroke-opacity:1; 
stroke-linecap:round; stroke-linejoin:round;">
</g>
<g style="fill:#0000C2; fill-opacity:0.0; 
stroke:#0000C2; stroke-width:60.000000; stroke-opacity:1; 
stroke-linecap:round; stroke-linejoin:round;">
<text x="47500.000000" y="27862.480315"
textLength="4869.527559" font-size="666.653543" lengthAdjust="spacingAndGlyphs"
text-anchor="start" opacity="0">OUT &lt;-&gt; IN</text>
<g class="stroked-text"><desc>OUT &lt;-&gt; IN</desc>
<path d="M47744 27338
L47839 27338
L47887 27362
L47934 27410
L47958 27505
L47958 27671
L47934 27767
L47887 27814
L47839 27838
L47744 27838
L47696 27814
L47649 27767
L47625 27671
L47625 27505
L47649 27410
L47696 27362
L47744 27338
" />
<path d="M48172 27338
L48172 27743
L48196 27791
L48220 27814
L48268 27838
L48363 27838
L48410 27814
L48434 27791
L48458 27743
L48458 27338
" />
<path d="M48625 27338
L48910 27338
" />
<path d="M48768 27838
L48768 27338
" />
<path d="M49839 27505
L49458 27648
L49839 27791
" />
<path d="M50077 27648
L50458 27648
" />
<path d="M50696 27505
L51077 27648
L50696 27791
" />
<path d="M51696 27838
L51696 27338
" />
<path d="M51934 27838
L51934 27338
L52220 27838
L52220 27338
" />
</g></g>
<g style="fill:#0000C2; fill-opacity:0.0; 
stroke:#0000C2; stroke-width:60.000000; stroke-opacity:1; 
stroke-linecap:round; stroke-linejoin:round;stroke-dasharray:300.000000,300.000000;">
<path d="M48500 28500
L48500 32500
" />
</g>
<g style="fill:#0000C2; fill-opacity:0.0; 
stroke:#0000C2; stroke-width:60.000000; stroke-opacity:1; 
stroke-linecap:round; stroke-linejoin:round;">
</g>
<g style="fill:#0000C2; fill-opacity:0.0; 
stroke:#0000C2; stroke-width:60.000000; stroke-opacity:1; 
stroke-linecap:round; stroke-linejoin:round;stroke-dasharray:300.000000,300.000000;">
<path d="M51000 28500
L51000 32500
" />
</g>
<g style="fill:#0000C2; fill-opacity:0.0; 
stroke:#0000C2; stroke-width:60.000000; stroke-opacity:1; 
stroke-linecap:round; stroke-linejoin:round;">
</g>
<g style="fill:#0000C2; fill-opacity:0.0; 
stroke:#0000C2; stroke-width:60.000000; stroke-opacity:1; 
stroke-linecap:round; stroke-linejoin:round;stroke-dasharray:300.000000,300.000000;">
<path d="M73500 32500
L72500 32500
" />
</g>
<g style="fill:#0000C2; fill-opacity:0.0; 
stroke:#0000C2; stroke-width:60.000000; stroke-opacity:1; 
stroke-linecap:round; stroke-linejoin:round;">
</g>
<g style="fill:#0000C2; fill-opacity:0.0; 
stroke:#0000C2; stroke-width:60.000000; stroke-opacity:1; 
stroke-linecap:round; stroke-linejoin:round;stroke-dasharray:300.000000,300.000000;">
<path d="M72500 28500
L72500 32500
" />
</g>
<g style="fill:#0000C2; fill-opacity:0.0; 
stroke:#0000C2; stroke-width:60.000000; stroke-opacity:1; 
stroke-linecap:round; stroke-linejoin:round;">
</g>
<g style="fill:#0000C2; fill-opacity:0.0; 
stroke:#0000C2; stroke-width:60.000000; stroke-opacity:1; 
stroke-linecap:round; stroke-linejoin:round;stroke-dasharray:300.000000,300.000000;">
<path d="M73500 28500
L73500 32500
" />
</g>
<g style="fill:#0000C2; fill-opacity:0.0; 
stroke:#0000C2; stroke-width:60.000000; stroke-opacity:1; 
stroke-linecap:round; stroke-linejoin:round;">
</g>
<g style="fill:#0000C2; fill-opacity:0.0; 
stroke:#0000C2; stroke-width:60.000000; stroke-opacity:1; 
stroke-linecap:round; stroke-linejoin:round;stroke-dasharray:300.000000,300.000000;">
<path d="M25500 28000
L25500 32500
" />
</g>
<g style="fill:#0000C2; fill-opacity:0.0; 
stroke:#0000C2; stroke-width:60.000000; stroke-opacity:1; 
stroke-linecap:round; stroke-linejoin:round;">
</g>
<g style="fill:#0000C2; fill-opacity:0.0; 
stroke:#0000C2; stroke-width:60.000000; stroke-opacity:1; 
stroke-linecap:round; stroke-linejoin:round;stroke-dasharray:300.000000,300.000000;">
<path d="M26500 32500
L25500 32500
" />
</g>
<g style="fill:#0000C2; fill-opacity:0.0; 
stroke:#0000C2; stroke-width:60.000000; stroke-opacity:1; 
stroke-linecap:round; stroke-linejoin:round;">
</g>
<g style="fill:#0000C2; fill-opacity:0.0; 
stroke:#0000C2; stroke-width:60.000000; stroke-opacity:1; 
stroke-linecap:round; stroke-linejoin:round;stroke-dasharray:300.000000,300.000000;">
<path d="M25500 28000
L26500 28000
" />
</g>
<g style="fill:#0000C2; fill-opacity:0.0; 
stroke:#0000C2; stroke-width:60.000000; stroke-opacity:1; 
stroke-linecap:round; stroke-linejoin:round;">
</g>
<g style="fill:#0000C2; fill-opacity:0.0; 
stroke:#0000C2; stroke-width:60.000000; stroke-opacity:1; 
stroke-linecap:round; stroke-linejoin:round;stroke-dasharray:300.000000,300.000000;">
<path d="M51000 32500
L48500 32500
" />
</g>
<g style="fill:#0000C2; fill-opacity:0.0; 
stroke:#0000C2; stroke-width:60.000000; stroke-opacity:1; 
stroke-linecap:round; stroke-linejoin:round;">
</g>
<g style="fill:#0000C2; fill-opacity:0.0; 
stroke:#0000C2; stroke-width:60.000000; stroke-opacity:1; 
stroke-linecap:round; stroke-linejoin:round;stroke-dasharray:300.000000,300.000000;">
<path d="M26500 28000
L26500 32500
" />
</g>
<g style="fill:#0000C2; fill-opacity:0.0; 
stroke:#0000C2; stroke-width:60.000000; stroke-opacity:1; 
stroke-linecap:round; stroke-linejoin:round;">
</g>
<g style="fill:#0000C2; fill-opacity:0.0; 
stroke:#0000C2; stroke-width:60.000000; stroke-opacity:1; 
stroke-linecap:round; stroke-linejoin:round;stroke-dasharray:300.000000,300.000000;">
<path d="M48500 28500
L51000 28500
" />
</g>
<g style="fill:#0000C2; fill-opacity:0.0; 
stroke:#0000C2; stroke-width:60.000000; stroke-opacity:1; 
stroke-linecap:round; stroke-linejoin:round;">
</g>
<g style="fill:#0000C2; fill-opacity:0.0; 
stroke:#0000C2; stroke-width:60.000000; stroke-opacity:1; 
stroke-linecap:round; stroke-linejoin:round;stroke-dasharray:300.000000,300.000000;">
<path d="M72500 28500
L73500 28500
" />
</g>
<g style="fill:#0000C2; fill-opacity:0.0; 
stroke:#0000C2; stroke-width:60.000000; stroke-opacity:1; 
stroke-linecap:round; stroke-linejoin:round;">
</g>
<g style="fill:#009600; fill-opacity:0.0; 
stroke:#009600; stroke-width:60.000000; stroke-opacity:1; 
stroke-linecap:round; stroke-linejoin:round;">
<path d="M46000 31000
L54000 31000
" />
<path d="M45000 30000
L55000 30000
" />
<path d="M46000 31500
L46000 31000
" />
<path d="M54000 31000
L54000 37000
" />
<path d="M25000 31000
L28000 31000
" />
<path d="M25000 30000
L30000 30000
" />
<path d="M71500 31500
L71500 31000
" />
<path d="M28000 31500
L28000 31000
" />
<path d="M70000 30000
L75000 30000
" />
<path d="M54000 40000
L54000 40500
" />
<path d="M71500 31000
L75000 31000
" />
</g> 
</svg>
