<?xml version="1.0" standalone="no"?>
 <!DOCTYPE svg PUBLIC "-//W3C//DTD SVG 1.1//EN" 
 "http://www.w3.org/Graphics/SVG/1.1/DTD/svg11.dtd"> 
<svg
  xmlns:svg="http://www.w3.org/2000/svg"
  xmlns="http://www.w3.org/2000/svg"
  xmlns:xlink="http://www.w3.org/1999/xlink"
  version="1.1"
  width="29.700220cm" height="21.000720cm" viewBox="0 0 116930 82680">
<title>SVG Picture created as Top_Level-Filter_B.svg date 2022/11/25 15:14:00 </title>
  <desc>Picture generated by Eeschema-SVG </desc>
<g style="fill:#000000; fill-opacity:1.000000;stroke:#000000; stroke-opacity:1.000000;
stroke-linecap:round; stroke-linejoin:round;"
 transform="translate(0 0) scale(1 1)">
</g>
<g style="fill:#840000; fill-opacity:0.0; 
stroke:#840000; stroke-width:0.000000; stroke-opacity:1; 
stroke-linecap:round; stroke-linejoin:round;">
</g>
<g style="fill:#840000; fill-opacity:0.0; 
stroke:#840000; stroke-width:60.000000; stroke-opacity:1; 
stroke-linecap:round; stroke-linejoin:round;">
<rect x="69685.905512" y="65357.165354" width="42519.685039" height="12598.425197" rx="0.000000" />
<rect x="3937.007874" y="3937.007874" width="109055.984252" height="74805.984252" rx="0.000000" />
<rect x="4724.409449" y="4724.409449" width="107481.181102" height="73231.181102" rx="0.000000" />
<path d="M23622 4724
L23622 3937
" />
<path d="M43307 4724
L43307 3937
" />
<path d="M62992 4724
L62992 3937
" />
<path d="M82677 4724
L82677 3937
" />
<path d="M102362 4724
L102362 3937
" />
<text x="13779.527559" y="4586.614173"
textLength="549.960630" font-size="682.401575" lengthAdjust="spacingAndGlyphs"
text-anchor="start" opacity="0">1</text>
<g class="stroked-text"><desc>1</desc>
<path d="M14199 4562
L13907 4562
" />
<path d="M14053 4562
L14053 4050
L14004 4123
L13955 4172
L13907 4196
" />
</g><text x="33464.566929" y="4586.614173"
textLength="547.440945" font-size="682.401575" lengthAdjust="spacingAndGlyphs"
text-anchor="start" opacity="0">2</text>
<g class="stroked-text"><desc>2</desc>
<path d="M33592 4099
L33616 4074
L33665 4050
L33787 4050
L33835 4074
L33860 4099
L33884 4147
L33884 4196
L33860 4269
L33567 4562
L33884 4562
" />
</g><text x="53149.606299" y="4586.614173"
textLength="547.440945" font-size="682.401575" lengthAdjust="spacingAndGlyphs"
text-anchor="start" opacity="0">3</text>
<g class="stroked-text"><desc>3</desc>
<path d="M53252 4050
L53569 4050
L53398 4245
L53472 4245
L53520 4269
L53545 4294
L53569 4342
L53569 4464
L53545 4513
L53520 4537
L53472 4562
L53325 4562
L53277 4537
L53252 4513
" />
</g><text x="72834.645669" y="4586.614173"
textLength="547.440945" font-size="682.401575" lengthAdjust="spacingAndGlyphs"
text-anchor="start" opacity="0">4</text>
<g class="stroked-text"><desc>4</desc>
<path d="M73205 4221
L73205 4562
" />
<path d="M73083 4026
L72962 4391
L73278 4391
" />
</g><text x="92519.685039" y="4586.614173"
textLength="547.440945" font-size="682.401575" lengthAdjust="spacingAndGlyphs"
text-anchor="start" opacity="0">5</text>
<g class="stroked-text"><desc>5</desc>
<path d="M92915 4050
L92671 4050
L92647 4294
L92671 4269
L92720 4245
L92842 4245
L92890 4269
L92915 4294
L92939 4342
L92939 4464
L92915 4513
L92890 4537
L92842 4562
L92720 4562
L92671 4537
L92647 4513
" />
</g><text x="112204.724409" y="4586.614173"
textLength="547.440945" font-size="682.401575" lengthAdjust="spacingAndGlyphs"
text-anchor="start" opacity="0">6</text>
<g class="stroked-text"><desc>6</desc>
<path d="M112575 4050
L112478 4050
L112429 4074
L112405 4099
L112356 4172
L112332 4269
L112332 4464
L112356 4513
L112380 4537
L112429 4562
L112527 4562
L112575 4537
L112600 4513
L112624 4464
L112624 4342
L112600 4294
L112575 4269
L112527 4245
L112429 4245
L112380 4269
L112356 4294
L112332 4342
" />
</g><path d="M23622 77955
L23622 78742
" />
<path d="M43307 77955
L43307 78742
" />
<path d="M62992 77955
L62992 78742
" />
<path d="M82677 77955
L82677 78742
" />
<path d="M102362 77955
L102362 78742
" />
<text x="13779.527559" y="78605.196850"
textLength="547.440945" font-size="682.401575" lengthAdjust="spacingAndGlyphs"
text-anchor="start" opacity="0">1</text>
<g class="stroked-text"><desc>1</desc>
<path d="M14199 78580
L13907 78580
" />
<path d="M14053 78580
L14053 78068
L14004 78142
L13955 78190
L13907 78215
" />
</g><text x="33464.566929" y="78605.196850"
textLength="547.440945" font-size="682.401575" lengthAdjust="spacingAndGlyphs"
text-anchor="start" opacity="0">2</text>
<g class="stroked-text"><desc>2</desc>
<path d="M33592 78117
L33616 78093
L33665 78068
L33787 78068
L33835 78093
L33860 78117
L33884 78166
L33884 78215
L33860 78288
L33567 78580
L33884 78580
" />
</g><text x="53149.606299" y="78605.196850"
textLength="547.440945" font-size="682.401575" lengthAdjust="spacingAndGlyphs"
text-anchor="start" opacity="0">3</text>
<g class="stroked-text"><desc>3</desc>
<path d="M53252 78068
L53569 78068
L53398 78263
L53472 78263
L53520 78288
L53545 78312
L53569 78361
L53569 78483
L53545 78532
L53520 78556
L53472 78580
L53325 78580
L53277 78556
L53252 78532
" />
</g><text x="72834.645669" y="78605.196850"
textLength="547.440945" font-size="682.401575" lengthAdjust="spacingAndGlyphs"
text-anchor="start" opacity="0">4</text>
<g class="stroked-text"><desc>4</desc>
<path d="M73205 78239
L73205 78580
" />
<path d="M73083 78044
L72962 78410
L73278 78410
" />
</g><text x="92519.685039" y="78605.196850"
textLength="547.440945" font-size="682.401575" lengthAdjust="spacingAndGlyphs"
text-anchor="start" opacity="0">5</text>
<g class="stroked-text"><desc>5</desc>
<path d="M92915 78068
L92671 78068
L92647 78312
L92671 78288
L92720 78263
L92842 78263
L92890 78288
L92915 78312
L92939 78361
L92939 78483
L92915 78532
L92890 78556
L92842 78580
L92720 78580
L92671 78556
L92647 78532
" />
</g><text x="112204.724409" y="78605.196850"
textLength="547.440945" font-size="682.401575" lengthAdjust="spacingAndGlyphs"
text-anchor="start" opacity="0">6</text>
<g class="stroked-text"><desc>6</desc>
<path d="M112575 78068
L112478 78068
L112429 78093
L112405 78117
L112356 78190
L112332 78288
L112332 78483
L112356 78532
L112380 78556
L112429 78580
L112527 78580
L112575 78556
L112600 78532
L112624 78483
L112624 78361
L112600 78312
L112575 78288
L112527 78263
L112429 78263
L112380 78288
L112356 78312
L112332 78361
" />
</g><path d="M3937 23622
L4724 23622
" />
<path d="M3937 43307
L4724 43307
" />
<path d="M3937 62992
L4724 62992
" />
<text x="4330.708661" y="14035.433071"
textLength="498.700787" font-size="682.401575" lengthAdjust="spacingAndGlyphs"
text-anchor="middle" opacity="0">A</text>
<g class="stroked-text"><desc>A</desc>
<path d="M4208 13864
L4452 13864
" />
<path d="M4160 14011
L4330 13499
L4501 14011
" />
</g><text x="4330.708661" y="33720.472441"
textLength="571.811024" font-size="682.401575" lengthAdjust="spacingAndGlyphs"
text-anchor="middle" opacity="0">B</text>
<g class="stroked-text"><desc>B</desc>
<path d="M4367 33427
L4440 33452
L4464 33476
L4489 33525
L4489 33598
L4464 33647
L4440 33671
L4391 33696
L4196 33696
L4196 33184
L4367 33184
L4415 33208
L4440 33233
L4464 33281
L4464 33330
L4440 33379
L4415 33403
L4367 33427
L4196 33427
" />
</g><text x="4330.708661" y="53405.511811"
textLength="571.811024" font-size="682.401575" lengthAdjust="spacingAndGlyphs"
text-anchor="middle" opacity="0">C</text>
<g class="stroked-text"><desc>C</desc>
<path d="M4489 53332
L4464 53356
L4391 53381
L4342 53381
L4269 53356
L4221 53307
L4196 53259
L4172 53161
L4172 53088
L4196 52991
L4221 52942
L4269 52893
L4342 52869
L4391 52869
L4464 52893
L4489 52918
" />
</g><text x="4330.708661" y="73090.551181"
textLength="571.811024" font-size="682.401575" lengthAdjust="spacingAndGlyphs"
text-anchor="middle" opacity="0">D</text>
<g class="stroked-text"><desc>D</desc>
<path d="M4196 73066
L4196 72554
L4318 72554
L4391 72578
L4440 72627
L4464 72676
L4489 72773
L4489 72846
L4464 72944
L4440 72993
L4391 73041
L4318 73066
L4196 73066
" />
</g><path d="M112992 23622
L112205 23622
" />
<path d="M112992 43307
L112205 43307
" />
<path d="M112992 62992
L112205 62992
" />
<text x="112599.291339" y="14035.433071"
textLength="498.700787" font-size="682.401575" lengthAdjust="spacingAndGlyphs"
text-anchor="middle" opacity="0">A</text>
<g class="stroked-text"><desc>A</desc>
<path d="M112477 13864
L112721 13864
" />
<path d="M112428 14011
L112599 13499
L112769 14011
" />
</g><text x="112599.291339" y="33720.472441"
textLength="571.811024" font-size="682.401575" lengthAdjust="spacingAndGlyphs"
text-anchor="middle" opacity="0">B</text>
<g class="stroked-text"><desc>B</desc>
<path d="M112635 33427
L112708 33452
L112733 33476
L112757 33525
L112757 33598
L112733 33647
L112708 33671
L112660 33696
L112465 33696
L112465 33184
L112635 33184
L112684 33208
L112708 33233
L112733 33281
L112733 33330
L112708 33379
L112684 33403
L112635 33427
L112465 33427
" />
</g><text x="112599.291339" y="53405.511811"
textLength="571.811024" font-size="682.401575" lengthAdjust="spacingAndGlyphs"
text-anchor="middle" opacity="0">C</text>
<g class="stroked-text"><desc>C</desc>
<path d="M112757 53332
L112733 53356
L112660 53381
L112611 53381
L112538 53356
L112489 53307
L112465 53259
L112440 53161
L112440 53088
L112465 52991
L112489 52942
L112538 52893
L112611 52869
L112660 52869
L112733 52893
L112757 52918
" />
</g><text x="112599.291339" y="73090.551181"
textLength="571.811024" font-size="682.401575" lengthAdjust="spacingAndGlyphs"
text-anchor="middle" opacity="0">D</text>
<g class="stroked-text"><desc>D</desc>
<path d="M112465 73066
L112465 72554
L112587 72554
L112660 72578
L112708 72627
L112733 72676
L112757 72773
L112757 72846
L112733 72944
L112708 72993
L112660 73041
L112587 73066
L112465 73066
" />
</g><text x="78741.023622" y="76321.732283"
textLength="2759.645669" font-size="787.401575" lengthAdjust="spacingAndGlyphs"
text-anchor="start" opacity="0">Date: </text>
<g class="stroked-text"><desc>Date: </desc>
<path d="M78911 76293
L78911 75703
L79052 75703
L79136 75731
L79192 75787
L79220 75843
L79249 75956
L79249 76040
L79220 76152
L79192 76209
L79136 76265
L79052 76293
L78911 76293
" />
<path d="M79755 76293
L79755 75984
L79727 75928
L79670 75899
L79558 75899
L79502 75928
" />
<path d="M79755 76265
L79699 76293
L79558 76293
L79502 76265
L79474 76209
L79474 76152
L79502 76096
L79558 76068
L79699 76068
L79755 76040
" />
<path d="M79952 75899
L80177 75899
" />
<path d="M80036 75703
L80036 76209
L80064 76265
L80120 76293
L80177 76293
" />
<path d="M80598 76265
L80542 76293
L80430 76293
L80373 76265
L80345 76209
L80345 75984
L80373 75928
L80430 75899
L80542 75899
L80598 75928
L80627 75984
L80627 76040
L80345 76096
" />
<path d="M80880 76237
L80908 76265
L80880 76293
L80852 76265
L80880 76237
L80880 76293
" />
<path d="M80880 75928
L80908 75956
L80880 75984
L80852 75956
L80880 75928
L80880 75984
" />
</g><path d="M69685 76577
L112205 76577
" />
<text x="70079.606299" y="77424.094488"
textLength="21826.023622" font-size="787.401575" lengthAdjust="spacingAndGlyphs"
text-anchor="start" opacity="0">KiCad E.D.A.  eeschema 6.0.9+dfsg-1~bpo11+1</text>
<g class="stroked-text"><desc>KiCad E.D.A.  eeschema 6.0.9+dfsg-1~bpo11+1</desc>
<path d="M70250 77395
L70250 76805
" />
<path d="M70587 77395
L70334 77058
" />
<path d="M70587 76805
L70250 77142
" />
<path d="M70840 77395
L70840 77002
" />
<path d="M70840 76805
L70812 76833
L70840 76861
L70868 76833
L70840 76805
L70840 76861
" />
<path d="M71459 77339
L71431 77367
L71346 77395
L71290 77395
L71206 77367
L71150 77311
L71121 77255
L71093 77142
L71093 77058
L71121 76946
L71150 76889
L71206 76833
L71290 76805
L71346 76805
L71431 76833
L71459 76861
" />
<path d="M71965 77395
L71965 77086
L71937 77030
L71881 77002
L71768 77002
L71712 77030
" />
<path d="M71965 77367
L71909 77395
L71768 77395
L71712 77367
L71684 77311
L71684 77255
L71712 77199
L71768 77170
L71909 77170
L71965 77142
" />
<path d="M72499 77395
L72499 76805
" />
<path d="M72499 77367
L72443 77395
L72331 77395
L72274 77367
L72246 77339
L72218 77283
L72218 77114
L72246 77058
L72274 77030
L72331 77002
L72443 77002
L72499 77030
" />
<path d="M73231 77086
L73427 77086
" />
<path d="M73512 77395
L73231 77395
L73231 76805
L73512 76805
" />
<path d="M73765 77339
L73793 77367
L73765 77395
L73737 77367
L73765 77339
L73765 77395
" />
<path d="M74046 77395
L74046 76805
L74187 76805
L74271 76833
L74327 76889
L74355 76946
L74384 77058
L74384 77142
L74355 77255
L74327 77311
L74271 77367
L74187 77395
L74046 77395
" />
<path d="M74637 77339
L74665 77367
L74637 77395
L74609 77367
L74637 77339
L74637 77395
" />
<path d="M74890 77227
L75171 77227
" />
<path d="M74834 77395
L75030 76805
L75227 77395
" />
<path d="M75424 77339
L75452 77367
L75424 77395
L75396 77367
L75424 77339
L75424 77395
" />
<path d="M76830 77367
L76774 77395
L76661 77395
L76605 77367
L76577 77311
L76577 77086
L76605 77030
L76661 77002
L76774 77002
L76830 77030
L76858 77086
L76858 77142
L76577 77199
" />
<path d="M77336 77367
L77280 77395
L77168 77395
L77111 77367
L77083 77311
L77083 77086
L77111 77030
L77168 77002
L77280 77002
L77336 77030
L77364 77086
L77364 77142
L77083 77199
" />
<path d="M77589 77367
L77646 77395
L77758 77395
L77814 77367
L77842 77311
L77842 77283
L77814 77227
L77758 77199
L77674 77199
L77618 77170
L77589 77114
L77589 77086
L77618 77030
L77674 77002
L77758 77002
L77814 77030
" />
<path d="M78349 77367
L78292 77395
L78180 77395
L78124 77367
L78096 77339
L78067 77283
L78067 77114
L78096 77058
L78124 77030
L78180 77002
L78292 77002
L78349 77030
" />
<path d="M78602 77395
L78602 76805
" />
<path d="M78855 77395
L78855 77086
L78827 77030
L78771 77002
L78686 77002
L78630 77030
L78602 77058
" />
<path d="M79361 77367
L79305 77395
L79192 77395
L79136 77367
L79108 77311
L79108 77086
L79136 77030
L79192 77002
L79305 77002
L79361 77030
L79389 77086
L79389 77142
L79108 77199
" />
<path d="M79642 77395
L79642 77002
" />
<path d="M79642 77058
L79670 77030
L79727 77002
L79811 77002
L79867 77030
L79895 77086
L79895 77395
" />
<path d="M79895 77086
L79923 77030
L79980 77002
L80064 77002
L80120 77030
L80148 77086
L80148 77395
" />
<path d="M80683 77395
L80683 77086
L80655 77030
L80598 77002
L80486 77002
L80430 77030
" />
<path d="M80683 77367
L80627 77395
L80486 77395
L80430 77367
L80402 77311
L80402 77255
L80430 77199
L80486 77170
L80627 77170
L80683 77142
" />
<path d="M81667 76805
L81555 76805
L81498 76833
L81470 76861
L81414 76946
L81386 77058
L81386 77283
L81414 77339
L81442 77367
L81498 77395
L81611 77395
L81667 77367
L81695 77339
L81723 77283
L81723 77142
L81695 77086
L81667 77058
L81611 77030
L81498 77030
L81442 77058
L81414 77086
L81386 77142
" />
<path d="M81976 77339
L82004 77367
L81976 77395
L81948 77367
L81976 77339
L81976 77395
" />
<path d="M82370 76805
L82426 76805
L82483 76833
L82511 76861
L82539 76917
L82567 77030
L82567 77170
L82539 77283
L82511 77339
L82483 77367
L82426 77395
L82370 77395
L82314 77367
L82286 77339
L82258 77283
L82229 77170
L82229 77030
L82258 76917
L82286 76861
L82314 76833
L82370 76805
" />
<path d="M82820 77339
L82848 77367
L82820 77395
L82792 77367
L82820 77339
L82820 77395
" />
<path d="M83129 77395
L83242 77395
L83298 77367
L83326 77339
L83382 77255
L83411 77142
L83411 76917
L83382 76861
L83354 76833
L83298 76805
L83186 76805
L83129 76833
L83101 76861
L83073 76917
L83073 77058
L83101 77114
L83129 77142
L83186 77170
L83298 77170
L83354 77142
L83382 77114
L83411 77058
" />
<path d="M83664 77170
L84114 77170
" />
<path d="M83889 77395
L83889 76946
" />
<path d="M84648 77395
L84648 76805
" />
<path d="M84648 77367
L84592 77395
L84479 77395
L84423 77367
L84395 77339
L84367 77283
L84367 77114
L84395 77058
L84423 77030
L84479 77002
L84592 77002
L84648 77030
" />
<path d="M84845 77002
L85070 77002
" />
<path d="M84929 77395
L84929 76889
L84957 76833
L85013 76805
L85070 76805
" />
<path d="M85238 77367
L85295 77395
L85407 77395
L85463 77367
L85492 77311
L85492 77283
L85463 77227
L85407 77199
L85323 77199
L85267 77170
L85238 77114
L85238 77086
L85267 77030
L85323 77002
L85407 77002
L85463 77030
" />
<path d="M85998 77002
L85998 77480
L85970 77536
L85941 77564
L85885 77592
L85801 77592
L85745 77564
" />
<path d="M85998 77367
L85941 77395
L85829 77395
L85773 77367
L85745 77339
L85717 77283
L85717 77114
L85745 77058
L85773 77030
L85829 77002
L85941 77002
L85998 77030
" />
<path d="M86279 77170
L86729 77170
" />
<path d="M87319 77395
L86982 77395
" />
<path d="M87151 77395
L87151 76805
L87094 76889
L87038 76946
L86982 76974
" />
<path d="M87488 77170
L87516 77142
L87573 77114
L87685 77170
L87741 77142
L87769 77114
" />
<path d="M87994 77395
L87994 76805
" />
<path d="M87994 77030
L88051 77002
L88163 77002
L88219 77030
L88247 77058
L88276 77114
L88276 77283
L88247 77339
L88219 77367
L88163 77395
L88051 77395
L87994 77367
" />
<path d="M88529 77002
L88529 77592
" />
<path d="M88529 77030
L88585 77002
L88697 77002
L88754 77030
L88782 77058
L88810 77114
L88810 77283
L88782 77339
L88754 77367
L88697 77395
L88585 77395
L88529 77367
" />
<path d="M89147 77395
L89091 77367
L89063 77339
L89035 77283
L89035 77114
L89063 77058
L89091 77030
L89147 77002
L89232 77002
L89288 77030
L89316 77058
L89344 77114
L89344 77283
L89316 77339
L89288 77367
L89232 77395
L89147 77395
" />
<path d="M89907 77395
L89569 77395
" />
<path d="M89738 77395
L89738 76805
L89682 76889
L89625 76946
L89569 76974
" />
<path d="M90469 77395
L90132 77395
" />
<path d="M90300 77395
L90300 76805
L90244 76889
L90188 76946
L90132 76974
" />
<path d="M90722 77170
L91172 77170
" />
<path d="M90947 77395
L90947 76946
" />
<path d="M91763 77395
L91425 77395
" />
<path d="M91594 77395
L91594 76805
L91538 76889
L91481 76946
L91425 76974
" />
</g><path d="M69685 75396
L112205 75396
" />
</g>
<g style="fill:#840000; fill-opacity:0.0; 
stroke:#840000; stroke-width:118.110236; stroke-opacity:1; 
stroke-linecap:round; stroke-linejoin:round;">
<text x="103544.173228" y="76321.732283"
textLength="2337.834646" font-size="787.401575" lengthAdjust="spacingAndGlyphs"
text-anchor="start" opacity="0">Rev: </text>
<g class="stroked-text"><desc>Rev: </desc>
<path d="M104098 76293
L103902 76012
" />
<path d="M103761 76293
L103761 75703
L103986 75703
L104042 75731
L104070 75759
L104098 75815
L104098 75899
L104070 75956
L104042 75984
L103986 76012
L103761 76012
" />
<path d="M104577 76265
L104520 76293
L104408 76293
L104352 76265
L104323 76209
L104323 75984
L104352 75928
L104408 75899
L104520 75899
L104577 75928
L104605 75984
L104605 76040
L104323 76096
" />
<path d="M104802 75899
L104942 76293
L105083 75899
" />
<path d="M105308 76237
L105336 76265
L105308 76293
L105280 76265
L105308 76237
L105308 76293
" />
<path d="M105308 75928
L105336 75956
L105308 75984
L105280 75956
L105308 75928
L105308 75984
" />
</g></g>
<g style="fill:#840000; fill-opacity:0.0; 
stroke:#840000; stroke-width:60.000000; stroke-opacity:1; 
stroke-linecap:round; stroke-linejoin:round;">
<text x="70079.606299" y="76321.732283"
textLength="3781.220472" font-size="787.401575" lengthAdjust="spacingAndGlyphs"
text-anchor="start" opacity="0">Size: A4</text>
<g class="stroked-text"><desc>Size: A4</desc>
<path d="M70222 76265
L70306 76293
L70447 76293
L70503 76265
L70531 76237
L70559 76181
L70559 76124
L70531 76068
L70503 76040
L70447 76012
L70334 75984
L70278 75956
L70250 75928
L70222 75871
L70222 75815
L70250 75759
L70278 75731
L70334 75703
L70475 75703
L70559 75731
" />
<path d="M70812 76293
L70812 75899
" />
<path d="M70812 75703
L70784 75731
L70812 75759
L70840 75731
L70812 75703
L70812 75759
" />
<path d="M71037 75899
L71346 75899
L71037 76293
L71346 76293
" />
<path d="M71796 76265
L71740 76293
L71628 76293
L71571 76265
L71543 76209
L71543 75984
L71571 75928
L71628 75899
L71740 75899
L71796 75928
L71825 75984
L71825 76040
L71543 76096
" />
<path d="M72078 76237
L72106 76265
L72078 76293
L72049 76265
L72078 76237
L72078 76293
" />
<path d="M72078 75928
L72106 75956
L72078 75984
L72049 75956
L72078 75928
L72078 75984
" />
<path d="M72781 76124
L73062 76124
" />
<path d="M72724 76293
L72921 75703
L73118 76293
" />
<path d="M73568 75899
L73568 76293
" />
<path d="M73427 75674
L73287 76096
L73652 76096
" />
</g><text x="103544.173228" y="77424.094488"
textLength="3350.196850" font-size="787.401575" lengthAdjust="spacingAndGlyphs"
text-anchor="start" opacity="0">Id: 4/3</text>
<g class="stroked-text"><desc>Id: 4/3</desc>
<path d="M103714 77395
L103714 76805
" />
<path d="M104249 77395
L104249 76805
" />
<path d="M104249 77367
L104192 77395
L104080 77395
L104024 77367
L103995 77339
L103967 77283
L103967 77114
L103995 77058
L104024 77030
L104080 77002
L104192 77002
L104249 77030
" />
<path d="M104530 77339
L104558 77367
L104530 77395
L104502 77367
L104530 77339
L104530 77395
" />
<path d="M104530 77030
L104558 77058
L104530 77086
L104502 77058
L104530 77030
L104530 77086
" />
<path d="M105514 77002
L105514 77395
" />
<path d="M105373 76777
L105233 77199
L105598 77199
" />
<path d="M106245 76777
L105739 77536
" />
<path d="M106386 76805
L106751 76805
L106555 77030
L106639 77030
L106695 77058
L106723 77086
L106751 77142
L106751 77283
L106723 77339
L106695 77367
L106639 77395
L106470 77395
L106414 77367
L106386 77339
" />
</g><path d="M69685 73821
L112205 73821
" />
</g>
<g style="fill:#840000; fill-opacity:0.0; 
stroke:#840000; stroke-width:157.480315; stroke-opacity:1; 
stroke-linecap:round; stroke-linejoin:round;">
<text x="70079.606299" y="74924.094488"
textLength="8167.480315" font-size="1049.842520" lengthAdjust="spacingAndGlyphs"
text-anchor="start" opacity="0">Title: Filter B</text>
<g class="stroked-text"><desc>Title: Filter B</desc>
<path d="M70360 74099
L70810 74099
" />
<path d="M70486 74886
L70585 74099
" />
<path d="M70974 74886
L71039 74361
" />
<path d="M71072 74099
L71030 74136
L71063 74174
L71105 74136
L71072 74099
L71063 74174
" />
<path d="M71302 74361
L71602 74361
" />
<path d="M71447 74099
L71363 74774
L71391 74849
L71461 74886
L71536 74886
" />
<path d="M71911 74886
L71841 74849
L71812 74774
L71897 74099
" />
<path d="M72516 74849
L72436 74886
L72286 74886
L72216 74849
L72187 74774
L72225 74474
L72272 74399
L72352 74361
L72501 74361
L72572 74399
L72600 74474
L72591 74549
L72206 74624
" />
<path d="M72895 74811
L72928 74849
L72886 74886
L72853 74849
L72895 74811
L72886 74886
" />
<path d="M72947 74399
L72980 74436
L72937 74474
L72905 74436
L72947 74399
L72937 74474
" />
<path d="M74175 74474
L73912 74474
" />
<path d="M73861 74886
L73959 74099
L74334 74099
" />
<path d="M74536 74886
L74601 74361
" />
<path d="M74634 74099
L74592 74136
L74625 74174
L74667 74136
L74634 74099
L74625 74174
" />
<path d="M75023 74886
L74953 74849
L74925 74774
L75009 74099
" />
<path d="M75276 74361
L75576 74361
" />
<path d="M75421 74099
L75337 74774
L75365 74849
L75435 74886
L75510 74886
" />
<path d="M76078 74849
L75998 74886
L75848 74886
L75778 74849
L75750 74774
L75787 74474
L75834 74399
L75914 74361
L76064 74361
L76134 74399
L76162 74474
L76153 74549
L75768 74624
" />
<path d="M76448 74886
L76513 74361
" />
<path d="M76495 74511
L76542 74436
L76584 74399
L76663 74361
L76738 74361
" />
<path d="M77849 74474
L77957 74511
L77990 74549
L78018 74624
L78004 74736
L77957 74811
L77915 74849
L77835 74886
L77535 74886
L77634 74099
L77896 74099
L77966 74136
L77999 74174
L78027 74249
L78018 74324
L77971 74399
L77929 74436
L77849 74474
L77587 74474
" />
</g></g>
<g style="fill:#840000; fill-opacity:0.0; 
stroke:#840000; stroke-width:60.000000; stroke-opacity:1; 
stroke-linecap:round; stroke-linejoin:round;">
<text x="70079.606299" y="73408.346457"
textLength="10469.055118" font-size="787.401575" lengthAdjust="spacingAndGlyphs"
text-anchor="start" opacity="0">File: Filter_B.kicad_sch</text>
<g class="stroked-text"><desc>File: Filter_B.kicad_sch</desc>
<path d="M70447 73070
L70250 73070
" />
<path d="M70250 73380
L70250 72789
L70531 72789
" />
<path d="M70756 73380
L70756 72986
" />
<path d="M70756 72789
L70728 72817
L70756 72845
L70784 72817
L70756 72789
L70756 72845
" />
<path d="M71121 73380
L71065 73352
L71037 73295
L71037 72789
" />
<path d="M71571 73352
L71515 73380
L71403 73380
L71346 73352
L71318 73295
L71318 73070
L71346 73014
L71403 72986
L71515 72986
L71571 73014
L71600 73070
L71600 73127
L71318 73183
" />
<path d="M71853 73323
L71881 73352
L71853 73380
L71825 73352
L71853 73323
L71853 73380
" />
<path d="M71853 73014
L71881 73042
L71853 73070
L71825 73042
L71853 73014
L71853 73070
" />
<path d="M72781 73070
L72584 73070
" />
<path d="M72584 73380
L72584 72789
L72865 72789
" />
<path d="M73090 73380
L73090 72986
" />
<path d="M73090 72789
L73062 72817
L73090 72845
L73118 72817
L73090 72789
L73090 72845
" />
<path d="M73456 73380
L73399 73352
L73371 73295
L73371 72789
" />
<path d="M73596 72986
L73821 72986
" />
<path d="M73681 72789
L73681 73295
L73709 73352
L73765 73380
L73821 73380
" />
<path d="M74243 73352
L74187 73380
L74074 73380
L74018 73352
L73990 73295
L73990 73070
L74018 73014
L74074 72986
L74187 72986
L74243 73014
L74271 73070
L74271 73127
L73990 73183
" />
<path d="M74524 73380
L74524 72986
" />
<path d="M74524 73098
L74552 73042
L74580 73014
L74637 72986
L74693 72986
" />
<path d="M74749 73436
L75199 73436
" />
<path d="M75537 73070
L75621 73098
L75649 73127
L75677 73183
L75677 73267
L75649 73323
L75621 73352
L75565 73380
L75340 73380
L75340 72789
L75537 72789
L75593 72817
L75621 72845
L75649 72902
L75649 72958
L75621 73014
L75593 73042
L75537 73070
L75340 73070
" />
<path d="M75930 73323
L75958 73352
L75930 73380
L75902 73352
L75930 73323
L75930 73380
" />
<path d="M76211 73380
L76211 72789
" />
<path d="M76268 73155
L76436 73380
" />
<path d="M76436 72986
L76211 73211
" />
<path d="M76690 73380
L76690 72986
" />
<path d="M76690 72789
L76661 72817
L76690 72845
L76718 72817
L76690 72789
L76690 72845
" />
<path d="M77224 73352
L77168 73380
L77055 73380
L76999 73352
L76971 73323
L76943 73267
L76943 73098
L76971 73042
L76999 73014
L77055 72986
L77168 72986
L77224 73014
" />
<path d="M77730 73380
L77730 73070
L77702 73014
L77646 72986
L77533 72986
L77477 73014
" />
<path d="M77730 73352
L77674 73380
L77533 73380
L77477 73352
L77449 73295
L77449 73239
L77477 73183
L77533 73155
L77674 73155
L77730 73127
" />
<path d="M78264 73380
L78264 72789
" />
<path d="M78264 73352
L78208 73380
L78096 73380
L78039 73352
L78011 73323
L77983 73267
L77983 73098
L78011 73042
L78039 73014
L78096 72986
L78208 72986
L78264 73014
" />
<path d="M78405 73436
L78855 73436
" />
<path d="M78967 73352
L79024 73380
L79136 73380
L79192 73352
L79220 73295
L79220 73267
L79192 73211
L79136 73183
L79052 73183
L78995 73155
L78967 73098
L78967 73070
L78995 73014
L79052 72986
L79136 72986
L79192 73014
" />
<path d="M79727 73352
L79670 73380
L79558 73380
L79502 73352
L79474 73323
L79445 73267
L79445 73098
L79474 73042
L79502 73014
L79558 72986
L79670 72986
L79727 73014
" />
<path d="M79980 73380
L79980 72789
" />
<path d="M80233 73380
L80233 73070
L80205 73014
L80148 72986
L80064 72986
L80008 73014
L79980 73042
" />
</g><path d="M69685 71459
L112205 71459
" />
<text x="70079.606299" y="72345.354331"
textLength="7821.535433" font-size="787.401575" lengthAdjust="spacingAndGlyphs"
text-anchor="start" opacity="0">Sheet: /Filter_B/</text>
<g class="stroked-text"><desc>Sheet: /Filter_B/</desc>
<path d="M70222 72289
L70306 72317
L70447 72317
L70503 72289
L70531 72260
L70559 72204
L70559 72148
L70531 72092
L70503 72064
L70447 72035
L70334 72007
L70278 71979
L70250 71951
L70222 71895
L70222 71839
L70250 71782
L70278 71754
L70334 71726
L70475 71726
L70559 71754
" />
<path d="M70812 72317
L70812 71726
" />
<path d="M71065 72317
L71065 72007
L71037 71951
L70981 71923
L70897 71923
L70840 71951
L70812 71979
" />
<path d="M71571 72289
L71515 72317
L71403 72317
L71346 72289
L71318 72232
L71318 72007
L71346 71951
L71403 71923
L71515 71923
L71571 71951
L71600 72007
L71600 72064
L71318 72120
" />
<path d="M72078 72289
L72021 72317
L71909 72317
L71853 72289
L71825 72232
L71825 72007
L71853 71951
L71909 71923
L72021 71923
L72078 71951
L72106 72007
L72106 72064
L71825 72120
" />
<path d="M72274 71923
L72499 71923
" />
<path d="M72359 71726
L72359 72232
L72387 72289
L72443 72317
L72499 72317
" />
<path d="M72696 72260
L72724 72289
L72696 72317
L72668 72289
L72696 72260
L72696 72317
" />
<path d="M72696 71951
L72724 71979
L72696 72007
L72668 71979
L72696 71951
L72696 72007
" />
<path d="M73849 71698
L73343 72457
" />
<path d="M74243 72007
L74046 72007
" />
<path d="M74046 72317
L74046 71726
L74327 71726
" />
<path d="M74552 72317
L74552 71923
" />
<path d="M74552 71726
L74524 71754
L74552 71782
L74580 71754
L74552 71726
L74552 71782
" />
<path d="M74918 72317
L74862 72289
L74834 72232
L74834 71726
" />
<path d="M75058 71923
L75283 71923
" />
<path d="M75143 71726
L75143 72232
L75171 72289
L75227 72317
L75283 72317
" />
<path d="M75705 72289
L75649 72317
L75537 72317
L75480 72289
L75452 72232
L75452 72007
L75480 71951
L75537 71923
L75649 71923
L75705 71951
L75733 72007
L75733 72064
L75452 72120
" />
<path d="M75986 72317
L75986 71923
" />
<path d="M75986 72035
L76015 71979
L76043 71951
L76099 71923
L76155 71923
" />
<path d="M76211 72373
L76661 72373
" />
<path d="M76999 72007
L77083 72035
L77111 72064
L77139 72120
L77139 72204
L77111 72260
L77083 72289
L77027 72317
L76802 72317
L76802 71726
L76999 71726
L77055 71754
L77083 71782
L77111 71839
L77111 71895
L77083 71951
L77055 71979
L76999 72007
L76802 72007
" />
<path d="M77814 71698
L77308 72457
" />
</g></g>
<g style="fill:#840000; fill-opacity:0.0; 
stroke:#840000; stroke-width:118.110236; stroke-opacity:1; 
stroke-linecap:round; stroke-linejoin:round;">
<text x="70079.606299" y="71164.251969"
textLength="60.000000" font-size="787.401575" lengthAdjust="spacingAndGlyphs"
text-anchor="start" opacity="0"></text>
<g class="stroked-text"><desc></desc>
</g></g>
<g style="fill:#840000; fill-opacity:0.0; 
stroke:#840000; stroke-width:60.000000; stroke-opacity:1; 
stroke-linecap:round; stroke-linejoin:round;">
<text x="70079.606299" y="69983.149606"
textLength="118.110236" font-size="787.401575" lengthAdjust="spacingAndGlyphs"
text-anchor="start" opacity="0"></text>
<g class="stroked-text"><desc></desc>
</g><text x="70079.606299" y="68802.047244"
textLength="60.000000" font-size="787.401575" lengthAdjust="spacingAndGlyphs"
text-anchor="start" opacity="0"></text>
<g class="stroked-text"><desc></desc>
</g><text x="70079.606299" y="67620.944882"
textLength="60.000000" font-size="787.401575" lengthAdjust="spacingAndGlyphs"
text-anchor="start" opacity="0"></text>
<g class="stroked-text"><desc></desc>
</g><text x="70079.606299" y="66439.842520"
textLength="60.000000" font-size="787.401575" lengthAdjust="spacingAndGlyphs"
text-anchor="start" opacity="0"></text>
<g class="stroked-text"><desc></desc>
</g><path d="M77559 75396
L77559 76577
" />
<path d="M102756 75396
L102756 77955
" />
<g >
</g>
<g style="fill:#FFFFC2; fill-opacity:0.0; 
stroke:#FFFFC2; stroke-width:60.000000; stroke-opacity:1; 
stroke-linecap:round; stroke-linejoin:round;">
</g>
<g style="fill:#FFFFC2; fill-opacity:0.6; 
stroke:#FFFFC2; stroke-width:0.039370; stroke-opacity:1; 
stroke-linecap:round; stroke-linejoin:round;">
<rect x="53500.000000" y="33500.000000" width="1000.000000" height="2000.000000" rx="0.000000" />
</g>
<g style="fill:#840000; fill-opacity:0.6; 
stroke:#840000; stroke-width:0.039370; stroke-opacity:1; 
stroke-linecap:round; stroke-linejoin:round;">
</g>
<g style="fill:#840000; fill-opacity:0.0; 
stroke:#840000; stroke-width:100.000000; stroke-opacity:1; 
stroke-linecap:round; stroke-linejoin:round;">
<rect x="53500.000000" y="33500.000000" width="1000.000000" height="2000.000000" rx="0.000000" />
</g>
<g style="fill:#840000; fill-opacity:0.0; 
stroke:#840000; stroke-width:60.000000; stroke-opacity:1; 
stroke-linecap:round; stroke-linejoin:round;">
<rect x="53500.000000" y="34950.000000" width="500.000000" height="100.000000" rx="0.000000" />
<rect x="53500.000000" y="33950.000000" width="500.000000" height="100.000000" rx="0.000000" />
</g>
<g style="fill:#840000; fill-opacity:0.0; 
stroke:#840000; stroke-width:100.000000; stroke-opacity:1; 
stroke-linecap:round; stroke-linejoin:round;">
<rect x="53500.000000" y="33500.000000" width="1000.000000" height="2000.000000" rx="0.000000" />
</g>
<g style="fill:#840000; fill-opacity:0.0; 
stroke:#840000; stroke-width:60.000000; stroke-opacity:1; 
stroke-linecap:round; stroke-linejoin:round;">
<path d="M53500 34000
L52000 34000
" />
</g>
<g style="fill:#A90000; fill-opacity:0.0; 
stroke:#A90000; stroke-width:60.000000; stroke-opacity:1; 
stroke-linecap:round; stroke-linejoin:round;">
<text x="52750.000000" y="33900.000000"
textLength="536.181102" font-size="666.653543" lengthAdjust="spacingAndGlyphs"
text-anchor="middle" opacity="0">1</text>
<g class="stroked-text"><desc>1</desc>
<path d="M52892 33876
L52607 33876
" />
<path d="M52750 33876
L52750 33376
L52702 33447
L52654 33495
L52607 33519
" />
</g></g>
<g style="fill:#840000; fill-opacity:0.0; 
stroke:#840000; stroke-width:60.000000; stroke-opacity:1; 
stroke-linecap:round; stroke-linejoin:round;">
<path d="M53500 35000
L52000 35000
" />
</g>
<g style="fill:#A90000; fill-opacity:0.0; 
stroke:#A90000; stroke-width:60.000000; stroke-opacity:1; 
stroke-linecap:round; stroke-linejoin:round;">
<text x="52750.000000" y="34900.000000"
textLength="536.181102" font-size="666.653543" lengthAdjust="spacingAndGlyphs"
text-anchor="middle" opacity="0">2</text>
<g class="stroked-text"><desc>2</desc>
<path d="M52607 34423
L52630 34400
L52678 34376
L52797 34376
L52845 34400
L52869 34423
L52892 34471
L52892 34519
L52869 34590
L52583 34876
L52892 34876
" />
</g></g>
<g style="fill:#006464; fill-opacity:0.0; 
stroke:#006464; stroke-width:60.000000; stroke-opacity:1; 
stroke-linecap:round; stroke-linejoin:round;">
<text x="55736.023622" y="34421.338583"
textLength="1869.527559" font-size="666.653543" lengthAdjust="spacingAndGlyphs"
text-anchor="middle" opacity="0">J102</text>
<g class="stroked-text"><desc>J102</desc>
<path d="M55093 33897
L55093 34254
L55069 34326
L55021 34373
L54950 34397
L54902 34397
" />
<path d="M55593 34397
L55307 34397
" />
<path d="M55450 34397
L55450 33897
L55402 33968
L55355 34016
L55307 34040
" />
<path d="M55902 33897
L55950 33897
L55997 33921
L56021 33945
L56045 33992
L56069 34087
L56069 34207
L56045 34302
L56021 34349
L55997 34373
L55950 34397
L55902 34397
L55855 34373
L55831 34349
L55807 34302
L55783 34207
L55783 34087
L55807 33992
L55831 33945
L55855 33921
L55902 33897
" />
<path d="M56259 33945
L56283 33921
L56331 33897
L56450 33897
L56497 33921
L56521 33945
L56545 33992
L56545 34040
L56521 34111
L56236 34397
L56545 34397
" />
</g><text x="55545.551181" y="35420.118110"
textLength="1488.582677" font-size="666.653543" lengthAdjust="spacingAndGlyphs"
text-anchor="middle" opacity="0">OUT</text>
<g class="stroked-text"><desc>OUT</desc>
<path d="M55045 34896
L55140 34896
L55188 34920
L55236 34967
L55259 35062
L55259 35229
L55236 35324
L55188 35372
L55140 35396
L55045 35396
L54997 35372
L54950 35324
L54926 35229
L54926 35062
L54950 34967
L54997 34920
L55045 34896
" />
<path d="M55474 34896
L55474 35301
L55497 35348
L55521 35372
L55569 35396
L55664 35396
L55712 35372
L55736 35348
L55759 35301
L55759 34896
" />
<path d="M55926 34896
L56212 34896
" />
<path d="M56069 35396
L56069 34896
" />
</g></g>
</g>
<g style="fill:#006464; fill-opacity:0.0; 
stroke:#006464; stroke-width:60.000000; stroke-opacity:1; 
stroke-linecap:round; stroke-linejoin:round;">
<g >
</g>
<g style="fill:#840000; fill-opacity:0.0; 
stroke:#840000; stroke-width:60.000000; stroke-opacity:1; 
stroke-linecap:round; stroke-linejoin:round;">
</g>
<g style="fill:#840000; fill-opacity:0.0; 
stroke:#840000; stroke-width:200.000000; stroke-opacity:1; 
stroke-linecap:round; stroke-linejoin:round;">
<path style="fill:#840000; fill-opacity:0.0; 
stroke:#840000; stroke-width:200.000000; stroke-opacity:1; 
stroke-linecap:round; stroke-linejoin:round;fill:none"
d="M 43300.000000,34800.000000
43300.000000,33200.000000
" /> 
<path style="fill:#840000; fill-opacity:0.0; 
stroke:#840000; stroke-width:200.000000; stroke-opacity:1; 
stroke-linecap:round; stroke-linejoin:round;fill:none"
d="M 42700.000000,34800.000000
42700.000000,33200.000000
" /> 
</g>
<g style="fill:#840000; fill-opacity:0.0; 
stroke:#840000; stroke-width:60.000000; stroke-opacity:1; 
stroke-linecap:round; stroke-linejoin:round;">
<path d="M42600 34000
L41500 34000
" />
<path d="M43400 34000
L44500 34000
" />
</g>
<g style="fill:#006464; fill-opacity:0.0; 
stroke:#006464; stroke-width:60.000000; stroke-opacity:1; 
stroke-linecap:round; stroke-linejoin:round;">
<text x="43000.000000" y="31943.385827"
textLength="1988.582677" font-size="666.653543" lengthAdjust="spacingAndGlyphs"
text-anchor="middle" opacity="0">C101</text>
<g class="stroked-text"><desc>C101</desc>
<path d="M42440 31871
L42416 31895
L42345 31919
L42297 31919
L42226 31895
L42178 31848
L42154 31800
L42130 31705
L42130 31633
L42154 31538
L42178 31490
L42226 31443
L42297 31419
L42345 31419
L42416 31443
L42440 31467
" />
<path d="M42916 31919
L42630 31919
" />
<path d="M42773 31919
L42773 31419
L42726 31490
L42678 31538
L42630 31562
" />
<path d="M43226 31419
L43273 31419
L43321 31443
L43345 31467
L43369 31514
L43392 31610
L43392 31729
L43369 31824
L43345 31871
L43321 31895
L43273 31919
L43226 31919
L43178 31895
L43154 31871
L43130 31824
L43107 31729
L43107 31610
L43130 31514
L43154 31467
L43178 31443
L43226 31419
" />
<path d="M43869 31919
L43583 31919
" />
<path d="M43726 31919
L43726 31419
L43678 31490
L43630 31538
L43583 31562
" />
</g><text x="43000.000000" y="32942.165354"
textLength="2369.527559" font-size="666.653543" lengthAdjust="spacingAndGlyphs"
text-anchor="middle" opacity="0">100nF</text>
<g class="stroked-text"><desc>100nF</desc>
<path d="M42226 32918
L41940 32918
" />
<path d="M42083 32918
L42083 32418
L42035 32489
L41988 32537
L41940 32561
" />
<path d="M42535 32418
L42583 32418
L42630 32442
L42654 32465
L42678 32513
L42702 32608
L42702 32727
L42678 32823
L42654 32870
L42630 32894
L42583 32918
L42535 32918
L42488 32894
L42464 32870
L42440 32823
L42416 32727
L42416 32608
L42440 32513
L42464 32465
L42488 32442
L42535 32418
" />
<path d="M43011 32418
L43059 32418
L43107 32442
L43130 32465
L43154 32513
L43178 32608
L43178 32727
L43154 32823
L43130 32870
L43107 32894
L43059 32918
L43011 32918
L42964 32894
L42940 32870
L42916 32823
L42892 32727
L42892 32608
L42916 32513
L42940 32465
L42964 32442
L43011 32418
" />
<path d="M43392 32585
L43392 32918
" />
<path d="M43392 32632
L43416 32608
L43464 32585
L43535 32585
L43583 32608
L43607 32656
L43607 32918
" />
<path d="M44011 32656
L43845 32656
" />
<path d="M43845 32918
L43845 32418
L44083 32418
" />
</g></g>
</g>
<g style="fill:#006464; fill-opacity:0.0; 
stroke:#006464; stroke-width:60.000000; stroke-opacity:1; 
stroke-linecap:round; stroke-linejoin:round;">
<g >
</g>
<g style="fill:#840000; fill-opacity:0.0; 
stroke:#840000; stroke-width:60.000000; stroke-opacity:1; 
stroke-linecap:round; stroke-linejoin:round;">
<path style="fill:#840000; fill-opacity:0.0; 
stroke:#840000; stroke-width:60.000000; stroke-opacity:1; 
stroke-linecap:round; stroke-linejoin:round;fill:none"
d="M 61000.000000,37000.000000
61000.000000,36500.000000
60600.000000,36250.000000
61000.000000,36000.000000
61400.000000,36250.000000
61000.000000,36500.000000
" /> 
<path d="M61000 37000
L61000 37000
" />
</g>
<g style="fill:#006464; fill-opacity:0.0; 
stroke:#006464; stroke-width:60.000000; stroke-opacity:1; 
stroke-linecap:round; stroke-linejoin:round;">
<text x="61000.000000" y="35842.165354"
textLength="3774.291339" font-size="666.653543" lengthAdjust="spacingAndGlyphs"
text-anchor="middle" opacity="0">PWR_FLAG</text>
<g class="stroked-text"><desc>PWR_FLAG</desc>
<path d="M59261 35818
L59261 35318
L59452 35318
L59500 35342
L59523 35365
L59547 35413
L59547 35485
L59523 35532
L59500 35556
L59452 35580
L59261 35580
" />
<path d="M59714 35318
L59833 35818
L59928 35461
L60023 35818
L60142 35318
" />
<path d="M60619 35818
L60452 35580
" />
<path d="M60333 35818
L60333 35318
L60523 35318
L60571 35342
L60595 35365
L60619 35413
L60619 35485
L60595 35532
L60571 35556
L60523 35580
L60333 35580
" />
<path d="M60714 35865
L61095 35865
" />
<path d="M61380 35556
L61214 35556
" />
<path d="M61214 35818
L61214 35318
L61452 35318
" />
<path d="M61880 35818
L61642 35818
L61642 35318
" />
<path d="M62023 35675
L62261 35675
" />
<path d="M61976 35818
L62142 35318
L62309 35818
" />
<path d="M62738 35342
L62690 35318
L62619 35318
L62547 35342
L62500 35389
L62476 35437
L62452 35532
L62452 35604
L62476 35699
L62500 35746
L62547 35794
L62619 35818
L62666 35818
L62738 35794
L62761 35770
L62761 35604
L62666 35604
" />
</g></g>
</g>
<g style="fill:#006464; fill-opacity:0.0; 
stroke:#006464; stroke-width:60.000000; stroke-opacity:1; 
stroke-linecap:round; stroke-linejoin:round;">
<g >
</g>
<g style="fill:#840000; fill-opacity:0.0; 
stroke:#840000; stroke-width:60.000000; stroke-opacity:1; 
stroke-linecap:round; stroke-linejoin:round;">
<path style="fill:#840000; fill-opacity:0.0; 
stroke:#840000; stroke-width:60.000000; stroke-opacity:1; 
stroke-linecap:round; stroke-linejoin:round;fill:none"
d="M 61000.000000,37000.000000
61000.000000,37500.000000
61500.000000,37500.000000
61000.000000,38000.000000
60500.000000,37500.000000
61000.000000,37500.000000
" /> 
</g>
<g style="fill:#006464; fill-opacity:0.0; 
stroke:#006464; stroke-width:60.000000; stroke-opacity:1; 
stroke-linecap:round; stroke-linejoin:round;">
<text x="61000.000000" y="38999.330709"
textLength="2060.000000" font-size="666.653543" lengthAdjust="spacingAndGlyphs"
text-anchor="middle" opacity="0">GND2</text>
<g class="stroked-text"><desc>GND2</desc>
<path d="M60380 38499
L60333 38475
L60261 38475
L60190 38499
L60142 38546
L60119 38594
L60095 38689
L60095 38761
L60119 38856
L60142 38904
L60190 38951
L60261 38975
L60309 38975
L60380 38951
L60404 38927
L60404 38761
L60309 38761
" />
<path d="M60619 38975
L60619 38475
L60904 38975
L60904 38475
" />
<path d="M61142 38975
L61142 38475
L61261 38475
L61333 38499
L61380 38546
L61404 38594
L61428 38689
L61428 38761
L61404 38856
L61380 38904
L61333 38951
L61261 38975
L61142 38975
" />
<path d="M61619 38523
L61642 38499
L61690 38475
L61809 38475
L61857 38499
L61880 38523
L61904 38570
L61904 38618
L61880 38689
L61595 38975
L61904 38975
" />
</g></g>
</g>
<g style="fill:#006464; fill-opacity:0.0; 
stroke:#006464; stroke-width:60.000000; stroke-opacity:1; 
stroke-linecap:round; stroke-linejoin:round;">
<g >
</g>
<g style="fill:#840000; fill-opacity:0.0; 
stroke:#840000; stroke-width:60.000000; stroke-opacity:1; 
stroke-linecap:round; stroke-linejoin:round;">
</g>
<g style="fill:#FFFFC2; fill-opacity:0.0; 
stroke:#FFFFC2; stroke-width:60.000000; stroke-opacity:1; 
stroke-linecap:round; stroke-linejoin:round;">
</g>
<g style="fill:#FFFFC2; fill-opacity:0.6; 
stroke:#FFFFC2; stroke-width:0.039370; stroke-opacity:1; 
stroke-linecap:round; stroke-linejoin:round;">
<rect x="36500.000000" y="33500.000000" width="1000.000000" height="2000.000000" rx="0.000000" />
</g>
<g style="fill:#840000; fill-opacity:0.6; 
stroke:#840000; stroke-width:0.039370; stroke-opacity:1; 
stroke-linecap:round; stroke-linejoin:round;">
</g>
<g style="fill:#840000; fill-opacity:0.0; 
stroke:#840000; stroke-width:100.000000; stroke-opacity:1; 
stroke-linecap:round; stroke-linejoin:round;">
<rect x="36500.000000" y="33500.000000" width="1000.000000" height="2000.000000" rx="0.000000" />
</g>
<g style="fill:#840000; fill-opacity:0.0; 
stroke:#840000; stroke-width:60.000000; stroke-opacity:1; 
stroke-linecap:round; stroke-linejoin:round;">
<rect x="37000.000000" y="34950.000000" width="500.000000" height="100.000000" rx="0.000000" />
<rect x="37000.000000" y="33950.000000" width="500.000000" height="100.000000" rx="0.000000" />
</g>
<g style="fill:#840000; fill-opacity:0.0; 
stroke:#840000; stroke-width:100.000000; stroke-opacity:1; 
stroke-linecap:round; stroke-linejoin:round;">
<rect x="36500.000000" y="33500.000000" width="1000.000000" height="2000.000000" rx="0.000000" />
</g>
<g style="fill:#840000; fill-opacity:0.0; 
stroke:#840000; stroke-width:60.000000; stroke-opacity:1; 
stroke-linecap:round; stroke-linejoin:round;">
<path d="M37500 34000
L39000 34000
" />
</g>
<g style="fill:#A90000; fill-opacity:0.0; 
stroke:#A90000; stroke-width:60.000000; stroke-opacity:1; 
stroke-linecap:round; stroke-linejoin:round;">
<text x="38250.000000" y="33900.000000"
textLength="536.181102" font-size="666.653543" lengthAdjust="spacingAndGlyphs"
text-anchor="middle" opacity="0">1</text>
<g class="stroked-text"><desc>1</desc>
<path d="M38392 33876
L38107 33876
" />
<path d="M38250 33876
L38250 33376
L38202 33447
L38154 33495
L38107 33519
" />
</g></g>
<g style="fill:#840000; fill-opacity:0.0; 
stroke:#840000; stroke-width:60.000000; stroke-opacity:1; 
stroke-linecap:round; stroke-linejoin:round;">
<path d="M37500 35000
L39000 35000
" />
</g>
<g style="fill:#A90000; fill-opacity:0.0; 
stroke:#A90000; stroke-width:60.000000; stroke-opacity:1; 
stroke-linecap:round; stroke-linejoin:round;">
<text x="38250.000000" y="34900.000000"
textLength="536.181102" font-size="666.653543" lengthAdjust="spacingAndGlyphs"
text-anchor="middle" opacity="0">2</text>
<g class="stroked-text"><desc>2</desc>
<path d="M38107 34423
L38130 34400
L38178 34376
L38297 34376
L38345 34400
L38369 34423
L38392 34471
L38392 34519
L38369 34590
L38083 34876
L38392 34876
" />
</g></g>
<g style="fill:#006464; fill-opacity:0.0; 
stroke:#006464; stroke-width:60.000000; stroke-opacity:1; 
stroke-linecap:round; stroke-linejoin:round;">
<text x="37000.000000" y="32293.346457"
textLength="1869.527559" font-size="666.653543" lengthAdjust="spacingAndGlyphs"
text-anchor="middle" opacity="0">J101</text>
<g class="stroked-text"><desc>J101</desc>
<path d="M36357 31769
L36357 32126
L36333 32198
L36285 32245
L36214 32269
L36166 32269
" />
<path d="M36857 32269
L36571 32269
" />
<path d="M36714 32269
L36714 31769
L36666 31840
L36619 31888
L36571 31912
" />
<path d="M37166 31769
L37214 31769
L37261 31793
L37285 31817
L37309 31864
L37333 31960
L37333 32079
L37309 32174
L37285 32221
L37261 32245
L37214 32269
L37166 32269
L37119 32245
L37095 32221
L37071 32174
L37047 32079
L37047 31960
L37071 31864
L37095 31817
L37119 31793
L37166 31769
" />
<path d="M37809 32269
L37523 32269
" />
<path d="M37666 32269
L37666 31769
L37619 31840
L37571 31888
L37523 31912
" />
</g><text x="37000.000000" y="33292.125984"
textLength="821.889764" font-size="666.653543" lengthAdjust="spacingAndGlyphs"
text-anchor="middle" opacity="0">IN</text>
<g class="stroked-text"><desc>IN</desc>
<path d="M36738 33268
L36738 32768
" />
<path d="M36976 33268
L36976 32768
L37261 33268
L37261 32768
" />
</g></g>
</g>
<g style="fill:#006464; fill-opacity:0.0; 
stroke:#006464; stroke-width:60.000000; stroke-opacity:1; 
stroke-linecap:round; stroke-linejoin:round;">
<g >
</g>
<g style="fill:#840000; fill-opacity:0.0; 
stroke:#840000; stroke-width:60.000000; stroke-opacity:1; 
stroke-linecap:round; stroke-linejoin:round;">
</g>
<g style="fill:#840000; fill-opacity:0.0; 
stroke:#840000; stroke-width:100.000000; stroke-opacity:1; 
stroke-linecap:round; stroke-linejoin:round;">
<rect x="44600.000000" y="35500.000000" width="800.000000" height="2000.000000" rx="0.000000" />
</g>
<g style="fill:#840000; fill-opacity:0.0; 
stroke:#840000; stroke-width:60.000000; stroke-opacity:1; 
stroke-linecap:round; stroke-linejoin:round;">
<path d="M45000 35500
L45000 35000
" />
<path d="M45000 37500
L45000 38000
" />
</g>
<g style="fill:#006464; fill-opacity:0.0; 
stroke:#006464; stroke-width:60.000000; stroke-opacity:1; 
stroke-linecap:round; stroke-linejoin:round;">
<text x="46695.551181" y="36421.338583"
textLength="1988.582677" font-size="666.653543" lengthAdjust="spacingAndGlyphs"
text-anchor="middle" opacity="0">R101</text>
<g class="stroked-text"><desc>R101</desc>
<path d="M46136 36397
L45969 36159
" />
<path d="M45850 36397
L45850 35897
L46040 35897
L46088 35921
L46112 35945
L46136 35992
L46136 36064
L46112 36111
L46088 36135
L46040 36159
L45850 36159
" />
<path d="M46612 36397
L46326 36397
" />
<path d="M46469 36397
L46469 35897
L46421 35968
L46374 36016
L46326 36040
" />
<path d="M46921 35897
L46969 35897
L47016 35921
L47040 35945
L47064 35992
L47088 36087
L47088 36207
L47064 36302
L47040 36349
L47016 36373
L46969 36397
L46921 36397
L46874 36373
L46850 36349
L46826 36302
L46802 36207
L46802 36087
L46826 35992
L46850 35945
L46874 35921
L46921 35897
" />
<path d="M47564 36397
L47278 36397
" />
<path d="M47421 36397
L47421 35897
L47374 35968
L47326 36016
L47278 36040
" />
</g><text x="46171.732283" y="37420.118110"
textLength="940.944882" font-size="666.653543" lengthAdjust="spacingAndGlyphs"
text-anchor="middle" opacity="0">1k</text>
<g class="stroked-text"><desc>1k</desc>
<path d="M46112 37396
L45826 37396
" />
<path d="M45969 37396
L45969 36896
L45921 36967
L45874 37015
L45826 37039
" />
<path d="M46326 37396
L46326 36896
" />
<path d="M46374 37205
L46516 37396
" />
<path d="M46516 37062
L46326 37253
" />
</g></g>
</g>
<g style="fill:#006464; fill-opacity:0.0; 
stroke:#006464; stroke-width:60.000000; stroke-opacity:1; 
stroke-linecap:round; stroke-linejoin:round;">
<g >
</g>
<g style="fill:#840000; fill-opacity:0.0; 
stroke:#840000; stroke-width:60.000000; stroke-opacity:1; 
stroke-linecap:round; stroke-linejoin:round;">
<path style="fill:#840000; fill-opacity:0.0; 
stroke:#840000; stroke-width:60.000000; stroke-opacity:1; 
stroke-linecap:round; stroke-linejoin:round;fill:none"
d="M 49500.000000,37000.000000
49500.000000,37500.000000
50000.000000,37500.000000
49500.000000,38000.000000
49000.000000,37500.000000
49500.000000,37500.000000
" /> 
</g>
<g style="fill:#006464; fill-opacity:0.0; 
stroke:#006464; stroke-width:60.000000; stroke-opacity:1; 
stroke-linecap:round; stroke-linejoin:round;">
<text x="49500.000000" y="38999.330709"
textLength="2060.000000" font-size="666.653543" lengthAdjust="spacingAndGlyphs"
text-anchor="middle" opacity="0">GND2</text>
<g class="stroked-text"><desc>GND2</desc>
<path d="M48880 38499
L48833 38475
L48761 38475
L48690 38499
L48642 38546
L48619 38594
L48595 38689
L48595 38761
L48619 38856
L48642 38904
L48690 38951
L48761 38975
L48809 38975
L48880 38951
L48904 38927
L48904 38761
L48809 38761
" />
<path d="M49119 38975
L49119 38475
L49404 38975
L49404 38475
" />
<path d="M49642 38975
L49642 38475
L49761 38475
L49833 38499
L49880 38546
L49904 38594
L49928 38689
L49928 38761
L49904 38856
L49880 38904
L49833 38951
L49761 38975
L49642 38975
" />
<path d="M50119 38523
L50142 38499
L50190 38475
L50309 38475
L50357 38499
L50380 38523
L50404 38570
L50404 38618
L50380 38689
L50095 38975
L50404 38975
" />
</g></g>
</g>
<g style="fill:#006464; fill-opacity:0.0; 
stroke:#006464; stroke-width:60.000000; stroke-opacity:1; 
stroke-linecap:round; stroke-linejoin:round;">
<g >
</g>
<g style="fill:#840000; fill-opacity:0.0; 
stroke:#840000; stroke-width:60.000000; stroke-opacity:1; 
stroke-linecap:round; stroke-linejoin:round;">
<path style="fill:#840000; fill-opacity:0.0; 
stroke:#840000; stroke-width:60.000000; stroke-opacity:1; 
stroke-linecap:round; stroke-linejoin:round;fill:none"
d="M 45000.000000,39000.000000
45000.000000,39500.000000
45500.000000,39500.000000
45000.000000,40000.000000
44500.000000,39500.000000
45000.000000,39500.000000
" /> 
</g>
<g style="fill:#006464; fill-opacity:0.0; 
stroke:#006464; stroke-width:60.000000; stroke-opacity:1; 
stroke-linecap:round; stroke-linejoin:round;">
<text x="45000.000000" y="40999.330709"
textLength="2060.000000" font-size="666.653543" lengthAdjust="spacingAndGlyphs"
text-anchor="middle" opacity="0">GND2</text>
<g class="stroked-text"><desc>GND2</desc>
<path d="M44380 40499
L44333 40475
L44261 40475
L44190 40499
L44142 40546
L44119 40594
L44095 40689
L44095 40761
L44119 40856
L44142 40904
L44190 40951
L44261 40975
L44309 40975
L44380 40951
L44404 40927
L44404 40761
L44309 40761
" />
<path d="M44619 40975
L44619 40475
L44904 40975
L44904 40475
" />
<path d="M45142 40975
L45142 40475
L45261 40475
L45333 40499
L45380 40546
L45404 40594
L45428 40689
L45428 40761
L45404 40856
L45380 40904
L45333 40951
L45261 40975
L45142 40975
" />
<path d="M45619 40523
L45642 40499
L45690 40475
L45809 40475
L45857 40499
L45880 40523
L45904 40570
L45904 40618
L45880 40689
L45595 40975
L45904 40975
" />
</g></g>
</g>
<g style="fill:#006464; fill-opacity:0.0; 
stroke:#006464; stroke-width:60.000000; stroke-opacity:1; 
stroke-linecap:round; stroke-linejoin:round;">
<g >
</g>
<g style="fill:#840000; fill-opacity:0.0; 
stroke:#840000; stroke-width:60.000000; stroke-opacity:1; 
stroke-linecap:round; stroke-linejoin:round;">
<path style="fill:#840000; fill-opacity:0.0; 
stroke:#840000; stroke-width:60.000000; stroke-opacity:1; 
stroke-linecap:round; stroke-linejoin:round;fill:none"
d="M 39000.000000,36000.000000
39000.000000,36500.000000
39500.000000,36500.000000
39000.000000,37000.000000
38500.000000,36500.000000
39000.000000,36500.000000
" /> 
</g>
<g style="fill:#006464; fill-opacity:0.0; 
stroke:#006464; stroke-width:60.000000; stroke-opacity:1; 
stroke-linecap:round; stroke-linejoin:round;">
<text x="39000.000000" y="37999.330709"
textLength="2060.000000" font-size="666.653543" lengthAdjust="spacingAndGlyphs"
text-anchor="middle" opacity="0">GND2</text>
<g class="stroked-text"><desc>GND2</desc>
<path d="M38380 37499
L38333 37475
L38261 37475
L38190 37499
L38142 37546
L38119 37594
L38095 37689
L38095 37761
L38119 37856
L38142 37904
L38190 37951
L38261 37975
L38309 37975
L38380 37951
L38404 37927
L38404 37761
L38309 37761
" />
<path d="M38619 37975
L38619 37475
L38904 37975
L38904 37475
" />
<path d="M39142 37975
L39142 37475
L39261 37475
L39333 37499
L39380 37546
L39404 37594
L39428 37689
L39428 37761
L39404 37856
L39380 37904
L39333 37951
L39261 37975
L39142 37975
" />
<path d="M39619 37523
L39642 37499
L39690 37475
L39809 37475
L39857 37499
L39880 37523
L39904 37570
L39904 37618
L39880 37689
L39595 37975
L39904 37975
" />
</g></g>
</g>
<g style="fill:#006464; fill-opacity:0.0; 
stroke:#006464; stroke-width:60.000000; stroke-opacity:1; 
stroke-linecap:round; stroke-linejoin:round;">
<g >
</g>
<g style="fill:#840000; fill-opacity:0.0; 
stroke:#840000; stroke-width:60.000000; stroke-opacity:1; 
stroke-linecap:round; stroke-linejoin:round;">
</g>
<g style="fill:#840000; fill-opacity:0.0; 
stroke:#840000; stroke-width:200.000000; stroke-opacity:1; 
stroke-linecap:round; stroke-linejoin:round;">
<path style="fill:#840000; fill-opacity:0.0; 
stroke:#840000; stroke-width:200.000000; stroke-opacity:1; 
stroke-linecap:round; stroke-linejoin:round;fill:none"
d="M 47300.000000,34800.000000
47300.000000,33200.000000
" /> 
<path style="fill:#840000; fill-opacity:0.0; 
stroke:#840000; stroke-width:200.000000; stroke-opacity:1; 
stroke-linecap:round; stroke-linejoin:round;fill:none"
d="M 46700.000000,34800.000000
46700.000000,33200.000000
" /> 
</g>
<g style="fill:#840000; fill-opacity:0.0; 
stroke:#840000; stroke-width:60.000000; stroke-opacity:1; 
stroke-linecap:round; stroke-linejoin:round;">
<path d="M46600 34000
L45500 34000
" />
<path d="M47400 34000
L48500 34000
" />
</g>
<g style="fill:#006464; fill-opacity:0.0; 
stroke:#006464; stroke-width:60.000000; stroke-opacity:1; 
stroke-linecap:round; stroke-linejoin:round;">
<text x="47000.000000" y="31943.385827"
textLength="1988.582677" font-size="666.653543" lengthAdjust="spacingAndGlyphs"
text-anchor="middle" opacity="0">C102</text>
<g class="stroked-text"><desc>C102</desc>
<path d="M46440 31871
L46416 31895
L46345 31919
L46297 31919
L46226 31895
L46178 31848
L46154 31800
L46130 31705
L46130 31633
L46154 31538
L46178 31490
L46226 31443
L46297 31419
L46345 31419
L46416 31443
L46440 31467
" />
<path d="M46916 31919
L46630 31919
" />
<path d="M46773 31919
L46773 31419
L46726 31490
L46678 31538
L46630 31562
" />
<path d="M47226 31419
L47273 31419
L47321 31443
L47345 31467
L47369 31514
L47392 31610
L47392 31729
L47369 31824
L47345 31871
L47321 31895
L47273 31919
L47226 31919
L47178 31895
L47154 31871
L47130 31824
L47107 31729
L47107 31610
L47130 31514
L47154 31467
L47178 31443
L47226 31419
" />
<path d="M47583 31467
L47607 31443
L47654 31419
L47773 31419
L47821 31443
L47845 31467
L47869 31514
L47869 31562
L47845 31633
L47559 31919
L47869 31919
" />
</g><text x="47000.000000" y="32942.165354"
textLength="2369.527559" font-size="666.653543" lengthAdjust="spacingAndGlyphs"
text-anchor="middle" opacity="0">100nF</text>
<g class="stroked-text"><desc>100nF</desc>
<path d="M46226 32918
L45940 32918
" />
<path d="M46083 32918
L46083 32418
L46035 32489
L45988 32537
L45940 32561
" />
<path d="M46535 32418
L46583 32418
L46630 32442
L46654 32465
L46678 32513
L46702 32608
L46702 32727
L46678 32823
L46654 32870
L46630 32894
L46583 32918
L46535 32918
L46488 32894
L46464 32870
L46440 32823
L46416 32727
L46416 32608
L46440 32513
L46464 32465
L46488 32442
L46535 32418
" />
<path d="M47011 32418
L47059 32418
L47107 32442
L47130 32465
L47154 32513
L47178 32608
L47178 32727
L47154 32823
L47130 32870
L47107 32894
L47059 32918
L47011 32918
L46964 32894
L46940 32870
L46916 32823
L46892 32727
L46892 32608
L46916 32513
L46940 32465
L46964 32442
L47011 32418
" />
<path d="M47392 32585
L47392 32918
" />
<path d="M47392 32632
L47416 32608
L47464 32585
L47535 32585
L47583 32608
L47607 32656
L47607 32918
" />
<path d="M48011 32656
L47845 32656
" />
<path d="M47845 32918
L47845 32418
L48083 32418
" />
</g></g>
</g>
<g style="fill:#006464; fill-opacity:0.0; 
stroke:#006464; stroke-width:62.519685; stroke-opacity:1; 
stroke-linecap:round; stroke-linejoin:round;">
</g>
<g style="fill:#006464; fill-opacity:0.0; 
stroke:#006464; stroke-width:60.000000; stroke-opacity:1; 
stroke-linecap:round; stroke-linejoin:round;">
</g>
<g style="fill:#725600; fill-opacity:0.0; 
stroke:#725600; stroke-width:60.000000; stroke-opacity:1; 
stroke-linecap:round; stroke-linejoin:round;">
<text x="53575.000000" y="31250.000000"
textLength="1488.582677" font-size="666.653543" lengthAdjust="spacingAndGlyphs"
text-anchor="start" opacity="0">OUT</text>
<g class="stroked-text"><desc>OUT</desc>
<path d="M53819 30726
L53914 30726
L53962 30750
L54009 30797
L54033 30892
L54033 31059
L54009 31154
L53962 31202
L53914 31226
L53819 31226
L53771 31202
L53724 31154
L53700 31059
L53700 30892
L53724 30797
L53771 30750
L53819 30726
" />
<path d="M54247 30726
L54247 31130
L54271 31178
L54295 31202
L54343 31226
L54438 31226
L54485 31202
L54509 31178
L54533 31130
L54533 30726
" />
<path d="M54700 30726
L54985 30726
" />
<path d="M54843 31226
L54843 30726
" />
</g><path style="fill:#725600; fill-opacity:0.0; 
stroke:#725600; stroke-width:60.000000; stroke-opacity:1; 
stroke-linecap:round; stroke-linejoin:round;fill:none"
d="M 53500.000000,31000.000000
53250.000000,30750.000000
53000.000000,30750.000000
53000.000000,31250.000000
53250.000000,31250.000000
Z" /> 
</g>
<g style="fill:#725600; fill-opacity:0.0; 
stroke:#725600; stroke-width:62.519685; stroke-opacity:1; 
stroke-linecap:round; stroke-linejoin:round;">
</g>
<g style="fill:#725600; fill-opacity:0.0; 
stroke:#725600; stroke-width:60.000000; stroke-opacity:1; 
stroke-linecap:round; stroke-linejoin:round;">
<text x="36925.000000" y="31250.000000"
textLength="821.889764" font-size="666.653543" lengthAdjust="spacingAndGlyphs"
text-anchor="end" opacity="0">IN</text>
<g class="stroked-text"><desc>IN</desc>
<path d="M36252 31226
L36252 30726
" />
<path d="M36490 31226
L36490 30726
L36775 31226
L36775 30726
" />
</g><path style="fill:#725600; fill-opacity:0.0; 
stroke:#725600; stroke-width:60.000000; stroke-opacity:1; 
stroke-linecap:round; stroke-linejoin:round;fill:none"
d="M 37500.000000,31000.000000
37250.000000,30750.000000
37000.000000,30750.000000
37000.000000,31250.000000
37250.000000,31250.000000
Z" /> 
</g>
<g style="fill:#009600; fill-opacity:0.0; 
stroke:#009600; stroke-width:60.000000; stroke-opacity:1; 
stroke-linecap:round; stroke-linejoin:round;">
<path d="M49500 35000
L52000 35000
" />
<path d="M51000 34000
L52000 34000
" />
<path d="M37500 31000
L40500 31000
" />
<path d="M39000 35000
L39000 36000
" />
<path d="M40500 31000
L40500 34000
" />
<path d="M39000 34000
L40500 34000
" />
<path d="M44500 34000
L45000 34000
" />
<path d="M53000 31000
L51000 31000
" />
<path d="M51000 31000
L51000 34000
" />
<path d="M45000 38000
L45000 39000
" />
<path d="M48500 34000
L51000 34000
" />
<path d="M45000 34000
L45500 34000
" />
<path d="M45000 34000
L45000 35000
" />
<path d="M49500 37000
L49500 35000
" />
<path d="M40500 34000
L41500 34000
" />
</g>
<g style="fill:#006464; fill-opacity:0.0; 
stroke:#006464; stroke-width:60.000000; stroke-opacity:1; 
stroke-linecap:round; stroke-linejoin:round;">
<text x="61000.000000" y="38999.330709"
textLength="2060.000000" font-size="666.653543" lengthAdjust="spacingAndGlyphs"
text-anchor="middle" opacity="0">GND2</text>
<g class="stroked-text"><desc>GND2</desc>
<path d="M60380 38499
L60333 38475
L60261 38475
L60190 38499
L60142 38546
L60119 38594
L60095 38689
L60095 38761
L60119 38856
L60142 38904
L60190 38951
L60261 38975
L60309 38975
L60380 38951
L60404 38927
L60404 38761
L60309 38761
" />
<path d="M60619 38975
L60619 38475
L60904 38975
L60904 38475
" />
<path d="M61142 38975
L61142 38475
L61261 38475
L61333 38499
L61380 38546
L61404 38594
L61428 38689
L61428 38761
L61404 38856
L61380 38904
L61333 38951
L61261 38975
L61142 38975
" />
<path d="M61619 38523
L61642 38499
L61690 38475
L61809 38475
L61857 38499
L61880 38523
L61904 38570
L61904 38618
L61880 38689
L61595 38975
L61904 38975
" />
</g><text x="61000.000000" y="35842.165354"
textLength="3774.291339" font-size="666.653543" lengthAdjust="spacingAndGlyphs"
text-anchor="middle" opacity="0">PWR_FLAG</text>
<g class="stroked-text"><desc>PWR_FLAG</desc>
<path d="M59261 35818
L59261 35318
L59452 35318
L59500 35342
L59523 35365
L59547 35413
L59547 35485
L59523 35532
L59500 35556
L59452 35580
L59261 35580
" />
<path d="M59714 35318
L59833 35818
L59928 35461
L60023 35818
L60142 35318
" />
<path d="M60619 35818
L60452 35580
" />
<path d="M60333 35818
L60333 35318
L60523 35318
L60571 35342
L60595 35365
L60619 35413
L60619 35485
L60595 35532
L60571 35556
L60523 35580
L60333 35580
" />
<path d="M60714 35865
L61095 35865
" />
<path d="M61380 35556
L61214 35556
" />
<path d="M61214 35818
L61214 35318
L61452 35318
" />
<path d="M61880 35818
L61642 35818
L61642 35318
" />
<path d="M62023 35675
L62261 35675
" />
<path d="M61976 35818
L62142 35318
L62309 35818
" />
<path d="M62738 35342
L62690 35318
L62619 35318
L62547 35342
L62500 35389
L62476 35437
L62452 35532
L62452 35604
L62476 35699
L62500 35746
L62547 35794
L62619 35818
L62666 35818
L62738 35794
L62761 35770
L62761 35604
L62666 35604
" />
</g></g>
<g style="fill:#840000; fill-opacity:0.0; 
stroke:#840000; stroke-width:60.000000; stroke-opacity:1; 
stroke-linecap:round; stroke-linejoin:round;">
<path d="M61000 37000
L61000 37000
" />
</g>
<g style="fill:#009600; fill-opacity:0.0; 
stroke:#009600; stroke-width:60.000000; stroke-opacity:1; 
stroke-linecap:round; stroke-linejoin:round;">
</g>
<g style="fill:#009600; fill-opacity:1.0; 
stroke:#009600; stroke-width:60.000000; stroke-opacity:1; 
stroke-linecap:round; stroke-linejoin:round;">
<circle cx="45000.000000" cy="34000.000000" r="180.000000" /> 
<circle cx="40500.000000" cy="34000.000000" r="180.000000" /> 
<circle cx="51000.000000" cy="34000.000000" r="180.000000" /> 
</g> 
</svg>
