<?xml version="1.0" standalone="no"?>
 <!DOCTYPE svg PUBLIC "-//W3C//DTD SVG 1.1//EN" 
 "http://www.w3.org/Graphics/SVG/1.1/DTD/svg11.dtd"> 
<svg
  xmlns:svg="http://www.w3.org/2000/svg"
  xmlns="http://www.w3.org/2000/svg"
  xmlns:xlink="http://www.w3.org/1999/xlink"
  version="1.1"
  width="29.700220cm" height="21.000720cm" viewBox="0 0 116930 82680">
<title>SVG Picture created as Filter_B.svg date 2022/11/25 14:16:03 </title>
  <desc>Picture generated by Eeschema-SVG </desc>
<g style="fill:#000000; fill-opacity:1.000000;stroke:#000000; stroke-opacity:1.000000;
stroke-linecap:round; stroke-linejoin:round;"
 transform="translate(0 0) scale(1 1)">
</g>
<g style="fill:#840000; fill-opacity:0.0; 
stroke:#840000; stroke-width:0.000000; stroke-opacity:1; 
stroke-linecap:round; stroke-linejoin:round;">
</g>
<g style="fill:#840000; fill-opacity:0.0; 
stroke:#840000; stroke-width:60.000000; stroke-opacity:1; 
stroke-linecap:round; stroke-linejoin:round;">
<rect x="69685.905512" y="65357.165354" width="42519.685039" height="12598.425197" rx="0.000000" />
<rect x="3937.007874" y="3937.007874" width="109055.984252" height="74805.984252" rx="0.000000" />
<rect x="4724.409449" y="4724.409449" width="107481.181102" height="73231.181102" rx="0.000000" />
<path d="M23622 4724
L23622 3937
" />
<path d="M43307 4724
L43307 3937
" />
<path d="M62992 4724
L62992 3937
" />
<path d="M82677 4724
L82677 3937
" />
<path d="M102362 4724
L102362 3937
" />
<text x="13779.527559" y="4586.614173"
textLength="549.960630" font-size="682.401575" lengthAdjust="spacingAndGlyphs"
text-anchor="start" opacity="0">1</text>
<g class="stroked-text"><desc>1</desc>
<path d="M14199 4562
L13907 4562
" />
<path d="M14053 4562
L14053 4050
L14004 4123
L13955 4172
L13907 4196
" />
</g><text x="33464.566929" y="4586.614173"
textLength="547.440945" font-size="682.401575" lengthAdjust="spacingAndGlyphs"
text-anchor="start" opacity="0">2</text>
<g class="stroked-text"><desc>2</desc>
<path d="M33592 4099
L33616 4074
L33665 4050
L33787 4050
L33835 4074
L33860 4099
L33884 4147
L33884 4196
L33860 4269
L33567 4562
L33884 4562
" />
</g><text x="53149.606299" y="4586.614173"
textLength="547.440945" font-size="682.401575" lengthAdjust="spacingAndGlyphs"
text-anchor="start" opacity="0">3</text>
<g class="stroked-text"><desc>3</desc>
<path d="M53252 4050
L53569 4050
L53398 4245
L53472 4245
L53520 4269
L53545 4294
L53569 4342
L53569 4464
L53545 4513
L53520 4537
L53472 4562
L53325 4562
L53277 4537
L53252 4513
" />
</g><text x="72834.645669" y="4586.614173"
textLength="547.440945" font-size="682.401575" lengthAdjust="spacingAndGlyphs"
text-anchor="start" opacity="0">4</text>
<g class="stroked-text"><desc>4</desc>
<path d="M73205 4221
L73205 4562
" />
<path d="M73083 4026
L72962 4391
L73278 4391
" />
</g><text x="92519.685039" y="4586.614173"
textLength="547.440945" font-size="682.401575" lengthAdjust="spacingAndGlyphs"
text-anchor="start" opacity="0">5</text>
<g class="stroked-text"><desc>5</desc>
<path d="M92915 4050
L92671 4050
L92647 4294
L92671 4269
L92720 4245
L92842 4245
L92890 4269
L92915 4294
L92939 4342
L92939 4464
L92915 4513
L92890 4537
L92842 4562
L92720 4562
L92671 4537
L92647 4513
" />
</g><text x="112204.724409" y="4586.614173"
textLength="547.440945" font-size="682.401575" lengthAdjust="spacingAndGlyphs"
text-anchor="start" opacity="0">6</text>
<g class="stroked-text"><desc>6</desc>
<path d="M112575 4050
L112478 4050
L112429 4074
L112405 4099
L112356 4172
L112332 4269
L112332 4464
L112356 4513
L112380 4537
L112429 4562
L112527 4562
L112575 4537
L112600 4513
L112624 4464
L112624 4342
L112600 4294
L112575 4269
L112527 4245
L112429 4245
L112380 4269
L112356 4294
L112332 4342
" />
</g><path d="M23622 77955
L23622 78742
" />
<path d="M43307 77955
L43307 78742
" />
<path d="M62992 77955
L62992 78742
" />
<path d="M82677 77955
L82677 78742
" />
<path d="M102362 77955
L102362 78742
" />
<text x="13779.527559" y="78605.196850"
textLength="547.440945" font-size="682.401575" lengthAdjust="spacingAndGlyphs"
text-anchor="start" opacity="0">1</text>
<g class="stroked-text"><desc>1</desc>
<path d="M14199 78580
L13907 78580
" />
<path d="M14053 78580
L14053 78068
L14004 78142
L13955 78190
L13907 78215
" />
</g><text x="33464.566929" y="78605.196850"
textLength="547.440945" font-size="682.401575" lengthAdjust="spacingAndGlyphs"
text-anchor="start" opacity="0">2</text>
<g class="stroked-text"><desc>2</desc>
<path d="M33592 78117
L33616 78093
L33665 78068
L33787 78068
L33835 78093
L33860 78117
L33884 78166
L33884 78215
L33860 78288
L33567 78580
L33884 78580
" />
</g><text x="53149.606299" y="78605.196850"
textLength="547.440945" font-size="682.401575" lengthAdjust="spacingAndGlyphs"
text-anchor="start" opacity="0">3</text>
<g class="stroked-text"><desc>3</desc>
<path d="M53252 78068
L53569 78068
L53398 78263
L53472 78263
L53520 78288
L53545 78312
L53569 78361
L53569 78483
L53545 78532
L53520 78556
L53472 78580
L53325 78580
L53277 78556
L53252 78532
" />
</g><text x="72834.645669" y="78605.196850"
textLength="547.440945" font-size="682.401575" lengthAdjust="spacingAndGlyphs"
text-anchor="start" opacity="0">4</text>
<g class="stroked-text"><desc>4</desc>
<path d="M73205 78239
L73205 78580
" />
<path d="M73083 78044
L72962 78410
L73278 78410
" />
</g><text x="92519.685039" y="78605.196850"
textLength="547.440945" font-size="682.401575" lengthAdjust="spacingAndGlyphs"
text-anchor="start" opacity="0">5</text>
<g class="stroked-text"><desc>5</desc>
<path d="M92915 78068
L92671 78068
L92647 78312
L92671 78288
L92720 78263
L92842 78263
L92890 78288
L92915 78312
L92939 78361
L92939 78483
L92915 78532
L92890 78556
L92842 78580
L92720 78580
L92671 78556
L92647 78532
" />
</g><text x="112204.724409" y="78605.196850"
textLength="547.440945" font-size="682.401575" lengthAdjust="spacingAndGlyphs"
text-anchor="start" opacity="0">6</text>
<g class="stroked-text"><desc>6</desc>
<path d="M112575 78068
L112478 78068
L112429 78093
L112405 78117
L112356 78190
L112332 78288
L112332 78483
L112356 78532
L112380 78556
L112429 78580
L112527 78580
L112575 78556
L112600 78532
L112624 78483
L112624 78361
L112600 78312
L112575 78288
L112527 78263
L112429 78263
L112380 78288
L112356 78312
L112332 78361
" />
</g><path d="M3937 23622
L4724 23622
" />
<path d="M3937 43307
L4724 43307
" />
<path d="M3937 62992
L4724 62992
" />
<text x="4330.708661" y="14035.433071"
textLength="498.700787" font-size="682.401575" lengthAdjust="spacingAndGlyphs"
text-anchor="middle" opacity="0">A</text>
<g class="stroked-text"><desc>A</desc>
<path d="M4208 13864
L4452 13864
" />
<path d="M4160 14011
L4330 13499
L4501 14011
" />
</g><text x="4330.708661" y="33720.472441"
textLength="571.811024" font-size="682.401575" lengthAdjust="spacingAndGlyphs"
text-anchor="middle" opacity="0">B</text>
<g class="stroked-text"><desc>B</desc>
<path d="M4367 33427
L4440 33452
L4464 33476
L4489 33525
L4489 33598
L4464 33647
L4440 33671
L4391 33696
L4196 33696
L4196 33184
L4367 33184
L4415 33208
L4440 33233
L4464 33281
L4464 33330
L4440 33379
L4415 33403
L4367 33427
L4196 33427
" />
</g><text x="4330.708661" y="53405.511811"
textLength="571.811024" font-size="682.401575" lengthAdjust="spacingAndGlyphs"
text-anchor="middle" opacity="0">C</text>
<g class="stroked-text"><desc>C</desc>
<path d="M4489 53332
L4464 53356
L4391 53381
L4342 53381
L4269 53356
L4221 53307
L4196 53259
L4172 53161
L4172 53088
L4196 52991
L4221 52942
L4269 52893
L4342 52869
L4391 52869
L4464 52893
L4489 52918
" />
</g><text x="4330.708661" y="73090.551181"
textLength="571.811024" font-size="682.401575" lengthAdjust="spacingAndGlyphs"
text-anchor="middle" opacity="0">D</text>
<g class="stroked-text"><desc>D</desc>
<path d="M4196 73066
L4196 72554
L4318 72554
L4391 72578
L4440 72627
L4464 72676
L4489 72773
L4489 72846
L4464 72944
L4440 72993
L4391 73041
L4318 73066
L4196 73066
" />
</g><path d="M112992 23622
L112205 23622
" />
<path d="M112992 43307
L112205 43307
" />
<path d="M112992 62992
L112205 62992
" />
<text x="112599.291339" y="14035.433071"
textLength="498.700787" font-size="682.401575" lengthAdjust="spacingAndGlyphs"
text-anchor="middle" opacity="0">A</text>
<g class="stroked-text"><desc>A</desc>
<path d="M112477 13864
L112721 13864
" />
<path d="M112428 14011
L112599 13499
L112769 14011
" />
</g><text x="112599.291339" y="33720.472441"
textLength="571.811024" font-size="682.401575" lengthAdjust="spacingAndGlyphs"
text-anchor="middle" opacity="0">B</text>
<g class="stroked-text"><desc>B</desc>
<path d="M112635 33427
L112708 33452
L112733 33476
L112757 33525
L112757 33598
L112733 33647
L112708 33671
L112660 33696
L112465 33696
L112465 33184
L112635 33184
L112684 33208
L112708 33233
L112733 33281
L112733 33330
L112708 33379
L112684 33403
L112635 33427
L112465 33427
" />
</g><text x="112599.291339" y="53405.511811"
textLength="571.811024" font-size="682.401575" lengthAdjust="spacingAndGlyphs"
text-anchor="middle" opacity="0">C</text>
<g class="stroked-text"><desc>C</desc>
<path d="M112757 53332
L112733 53356
L112660 53381
L112611 53381
L112538 53356
L112489 53307
L112465 53259
L112440 53161
L112440 53088
L112465 52991
L112489 52942
L112538 52893
L112611 52869
L112660 52869
L112733 52893
L112757 52918
" />
</g><text x="112599.291339" y="73090.551181"
textLength="571.811024" font-size="682.401575" lengthAdjust="spacingAndGlyphs"
text-anchor="middle" opacity="0">D</text>
<g class="stroked-text"><desc>D</desc>
<path d="M112465 73066
L112465 72554
L112587 72554
L112660 72578
L112708 72627
L112733 72676
L112757 72773
L112757 72846
L112733 72944
L112708 72993
L112660 73041
L112587 73066
L112465 73066
" />
</g><text x="78741.023622" y="76321.732283"
textLength="2759.645669" font-size="787.401575" lengthAdjust="spacingAndGlyphs"
text-anchor="start" opacity="0">Date: </text>
<g class="stroked-text"><desc>Date: </desc>
<path d="M78911 76293
L78911 75703
L79052 75703
L79136 75731
L79192 75787
L79220 75843
L79249 75956
L79249 76040
L79220 76152
L79192 76209
L79136 76265
L79052 76293
L78911 76293
" />
<path d="M79755 76293
L79755 75984
L79727 75928
L79670 75899
L79558 75899
L79502 75928
" />
<path d="M79755 76265
L79699 76293
L79558 76293
L79502 76265
L79474 76209
L79474 76152
L79502 76096
L79558 76068
L79699 76068
L79755 76040
" />
<path d="M79952 75899
L80177 75899
" />
<path d="M80036 75703
L80036 76209
L80064 76265
L80120 76293
L80177 76293
" />
<path d="M80598 76265
L80542 76293
L80430 76293
L80373 76265
L80345 76209
L80345 75984
L80373 75928
L80430 75899
L80542 75899
L80598 75928
L80627 75984
L80627 76040
L80345 76096
" />
<path d="M80880 76237
L80908 76265
L80880 76293
L80852 76265
L80880 76237
L80880 76293
" />
<path d="M80880 75928
L80908 75956
L80880 75984
L80852 75956
L80880 75928
L80880 75984
" />
</g><path d="M69685 76577
L112205 76577
" />
<text x="70079.606299" y="77424.094488"
textLength="21826.023622" font-size="787.401575" lengthAdjust="spacingAndGlyphs"
text-anchor="start" opacity="0">KiCad E.D.A.  eeschema 6.0.9+dfsg-1~bpo11+1</text>
<g class="stroked-text"><desc>KiCad E.D.A.  eeschema 6.0.9+dfsg-1~bpo11+1</desc>
<path d="M70250 77395
L70250 76805
" />
<path d="M70587 77395
L70334 77058
" />
<path d="M70587 76805
L70250 77142
" />
<path d="M70840 77395
L70840 77002
" />
<path d="M70840 76805
L70812 76833
L70840 76861
L70868 76833
L70840 76805
L70840 76861
" />
<path d="M71459 77339
L71431 77367
L71346 77395
L71290 77395
L71206 77367
L71150 77311
L71121 77255
L71093 77142
L71093 77058
L71121 76946
L71150 76889
L71206 76833
L71290 76805
L71346 76805
L71431 76833
L71459 76861
" />
<path d="M71965 77395
L71965 77086
L71937 77030
L71881 77002
L71768 77002
L71712 77030
" />
<path d="M71965 77367
L71909 77395
L71768 77395
L71712 77367
L71684 77311
L71684 77255
L71712 77199
L71768 77170
L71909 77170
L71965 77142
" />
<path d="M72499 77395
L72499 76805
" />
<path d="M72499 77367
L72443 77395
L72331 77395
L72274 77367
L72246 77339
L72218 77283
L72218 77114
L72246 77058
L72274 77030
L72331 77002
L72443 77002
L72499 77030
" />
<path d="M73231 77086
L73427 77086
" />
<path d="M73512 77395
L73231 77395
L73231 76805
L73512 76805
" />
<path d="M73765 77339
L73793 77367
L73765 77395
L73737 77367
L73765 77339
L73765 77395
" />
<path d="M74046 77395
L74046 76805
L74187 76805
L74271 76833
L74327 76889
L74355 76946
L74384 77058
L74384 77142
L74355 77255
L74327 77311
L74271 77367
L74187 77395
L74046 77395
" />
<path d="M74637 77339
L74665 77367
L74637 77395
L74609 77367
L74637 77339
L74637 77395
" />
<path d="M74890 77227
L75171 77227
" />
<path d="M74834 77395
L75030 76805
L75227 77395
" />
<path d="M75424 77339
L75452 77367
L75424 77395
L75396 77367
L75424 77339
L75424 77395
" />
<path d="M76830 77367
L76774 77395
L76661 77395
L76605 77367
L76577 77311
L76577 77086
L76605 77030
L76661 77002
L76774 77002
L76830 77030
L76858 77086
L76858 77142
L76577 77199
" />
<path d="M77336 77367
L77280 77395
L77168 77395
L77111 77367
L77083 77311
L77083 77086
L77111 77030
L77168 77002
L77280 77002
L77336 77030
L77364 77086
L77364 77142
L77083 77199
" />
<path d="M77589 77367
L77646 77395
L77758 77395
L77814 77367
L77842 77311
L77842 77283
L77814 77227
L77758 77199
L77674 77199
L77618 77170
L77589 77114
L77589 77086
L77618 77030
L77674 77002
L77758 77002
L77814 77030
" />
<path d="M78349 77367
L78292 77395
L78180 77395
L78124 77367
L78096 77339
L78067 77283
L78067 77114
L78096 77058
L78124 77030
L78180 77002
L78292 77002
L78349 77030
" />
<path d="M78602 77395
L78602 76805
" />
<path d="M78855 77395
L78855 77086
L78827 77030
L78771 77002
L78686 77002
L78630 77030
L78602 77058
" />
<path d="M79361 77367
L79305 77395
L79192 77395
L79136 77367
L79108 77311
L79108 77086
L79136 77030
L79192 77002
L79305 77002
L79361 77030
L79389 77086
L79389 77142
L79108 77199
" />
<path d="M79642 77395
L79642 77002
" />
<path d="M79642 77058
L79670 77030
L79727 77002
L79811 77002
L79867 77030
L79895 77086
L79895 77395
" />
<path d="M79895 77086
L79923 77030
L79980 77002
L80064 77002
L80120 77030
L80148 77086
L80148 77395
" />
<path d="M80683 77395
L80683 77086
L80655 77030
L80598 77002
L80486 77002
L80430 77030
" />
<path d="M80683 77367
L80627 77395
L80486 77395
L80430 77367
L80402 77311
L80402 77255
L80430 77199
L80486 77170
L80627 77170
L80683 77142
" />
<path d="M81667 76805
L81555 76805
L81498 76833
L81470 76861
L81414 76946
L81386 77058
L81386 77283
L81414 77339
L81442 77367
L81498 77395
L81611 77395
L81667 77367
L81695 77339
L81723 77283
L81723 77142
L81695 77086
L81667 77058
L81611 77030
L81498 77030
L81442 77058
L81414 77086
L81386 77142
" />
<path d="M81976 77339
L82004 77367
L81976 77395
L81948 77367
L81976 77339
L81976 77395
" />
<path d="M82370 76805
L82426 76805
L82483 76833
L82511 76861
L82539 76917
L82567 77030
L82567 77170
L82539 77283
L82511 77339
L82483 77367
L82426 77395
L82370 77395
L82314 77367
L82286 77339
L82258 77283
L82229 77170
L82229 77030
L82258 76917
L82286 76861
L82314 76833
L82370 76805
" />
<path d="M82820 77339
L82848 77367
L82820 77395
L82792 77367
L82820 77339
L82820 77395
" />
<path d="M83129 77395
L83242 77395
L83298 77367
L83326 77339
L83382 77255
L83411 77142
L83411 76917
L83382 76861
L83354 76833
L83298 76805
L83186 76805
L83129 76833
L83101 76861
L83073 76917
L83073 77058
L83101 77114
L83129 77142
L83186 77170
L83298 77170
L83354 77142
L83382 77114
L83411 77058
" />
<path d="M83664 77170
L84114 77170
" />
<path d="M83889 77395
L83889 76946
" />
<path d="M84648 77395
L84648 76805
" />
<path d="M84648 77367
L84592 77395
L84479 77395
L84423 77367
L84395 77339
L84367 77283
L84367 77114
L84395 77058
L84423 77030
L84479 77002
L84592 77002
L84648 77030
" />
<path d="M84845 77002
L85070 77002
" />
<path d="M84929 77395
L84929 76889
L84957 76833
L85013 76805
L85070 76805
" />
<path d="M85238 77367
L85295 77395
L85407 77395
L85463 77367
L85492 77311
L85492 77283
L85463 77227
L85407 77199
L85323 77199
L85267 77170
L85238 77114
L85238 77086
L85267 77030
L85323 77002
L85407 77002
L85463 77030
" />
<path d="M85998 77002
L85998 77480
L85970 77536
L85941 77564
L85885 77592
L85801 77592
L85745 77564
" />
<path d="M85998 77367
L85941 77395
L85829 77395
L85773 77367
L85745 77339
L85717 77283
L85717 77114
L85745 77058
L85773 77030
L85829 77002
L85941 77002
L85998 77030
" />
<path d="M86279 77170
L86729 77170
" />
<path d="M87319 77395
L86982 77395
" />
<path d="M87151 77395
L87151 76805
L87094 76889
L87038 76946
L86982 76974
" />
<path d="M87488 77170
L87516 77142
L87573 77114
L87685 77170
L87741 77142
L87769 77114
" />
<path d="M87994 77395
L87994 76805
" />
<path d="M87994 77030
L88051 77002
L88163 77002
L88219 77030
L88247 77058
L88276 77114
L88276 77283
L88247 77339
L88219 77367
L88163 77395
L88051 77395
L87994 77367
" />
<path d="M88529 77002
L88529 77592
" />
<path d="M88529 77030
L88585 77002
L88697 77002
L88754 77030
L88782 77058
L88810 77114
L88810 77283
L88782 77339
L88754 77367
L88697 77395
L88585 77395
L88529 77367
" />
<path d="M89147 77395
L89091 77367
L89063 77339
L89035 77283
L89035 77114
L89063 77058
L89091 77030
L89147 77002
L89232 77002
L89288 77030
L89316 77058
L89344 77114
L89344 77283
L89316 77339
L89288 77367
L89232 77395
L89147 77395
" />
<path d="M89907 77395
L89569 77395
" />
<path d="M89738 77395
L89738 76805
L89682 76889
L89625 76946
L89569 76974
" />
<path d="M90469 77395
L90132 77395
" />
<path d="M90300 77395
L90300 76805
L90244 76889
L90188 76946
L90132 76974
" />
<path d="M90722 77170
L91172 77170
" />
<path d="M90947 77395
L90947 76946
" />
<path d="M91763 77395
L91425 77395
" />
<path d="M91594 77395
L91594 76805
L91538 76889
L91481 76946
L91425 76974
" />
</g><path d="M69685 75396
L112205 75396
" />
</g>
<g style="fill:#840000; fill-opacity:0.0; 
stroke:#840000; stroke-width:118.110236; stroke-opacity:1; 
stroke-linecap:round; stroke-linejoin:round;">
<text x="103544.173228" y="76321.732283"
textLength="2337.834646" font-size="787.401575" lengthAdjust="spacingAndGlyphs"
text-anchor="start" opacity="0">Rev: </text>
<g class="stroked-text"><desc>Rev: </desc>
<path d="M104098 76293
L103902 76012
" />
<path d="M103761 76293
L103761 75703
L103986 75703
L104042 75731
L104070 75759
L104098 75815
L104098 75899
L104070 75956
L104042 75984
L103986 76012
L103761 76012
" />
<path d="M104577 76265
L104520 76293
L104408 76293
L104352 76265
L104323 76209
L104323 75984
L104352 75928
L104408 75899
L104520 75899
L104577 75928
L104605 75984
L104605 76040
L104323 76096
" />
<path d="M104802 75899
L104942 76293
L105083 75899
" />
<path d="M105308 76237
L105336 76265
L105308 76293
L105280 76265
L105308 76237
L105308 76293
" />
<path d="M105308 75928
L105336 75956
L105308 75984
L105280 75956
L105308 75928
L105308 75984
" />
</g></g>
<g style="fill:#840000; fill-opacity:0.0; 
stroke:#840000; stroke-width:60.000000; stroke-opacity:1; 
stroke-linecap:round; stroke-linejoin:round;">
<text x="70079.606299" y="76321.732283"
textLength="3781.220472" font-size="787.401575" lengthAdjust="spacingAndGlyphs"
text-anchor="start" opacity="0">Size: A4</text>
<g class="stroked-text"><desc>Size: A4</desc>
<path d="M70222 76265
L70306 76293
L70447 76293
L70503 76265
L70531 76237
L70559 76181
L70559 76124
L70531 76068
L70503 76040
L70447 76012
L70334 75984
L70278 75956
L70250 75928
L70222 75871
L70222 75815
L70250 75759
L70278 75731
L70334 75703
L70475 75703
L70559 75731
" />
<path d="M70812 76293
L70812 75899
" />
<path d="M70812 75703
L70784 75731
L70812 75759
L70840 75731
L70812 75703
L70812 75759
" />
<path d="M71037 75899
L71346 75899
L71037 76293
L71346 76293
" />
<path d="M71796 76265
L71740 76293
L71628 76293
L71571 76265
L71543 76209
L71543 75984
L71571 75928
L71628 75899
L71740 75899
L71796 75928
L71825 75984
L71825 76040
L71543 76096
" />
<path d="M72078 76237
L72106 76265
L72078 76293
L72049 76265
L72078 76237
L72078 76293
" />
<path d="M72078 75928
L72106 75956
L72078 75984
L72049 75956
L72078 75928
L72078 75984
" />
<path d="M72781 76124
L73062 76124
" />
<path d="M72724 76293
L72921 75703
L73118 76293
" />
<path d="M73568 75899
L73568 76293
" />
<path d="M73427 75674
L73287 76096
L73652 76096
" />
</g><text x="103544.173228" y="77424.094488"
textLength="3350.196850" font-size="787.401575" lengthAdjust="spacingAndGlyphs"
text-anchor="start" opacity="0">Id: 1/2</text>
<g class="stroked-text"><desc>Id: 1/2</desc>
<path d="M103714 77395
L103714 76805
" />
<path d="M104249 77395
L104249 76805
" />
<path d="M104249 77367
L104192 77395
L104080 77395
L104024 77367
L103995 77339
L103967 77283
L103967 77114
L103995 77058
L104024 77030
L104080 77002
L104192 77002
L104249 77030
" />
<path d="M104530 77339
L104558 77367
L104530 77395
L104502 77367
L104530 77339
L104530 77395
" />
<path d="M104530 77030
L104558 77058
L104530 77086
L104502 77058
L104530 77030
L104530 77086
" />
<path d="M105570 77395
L105233 77395
" />
<path d="M105402 77395
L105402 76805
L105345 76889
L105289 76946
L105233 76974
" />
<path d="M106245 76777
L105739 77536
" />
<path d="M106414 76861
L106442 76833
L106498 76805
L106639 76805
L106695 76833
L106723 76861
L106751 76917
L106751 76974
L106723 77058
L106386 77395
L106751 77395
" />
</g><path d="M69685 73821
L112205 73821
" />
</g>
<g style="fill:#840000; fill-opacity:0.0; 
stroke:#840000; stroke-width:157.480315; stroke-opacity:1; 
stroke-linecap:round; stroke-linejoin:round;">
<text x="70079.606299" y="74924.094488"
textLength="24477.913386" font-size="1049.842520" lengthAdjust="spacingAndGlyphs"
text-anchor="start" opacity="0">Title: Filter B (Top level documentation)</text>
<g class="stroked-text"><desc>Title: Filter B (Top level documentation)</desc>
<path d="M70360 74099
L70810 74099
" />
<path d="M70486 74886
L70585 74099
" />
<path d="M70974 74886
L71039 74361
" />
<path d="M71072 74099
L71030 74136
L71063 74174
L71105 74136
L71072 74099
L71063 74174
" />
<path d="M71302 74361
L71602 74361
" />
<path d="M71447 74099
L71363 74774
L71391 74849
L71461 74886
L71536 74886
" />
<path d="M71911 74886
L71841 74849
L71812 74774
L71897 74099
" />
<path d="M72516 74849
L72436 74886
L72286 74886
L72216 74849
L72187 74774
L72225 74474
L72272 74399
L72352 74361
L72501 74361
L72572 74399
L72600 74474
L72591 74549
L72206 74624
" />
<path d="M72895 74811
L72928 74849
L72886 74886
L72853 74849
L72895 74811
L72886 74886
" />
<path d="M72947 74399
L72980 74436
L72937 74474
L72905 74436
L72947 74399
L72937 74474
" />
<path d="M74175 74474
L73912 74474
" />
<path d="M73861 74886
L73959 74099
L74334 74099
" />
<path d="M74536 74886
L74601 74361
" />
<path d="M74634 74099
L74592 74136
L74625 74174
L74667 74136
L74634 74099
L74625 74174
" />
<path d="M75023 74886
L74953 74849
L74925 74774
L75009 74099
" />
<path d="M75276 74361
L75576 74361
" />
<path d="M75421 74099
L75337 74774
L75365 74849
L75435 74886
L75510 74886
" />
<path d="M76078 74849
L75998 74886
L75848 74886
L75778 74849
L75750 74774
L75787 74474
L75834 74399
L75914 74361
L76064 74361
L76134 74399
L76162 74474
L76153 74549
L75768 74624
" />
<path d="M76448 74886
L76513 74361
" />
<path d="M76495 74511
L76542 74436
L76584 74399
L76663 74361
L76738 74361
" />
<path d="M77849 74474
L77957 74511
L77990 74549
L78018 74624
L78004 74736
L77957 74811
L77915 74849
L77835 74886
L77535 74886
L77634 74099
L77896 74099
L77966 74136
L77999 74174
L78027 74249
L78018 74324
L77971 74399
L77929 74436
L77849 74474
L77587 74474
" />
<path d="M79110 75186
L79077 75149
L79016 75036
L78988 74961
L78965 74849
L78951 74661
L78969 74511
L79030 74324
L79082 74211
L79129 74136
L79218 74024
L79260 73986
" />
<path d="M79433 74099
L79883 74099
" />
<path d="M79560 74886
L79658 74099
" />
<path d="M80160 74886
L80090 74849
L80057 74811
L80029 74736
L80057 74511
L80104 74436
L80146 74399
L80226 74361
L80338 74361
L80408 74399
L80441 74436
L80469 74511
L80441 74736
L80394 74811
L80352 74849
L80272 74886
L80160 74886
" />
<path d="M80825 74361
L80727 75149
" />
<path d="M80821 74399
L80900 74361
L81050 74361
L81121 74399
L81154 74436
L81182 74511
L81154 74736
L81107 74811
L81064 74849
L80985 74886
L80835 74886
L80765 74849
" />
<path d="M82185 74886
L82114 74849
L82086 74774
L82171 74099
" />
<path d="M82789 74849
L82710 74886
L82560 74886
L82489 74849
L82461 74774
L82499 74474
L82546 74399
L82625 74361
L82775 74361
L82845 74399
L82874 74474
L82864 74549
L82480 74624
" />
<path d="M83150 74361
L83272 74886
L83525 74361
" />
<path d="M84064 74849
L83984 74886
L83834 74886
L83764 74849
L83736 74774
L83774 74474
L83820 74399
L83900 74361
L84050 74361
L84120 74399
L84148 74474
L84139 74549
L83755 74624
" />
<path d="M84547 74886
L84477 74849
L84448 74774
L84533 74099
" />
<path d="M85784 74886
L85883 74099
" />
<path d="M85789 74849
L85709 74886
L85559 74886
L85489 74849
L85456 74811
L85428 74736
L85456 74511
L85503 74436
L85545 74399
L85625 74361
L85775 74361
L85845 74399
" />
<path d="M86272 74886
L86201 74849
L86169 74811
L86140 74736
L86169 74511
L86215 74436
L86258 74399
L86337 74361
L86450 74361
L86520 74399
L86553 74436
L86581 74511
L86553 74736
L86506 74811
L86464 74849
L86384 74886
L86272 74886
" />
<path d="M87214 74849
L87134 74886
L86984 74886
L86914 74849
L86881 74811
L86853 74736
L86881 74511
L86928 74436
L86970 74399
L87050 74361
L87200 74361
L87270 74399
" />
<path d="M87950 74361
L87884 74886
" />
<path d="M87612 74361
L87561 74774
L87589 74849
L87659 74886
L87771 74886
L87851 74849
L87893 74811
" />
<path d="M88259 74886
L88325 74361
" />
<path d="M88315 74436
L88357 74399
L88437 74361
L88549 74361
L88620 74399
L88648 74474
L88596 74886
" />
<path d="M88648 74474
L88695 74399
L88774 74361
L88887 74361
L88957 74399
L88985 74474
L88934 74886
" />
<path d="M89613 74849
L89534 74886
L89384 74886
L89313 74849
L89285 74774
L89323 74474
L89370 74399
L89449 74361
L89599 74361
L89670 74399
L89698 74474
L89688 74549
L89304 74624
" />
<path d="M90049 74361
L89984 74886
" />
<path d="M90040 74436
L90082 74399
L90162 74361
L90274 74361
L90345 74399
L90373 74474
L90321 74886
" />
<path d="M90649 74361
L90949 74361
" />
<path d="M90795 74099
L90710 74774
L90738 74849
L90809 74886
L90884 74886
" />
<path d="M91483 74886
L91535 74474
L91507 74399
L91437 74361
L91287 74361
L91207 74399
" />
<path d="M91488 74849
L91408 74886
L91221 74886
L91151 74849
L91123 74774
L91132 74699
L91179 74624
L91259 74586
L91446 74586
L91526 74549
" />
<path d="M91812 74361
L92112 74361
" />
<path d="M91957 74099
L91872 74774
L91901 74849
L91971 74886
L92046 74886
" />
<path d="M92308 74886
L92374 74361
" />
<path d="M92407 74099
L92365 74136
L92397 74174
L92440 74136
L92407 74099
L92397 74174
" />
<path d="M92796 74886
L92726 74849
L92693 74811
L92665 74736
L92693 74511
L92740 74436
L92782 74399
L92861 74361
L92974 74361
L93044 74399
L93077 74436
L93105 74511
L93077 74736
L93030 74811
L92988 74849
L92908 74886
L92796 74886
" />
<path d="M93461 74361
L93396 74886
" />
<path d="M93452 74436
L93494 74399
L93574 74361
L93686 74361
L93757 74399
L93785 74474
L93733 74886
" />
<path d="M93996 75186
L94038 75149
L94127 75036
L94174 74961
L94225 74849
L94286 74661
L94305 74511
L94291 74324
L94267 74211
L94239 74136
L94178 74024
L94146 73986
" />
</g></g>
<g style="fill:#840000; fill-opacity:0.0; 
stroke:#840000; stroke-width:60.000000; stroke-opacity:1; 
stroke-linecap:round; stroke-linejoin:round;">
<text x="70079.606299" y="73408.346457"
textLength="10469.055118" font-size="787.401575" lengthAdjust="spacingAndGlyphs"
text-anchor="start" opacity="0">File: Filter_B.kicad_sch</text>
<g class="stroked-text"><desc>File: Filter_B.kicad_sch</desc>
<path d="M70447 73070
L70250 73070
" />
<path d="M70250 73380
L70250 72789
L70531 72789
" />
<path d="M70756 73380
L70756 72986
" />
<path d="M70756 72789
L70728 72817
L70756 72845
L70784 72817
L70756 72789
L70756 72845
" />
<path d="M71121 73380
L71065 73352
L71037 73295
L71037 72789
" />
<path d="M71571 73352
L71515 73380
L71403 73380
L71346 73352
L71318 73295
L71318 73070
L71346 73014
L71403 72986
L71515 72986
L71571 73014
L71600 73070
L71600 73127
L71318 73183
" />
<path d="M71853 73323
L71881 73352
L71853 73380
L71825 73352
L71853 73323
L71853 73380
" />
<path d="M71853 73014
L71881 73042
L71853 73070
L71825 73042
L71853 73014
L71853 73070
" />
<path d="M72781 73070
L72584 73070
" />
<path d="M72584 73380
L72584 72789
L72865 72789
" />
<path d="M73090 73380
L73090 72986
" />
<path d="M73090 72789
L73062 72817
L73090 72845
L73118 72817
L73090 72789
L73090 72845
" />
<path d="M73456 73380
L73399 73352
L73371 73295
L73371 72789
" />
<path d="M73596 72986
L73821 72986
" />
<path d="M73681 72789
L73681 73295
L73709 73352
L73765 73380
L73821 73380
" />
<path d="M74243 73352
L74187 73380
L74074 73380
L74018 73352
L73990 73295
L73990 73070
L74018 73014
L74074 72986
L74187 72986
L74243 73014
L74271 73070
L74271 73127
L73990 73183
" />
<path d="M74524 73380
L74524 72986
" />
<path d="M74524 73098
L74552 73042
L74580 73014
L74637 72986
L74693 72986
" />
<path d="M74749 73436
L75199 73436
" />
<path d="M75537 73070
L75621 73098
L75649 73127
L75677 73183
L75677 73267
L75649 73323
L75621 73352
L75565 73380
L75340 73380
L75340 72789
L75537 72789
L75593 72817
L75621 72845
L75649 72902
L75649 72958
L75621 73014
L75593 73042
L75537 73070
L75340 73070
" />
<path d="M75930 73323
L75958 73352
L75930 73380
L75902 73352
L75930 73323
L75930 73380
" />
<path d="M76211 73380
L76211 72789
" />
<path d="M76268 73155
L76436 73380
" />
<path d="M76436 72986
L76211 73211
" />
<path d="M76690 73380
L76690 72986
" />
<path d="M76690 72789
L76661 72817
L76690 72845
L76718 72817
L76690 72789
L76690 72845
" />
<path d="M77224 73352
L77168 73380
L77055 73380
L76999 73352
L76971 73323
L76943 73267
L76943 73098
L76971 73042
L76999 73014
L77055 72986
L77168 72986
L77224 73014
" />
<path d="M77730 73380
L77730 73070
L77702 73014
L77646 72986
L77533 72986
L77477 73014
" />
<path d="M77730 73352
L77674 73380
L77533 73380
L77477 73352
L77449 73295
L77449 73239
L77477 73183
L77533 73155
L77674 73155
L77730 73127
" />
<path d="M78264 73380
L78264 72789
" />
<path d="M78264 73352
L78208 73380
L78096 73380
L78039 73352
L78011 73323
L77983 73267
L77983 73098
L78011 73042
L78039 73014
L78096 72986
L78208 72986
L78264 73014
" />
<path d="M78405 73436
L78855 73436
" />
<path d="M78967 73352
L79024 73380
L79136 73380
L79192 73352
L79220 73295
L79220 73267
L79192 73211
L79136 73183
L79052 73183
L78995 73155
L78967 73098
L78967 73070
L78995 73014
L79052 72986
L79136 72986
L79192 73014
" />
<path d="M79727 73352
L79670 73380
L79558 73380
L79502 73352
L79474 73323
L79445 73267
L79445 73098
L79474 73042
L79502 73014
L79558 72986
L79670 72986
L79727 73014
" />
<path d="M79980 73380
L79980 72789
" />
<path d="M80233 73380
L80233 73070
L80205 73014
L80148 72986
L80064 72986
L80008 73014
L79980 73042
" />
</g><path d="M69685 71459
L112205 71459
" />
<text x="70079.606299" y="72345.354331"
textLength="3856.417323" font-size="787.401575" lengthAdjust="spacingAndGlyphs"
text-anchor="start" opacity="0">Sheet: /</text>
<g class="stroked-text"><desc>Sheet: /</desc>
<path d="M70222 72289
L70306 72317
L70447 72317
L70503 72289
L70531 72260
L70559 72204
L70559 72148
L70531 72092
L70503 72064
L70447 72035
L70334 72007
L70278 71979
L70250 71951
L70222 71895
L70222 71839
L70250 71782
L70278 71754
L70334 71726
L70475 71726
L70559 71754
" />
<path d="M70812 72317
L70812 71726
" />
<path d="M71065 72317
L71065 72007
L71037 71951
L70981 71923
L70897 71923
L70840 71951
L70812 71979
" />
<path d="M71571 72289
L71515 72317
L71403 72317
L71346 72289
L71318 72232
L71318 72007
L71346 71951
L71403 71923
L71515 71923
L71571 71951
L71600 72007
L71600 72064
L71318 72120
" />
<path d="M72078 72289
L72021 72317
L71909 72317
L71853 72289
L71825 72232
L71825 72007
L71853 71951
L71909 71923
L72021 71923
L72078 71951
L72106 72007
L72106 72064
L71825 72120
" />
<path d="M72274 71923
L72499 71923
" />
<path d="M72359 71726
L72359 72232
L72387 72289
L72443 72317
L72499 72317
" />
<path d="M72696 72260
L72724 72289
L72696 72317
L72668 72289
L72696 72260
L72696 72317
" />
<path d="M72696 71951
L72724 71979
L72696 72007
L72668 71979
L72696 71951
L72696 72007
" />
<path d="M73849 71698
L73343 72457
" />
</g></g>
<g style="fill:#840000; fill-opacity:0.0; 
stroke:#840000; stroke-width:118.110236; stroke-opacity:1; 
stroke-linecap:round; stroke-linejoin:round;">
<text x="70079.606299" y="71164.251969"
textLength="60.000000" font-size="787.401575" lengthAdjust="spacingAndGlyphs"
text-anchor="start" opacity="0"></text>
<g class="stroked-text"><desc></desc>
</g></g>
<g style="fill:#840000; fill-opacity:0.0; 
stroke:#840000; stroke-width:60.000000; stroke-opacity:1; 
stroke-linecap:round; stroke-linejoin:round;">
<text x="70079.606299" y="69983.149606"
textLength="118.110236" font-size="787.401575" lengthAdjust="spacingAndGlyphs"
text-anchor="start" opacity="0"></text>
<g class="stroked-text"><desc></desc>
</g><text x="70079.606299" y="68802.047244"
textLength="60.000000" font-size="787.401575" lengthAdjust="spacingAndGlyphs"
text-anchor="start" opacity="0"></text>
<g class="stroked-text"><desc></desc>
</g><text x="70079.606299" y="67620.944882"
textLength="60.000000" font-size="787.401575" lengthAdjust="spacingAndGlyphs"
text-anchor="start" opacity="0"></text>
<g class="stroked-text"><desc></desc>
</g><text x="70079.606299" y="66439.842520"
textLength="60.000000" font-size="787.401575" lengthAdjust="spacingAndGlyphs"
text-anchor="start" opacity="0"></text>
<g class="stroked-text"><desc></desc>
</g><path d="M77559 75396
L77559 76577
" />
<path d="M102756 75396
L102756 77955
" />
</g>
<g style="fill:#FFFFFF; fill-opacity:0.0; 
stroke:#FFFFFF; stroke-width:60.000000; stroke-opacity:1; 
stroke-linecap:round; stroke-linejoin:round;">
</g>
<g style="fill:#FFFFFF; fill-opacity:1.0; 
stroke:#FFFFFF; stroke-width:0.039370; stroke-opacity:1; 
stroke-linecap:round; stroke-linejoin:round;">
<rect x="49500.000000" y="31000.000000" width="10500.000000" height="10000.000000" rx="0.000000" />
</g>
<g style="fill:#840000; fill-opacity:1.0; 
stroke:#840000; stroke-width:0.039370; stroke-opacity:1; 
stroke-linecap:round; stroke-linejoin:round;">
</g>
<g style="fill:#840000; fill-opacity:0.0; 
stroke:#840000; stroke-width:60.000000; stroke-opacity:1; 
stroke-linecap:round; stroke-linejoin:round;">
<rect x="49500.000000" y="31000.000000" width="10500.000000" height="10000.000000" rx="0.000000" />
</g>
<g style="fill:#006464; fill-opacity:0.0; 
stroke:#006464; stroke-width:60.000000; stroke-opacity:1; 
stroke-linecap:round; stroke-linejoin:round;">
<text x="50075.000000" y="35750.000000"
textLength="821.889764" font-size="666.653543" lengthAdjust="spacingAndGlyphs"
text-anchor="start" opacity="0">IN</text>
<g class="stroked-text"><desc>IN</desc>
<path d="M50224 35726
L50224 35226
" />
<path d="M50462 35726
L50462 35226
L50747 35726
L50747 35226
" />
</g><path style="fill:#006464; fill-opacity:0.0; 
stroke:#006464; stroke-width:60.000000; stroke-opacity:1; 
stroke-linecap:round; stroke-linejoin:round;fill:none"
d="M 50000.000000,35500.000000
49750.000000,35250.000000
49500.000000,35250.000000
49500.000000,35750.000000
49750.000000,35750.000000
Z" /> 
<text x="59425.000000" y="35750.000000"
textLength="1488.582677" font-size="666.653543" lengthAdjust="spacingAndGlyphs"
text-anchor="end" opacity="0">OUT</text>
<g class="stroked-text"><desc>OUT</desc>
<path d="M58180 35226
L58275 35226
L58323 35250
L58371 35297
L58395 35392
L58395 35559
L58371 35654
L58323 35702
L58275 35726
L58180 35726
L58133 35702
L58085 35654
L58061 35559
L58061 35392
L58085 35297
L58133 35250
L58180 35226
" />
<path d="M58609 35226
L58609 35630
L58633 35678
L58656 35702
L58704 35726
L58799 35726
L58847 35702
L58871 35678
L58895 35630
L58895 35226
" />
<path d="M59061 35226
L59347 35226
" />
<path d="M59204 35726
L59204 35226
" />
</g><path style="fill:#006464; fill-opacity:0.0; 
stroke:#006464; stroke-width:60.000000; stroke-opacity:1; 
stroke-linecap:round; stroke-linejoin:round;fill:none"
d="M 60000.000000,35500.000000
59750.000000,35250.000000
59500.000000,35250.000000
59500.000000,35750.000000
59750.000000,35750.000000
Z" /> 
<text x="50947.913386" y="30567.322835"
textLength="2893.346457" font-size="666.653543" lengthAdjust="spacingAndGlyphs"
text-anchor="middle" opacity="0">Filter_B</text>
<g class="stroked-text"><desc>Filter_B</desc>
<path d="M49816 30281
L49650 30281
" />
<path d="M49650 30543
L49650 30043
L49888 30043
" />
<path d="M50078 30543
L50078 30210
" />
<path d="M50078 30043
L50055 30067
L50078 30091
L50102 30067
L50078 30043
L50078 30091
" />
<path d="M50388 30543
L50340 30519
L50316 30472
L50316 30043
" />
<path d="M50507 30210
L50697 30210
" />
<path d="M50578 30043
L50578 30472
L50602 30519
L50650 30543
L50697 30543
" />
<path d="M51055 30519
L51007 30543
L50912 30543
L50864 30519
L50840 30472
L50840 30281
L50864 30233
L50912 30210
L51007 30210
L51055 30233
L51078 30281
L51078 30329
L50840 30376
" />
<path d="M51293 30543
L51293 30210
" />
<path d="M51293 30305
L51316 30257
L51340 30233
L51388 30210
L51435 30210
" />
<path d="M51483 30591
L51864 30591
" />
<path d="M52150 30281
L52221 30305
L52245 30329
L52269 30376
L52269 30448
L52245 30495
L52221 30519
L52174 30543
L51983 30543
L51983 30043
L52150 30043
L52197 30067
L52221 30091
L52245 30138
L52245 30186
L52221 30233
L52197 30257
L52150 30281
L51983 30281
" />
</g></g>
<g style="fill:#725600; fill-opacity:0.0; 
stroke:#725600; stroke-width:60.000000; stroke-opacity:1; 
stroke-linecap:round; stroke-linejoin:round;">
<text x="53686.023622" y="41882.637795"
textLength="8369.527559" font-size="666.653543" lengthAdjust="spacingAndGlyphs"
text-anchor="middle" opacity="0">File: Circuit.kicad_sch</text>
<g class="stroked-text"><desc>File: Circuit.kicad_sch</desc>
<path d="M49816 41596
L49650 41596
" />
<path d="M49650 41858
L49650 41358
L49888 41358
" />
<path d="M50078 41858
L50078 41525
" />
<path d="M50078 41358
L50055 41382
L50078 41406
L50102 41382
L50078 41358
L50078 41406
" />
<path d="M50388 41858
L50340 41835
L50316 41787
L50316 41358
" />
<path d="M50769 41835
L50721 41858
L50626 41858
L50578 41835
L50555 41787
L50555 41596
L50578 41549
L50626 41525
L50721 41525
L50769 41549
L50793 41596
L50793 41644
L50555 41692
" />
<path d="M51007 41811
L51031 41835
L51007 41858
L50983 41835
L51007 41811
L51007 41858
" />
<path d="M51007 41549
L51031 41573
L51007 41596
L50983 41573
L51007 41549
L51007 41596
" />
<path d="M51912 41811
L51888 41835
L51816 41858
L51769 41858
L51697 41835
L51650 41787
L51626 41739
L51602 41644
L51602 41573
L51626 41477
L51650 41430
L51697 41382
L51769 41358
L51816 41358
L51888 41382
L51912 41406
" />
<path d="M52126 41858
L52126 41525
" />
<path d="M52126 41358
L52102 41382
L52126 41406
L52150 41382
L52126 41358
L52126 41406
" />
<path d="M52364 41858
L52364 41525
" />
<path d="M52364 41620
L52388 41573
L52412 41549
L52459 41525
L52507 41525
" />
<path d="M52888 41835
L52840 41858
L52745 41858
L52697 41835
L52674 41811
L52650 41763
L52650 41620
L52674 41573
L52697 41549
L52745 41525
L52840 41525
L52888 41549
" />
<path d="M53316 41525
L53316 41858
" />
<path d="M53102 41525
L53102 41787
L53126 41835
L53174 41858
L53245 41858
L53293 41835
L53316 41811
" />
<path d="M53555 41858
L53555 41525
" />
<path d="M53555 41358
L53531 41382
L53555 41406
L53578 41382
L53555 41358
L53555 41406
" />
<path d="M53721 41525
L53912 41525
" />
<path d="M53793 41358
L53793 41787
L53816 41835
L53864 41858
L53912 41858
" />
<path d="M54078 41811
L54102 41835
L54078 41858
L54055 41835
L54078 41811
L54078 41858
" />
<path d="M54316 41858
L54316 41358
" />
<path d="M54364 41668
L54507 41858
" />
<path d="M54507 41525
L54316 41715
" />
<path d="M54721 41858
L54721 41525
" />
<path d="M54721 41358
L54697 41382
L54721 41406
L54745 41382
L54721 41358
L54721 41406
" />
<path d="M55174 41835
L55126 41858
L55031 41858
L54983 41835
L54959 41811
L54936 41763
L54936 41620
L54959 41573
L54983 41549
L55031 41525
L55126 41525
L55174 41549
" />
<path d="M55602 41858
L55602 41596
L55578 41549
L55531 41525
L55436 41525
L55388 41549
" />
<path d="M55602 41835
L55555 41858
L55436 41858
L55388 41835
L55364 41787
L55364 41739
L55388 41692
L55436 41668
L55555 41668
L55602 41644
" />
<path d="M56055 41858
L56055 41358
" />
<path d="M56055 41835
L56007 41858
L55912 41858
L55864 41835
L55840 41811
L55816 41763
L55816 41620
L55840 41573
L55864 41549
L55912 41525
L56007 41525
L56055 41549
" />
<path d="M56174 41906
L56555 41906
" />
<path d="M56650 41835
L56697 41858
L56793 41858
L56840 41835
L56864 41787
L56864 41763
L56840 41715
L56793 41692
L56721 41692
L56674 41668
L56650 41620
L56650 41596
L56674 41549
L56721 41525
L56793 41525
L56840 41549
" />
<path d="M57293 41835
L57245 41858
L57150 41858
L57102 41835
L57078 41811
L57055 41763
L57055 41620
L57078 41573
L57102 41549
L57150 41525
L57245 41525
L57293 41549
" />
<path d="M57507 41858
L57507 41358
" />
<path d="M57721 41858
L57721 41596
L57697 41549
L57650 41525
L57578 41525
L57531 41549
L57507 41573
" />
</g><g >
</g>
<g style="fill:#840000; fill-opacity:0.0; 
stroke:#840000; stroke-width:60.000000; stroke-opacity:1; 
stroke-linecap:round; stroke-linejoin:round;">
<path style="fill:#840000; fill-opacity:0.0; 
stroke:#840000; stroke-width:60.000000; stroke-opacity:1; 
stroke-linecap:round; stroke-linejoin:round;fill:none"
d="M 54500.000000,45000.000000
54500.000000,44500.000000
54100.000000,44250.000000
54500.000000,44000.000000
54900.000000,44250.000000
54500.000000,44500.000000
" /> 
<path d="M54500 45000
L54500 45000
" />
</g>
<g style="fill:#006464; fill-opacity:0.0; 
stroke:#006464; stroke-width:60.000000; stroke-opacity:1; 
stroke-linecap:round; stroke-linejoin:round;">
<text x="57038.385827" y="44920.748031"
textLength="3774.291339" font-size="666.653543" lengthAdjust="spacingAndGlyphs"
text-anchor="middle" opacity="0">PWR_FLAG</text>
<g class="stroked-text"><desc>PWR_FLAG</desc>
<path d="M55300 44896
L55300 44396
L55490 44396
L55538 44420
L55562 44444
L55585 44492
L55585 44563
L55562 44611
L55538 44635
L55490 44658
L55300 44658
" />
<path d="M55752 44396
L55871 44896
L55966 44539
L56062 44896
L56181 44396
" />
<path d="M56657 44896
L56490 44658
" />
<path d="M56371 44896
L56371 44396
L56562 44396
L56609 44420
L56633 44444
L56657 44492
L56657 44563
L56633 44611
L56609 44635
L56562 44658
L56371 44658
" />
<path d="M56752 44944
L57133 44944
" />
<path d="M57419 44635
L57252 44635
" />
<path d="M57252 44896
L57252 44396
L57490 44396
" />
<path d="M57919 44896
L57681 44896
L57681 44396
" />
<path d="M58062 44754
L58300 44754
" />
<path d="M58014 44896
L58181 44396
L58347 44896
" />
<path d="M58776 44420
L58728 44396
L58657 44396
L58585 44420
L58538 44468
L58514 44515
L58490 44611
L58490 44682
L58514 44777
L58538 44825
L58585 44873
L58657 44896
L58705 44896
L58776 44873
L58800 44849
L58800 44682
L58705 44682
" />
</g></g>
</g>
<g style="fill:#006464; fill-opacity:0.0; 
stroke:#006464; stroke-width:60.000000; stroke-opacity:1; 
stroke-linecap:round; stroke-linejoin:round;">
<g >
</g>
<g style="fill:#840000; fill-opacity:0.0; 
stroke:#840000; stroke-width:60.000000; stroke-opacity:1; 
stroke-linecap:round; stroke-linejoin:round;">
<path style="fill:#840000; fill-opacity:0.0; 
stroke:#840000; stroke-width:60.000000; stroke-opacity:1; 
stroke-linecap:round; stroke-linejoin:round;fill:none"
d="M 54500.000000,46000.000000
54500.000000,46500.000000
55000.000000,46500.000000
54500.000000,47000.000000
54000.000000,46500.000000
54500.000000,46500.000000
" /> 
</g>
<g style="fill:#006464; fill-opacity:0.0; 
stroke:#006464; stroke-width:60.000000; stroke-opacity:1; 
stroke-linecap:round; stroke-linejoin:round;">
<text x="54500.000000" y="47999.330709"
textLength="1583.818898" font-size="666.653543" lengthAdjust="spacingAndGlyphs"
text-anchor="middle" opacity="0">GND</text>
<g class="stroked-text"><desc>GND</desc>
<path d="M54119 47499
L54071 47475
L54000 47475
L53928 47499
L53880 47546
L53857 47594
L53833 47689
L53833 47761
L53857 47856
L53880 47904
L53928 47951
L54000 47975
L54047 47975
L54119 47951
L54142 47927
L54142 47761
L54047 47761
" />
<path d="M54357 47975
L54357 47475
L54642 47975
L54642 47475
" />
<path d="M54880 47975
L54880 47475
L55000 47475
L55071 47499
L55119 47546
L55142 47594
L55166 47689
L55166 47761
L55142 47856
L55119 47904
L55071 47951
L55000 47975
L54880 47975
" />
</g></g>
</g>
<g style="fill:#006464; fill-opacity:0.0; 
stroke:#006464; stroke-width:62.519685; stroke-opacity:1; 
stroke-linecap:round; stroke-linejoin:round;">
</g>
<g style="fill:#006464; fill-opacity:0.0; 
stroke:#006464; stroke-width:60.000000; stroke-opacity:1; 
stroke-linecap:round; stroke-linejoin:round;">
</g>
<g style="fill:#0000C2; fill-opacity:0.0; 
stroke:#0000C2; stroke-width:60.000000; stroke-opacity:1; 
stroke-linecap:round; stroke-linejoin:round;">
<text x="61000.000000" y="34862.480315"
textLength="8440.944882" font-size="666.653543" lengthAdjust="spacingAndGlyphs"
text-anchor="start" opacity="0">Output for the system</text>
<g class="stroked-text"><desc>Output for the system</desc>
<path d="M61244 34338
L61339 34338
L61387 34362
L61434 34410
L61458 34505
L61458 34671
L61434 34767
L61387 34814
L61339 34838
L61244 34838
L61196 34814
L61149 34767
L61125 34671
L61125 34505
L61149 34410
L61196 34362
L61244 34338
" />
<path d="M61887 34505
L61887 34838
" />
<path d="M61672 34505
L61672 34767
L61696 34814
L61744 34838
L61815 34838
L61863 34814
L61887 34791
" />
<path d="M62053 34505
L62244 34505
" />
<path d="M62125 34338
L62125 34767
L62149 34814
L62196 34838
L62244 34838
" />
<path d="M62410 34505
L62410 35005
" />
<path d="M62410 34529
L62458 34505
L62553 34505
L62601 34529
L62625 34552
L62649 34600
L62649 34743
L62625 34791
L62601 34814
L62553 34838
L62458 34838
L62410 34814
" />
<path d="M63077 34505
L63077 34838
" />
<path d="M62863 34505
L62863 34767
L62887 34814
L62934 34838
L63006 34838
L63053 34814
L63077 34791
" />
<path d="M63244 34505
L63434 34505
" />
<path d="M63315 34338
L63315 34767
L63339 34814
L63387 34838
L63434 34838
" />
<path d="M63910 34505
L64101 34505
" />
<path d="M63982 34838
L63982 34410
L64006 34362
L64053 34338
L64101 34338
" />
<path d="M64339 34838
L64291 34814
L64268 34791
L64244 34743
L64244 34600
L64268 34552
L64291 34529
L64339 34505
L64410 34505
L64458 34529
L64482 34552
L64506 34600
L64506 34743
L64482 34791
L64458 34814
L64410 34838
L64339 34838
" />
<path d="M64720 34838
L64720 34505
" />
<path d="M64720 34600
L64744 34552
L64768 34529
L64815 34505
L64863 34505
" />
<path d="M65339 34505
L65530 34505
" />
<path d="M65410 34338
L65410 34767
L65434 34814
L65482 34838
L65530 34838
" />
<path d="M65696 34838
L65696 34338
" />
<path d="M65910 34838
L65910 34576
L65887 34529
L65839 34505
L65768 34505
L65720 34529
L65696 34552
" />
<path d="M66339 34814
L66291 34838
L66196 34838
L66149 34814
L66125 34767
L66125 34576
L66149 34529
L66196 34505
L66291 34505
L66339 34529
L66363 34576
L66363 34624
L66125 34671
" />
<path d="M66934 34814
L66982 34838
L67077 34838
L67125 34814
L67149 34767
L67149 34743
L67125 34695
L67077 34671
L67006 34671
L66958 34648
L66934 34600
L66934 34576
L66958 34529
L67006 34505
L67077 34505
L67125 34529
" />
<path d="M67315 34505
L67434 34838
" />
<path d="M67553 34505
L67434 34838
L67387 34957
L67363 34981
L67315 35005
" />
<path d="M67720 34814
L67768 34838
L67863 34838
L67910 34814
L67934 34767
L67934 34743
L67910 34695
L67863 34671
L67791 34671
L67744 34648
L67720 34600
L67720 34576
L67744 34529
L67791 34505
L67863 34505
L67910 34529
" />
<path d="M68077 34505
L68268 34505
" />
<path d="M68149 34338
L68149 34767
L68172 34814
L68220 34838
L68268 34838
" />
<path d="M68625 34814
L68577 34838
L68482 34838
L68434 34814
L68410 34767
L68410 34576
L68434 34529
L68482 34505
L68577 34505
L68625 34529
L68649 34576
L68649 34624
L68410 34671
" />
<path d="M68863 34838
L68863 34505
" />
<path d="M68863 34552
L68887 34529
L68934 34505
L69006 34505
L69053 34529
L69077 34576
L69077 34838
" />
<path d="M69077 34576
L69101 34529
L69149 34505
L69220 34505
L69268 34529
L69291 34576
L69291 34838
" />
</g></g>
<g style="fill:#0000C2; fill-opacity:0.0; 
stroke:#0000C2; stroke-width:62.519685; stroke-opacity:1; 
stroke-linecap:round; stroke-linejoin:round;">
</g>
<g style="fill:#0000C2; fill-opacity:0.0; 
stroke:#0000C2; stroke-width:60.000000; stroke-opacity:1; 
stroke-linecap:round; stroke-linejoin:round;">
<text x="43000.000000" y="34862.480315"
textLength="4917.125984" font-size="666.653543" lengthAdjust="spacingAndGlyphs"
text-anchor="start" opacity="0">From filter A</text>
<g class="stroked-text"><desc>From filter A</desc>
<path d="M43315 34576
L43149 34576
" />
<path d="M43149 34838
L43149 34338
L43387 34338
" />
<path d="M43577 34838
L43577 34505
" />
<path d="M43577 34600
L43601 34552
L43625 34529
L43672 34505
L43720 34505
" />
<path d="M43958 34838
L43910 34814
L43887 34791
L43863 34743
L43863 34600
L43887 34552
L43910 34529
L43958 34505
L44030 34505
L44077 34529
L44101 34552
L44125 34600
L44125 34743
L44101 34791
L44077 34814
L44030 34838
L43958 34838
" />
<path d="M44339 34838
L44339 34505
" />
<path d="M44339 34552
L44363 34529
L44410 34505
L44482 34505
L44530 34529
L44553 34576
L44553 34838
" />
<path d="M44553 34576
L44577 34529
L44625 34505
L44696 34505
L44744 34529
L44768 34576
L44768 34838
" />
<path d="M45315 34505
L45506 34505
" />
<path d="M45387 34838
L45387 34410
L45410 34362
L45458 34338
L45506 34338
" />
<path d="M45672 34838
L45672 34505
" />
<path d="M45672 34338
L45649 34362
L45672 34386
L45696 34362
L45672 34338
L45672 34386
" />
<path d="M45982 34838
L45934 34814
L45910 34767
L45910 34338
" />
<path d="M46101 34505
L46291 34505
" />
<path d="M46172 34338
L46172 34767
L46196 34814
L46244 34838
L46291 34838
" />
<path d="M46649 34814
L46601 34838
L46506 34838
L46458 34814
L46434 34767
L46434 34576
L46458 34529
L46506 34505
L46601 34505
L46649 34529
L46672 34576
L46672 34624
L46434 34671
" />
<path d="M46887 34838
L46887 34505
" />
<path d="M46887 34600
L46910 34552
L46934 34529
L46982 34505
L47030 34505
" />
<path d="M47553 34695
L47791 34695
" />
<path d="M47506 34838
L47672 34338
L47839 34838
" />
</g></g>
<g style="fill:#009600; fill-opacity:0.0; 
stroke:#009600; stroke-width:60.000000; stroke-opacity:1; 
stroke-linecap:round; stroke-linejoin:round;">
<path d="M46000 35500
L49500 35500
" />
<path d="M54500 45000
L54500 46000
" />
<path d="M60000 35500
L63500 35500
" />
</g> 
</svg>
