<?xml version="1.0" encoding="UTF-8" standalone="no"?>
<svg
   xmlns:dc="http://purl.org/dc/elements/1.1/"
   xmlns:cc="http://creativecommons.org/ns#"
   xmlns:rdf="http://www.w3.org/1999/02/22-rdf-syntax-ns#"
   xmlns:svg="http://www.w3.org/2000/svg"
   xmlns="http://www.w3.org/2000/svg"
   xmlns:sodipodi="http://sodipodi.sourceforge.net/DTD/sodipodi-0.dtd"
   xmlns:inkscape="http://www.inkscape.org/namespaces/inkscape"
   id="Слой_1"
   data-name="Слой 1"
   viewBox="0 0 24 24"
   version="1.1"
   sodipodi:docname="file_blend.svg"
   inkscape:version="1.0.2 (e86c870879, 2021-01-15)">
  <sodipodi:namedview
     pagecolor="#ffffff"
     bordercolor="#666666"
     borderopacity="1"
     objecttolerance="10"
     gridtolerance="10"
     guidetolerance="10"
     inkscape:pageopacity="0"
     inkscape:pageshadow="2"
     inkscape:window-width="3840"
     inkscape:window-height="2123"
     id="namedview30"
     showgrid="true"
     inkscape:zoom="13.980769"
     inkscape:cx="1.1558708"
     inkscape:cy="-4.0288278"
     inkscape:window-x="0"
     inkscape:window-y="0"
     inkscape:window-maximized="1"
     inkscape:document-rotation="0"
     inkscape:current-layer="Слой_1">
    <inkscape:grid
       type="xygrid"
       id="grid_kicad"
       spacingx="0.5"
       spacingy="0.5"
       color="#9999ff"
       opacity="0.13"
       empspacing="2" />
  </sodipodi:namedview>
  <metadata
     id="metadata43">
    <rdf:RDF>
      <cc:Work
         rdf:about="">
        <cc:license
           rdf:resource="http://creativecommons.org/licenses/by-sa/4.0/" />
        <dc:format>image/svg+xml</dc:format>
        <dc:type
           rdf:resource="http://purl.org/dc/dcmitype/StillImage" />
        <dc:title>svg_file</dc:title>
      </cc:Work>
      <cc:License
         rdf:about="http://creativecommons.org/licenses/by-sa/4.0/">
        <cc:permits
           rdf:resource="http://creativecommons.org/ns#Reproduction" />
        <cc:permits
           rdf:resource="http://creativecommons.org/ns#Distribution" />
        <cc:requires
           rdf:resource="http://creativecommons.org/ns#Notice" />
        <cc:requires
           rdf:resource="http://creativecommons.org/ns#Attribution" />
        <cc:permits
           rdf:resource="http://creativecommons.org/ns#DerivativeWorks" />
        <cc:requires
           rdf:resource="http://creativecommons.org/ns#ShareAlike" />
      </cc:License>
    </rdf:RDF>
  </metadata>
  <defs
     id="defs27305">
    <style
       id="style27303">.cls-1{fill:#b9b9b9;}.cls-2{fill:#1a81c4;}.cls-3{fill:#fff;}</style>
  </defs>
  <title
     id="title27307">svg_file</title>
  <rect
     class="cls-1"
     x="3"
     y="0"
     width="21"
     height="24"
     rx="3.5044518"
     id="rect27309"
     style="stroke-width:0.999998" />
  <g
     inkscape:groupmode="layer"
     id="layer3"
     inkscape:label="Layer 1" />
  <g
     inkscape:groupmode="layer"
     id="layer4"
     inkscape:label="Layer 2"
     style="display:inline">
    <g
       id="g1550"
       transform="translate(1.357192,-23.759477)">
      <g
         transform="matrix(0.66211999,0,0,0.66211999,-151.67273,261.29794)"
         id="g931"
         style="clip-rule:evenodd;fill-rule:evenodd;stroke-linejoin:round;stroke-miterlimit:2" />
      <path
         d="m 11.996598,39.996598 c 0.03607,-0.643084 0.350464,-1.211312 0.826822,-1.612814 0.466151,-0.394697 1.092222,-0.636279 1.77954,-0.636279 0.683914,0 1.309986,0.241242 1.776136,0.636279 0.476359,0.401502 0.789395,0.96973 0.826823,1.612814 0.03607,0.660097 -0.229673,1.27596 -0.694123,1.731903 -0.476358,0.462749 -1.150065,0.755369 -1.908836,0.755369 -0.758772,0 -1.435881,-0.290579 -1.908837,-0.755369 C 12.227972,41.272558 11.962572,40.660097 12,40 Z"
         style="clip-rule:evenodd;fill:#1a81c4;fill-opacity:1;fill-rule:nonzero;stroke-width:0.340256;stroke-linejoin:round;stroke-miterlimit:2"
         id="path933" />
      <path
         d="m 7.913525,41.357622 c 0.0044,0.25179 0.08472,0.741759 0.205174,1.122845 0.25315,0.80981 0.683915,1.558373 1.279363,2.215068 0.612461,0.677109 1.367829,1.221519 2.238885,1.609411 0.915289,0.404905 1.908837,0.612461 2.939813,0.612461 1.030976,-0.0014 2.024524,-0.21232 2.939813,-0.622669 0.871055,-0.391294 1.626424,-0.935704 2.238885,-1.616216 0.59885,-0.6635 1.027573,-1.412063 1.279362,-2.221873 0.127597,-0.408307 0.208237,-0.823419 0.240562,-1.238532 0.03164,-0.408307 0.01837,-0.820017 -0.03981,-1.231727 -0.113646,-0.799602 -0.391294,-1.551568 -0.816615,-2.23208 -0.387892,-0.629474 -0.891471,-1.177286 -1.490322,-1.640034 l 0.0014,-10e-4 -6.022533,-4.627483 c -0.0054,-0.0041 -0.0099,-0.0085 -0.01565,-0.01225 -0.394697,-0.303509 -1.061599,-0.302488 -1.493725,0.0017 -0.43893,0.307591 -0.489968,0.816614 -0.09867,1.136455 l -0.0017,0.0017 2.514493,2.044939 -7.655762,0.0082 h -0.01021 c -0.632876,6.77e-4 -1.241934,0.415113 -1.361024,0.94251 -0.123853,0.534202 0.30623,0.979937 0.966327,0.979937 l -10e-4,0.0024 3.878919,-0.0075 -6.941224,5.307995 c -0.0088,0.0065 -0.01837,0.01327 -0.02654,0.01974 -0.653292,0.500177 -0.864251,1.333804 -0.452541,1.857799 0.418515,0.534202 1.306584,0.537604 1.966681,0.0031 l 3.776845,-3.096327 c 0,0 -0.05512,0.418515 -0.0507,0.666902 z m 9.731324,1.398453 c -0.779186,0.792797 -1.871408,1.245337 -3.048695,1.245337 -1.180688,0.002 -2.27291,-0.442333 -3.052097,-1.23513 -0.381087,-0.387891 -0.660097,-0.830224 -0.833627,-1.30318 -0.169108,-0.466151 -0.234777,-0.959523 -0.191224,-1.456297 0.04117,-0.486566 0.18612,-0.952717 0.418515,-1.371232 0.227291,-0.41171 0.541007,-0.785991 0.925496,-1.102429 0.758772,-0.615864 1.721696,-0.952718 2.728854,-0.952718 1.010561,-0.0014 1.973486,0.329709 2.732257,0.945912 0.384489,0.314397 0.697525,0.687318 0.925497,1.099028 0.232394,0.418515 0.377684,0.881263 0.418515,1.371232 0.04287,0.496774 -0.0228,0.990145 -0.191905,1.456296 -0.17285,0.476358 -0.452541,0.918691 -0.833627,1.306583 z"
         style="clip-rule:evenodd;fill:#e49435;fill-opacity:1;fill-rule:nonzero;stroke-width:0.340256;stroke-linejoin:round;stroke-miterlimit:2"
         id="path935" />
    </g>
    <rect
       class="cls-2"
       x="0"
       y="3"
       width="20"
       height="7"
       id="rect27311"
       style="stroke-width:0.904827" />
    <path
       class="cls-3"
       d="M 2.0688,7.9416479 H 0.99590004 V 6.8772203 H 2.0688 Z"
       id="path27313"
       style="stroke-width:1" />
    <text
       xml:space="preserve"
       style="font-style:normal;font-variant:normal;font-weight:bold;font-stretch:normal;font-size:8px;line-height:1.25;font-family:'Noto Sans';-inkscape-font-specification:'Noto Sans, Bold';font-variant-ligatures:normal;font-variant-caps:normal;font-variant-numeric:normal;font-variant-east-asian:normal;letter-spacing:0px;word-spacing:0px;fill:#ffffff;fill-opacity:1;stroke:none"
       x="3.1426811"
       y="8.0476418"
       id="text909"><tspan
         sodipodi:role="line"
         id="tspan1842"
         x="3.1426811"
         y="8.0476418"
         style="font-style:normal;font-variant:normal;font-weight:bold;font-stretch:normal;font-size:5.33333px;font-family:'Noto Sans';-inkscape-font-specification:'Noto Sans, Bold';font-variant-ligatures:normal;font-variant-caps:normal;font-variant-numeric:normal;font-variant-east-asian:normal">blend</tspan></text>
  </g>
</svg>
