<?xml version="1.0" encoding="UTF-8" standalone="no"?>
<svg
   xmlns:dc="http://purl.org/dc/elements/1.1/"
   xmlns:cc="http://creativecommons.org/ns#"
   xmlns:rdf="http://www.w3.org/1999/02/22-rdf-syntax-ns#"
   xmlns:svg="http://www.w3.org/2000/svg"
   xmlns="http://www.w3.org/2000/svg"
   xmlns:sodipodi="http://sodipodi.sourceforge.net/DTD/sodipodi-0.dtd"
   xmlns:inkscape="http://www.inkscape.org/namespaces/inkscape"
   id="Слой_1"
   data-name="Слой 1"
   viewBox="0 0 24 24"
   version="1.1"
   sodipodi:docname="file_brd.svg"
   inkscape:version="1.0.2 (e86c870879, 2021-01-15)"
   inkscape:export-filename="/Users/jeff/kicad_dev/kicad/bitmaps_png/png_26/post_gerber.svg.png"
   inkscape:export-xdpi="96"
   inkscape:export-ydpi="96">
  <sodipodi:namedview
     pagecolor="#ffffff"
     bordercolor="#666666"
     borderopacity="1"
     objecttolerance="10"
     gridtolerance="10"
     guidetolerance="10"
     inkscape:pageopacity="0"
     inkscape:pageshadow="2"
     inkscape:window-width="1920"
     inkscape:window-height="983"
     id="namedview30"
     showgrid="true"
     inkscape:zoom="19.771793"
     inkscape:cx="10.367189"
     inkscape:cy="10.405756"
     inkscape:window-x="0"
     inkscape:window-y="27"
     inkscape:window-maximized="1"
     inkscape:document-rotation="0"
     inkscape:current-layer="g1941">
    <inkscape:grid
       type="xygrid"
       id="grid_kicad"
       spacingx="0.5"
       spacingy="0.5"
       color="#9999ff"
       opacity="0.13"
       empspacing="2" />
  </sodipodi:namedview>
  <metadata
     id="metadata43">
    <rdf:RDF>
      <cc:Work
         rdf:about="">
        <cc:license
           rdf:resource="http://creativecommons.org/licenses/by-sa/4.0/" />
        <dc:format>image/svg+xml</dc:format>
        <dc:type
           rdf:resource="http://purl.org/dc/dcmitype/StillImage" />
        <dc:title>post_gerber</dc:title>
      </cc:Work>
      <cc:License
         rdf:about="http://creativecommons.org/licenses/by-sa/4.0/">
        <cc:permits
           rdf:resource="http://creativecommons.org/ns#Reproduction" />
        <cc:permits
           rdf:resource="http://creativecommons.org/ns#Distribution" />
        <cc:requires
           rdf:resource="http://creativecommons.org/ns#Notice" />
        <cc:requires
           rdf:resource="http://creativecommons.org/ns#Attribution" />
        <cc:permits
           rdf:resource="http://creativecommons.org/ns#DerivativeWorks" />
        <cc:requires
           rdf:resource="http://creativecommons.org/ns#ShareAlike" />
      </cc:License>
    </rdf:RDF>
  </metadata>
  <defs
     id="defs26639">
    <style
       id="style26637">.cls-1{fill:#b9b9b9;}.cls-2{fill:#1a81c4;}.cls-3{fill:#fff;}.cls-4{fill:#bf2641;}.cls-5{fill:none;stroke:#f5f5f5;stroke-linecap:round;stroke-linejoin:round;stroke-width:2px;}</style>
    <clipPath
       clipPathUnits="userSpaceOnUse"
       id="clipPath935">
      <rect
         class="cls-1"
         x="3.0000002"
         y="0"
         width="21"
         height="24"
         rx="3.5045271"
         id="rect937"
         style="stroke-width:1" />
    </clipPath>
  </defs>
  <title
     id="title26641">post_gerber</title>
  <rect
     class="cls-1"
     x="3.0000002"
     y="0"
     width="21"
     height="24"
     rx="3.5045271"
     id="rect26643"
     style="stroke-width:1" />
  <g
     id="g1941"
     transform="translate(-13.20993,-16.305941)">
    <ellipse
       style="fill:none;fill-opacity:1;stroke:#545454;stroke-width:0.687;stroke-miterlimit:4;stroke-dasharray:none;stroke-opacity:1"
       id="path5466-7-6"
       cx="33.492619"
       cy="33.377876"
       rx="1.4271704"
       ry="1.4609091" />
    <g
       id="g5291-3-4"
       transform="matrix(0.12651358,0,0,0.12914168,17.914187,23.17004)"
       style="fill:none;fill-opacity:1;stroke:#545454;stroke-opacity:1">
      <path
         style="opacity:1;fill:none;fill-opacity:1;fill-rule:evenodd;stroke:#545454;stroke-width:7.82849;stroke-linecap:butt;stroke-linejoin:miter;stroke-miterlimit:4;stroke-dasharray:none;stroke-opacity:1"
         d="M 21.700405,111.04512 53.945198,80.226656 h 58.233762"
         id="path4645-5-7" />
      <path
         id="circle28743-2-7"
         d="m 24.024452,115.5238 a 7.0716739,7.0716739 0 0 1 -7.071674,7.07168 7.0716739,7.0716739 0 0 1 -7.071674,-7.07168 7.0716739,7.0716739 0 0 1 7.071674,-7.07167 7.0716739,7.0716739 0 0 1 7.071674,7.07167 z"
         style="opacity:1;fill:none;fill-opacity:1;stroke:#545454;stroke-width:4.077;stroke-miterlimit:4;stroke-dasharray:none;stroke-opacity:1" />
      <path
         style="opacity:1;fill:none;fill-opacity:1;fill-rule:evenodd;stroke:#545454;stroke-width:7.82845;stroke-linecap:butt;stroke-linejoin:miter;stroke-miterlimit:4;stroke-dasharray:none;stroke-opacity:1"
         d="M 17.560097,76.130953 45.644456,48.046579 h 46.25661 l 9.240194,-8.277075"
         id="path4649-6-5" />
      <path
         style="opacity:1;fill:none;fill-opacity:1;fill-rule:evenodd;stroke:#545454;stroke-width:7.1168;stroke-linecap:butt;stroke-linejoin:miter;stroke-miterlimit:4;stroke-dasharray:none;stroke-opacity:1"
         d="m 74.228659,111.55965 9.721199,9.23965 h 52.026232"
         id="path4469-1-4" />
      <path
         id="circle28743-6-27-8"
         d="M 79.063478,103.43954 A 10.572435,10.572435 0 0 1 68.491043,114.01197 10.572435,10.572435 0 0 1 57.918608,103.43954 10.572435,10.572435 0 0 1 68.491043,92.867102 10.572435,10.572435 0 0 1 79.063478,103.43954 Z"
         style="opacity:1;fill:none;fill-opacity:1;stroke:#545454;stroke-width:4.27008;stroke-miterlimit:4;stroke-dasharray:none;stroke-opacity:1" />
      <path
         id="circle4471-0-1"
         d="m 57.995691,28.707182 a 7.0716739,7.0716739 0 0 1 -7.071674,7.071674 7.0716739,7.0716739 0 0 1 -7.071674,-7.071674 7.0716739,7.0716739 0 0 1 7.071674,-7.071674 7.0716739,7.0716739 0 0 1 7.071674,7.071674 z"
         style="opacity:1;fill:none;fill-opacity:1;stroke:#545454;stroke-width:4.902;stroke-miterlimit:4;stroke-dasharray:none;stroke-opacity:1" />
      <path
         id="circle4473-9-2"
         d="m 80.769468,28.707182 a 7.0716739,7.0716739 0 0 1 -7.071674,7.071674 7.0716739,7.0716739 0 0 1 -7.071674,-7.071674 7.0716739,7.0716739 0 0 1 7.071674,-7.071674 7.0716739,7.0716739 0 0 1 7.071674,7.071674 z"
         style="opacity:1;fill:none;fill-opacity:1;stroke:#545454;stroke-width:4.902;stroke-miterlimit:4;stroke-dasharray:none;stroke-opacity:1" />
      <path
         id="circle4475-3-8"
         d="m 32.375194,28.707182 a 7.0716739,7.0716739 0 0 1 -7.071674,7.071674 7.0716739,7.0716739 0 0 1 -7.071674,-7.071674 7.0716739,7.0716739 0 0 1 7.071674,-7.071674 7.0716739,7.0716739 0 0 1 7.071674,7.071674 z"
         style="opacity:1;fill:none;fill-opacity:1;stroke:#545454;stroke-width:4.902;stroke-miterlimit:4;stroke-dasharray:none;stroke-opacity:1" />
    </g>
    <path
       id="circle28743-6-2-9"
       d="M 34,27.135685 A 1.6814545,1.7163838 0 0 1 32.318545,28.852069 1.6814545,1.7163838 0 0 1 30.637092,27.135685 1.6814545,1.7163838 0 0 1 32.318545,25.419301 1.6814545,1.7163838 0 0 1 34,27.135685 Z"
       style="fill:none;fill-opacity:1;stroke:#545454;stroke-width:1.13802;stroke-miterlimit:4;stroke-dasharray:none;stroke-opacity:1" />
    <ellipse
       ry="1.2823186"
       rx="1.256223"
       style="fill:none;fill-opacity:1;stroke:#545454;stroke-width:0.637;stroke-miterlimit:4;stroke-dasharray:none;stroke-opacity:1"
       id="path5468-6-3"
       cx="19.386669"
       cy="33.929775" />
    <path
       style="fill:none;stroke:#1a81c4;stroke-width:1px;stroke-linecap:butt;stroke-linejoin:miter;stroke-opacity:1"
       d="m 26.70993,36.805941 7,-3.5"
       id="path1943"
       sodipodi:nodetypes="cc" />
  </g>
  <rect
     class="cls-2"
     x="0"
     y="2"
     width="17.5"
     height="9"
     id="rect26645"
     style="stroke-width:0.959713" />
  <path
     class="cls-3"
     d="M 2.0692,8.9369001 H 0.99590001 v -1.0361 H 2.0692 Z"
     id="path26647" />
  <text
     xml:space="preserve"
     style="font-style:normal;font-weight:normal;font-size:40px;line-height:1.25;font-family:sans-serif;letter-spacing:0px;word-spacing:0px;fill:#000000;fill-opacity:1;stroke:none"
     x="3.5"
     y="5"
     id="text855"><tspan
       sodipodi:role="line"
       id="tspan853"
       x="3.5"
       y="5" /></text>
  <text
     xml:space="preserve"
     style="font-style:normal;font-variant:normal;font-weight:bold;font-stretch:normal;font-size:8px;line-height:1.25;font-family:'Noto Sans';-inkscape-font-specification:'Noto Sans, Bold';font-variant-ligatures:normal;font-variant-caps:normal;font-variant-numeric:normal;font-variant-east-asian:normal;letter-spacing:0px;word-spacing:0px;fill:#ffffff;fill-opacity:1;stroke:none;"
     x="3.0502629"
     y="9.1732826"
     id="text859"><tspan
       sodipodi:role="line"
       id="tspan1783">brd</tspan></text>
</svg>
