<?xml version="1.0" encoding="UTF-8" standalone="no"?>
<svg
   xmlns:dc="http://purl.org/dc/elements/1.1/"
   xmlns:cc="http://creativecommons.org/ns#"
   xmlns:rdf="http://www.w3.org/1999/02/22-rdf-syntax-ns#"
   xmlns:svg="http://www.w3.org/2000/svg"
   xmlns="http://www.w3.org/2000/svg"
   id="Слой_1"
   data-name="Слой 1"
   viewBox="0 0 24 24"
   version="1.1">
  <metadata
     id="metadata43">
    <rdf:RDF>
      <cc:Work
         rdf:about="">
        <cc:license
           rdf:resource="http://creativecommons.org/licenses/by-sa/4.0/" />
        <dc:format>image/svg+xml</dc:format>
        <dc:type
           rdf:resource="http://purl.org/dc/dcmitype/StillImage" />
        <dc:title>html</dc:title>
      </cc:Work>
      <cc:License
         rdf:about="http://creativecommons.org/licenses/by-sa/4.0/">
        <cc:permits
           rdf:resource="http://creativecommons.org/ns#Reproduction" />
        <cc:permits
           rdf:resource="http://creativecommons.org/ns#Distribution" />
        <cc:requires
           rdf:resource="http://creativecommons.org/ns#Notice" />
        <cc:requires
           rdf:resource="http://creativecommons.org/ns#Attribution" />
        <cc:permits
           rdf:resource="http://creativecommons.org/ns#DerivativeWorks" />
        <cc:requires
           rdf:resource="http://creativecommons.org/ns#ShareAlike" />
      </cc:License>
    </rdf:RDF>
  </metadata>
  <defs
     id="defs157629">
    <style
       id="style157627">.cls-1{fill:#b9b9b9;}.cls-2{fill:#1a81c4;}.cls-3{fill:#fff;}.cls-4{fill:#545454;stroke:#545454;stroke-miterlimit:10;stroke-width:0.75px;}</style>
  </defs>
  <title
     id="title157631">html</title>
  <rect
     class="cls-1"
     x="1.3322676e-15"
     y="0"
     width="24"
     height="24"
     rx="4.0050879"
     id="rect157633"
     style="stroke-width:1.06904" />
  <g
     aria-label="BoM"
     id="text859"
     style="font-style:normal;font-variant:normal;font-weight:bold;font-stretch:normal;font-size:8px;line-height:1.25;font-family:'Noto Sans';-inkscape-font-specification:'Noto Sans, Bold';font-variant-ligatures:normal;font-variant-caps:normal;font-variant-numeric:normal;font-variant-east-asian:normal;letter-spacing:0px;word-spacing:0px;fill:#545454;fill-opacity:1;stroke:none">
    <path
       d="m 5.6136109,1.3606571 q 1.144,0 1.728,0.32 0.584,0.32 0.584,1.128 0,0.488 -0.232,0.824 -0.224,0.336 -0.648,0.408 v 0.04 q 0.288,0.056 0.52,0.2 0.232,0.144 0.368,0.416 0.136,0.272 0.136,0.72 0,0.776 -0.56,1.216 -0.56,0.44 -1.536,0.44 h -2.136 v -5.712 z m 0.136,2.264 q 0.528,0 0.728,-0.168 0.208,-0.168 0.208,-0.488 0,-0.328 -0.24,-0.472 -0.24,-0.144 -0.76,-0.144 h -0.64 v 1.272 z m -0.704,0.96 v 1.488 h 0.792 q 0.544,0 0.76,-0.208 0.216,-0.216 0.216,-0.568 0,-0.32 -0.224,-0.512 -0.216,-0.2 -0.792,-0.2 z"
       id="path1500" />
    <path
       d="m 13.085603,4.8806571 q 0,1.088 -0.576,1.68 -0.568,0.592 -1.552,0.592 -0.608,0 -1.0880002,-0.264 -0.472,-0.264 -0.744,-0.768 -0.272,-0.512 -0.272,-1.24 0,-1.088 0.568,-1.672 0.568,-0.584 1.5600002,-0.584 0.616,0 1.088,0.264 0.472,0.264 0.744,0.768 0.272,0.496 0.272,1.224 z m -3.016,0 q 0,0.648 0.208,0.984 0.216,0.328 0.696,0.328 0.472,0 0.68,-0.328 0.216,-0.336 0.216,-0.984 0,-0.648 -0.216,-0.968 -0.208,-0.328 -0.688,-0.328 -0.472,0 -0.688,0.328 -0.208,0.32 -0.208,0.968 z"
       id="path1502" />
    <path
       d="m 16.581599,7.0726571 -1.376,-4.48 h -0.032 q 0.008,0.16 0.024,0.48 0.016,0.32 0.032,0.688 0.016,0.36 0.016,0.656 v 2.656 h -1.08 v -5.712 h 1.648 l 1.352,4.368 h 0.024 l 1.432,-4.368 h 1.648 v 5.712 h -1.128 v -2.704 q 0,-0.272 0.008,-0.624 0.016,-0.352 0.024,-0.664 0.016,-0.32 0.024,-0.48 h -0.032 l -1.472,4.472 z"
       id="path1504" />
  </g>
  <rect
     class="cls-2"
     x="6.5288067"
     y="9.5325499"
     width="2.8744221"
     height="2.8744221"
     id="rect116877"
     style="fill:#ffffff;stroke:#545454;stroke-width:0.718606;stroke-linecap:round;stroke-linejoin:round" />
  <rect
     class="cls-2"
     x="6.5288067"
     y="14.562789"
     width="2.8744221"
     height="2.8744221"
     id="rect116879"
     style="fill:#ffffff;stroke:#545454;stroke-width:0.718606;stroke-linecap:round;stroke-linejoin:round" />
  <rect
     class="cls-2"
     x="6.5288067"
     y="19.593027"
     width="2.8744221"
     height="2.8744221"
     id="rect116881"
     style="fill:#ffffff;stroke:#545454;stroke-width:0.718606;stroke-linecap:round;stroke-linejoin:round" />
  <line
     class="cls-3"
     x1="11.585563"
     y1="10.969761"
     x2="17.999975"
     y2="10.969761"
     id="line116883"
     style="fill:none;stroke:#545454;stroke-width:0.718606;stroke-linecap:round;stroke-linejoin:round" />
  <line
     class="cls-3"
     x1="11.585563"
     y1="16"
     x2="18"
     y2="16"
     id="line116885"
     style="fill:none;stroke:#545454;stroke-width:0.718606;stroke-linecap:round;stroke-linejoin:round" />
  <line
     class="cls-3"
     x1="11.585563"
     y1="21.030239"
     x2="17.999975"
     y2="21.030239"
     id="line116887"
     style="fill:none;stroke:#545454;stroke-width:0.718606;stroke-linecap:round;stroke-linejoin:round" />
  <polyline
     class="cls-5"
     points="21.746 16.275 17.173 20.846 14.418 18.093"
     id="polyline21"
     transform="matrix(0.27560406,0,0,0.27560403,3.2670515,5.7547584)"
     style="fill:none;fill-opacity:1;stroke:#bf2641;stroke-width:2px;stroke-linecap:round;stroke-linejoin:round;stroke-opacity:1" />
  <polyline
     class="cls-5"
     points="21.746 16.275 17.173 20.846 14.418 18.093"
     id="polyline21-5"
     transform="matrix(0.27560406,0,0,0.27560403,3.2670515,10.754758)"
     style="fill:none;fill-opacity:1;stroke:#bf2641;stroke-width:2px;stroke-linecap:round;stroke-linejoin:round;stroke-opacity:1" />
</svg>
