<?xml version="1.0" encoding="UTF-8"?>
<svg data-name="Слой 1" version="1.1" viewBox="0 0 24 24" xmlns="http://www.w3.org/2000/svg" xmlns:xlink="http://www.w3.org/1999/xlink">
 <defs>
  <style>.cls-1{fill:#b9b9b9;}.cls-2{fill:#1a81c4;}.cls-3{fill:#fff;}.cls-4{fill:#545454;stroke:#545454;stroke-miterlimit:10;stroke-width:0.75px;}</style>
  <linearGradient id="linearGradient3005" x1="-666.12" x2="-553.27" y1="413.04" y2="525.91" gradientTransform="matrix(.99884 0 0 .9987 689.01 -388.84)" gradientUnits="userSpaceOnUse" xlink:href="#linearGradient8385"/>
  <linearGradient id="linearGradient8385">
   <stop offset="0"/>
   <stop stop-color="#fff" offset="1"/>
  </linearGradient>
  <linearGradient id="linearGradient3002" x1="-553.27" x2="-666.12" y1="525.91" y2="413.05" gradientTransform="matrix(.99884 0 0 .9987 689.01 -388.84)" gradientUnits="userSpaceOnUse" xlink:href="#linearGradient8385"/>
 </defs>
 <title>html</title>
 <rect class="cls-1" x="3" width="21" height="24" rx="3.5045"/>
 <g transform="matrix(.097535 0 0 .096784 5.6865 6.7499)" fill-rule="evenodd">
  <path d="m79.865 119.1c35.398 48.255 70.04-13.469 69.989-50.587-0.0602-43.886-44.541-68.414-70.018-68.414-40.892 0-79.836 33.796-79.836 80.036 0 51.396 44.64 79.865 79.836 79.865-7.9645-1.1468-34.506-6.834-34.863-67.967-0.23987-41.347 13.488-57.866 34.805-50.599 0.47743 0.17707 23.514 9.2645 23.514 38.951 0 29.56-23.427 38.715-23.427 38.715z" color="#000000" fill="url(#linearGradient3005)"/>
  <path d="m79.823 41.401c-23.39-8.0619-52.043 11.216-52.043 49.829 0 63.048 46.721 68.77 52.384 68.77 40.892 0 79.836-33.796 79.836-80.036 0-51.396-44.64-79.865-79.836-79.865 9.7481-1.35 52.541 10.55 52.541 69.037 0 38.141-31.953 58.905-52.735 50.033-0.47743-0.17707-23.514-9.2645-23.514-38.951 0-29.56 23.367-38.818 23.367-38.818z" color="#000000" fill="url(#linearGradient3002)"/>
 </g>
 <rect class="cls-2" y="2" width="19.226" height="9" stroke-width="1.0059"/>
 <g fill="#fff" aria-label="json">
  <path d="m3.0061 3.5802q0-0.336 0.184-0.456 0.192-0.128 0.464-0.128 0.264 0 0.456 0.128 0.192 0.12 0.192 0.456 0 0.328-0.192 0.456t-0.456 0.128q-0.272 0-0.464-0.128-0.184-0.128-0.184-0.456zm-0.304 7.416q-0.2 0-0.416-0.032-0.224-0.024-0.368-0.064v-0.936q0.144 0.032 0.272 0.048 0.128 0.024 0.288 0.024 0.24 0 0.408-0.136 0.168-0.136 0.168-0.528v-4.664h1.192v4.84q0 0.4-0.152 0.728-0.152 0.328-0.496 0.52-0.336 0.2-0.896 0.2z"/>
  <path d="m8.5421 7.7802q0 0.664-0.472 1.024-0.464 0.352-1.392 0.352-0.456 0-0.784-0.064-0.328-0.056-0.656-0.192v-0.984q0.352 0.16 0.76 0.264t0.72 0.104q0.352 0 0.496-0.104 0.152-0.104 0.152-0.272 0-0.112-0.064-0.2-0.056-0.088-0.256-0.2t-0.624-0.288q-0.408-0.176-0.672-0.344-0.264-0.176-0.392-0.416-0.128-0.248-0.128-0.616 0-0.608 0.472-0.912t1.256-0.304q0.408 0 0.776 0.08t0.76 0.264l-0.36 0.856q-0.32-0.136-0.608-0.224-0.288-0.096-0.584-0.096-0.528 0-0.528 0.288 0 0.104 0.064 0.192 0.072 0.08 0.264 0.176 0.2 0.096 0.584 0.256 0.376 0.152 0.648 0.32 0.272 0.16 0.416 0.408 0.152 0.24 0.152 0.632z"/>
  <path d="m13.438 6.8842q0 1.088-0.576 1.68-0.568 0.592-1.552 0.592-0.608 0-1.088-0.264-0.472-0.264-0.744-0.768-0.272-0.512-0.272-1.24 0-1.088 0.568-1.672 0.568-0.584 1.56-0.584 0.616 0 1.088 0.264t0.744 0.768q0.272 0.496 0.272 1.224zm-3.016 0q0 0.648 0.208 0.984 0.216 0.328 0.696 0.328 0.472 0 0.68-0.328 0.216-0.336 0.216-0.984t-0.216-0.968q-0.208-0.328-0.688-0.328-0.472 0-0.688 0.328-0.208 0.32-0.208 0.968z"/>
  <path d="m16.902 4.6282q0.704 0 1.128 0.384 0.424 0.376 0.424 1.216v2.848h-1.192v-2.552q0-0.472-0.168-0.704-0.168-0.24-0.536-0.24-0.544 0-0.744 0.376-0.2 0.368-0.2 1.064v2.056h-1.192v-4.368h0.912l0.16 0.56h0.064q0.208-0.336 0.568-0.488 0.368-0.152 0.776-0.152z"/>
 </g>
 <path class="cls-3" d="M 2,9.0361 H 0.9267 V 8 H 2 Z" fill="#fff"/>
</svg>
