<?xml version="1.0" encoding="UTF-8" standalone="no"?>
<svg
   xmlns:dc="http://purl.org/dc/elements/1.1/"
   xmlns:cc="http://creativecommons.org/ns#"
   xmlns:rdf="http://www.w3.org/1999/02/22-rdf-syntax-ns#"
   xmlns:svg="http://www.w3.org/2000/svg"
   xmlns="http://www.w3.org/2000/svg"
   id="Слой_1"
   data-name="Слой 1"
   viewBox="0 0 16 17"
   version="1.1"
   width="16"
   height="17">
  <metadata
     id="metadata43">
    <rdf:RDF>
      <cc:Work
         rdf:about="">
        <cc:license
           rdf:resource="http://creativecommons.org/licenses/by-sa/4.0/" />
        <dc:format>image/svg+xml</dc:format>
        <dc:type
           rdf:resource="http://purl.org/dc/dcmitype/StillImage" />
        <dc:title>zip</dc:title>
      </cc:Work>
      <cc:License
         rdf:about="http://creativecommons.org/licenses/by-sa/4.0/">
        <cc:permits
           rdf:resource="http://creativecommons.org/ns#Reproduction" />
        <cc:permits
           rdf:resource="http://creativecommons.org/ns#Distribution" />
        <cc:requires
           rdf:resource="http://creativecommons.org/ns#Notice" />
        <cc:requires
           rdf:resource="http://creativecommons.org/ns#Attribution" />
        <cc:permits
           rdf:resource="http://creativecommons.org/ns#DerivativeWorks" />
        <cc:requires
           rdf:resource="http://creativecommons.org/ns#ShareAlike" />
      </cc:License>
    </rdf:RDF>
  </metadata>
  <defs
     id="defs27736">
    <style
       id="style27734">.cls-1{fill:#545454;}.cls-2{fill:#e49435;}.cls-3{fill:#9e9e9e;}.cls-4{fill:#b9b9b9;}</style>
  </defs>
  <title
     id="title27738">zip</title>
  <polygon
     class="cls-1"
     points="12.883,10.331 24,5.82 23.989,20.14 12.883,25 "
     id="polygon27740"
     transform="matrix(0.72727273,0,0,0.70833333,-1.4545455,-0.70833333)"
     style="stroke-width:1.39326" />
  <polygon
     class="cls-2"
     points="12.883,10.05 2,5.46 2,20.084 12.883,25 "
     id="polygon27742"
     transform="matrix(0.72727273,0,0,0.70833333,-1.4545455,-0.70833333)"
     style="stroke-width:1.39326" />
  <polygon
     class="cls-3"
     points="12.894,10.41 23.761,5.92 24,5.82 17.927,3.3 7.369,7.895 "
     id="polygon27744"
     transform="matrix(0.72727273,0,0,0.70833333,-1.4545455,-0.70833333)"
     style="stroke-width:1.39326" />
  <polygon
     class="cls-4"
     points="12.384,1 2,5.46 7.369,7.895 17.927,3.3 "
     id="polygon27746"
     transform="matrix(0.72727273,0,0,0.70833333,-1.4545455,-0.70833333)"
     style="stroke-width:1.39326" />
  <g
     id="g5473"
     transform="translate(2.9364447,1.5574999)">
    <rect
       class="cls-2"
       x="0.39744052"
       y="8"
       width="8.6581144"
       height="5"
       id="rect27311"
       style="fill:#1a81c4;stroke-width:0.50315" />
    <path
       class="cls-3"
       d="M 1.5555555,12 H 0.95949999 V 11.408651 H 1.5555555 Z"
       id="path27313"
       style="fill:#ffffff;stroke-width:0.555556" />
    <g
       aria-label="xz"
       id="text4813"
       style="font-style:normal;font-variant:normal;font-weight:bold;font-stretch:normal;font-size:5.33333px;line-height:1.25;font-family:'Noto Sans';-inkscape-font-specification:'Noto Sans, Bold';font-variant-ligatures:normal;font-variant-caps:normal;font-variant-numeric:normal;font-variant-east-asian:normal;letter-spacing:0px;word-spacing:0px;fill:#ffffff;fill-opacity:1;stroke:none">
      <path
         d="M 3.3098177,10.523207 2.3711516,9.0992074 H 3.2724844 L 3.8378174,10.027207 4.4084837,9.0992074 H 5.3098165 L 4.3604837,10.523207 5.3524831,12.011206 H 4.4511503 L 3.8378174,11.013873 3.2244844,12.011206 H 2.3231516 Z"
         id="path3432" />
      <path
         d="M 7.8218104,12.011206 H 5.5231451 V 11.541873 L 6.8724776,9.707207 H 5.603145 V 9.0992074 h 2.1706654 v 0.517333 L 6.4618112,11.403206 h 1.3599992 z"
         id="path3434" />
    </g>
  </g>
</svg>
