<?xml version="1.0" encoding="UTF-8" standalone="no"?>
<svg
   xmlns:dc="http://purl.org/dc/elements/1.1/"
   xmlns:cc="http://creativecommons.org/ns#"
   xmlns:rdf="http://www.w3.org/1999/02/22-rdf-syntax-ns#"
   xmlns:svg="http://www.w3.org/2000/svg"
   xmlns="http://www.w3.org/2000/svg"
   id="Слой_1"
   data-name="Слой 1"
   viewBox="0 0 24 24"
   version="1.1">
  <metadata
     id="metadata43">
    <rdf:RDF>
      <cc:Work
         rdf:about="">
        <cc:license
           rdf:resource="http://creativecommons.org/licenses/by-sa/4.0/" />
        <dc:format>image/svg+xml</dc:format>
        <dc:type
           rdf:resource="http://purl.org/dc/dcmitype/StillImage" />
        <dc:title>svg_file</dc:title>
      </cc:Work>
      <cc:License
         rdf:about="http://creativecommons.org/licenses/by-sa/4.0/">
        <cc:permits
           rdf:resource="http://creativecommons.org/ns#Reproduction" />
        <cc:permits
           rdf:resource="http://creativecommons.org/ns#Distribution" />
        <cc:requires
           rdf:resource="http://creativecommons.org/ns#Notice" />
        <cc:requires
           rdf:resource="http://creativecommons.org/ns#Attribution" />
        <cc:permits
           rdf:resource="http://creativecommons.org/ns#DerivativeWorks" />
        <cc:requires
           rdf:resource="http://creativecommons.org/ns#ShareAlike" />
      </cc:License>
    </rdf:RDF>
  </metadata>
  <defs
     id="defs27305">
    <style
       id="style27303">.cls-1{fill:#b9b9b9;}.cls-2{fill:#1a81c4;}.cls-3{fill:#fff;}</style>
  </defs>
  <title
     id="title27307">svg_file</title>
  <rect
     class="cls-1"
     x="3"
     y="0"
     width="21"
     height="24"
     rx="3.5044518"
     id="rect27309"
     style="stroke-width:0.999998" />
  <g
     id="layer3">
    <polyline
       class="cls-1"
       points="23.501 7.642 23.501 18.392 13.001 24.5 12.999 24.5 2.499 18.392 2.499 7.642"
       id="polyline115996"
       transform="matrix(0.78568708,0,0,0.78568708,3.7143908,3.723819)"
       style="fill:none;stroke:#545454;stroke-linecap:round;stroke-linejoin:round" />
    <polyline
       class="cls-1"
       points="23.501 7.637 13.001 13.745 12.999 13.745 2.499 7.637"
       id="polyline115998"
       transform="matrix(0.78568708,0,0,0.78568708,3.7143908,3.723819)"
       style="fill:none;stroke:#545454;stroke-linecap:round;stroke-linejoin:round" />
    <polyline
       class="cls-1"
       points="2.499 7.608 12.999 1.5 13.001 1.5 23.501 7.608"
       id="polyline116000"
       transform="matrix(0.78568708,0,0,0.78568708,3.7143908,3.723819)"
       style="fill:none;stroke:#545454;stroke-linecap:round;stroke-linejoin:round" />
    <line
       class="cls-1"
       x1="13.927222"
       y1="14.523245"
       x2="13.927222"
       y2="22.973152"
       id="line116002"
       style="fill:none;stroke:#545454;stroke-width:0.785687;stroke-linecap:round;stroke-linejoin:round" />
    <line
       class="cls-1"
       x1="13.929344"
       y1="4.9023495"
       x2="13.928401"
       y2="6.0808802"
       id="line116004"
       style="fill:none;stroke:#545454;stroke-width:0.785687;stroke-linecap:round;stroke-linejoin:round" />
    <line
       class="cls-2"
       x1="13.926593"
       y1="8.5021305"
       x2="13.923687"
       y2="12.134048"
       id="line116006"
       style="fill:none;stroke:#545454;stroke-width:0.785687;stroke-linecap:round;stroke-linejoin:round;stroke-dasharray:2.42125, 2.42125" />
    <polyline
       class="cls-1"
       points="12.993 12.245 12.992 13.745 14.364 14.352"
       id="polyline116008"
       transform="matrix(0.78568708,0,0,0.78568708,3.7143908,3.723819)"
       style="fill:none;stroke:#545454;stroke-linecap:round;stroke-linejoin:round" />
    <line
       class="cls-3"
       x1="17.033438"
       y1="15.898983"
       x2="20.084024"
       y2="17.24785"
       id="line116010"
       style="fill:none;stroke:#545454;stroke-width:0.785687;stroke-linecap:round;stroke-linejoin:round;stroke-dasharray:2.22365, 2.22365" />
    <line
       class="cls-1"
       x1="21.100861"
       y1="17.69742"
       x2="22.178823"
       y2="18.173941"
       id="line116012"
       style="fill:none;stroke:#545454;stroke-width:0.785687;stroke-linecap:round;stroke-linejoin:round" />
    <line
       class="cls-1"
       x1="5.6778231"
       y1="18.173941"
       x2="6.7554712"
       y2="17.696793"
       id="line116014"
       style="fill:none;stroke:#545454;stroke-width:0.785687;stroke-linecap:round;stroke-linejoin:round" />
    <line
       class="cls-4"
       x1="8.7851362"
       y1="16.797966"
       x2="11.829438"
       y2="15.449804"
       id="line116016"
       style="fill:none;stroke:#545454;stroke-width:0.785687;stroke-linecap:round;stroke-linejoin:round;stroke-dasharray:2.21972, 2.21972" />
    <line
       class="cls-1"
       x1="12.844232"
       y1="15.000393"
       x2="13.92188"
       y2="14.523245"
       id="line116018"
       style="fill:none;stroke:#545454;stroke-width:0.785687;stroke-linecap:round;stroke-linejoin:round" />
  </g>
  <g
     id="layer4"
     style="display:inline">
    <rect
       class="cls-2"
       x="0"
       y="1"
       width="17"
       height="9"
       id="rect27311"
       style="stroke-width:0.945904" />
    <path
       class="cls-3"
       d="M 2.0688,7.9416479 H 0.99590004 V 6.8772203 H 2.0688 Z"
       id="path27313"
       style="stroke-width:1" />
    <g
       aria-label="wrl"
       id="text909"
       style="font-style:normal;font-variant:normal;font-weight:bold;font-stretch:normal;font-size:8px;line-height:1.25;font-family:'Noto Sans';-inkscape-font-specification:'Noto Sans, Bold';font-variant-ligatures:normal;font-variant-caps:normal;font-variant-numeric:normal;font-variant-east-asian:normal;letter-spacing:0px;word-spacing:0px;fill:#ffffff;fill-opacity:1;stroke:none">
      <path
         d="m 7.0226811,6.5196418 q -0.032,-0.136 -0.096,-0.4 -0.056,-0.272 -0.128,-0.576 -0.072,-0.312 -0.136,-0.568 -0.064,-0.264 -0.088,-0.384 h -0.032 q -0.024,0.12 -0.088,0.384 -0.056,0.256 -0.128,0.568 -0.072,0.304 -0.136,0.576 -0.064,0.272 -0.096,0.416 l -0.352,1.512 h -1.28 l -1.24,-4.368 h 1.184 l 0.504,1.936 q 0.056,0.2 0.096,0.48 0.048,0.28 0.088,0.544 0.04,0.256 0.056,0.408 h 0.032 q 0.008,-0.112 0.032,-0.296 0.024,-0.192 0.056,-0.392 0.04,-0.2 0.064,-0.36 0.032,-0.168 0.048,-0.224 l 0.536,-2.096 h 1.312 l 0.512,2.096 q 0.032,0.112 0.072,0.36 0.048,0.248 0.08,0.504 0.04,0.256 0.04,0.408 h 0.032 q 0.016,-0.136 0.056,-0.392 0.04,-0.264 0.088,-0.552 0.056,-0.288 0.112,-0.488 l 0.52,-1.936 h 1.168 l -1.256,4.368 h -1.296 z"
         id="path895" />
      <path
         d="m 13.054673,3.5996418 q 0.088,0 0.208,0.008 0.12,0.008 0.192,0.024 l -0.088,1.12 q -0.056,-0.016 -0.168,-0.024 -0.104,-0.016 -0.184,-0.016 -0.304,0 -0.584,0.112 -0.28,0.104 -0.456,0.344 -0.168,0.24 -0.168,0.656 v 2.224 h -1.192 v -4.368 h 0.904 l 0.176,0.736 h 0.056 q 0.192,-0.336 0.528,-0.576 0.336,-0.24 0.776,-0.24 z"
         id="path897" />
      <path
         d="m 15.438662,8.0476418 h -1.192 v -6.08 h 1.192 z"
         id="path899" />
    </g>
  </g>
</svg>
