<?xml version="1.0" encoding="UTF-8" standalone="no"?>
<svg
   xmlns:dc="http://purl.org/dc/elements/1.1/"
   xmlns:cc="http://creativecommons.org/ns#"
   xmlns:rdf="http://www.w3.org/1999/02/22-rdf-syntax-ns#"
   xmlns:svg="http://www.w3.org/2000/svg"
   xmlns="http://www.w3.org/2000/svg"
   id="Слой_1"
   data-name="Слой 1"
   viewBox="0 0 24 24"
   version="1.1">
  <metadata
     id="metadata43">
    <rdf:RDF>
      <cc:Work
         rdf:about="">
        <cc:license
           rdf:resource="http://creativecommons.org/licenses/by-sa/4.0/" />
        <dc:format>image/svg+xml</dc:format>
        <dc:type
           rdf:resource="http://purl.org/dc/dcmitype/StillImage" />
        <dc:title>post_gerber</dc:title>
      </cc:Work>
      <cc:License
         rdf:about="http://creativecommons.org/licenses/by-sa/4.0/">
        <cc:permits
           rdf:resource="http://creativecommons.org/ns#Reproduction" />
        <cc:permits
           rdf:resource="http://creativecommons.org/ns#Distribution" />
        <cc:requires
           rdf:resource="http://creativecommons.org/ns#Notice" />
        <cc:requires
           rdf:resource="http://creativecommons.org/ns#Attribution" />
        <cc:permits
           rdf:resource="http://creativecommons.org/ns#DerivativeWorks" />
        <cc:requires
           rdf:resource="http://creativecommons.org/ns#ShareAlike" />
      </cc:License>
    </rdf:RDF>
  </metadata>
  <defs
     id="defs26639">
    <style
       id="style26637">.cls-1{fill:#b9b9b9;}.cls-2{fill:#1a81c4;}.cls-3{fill:#fff;}.cls-4{fill:#bf2641;}.cls-5{fill:none;stroke:#f5f5f5;stroke-linecap:round;stroke-linejoin:round;stroke-width:2px;}</style>
    <clipPath
       clipPathUnits="userSpaceOnUse"
       id="clipPath935">
      <rect
         class="cls-1"
         x="3.0000002"
         y="0"
         width="21"
         height="24"
         rx="3.5045271"
         id="rect937"
         style="stroke-width:1" />
    </clipPath>
  </defs>
  <title
     id="title26641">post_gerber</title>
  <rect
     class="cls-1"
     x="3.0000002"
     y="0"
     width="21"
     height="24"
     rx="3.5045271"
     id="rect26643"
     style="stroke-width:1" />
  <rect
     class="cls-2"
     x="0"
     y="2"
     width="19"
     height="9"
     id="rect26645"
     style="stroke-width:0.999998" />
  <path
     class="cls-3"
     d="M 2.0692,8.9369001 H 0.99590001 v -1.0361 H 2.0692 Z"
     id="path26647" />
  <rect
     class="cls-5"
     x="-15"
     y="6"
     width="3"
     height="2"
     id="rect24945"
     style="fill:#545454;fill-opacity:1;stroke:none"
     transform="rotate(-90)" />
  <path
     class="cls-5"
     d="M 9,15.5 A 0.99999998,0.99999998 0 1 1 8.000106,16.499789 0.99978932,0.99978932 0 0 1 9,15.5 Z"
     id="path24963"
     style="fill:#545454;fill-opacity:1;stroke:none" />
  <rect
     class="cls-5"
     x="-15"
     y="10"
     width="3"
     height="2"
     id="rect909"
     style="fill:#545454;fill-opacity:1;stroke:none"
     transform="rotate(-90)" />
  <rect
     class="cls-5"
     x="-15"
     y="14"
     width="3"
     height="2"
     id="rect911"
     style="fill:#545454;fill-opacity:1;stroke:none"
     transform="rotate(-90)" />
  <rect
     class="cls-5"
     x="-15"
     y="18"
     width="3"
     height="2"
     id="rect913"
     style="fill:#545454;fill-opacity:1;stroke:none"
     transform="rotate(-90)" />
  <rect
     class="cls-5"
     x="-21"
     y="6"
     width="3"
     height="2"
     id="rect917"
     style="fill:#545454;fill-opacity:1;stroke:none"
     transform="rotate(-90)" />
  <rect
     class="cls-5"
     x="-21"
     y="10"
     width="3"
     height="2"
     id="rect919"
     style="fill:#545454;fill-opacity:1;stroke:none"
     transform="rotate(-90)" />
  <rect
     class="cls-5"
     x="-21"
     y="14"
     width="3"
     height="2"
     id="rect921"
     style="fill:#545454;fill-opacity:1;stroke:none"
     transform="rotate(-90)" />
  <rect
     class="cls-5"
     x="-21"
     y="18"
     width="3"
     height="2"
     id="rect923"
     style="fill:#545454;fill-opacity:1;stroke:none"
     transform="rotate(-90)" />
  <path
     style="fill:none;stroke:#545454;stroke-width:1px;stroke-linecap:butt;stroke-linejoin:miter;stroke-opacity:1"
     d="m 3,16.5 h 11 l 1,-1 v -2"
     id="path925" />
  <path
     style="fill:none;stroke:#545454;stroke-width:1px;stroke-linecap:butt;stroke-linejoin:miter;stroke-opacity:1"
     d="m 19,19.5 h 2 3"
     id="path927" />
  <path
     style="fill:none;stroke:#545454;stroke-width:1px;stroke-linecap:butt;stroke-linejoin:miter;stroke-opacity:1"
     d="m 19,13.5 h 1.5 l 2,-2 V 0"
     id="path929"
     clip-path="url(#clipPath935)" />
  <path
     style="fill:none;stroke:#545454;stroke-width:1px;stroke-linecap:butt;stroke-linejoin:miter;stroke-opacity:1"
     d="M 3,13.5 H 5 8"
     id="path931" />
  <text
     xml:space="preserve"
     style="font-style:normal;font-weight:normal;font-size:40px;line-height:1.25;font-family:sans-serif;letter-spacing:0px;word-spacing:0px;fill:#000000;fill-opacity:1;stroke:none"
     x="3.5"
     y="5"
     id="text855"><tspan
       id="tspan853"
       x="3.5"
       y="5" /></text>
  <g
     aria-label="cad"
     id="text859"
     style="font-style:normal;font-variant:normal;font-weight:bold;font-stretch:normal;font-size:8px;line-height:1.25;font-family:'Noto Sans';-inkscape-font-specification:'Noto Sans, Bold';font-variant-ligatures:normal;font-variant-caps:normal;font-variant-numeric:normal;font-variant-east-asian:normal;letter-spacing:0px;word-spacing:0px;fill:#ffffff;fill-opacity:1;stroke:none">
    <path
       d="m 5.4502629,9.2532826 q -0.976,0 -1.512,-0.536 -0.528,-0.544 -0.528,-1.704 0,-0.8 0.272,-1.304 0.272,-0.504 0.752,-0.744 0.488,-0.24 1.12,-0.24 0.448,0 0.776,0.088 0.336,0.088 0.584,0.208 l -0.352,0.92 q -0.28,-0.112 -0.528,-0.184 -0.24,-0.072 -0.48,-0.072 -0.928,0 -0.928,1.32 0,0.656 0.24,0.968 0.248,0.312 0.688,0.312 0.376,0 0.664,-0.096 0.288,-0.104 0.56,-0.28 v 1.016 q -0.272,0.176 -0.576,0.248 -0.296,0.08 -0.752,0.08 z"
       id="path6449" />
    <path
       d="m 9.5782624,4.7172826 q 0.8799996,0 1.3439996,0.384 0.472,0.376 0.472,1.16 v 2.912 h -0.832 l -0.232,-0.592 h -0.032 q -0.28,0.352 -0.5919996,0.512 -0.312,0.16 -0.856,0.16 -0.584,0 -0.968,-0.336 -0.384,-0.344 -0.384,-1.048 0,-0.696 0.488,-1.024 0.488,-0.336 1.464,-0.368 l 0.7599996,-0.024 v -0.192 q 0,-0.344 -0.184,-0.504 -0.1759996,-0.16 -0.4959996,-0.16 -0.32,0 -0.624,0.096 -0.304,0.088 -0.608,0.224 l -0.392,-0.808 q 0.352,-0.184 0.776,-0.288 0.432,-0.104 0.896,-0.104 z m 0.168,2.448 q -0.576,0.016 -0.8,0.208 -0.224,0.192 -0.224,0.504 0,0.272 0.16,0.392 0.16,0.112 0.416,0.112 0.384,0 0.648,-0.224 0.2639996,-0.232 0.2639996,-0.648 v -0.36 z"
       id="path6451" />
    <path
       d="m 14.002248,9.2532826 q -0.728,0 -1.192,-0.568 -0.456,-0.576 -0.456,-1.688 0,-1.12 0.464,-1.696 0.464,-0.576 1.216,-0.576 0.472,0 0.776,0.184 0.304,0.184 0.48,0.456 h 0.04 q -0.024,-0.128 -0.056,-0.368 -0.032,-0.248 -0.032,-0.504 v -1.4 h 1.192 v 6.08 h -0.912 l -0.232,-0.568 h -0.048 q -0.176,0.272 -0.472,0.464 -0.296,0.184 -0.768,0.184 z m 0.416,-0.952 q 0.496,0 0.696,-0.288 0.2,-0.296 0.208,-0.88 v -0.128 q 0,-0.64 -0.2,-0.976 -0.192,-0.336 -0.72,-0.336 -0.392,0 -0.616,0.344 -0.224,0.336 -0.224,0.976 0,0.64 0.224,0.968 0.224,0.32 0.632,0.32 z"
       id="path6453" />
  </g>
</svg>
