<?xml version="1.0" encoding="UTF-8" standalone="no"?>
<svg
   xmlns:dc="http://purl.org/dc/elements/1.1/"
   xmlns:cc="http://creativecommons.org/ns#"
   xmlns:rdf="http://www.w3.org/1999/02/22-rdf-syntax-ns#"
   xmlns:svg="http://www.w3.org/2000/svg"
   xmlns="http://www.w3.org/2000/svg"
   id="Слой_1"
   data-name="Слой 1"
   viewBox="0 0 24 24"
   version="1.1">
  <metadata
     id="metadata43">
    <rdf:RDF>
      <cc:Work
         rdf:about="">
        <cc:license
           rdf:resource="http://creativecommons.org/licenses/by-sa/4.0/" />
        <dc:format>image/svg+xml</dc:format>
        <dc:type
           rdf:resource="http://purl.org/dc/dcmitype/StillImage" />
        <dc:title>svg_file</dc:title>
      </cc:Work>
      <cc:License
         rdf:about="http://creativecommons.org/licenses/by-sa/4.0/">
        <cc:permits
           rdf:resource="http://creativecommons.org/ns#Reproduction" />
        <cc:permits
           rdf:resource="http://creativecommons.org/ns#Distribution" />
        <cc:requires
           rdf:resource="http://creativecommons.org/ns#Notice" />
        <cc:requires
           rdf:resource="http://creativecommons.org/ns#Attribution" />
        <cc:permits
           rdf:resource="http://creativecommons.org/ns#DerivativeWorks" />
        <cc:requires
           rdf:resource="http://creativecommons.org/ns#ShareAlike" />
      </cc:License>
    </rdf:RDF>
  </metadata>
  <defs
     id="defs27305">
    <style
       id="style27303">.cls-1{fill:#b9b9b9;}.cls-2{fill:#1a81c4;}.cls-3{fill:#fff;}</style>
  </defs>
  <title
     id="title27307">svg_file</title>
  <rect
     class="cls-1"
     x="3"
     y="0"
     width="21"
     height="24"
     rx="3.5044518"
     id="rect27309"
     style="stroke-width:0.999998" />
  <g
     id="layer3" />
  <g
     id="layer4"
     style="display:inline">
    <g
       id="g1550"
       transform="translate(1.357192,-23.759477)">
      <g
         transform="matrix(0.66211999,0,0,0.66211999,-151.67273,261.29794)"
         id="g931"
         style="clip-rule:evenodd;fill-rule:evenodd;stroke-linejoin:round;stroke-miterlimit:2" />
      <path
         d="m 11.996598,39.996598 c 0.03607,-0.643084 0.350464,-1.211312 0.826822,-1.612814 0.466151,-0.394697 1.092222,-0.636279 1.77954,-0.636279 0.683914,0 1.309986,0.241242 1.776136,0.636279 0.476359,0.401502 0.789395,0.96973 0.826823,1.612814 0.03607,0.660097 -0.229673,1.27596 -0.694123,1.731903 -0.476358,0.462749 -1.150065,0.755369 -1.908836,0.755369 -0.758772,0 -1.435881,-0.290579 -1.908837,-0.755369 C 12.227972,41.272558 11.962572,40.660097 12,40 Z"
         style="clip-rule:evenodd;fill:#1a81c4;fill-opacity:1;fill-rule:nonzero;stroke-width:0.340256;stroke-linejoin:round;stroke-miterlimit:2"
         id="path933" />
      <path
         d="m 7.913525,41.357622 c 0.0044,0.25179 0.08472,0.741759 0.205174,1.122845 0.25315,0.80981 0.683915,1.558373 1.279363,2.215068 0.612461,0.677109 1.367829,1.221519 2.238885,1.609411 0.915289,0.404905 1.908837,0.612461 2.939813,0.612461 1.030976,-0.0014 2.024524,-0.21232 2.939813,-0.622669 0.871055,-0.391294 1.626424,-0.935704 2.238885,-1.616216 0.59885,-0.6635 1.027573,-1.412063 1.279362,-2.221873 0.127597,-0.408307 0.208237,-0.823419 0.240562,-1.238532 0.03164,-0.408307 0.01837,-0.820017 -0.03981,-1.231727 -0.113646,-0.799602 -0.391294,-1.551568 -0.816615,-2.23208 -0.387892,-0.629474 -0.891471,-1.177286 -1.490322,-1.640034 l 0.0014,-10e-4 -6.022533,-4.627483 c -0.0054,-0.0041 -0.0099,-0.0085 -0.01565,-0.01225 -0.394697,-0.303509 -1.061599,-0.302488 -1.493725,0.0017 -0.43893,0.307591 -0.489968,0.816614 -0.09867,1.136455 l -0.0017,0.0017 2.514493,2.044939 -7.655762,0.0082 h -0.01021 c -0.632876,6.77e-4 -1.241934,0.415113 -1.361024,0.94251 -0.123853,0.534202 0.30623,0.979937 0.966327,0.979937 l -10e-4,0.0024 3.878919,-0.0075 -6.941224,5.307995 c -0.0088,0.0065 -0.01837,0.01327 -0.02654,0.01974 -0.653292,0.500177 -0.864251,1.333804 -0.452541,1.857799 0.418515,0.534202 1.306584,0.537604 1.966681,0.0031 l 3.776845,-3.096327 c 0,0 -0.05512,0.418515 -0.0507,0.666902 z m 9.731324,1.398453 c -0.779186,0.792797 -1.871408,1.245337 -3.048695,1.245337 -1.180688,0.002 -2.27291,-0.442333 -3.052097,-1.23513 -0.381087,-0.387891 -0.660097,-0.830224 -0.833627,-1.30318 -0.169108,-0.466151 -0.234777,-0.959523 -0.191224,-1.456297 0.04117,-0.486566 0.18612,-0.952717 0.418515,-1.371232 0.227291,-0.41171 0.541007,-0.785991 0.925496,-1.102429 0.758772,-0.615864 1.721696,-0.952718 2.728854,-0.952718 1.010561,-0.0014 1.973486,0.329709 2.732257,0.945912 0.384489,0.314397 0.697525,0.687318 0.925497,1.099028 0.232394,0.418515 0.377684,0.881263 0.418515,1.371232 0.04287,0.496774 -0.0228,0.990145 -0.191905,1.456296 -0.17285,0.476358 -0.452541,0.918691 -0.833627,1.306583 z"
         style="clip-rule:evenodd;fill:#e49435;fill-opacity:1;fill-rule:nonzero;stroke-width:0.340256;stroke-linejoin:round;stroke-miterlimit:2"
         id="path935" />
    </g>
    <rect
       class="cls-2"
       x="0"
       y="3"
       width="20"
       height="7"
       id="rect27311"
       style="stroke-width:0.904827" />
    <path
       class="cls-3"
       d="M 2.0688,7.9416479 H 0.99590004 V 6.8772203 H 2.0688 Z"
       id="path27313"
       style="stroke-width:1" />
    <g
       aria-label="blend"
       id="text909"
       style="font-style:normal;font-variant:normal;font-weight:bold;font-stretch:normal;font-size:8px;line-height:1.25;font-family:'Noto Sans';-inkscape-font-specification:'Noto Sans, Bold';font-variant-ligatures:normal;font-variant-caps:normal;font-variant-numeric:normal;font-variant-east-asian:normal;letter-spacing:0px;word-spacing:0px;fill:#ffffff;fill-opacity:1;stroke:none">
      <path
         d="m 4.3533471,4.9383103 q 0,0.1653332 -0.010667,0.3253331 -0.010667,0.1599999 -0.021333,0.2506665 h 0.032 Q 4.4706803,5.3329767 4.6680135,5.2103101 4.8653468,5.0823102 5.1800132,5.0823102 q 0.4906664,0 0.7946662,0.3839998 0.3039999,0.3786664 0.3039999,1.1199993 0,0.7466662 -0.3093332,1.130666 -0.3093331,0.3839998 -0.8106662,0.3839998 -0.3199998,0 -0.5066663,-0.112 Q 4.4706803,7.8716419 4.3533471,7.7276419 H 4.3000138 L 4.1666805,8.0476418 H 3.5586809 v -4.053331 h 0.7946662 z m 0.5706663,0.7786662 q -0.3093332,0 -0.4373331,0.1919999 -0.1226666,0.1919998 -0.1333332,0.5866663 v 0.085333 q 0,0.421333 0.1226666,0.6506662 0.1279999,0.2239999 0.4586664,0.2239999 0.2453331,0 0.3893331,-0.2239999 0.1439999,-0.2293332 0.1439999,-0.6559996 0,-0.4266664 -0.1493333,-0.6399996 Q 5.1746799,5.7169765 4.9240134,5.7169765 Z"
         style="font-style:normal;font-variant:normal;font-weight:bold;font-stretch:normal;font-size:5.33333px;font-family:'Noto Sans';-inkscape-font-specification:'Noto Sans, Bold';font-variant-ligatures:normal;font-variant-caps:normal;font-variant-numeric:normal;font-variant-east-asian:normal"
         id="path2254" />
      <path
         d="M 7.729342,8.0476418 H 6.9346758 V 3.9943108 H 7.729342 Z"
         style="font-style:normal;font-variant:normal;font-weight:bold;font-stretch:normal;font-size:5.33333px;font-family:'Noto Sans';-inkscape-font-specification:'Noto Sans, Bold';font-variant-ligatures:normal;font-variant-caps:normal;font-variant-numeric:normal;font-variant-east-asian:normal"
         id="path2256" />
      <path
         d="m 9.7613323,5.0823102 q 0.6026667,0 0.9546657,0.3466664 0.352,0.3413332 0.352,0.9759995 V 6.7889758 H 9.190666 q 0.010667,0.3359998 0.1973332,0.5279997 0.1919999,0.1919999 0.5279997,0.1919999 0.2826661,0 0.5120001,-0.053333 0.229333,-0.058667 0.474666,-0.1759999 v 0.613333 q -0.213333,0.1066666 -0.453333,0.1546666 -0.234667,0.053333 -0.5706664,0.053333 -0.4373331,0 -0.7733329,-0.1599999 Q 8.7693329,7.7756419 8.577333,7.4449754 8.3853331,7.114309 8.3853331,6.6129759 q 0,-0.5119997 0.1706666,-0.8479995 Q 8.7319996,5.4236433 9.0413328,5.2529768 9.3506659,5.0823102 9.7613323,5.0823102 Z m 0.00533,0.565333 q -0.2293332,0 -0.3839998,0.1493332 Q 9.2333326,5.9463097 9.206666,6.2609762 h 1.114666 Q 10.315999,5.9943096 10.182665,5.8236431 10.049332,5.6476432 9.7666657,5.6476432 Z"
         style="font-style:normal;font-variant:normal;font-weight:bold;font-stretch:normal;font-size:5.33333px;font-family:'Noto Sans';-inkscape-font-specification:'Noto Sans, Bold';font-variant-ligatures:normal;font-variant-caps:normal;font-variant-numeric:normal;font-variant-east-asian:normal"
         id="path2258" />
      <path
         d="m 13.366661,5.0823102 q 0.469333,0 0.752,0.2559998 0.282666,0.2506666 0.282666,0.8106662 V 8.0476418 H 13.606661 V 6.3463094 q 0,-0.3146664 -0.112,-0.469333 -0.112,-0.1599999 -0.357333,-0.1599999 -0.362667,0 -0.496,0.2506665 -0.133333,0.2453332 -0.133333,0.7093329 V 8.0476418 H 11.713329 V 5.1356435 h 0.607999 l 0.106667,0.3733331 h 0.04267 q 0.138666,-0.2239999 0.378666,-0.3253331 0.245333,-0.1013333 0.517333,-0.1013333 z"
         style="font-style:normal;font-variant:normal;font-weight:bold;font-stretch:normal;font-size:5.33333px;font-family:'Noto Sans';-inkscape-font-specification:'Noto Sans, Bold';font-variant-ligatures:normal;font-variant-caps:normal;font-variant-numeric:normal;font-variant-east-asian:normal"
         id="path2260" />
      <path
         d="m 16.139991,8.1009751 q -0.485333,0 -0.794666,-0.3786665 -0.304,-0.3839998 -0.304,-1.1253326 0,-0.7466663 0.309333,-1.130666 0.309333,-0.3839998 0.810666,-0.3839998 0.314667,0 0.517333,0.1226666 0.202667,0.1226666 0.32,0.3039998 h 0.02667 q -0.016,-0.085333 -0.03733,-0.2453332 -0.02133,-0.1653332 -0.02133,-0.3359998 V 3.9943108 h 0.794666 v 4.053331 h -0.608 L 16.998657,7.6689753 h -0.032 Q 16.849324,7.8503085 16.65199,7.9783085 16.454657,8.1009751 16.139991,8.1009751 Z m 0.277333,-0.6346663 q 0.330666,0 0.464,-0.1919999 0.133333,-0.1973332 0.138666,-0.5866663 v -0.085333 q 0,-0.4266664 -0.133333,-0.6506663 -0.128,-0.2239999 -0.48,-0.2239999 -0.261333,0 -0.410666,0.2293332 -0.149333,0.2239999 -0.149333,0.6506663 0,0.4266664 0.149333,0.645333 0.149333,0.2133332 0.421333,0.2133329 z"
         style="font-style:normal;font-variant:normal;font-weight:bold;font-stretch:normal;font-size:5.33333px;font-family:'Noto Sans';-inkscape-font-specification:'Noto Sans, Bold';font-variant-ligatures:normal;font-variant-caps:normal;font-variant-numeric:normal;font-variant-east-asian:normal"
         id="path2262" />
    </g>
  </g>
</svg>
