<?xml version="1.0" encoding="UTF-8" standalone="no"?>
<svg
   xmlns:dc="http://purl.org/dc/elements/1.1/"
   xmlns:cc="http://creativecommons.org/ns#"
   xmlns:rdf="http://www.w3.org/1999/02/22-rdf-syntax-ns#"
   xmlns:svg="http://www.w3.org/2000/svg"
   xmlns="http://www.w3.org/2000/svg"
   id="Слой_1"
   data-name="Слой 1"
   viewBox="0 0 16 17"
   version="1.1"
   width="16"
   height="17">
  <metadata
     id="metadata43">
    <rdf:RDF>
      <cc:Work
         rdf:about="">
        <cc:license
           rdf:resource="http://creativecommons.org/licenses/by-sa/4.0/" />
        <dc:format>image/svg+xml</dc:format>
        <dc:type
           rdf:resource="http://purl.org/dc/dcmitype/StillImage" />
        <dc:title>zip</dc:title>
      </cc:Work>
      <cc:License
         rdf:about="http://creativecommons.org/licenses/by-sa/4.0/">
        <cc:permits
           rdf:resource="http://creativecommons.org/ns#Reproduction" />
        <cc:permits
           rdf:resource="http://creativecommons.org/ns#Distribution" />
        <cc:requires
           rdf:resource="http://creativecommons.org/ns#Notice" />
        <cc:requires
           rdf:resource="http://creativecommons.org/ns#Attribution" />
        <cc:permits
           rdf:resource="http://creativecommons.org/ns#DerivativeWorks" />
        <cc:requires
           rdf:resource="http://creativecommons.org/ns#ShareAlike" />
      </cc:License>
    </rdf:RDF>
  </metadata>
  <defs
     id="defs27736">
    <style
       id="style27734">.cls-1{fill:#545454;}.cls-2{fill:#e49435;}.cls-3{fill:#9e9e9e;}.cls-4{fill:#b9b9b9;}</style>
  </defs>
  <title
     id="title27738">zip</title>
  <polygon
     class="cls-1"
     points="12.883,10.331 24,5.82 23.989,20.14 12.883,25 "
     id="polygon27740"
     transform="matrix(0.72727273,0,0,0.70833333,-1.4545455,-0.70833333)"
     style="stroke-width:1.39326" />
  <polygon
     class="cls-2"
     points="12.883,10.05 2,5.46 2,20.084 12.883,25 "
     id="polygon27742"
     transform="matrix(0.72727273,0,0,0.70833333,-1.4545455,-0.70833333)"
     style="stroke-width:1.39326" />
  <polygon
     class="cls-3"
     points="12.894,10.41 23.761,5.92 24,5.82 17.927,3.3 7.369,7.895 "
     id="polygon27744"
     transform="matrix(0.72727273,0,0,0.70833333,-1.4545455,-0.70833333)"
     style="stroke-width:1.39326" />
  <polygon
     class="cls-4"
     points="12.384,1 2,5.46 7.369,7.895 17.927,3.3 "
     id="polygon27746"
     transform="matrix(0.72727273,0,0,0.70833333,-1.4545455,-0.70833333)"
     style="stroke-width:1.39326" />
  <g
     id="g5473"
     transform="translate(2.9364447,1.5574999)">
    <rect
       class="cls-2"
       x="0.39744052"
       y="7.5"
       width="8.6581144"
       height="5.5"
       id="rect27311"
       style="fill:#1a81c4;stroke-width:0.527708" />
    <path
       class="cls-3"
       d="M 1.5555554,11.091349 H 0.95949989 V 10.5 H 1.5555554 Z"
       id="path27313"
       style="fill:#ffffff;stroke-width:0.555556" />
    <g
       aria-label="gz"
       id="text4813"
       style="font-style:normal;font-variant:normal;font-weight:bold;font-stretch:normal;font-size:5.33333px;line-height:1.25;font-family:'Noto Sans';-inkscape-font-specification:'Noto Sans, Bold';font-variant-ligatures:normal;font-variant-caps:normal;font-variant-numeric:normal;font-variant-east-asian:normal;letter-spacing:0px;word-spacing:0px;fill:#ffffff;fill-opacity:1;stroke:none">
      <path
         d="m 3.6564841,8.1372228 q 0.5386664,0 0.8426662,0.4266664 h 0.021333 l 0.064,-0.3733331 h 0.6719996 v 2.9173319 q 0,0.623999 -0.3679998,0.949332 -0.3679998,0.325334 -1.0879993,0.325334 -0.3093332,0 -0.5759997,-0.03733 -0.2613332,-0.03733 -0.5119997,-0.133333 v -0.634666 q 0.5386663,0.224 1.1359993,0.224 0.613333,0 0.613333,-0.661333 v -0.05867 q 0,-0.09067 0.00533,-0.186667 0.010667,-0.096 0.016,-0.170666 H 4.461817 q -0.1493333,0.229333 -0.3573331,0.330666 -0.2079999,0.101334 -0.4693331,0.101334 -0.517333,0 -0.8106662,-0.394667 -0.2879998,-0.4 -0.2879998,-1.1093325 0,-0.7146662 0.2986665,-1.114666 0.2986665,-0.3999997 0.8213328,-0.3999997 z m 0.2506666,0.6453329 q -0.5599997,0 -0.5599997,0.8799995 0,0.8693328 0.5706663,0.8693328 0.3039998,0 0.4479997,-0.170667 0.1493333,-0.175999 0.1493333,-0.6079992 v -0.096 q 0,-0.469333 -0.1439999,-0.6719996 Q 4.2271505,8.7825557 3.9071507,8.7825557 Z"
         id="path1489" />
      <path
         d="M 8.1151451,11.102554 H 5.8164798 V 10.633221 L 7.1658123,8.7985557 H 5.8964797 V 8.1905561 h 2.1706654 v 0.517333 L 6.7551459,10.494555 h 1.3599992 z"
         id="path1491" />
    </g>
  </g>
</svg>
