<?xml version="1.0" encoding="UTF-8" standalone="no"?>
<svg
   xmlns:dc="http://purl.org/dc/elements/1.1/"
   xmlns:cc="http://creativecommons.org/ns#"
   xmlns:rdf="http://www.w3.org/1999/02/22-rdf-syntax-ns#"
   xmlns:svg="http://www.w3.org/2000/svg"
   xmlns="http://www.w3.org/2000/svg"
   id="Слой_1"
   data-name="Слой 1"
   viewBox="0 0 24 24"
   version="1.1">
  <metadata
     id="metadata43">
    <rdf:RDF>
      <cc:Work
         rdf:about="">
        <cc:license
           rdf:resource="http://creativecommons.org/licenses/by-sa/4.0/" />
        <dc:format>image/svg+xml</dc:format>
        <dc:type
           rdf:resource="http://purl.org/dc/dcmitype/StillImage" />
        <dc:title>export_footprint_names</dc:title>
      </cc:Work>
      <cc:License
         rdf:about="http://creativecommons.org/licenses/by-sa/4.0/">
        <cc:permits
           rdf:resource="http://creativecommons.org/ns#Reproduction" />
        <cc:permits
           rdf:resource="http://creativecommons.org/ns#Distribution" />
        <cc:requires
           rdf:resource="http://creativecommons.org/ns#Notice" />
        <cc:requires
           rdf:resource="http://creativecommons.org/ns#Attribution" />
        <cc:permits
           rdf:resource="http://creativecommons.org/ns#DerivativeWorks" />
        <cc:requires
           rdf:resource="http://creativecommons.org/ns#ShareAlike" />
      </cc:License>
    </rdf:RDF>
  </metadata>
  <defs
     id="defs24723">
    <style
       id="style24721">.cls-1{fill:#b9b9b9;}.cls-2,.cls-4{fill:none;stroke-linecap:round;stroke-width:2px;}.cls-2{stroke:#545454;stroke-miterlimit:10;}.cls-3{fill:#bf2641;}.cls-4{stroke:#f5f5f5;stroke-linejoin:round;}</style>
  </defs>
  <title
     id="title24725">export_footprint_names</title>
  <path
     class="cls-1"
     d="m 6.5,0 h 13.9816 a 3.4978,4.0043896 0 0 1 3.4978,4.0043896 V 20.03351 A 3.4978,4.0043896 0 0 1 20.4816,24.0379 H 6.4999 A 3.4978,4.0043896 0 0 1 3.0021,20.03351 V 4.0045041 A 3.4979,4.0045041 0 0 1 6.5,0 Z"
     id="path24727"
     style="stroke-width:1.06997" />
  <line
     class="cls-2"
     x1="8.0337009"
     y1="7.5410004"
     x2="20"
     y2="7.5410004"
     id="line24729" />
  <line
     class="cls-2"
     x1="8.0337009"
     y1="11.694"
     x2="20"
     y2="11.694"
     id="line24731" />
  <line
     class="cls-2"
     x1="8.0337009"
     y1="15.847"
     x2="20"
     y2="15.847"
     id="line24733" />
  <line
     class="cls-2"
     x1="8.0337009"
     y1="20"
     x2="20"
     y2="20"
     id="line24735" />
  <g
     id="g905"
     transform="translate(-1,18)">
    <rect
       class="cls-2"
       x="1"
       y="-16"
       width="16"
       height="9"
       id="rect26645"
       style="fill:#1a81c4;stroke-width:0;stroke-miterlimit:10;stroke-dasharray:none" />
    <path
       class="cls-3"
       d="m 3.0692009,-9.0631 h -1.0733 v -1.0361 h 1.0733 z"
       id="path26647"
       style="fill:#ffffff" />
    <g
       aria-label="txt"
       id="text909"
       style="font-style:normal;font-variant:normal;font-weight:bold;font-stretch:normal;font-size:8px;line-height:1.25;font-family:'Noto Sans';-inkscape-font-specification:'Noto Sans, Bold';font-variant-ligatures:normal;font-variant-caps:normal;font-variant-numeric:normal;font-variant-east-asian:normal;letter-spacing:0px;word-spacing:0px;fill:#ffffff;fill-opacity:1;stroke:none">
      <path
         d="m 6.524039,-10.093505 q 0.2,0 0.384,-0.04 0.184,-0.04 0.368,-0.096 v 0.8879998 q -0.192,0.08 -0.48,0.136 -0.28,0.064 -0.616,0.064 -0.392,0 -0.704,-0.128 -0.304,-0.128 -0.488,-0.44 -0.176,-0.3199998 -0.176,-0.8799998 v -2.104 h -0.568 v -0.504 l 0.656,-0.4 0.344,-0.92 h 0.76 v 0.928 h 1.224 v 0.896 h -1.224 v 2.104 q 0,0.248 0.144,0.376 0.144,0.12 0.376,0.12 z"
         id="path18496" />
      <path
         d="m 9.0520239,-11.453505 -1.408,-2.136 h 1.352 l 0.848,1.392 0.8560001,-1.392 h 1.352 l -1.424,2.136 1.488,2.2319998 h -1.352 l -0.9200001,-1.4959998 -0.92,1.4959998 h -1.352 z"
         id="path18498" />
      <path
         d="m 14.620017,-10.093505 q 0.2,0 0.384,-0.04 0.184,-0.04 0.368,-0.096 v 0.8879998 q -0.192,0.08 -0.48,0.136 -0.28,0.064 -0.616,0.064 -0.392,0 -0.704,-0.128 -0.304,-0.128 -0.488,-0.44 -0.176,-0.3199998 -0.176,-0.8799998 v -2.104 h -0.568 v -0.504 l 0.656,-0.4 0.344,-0.92 h 0.76 v 0.928 h 1.224 v 0.896 h -1.224 v 2.104 q 0,0.248 0.144,0.376 0.144,0.12 0.376,0.12 z"
         id="path18500" />
    </g>
  </g>
</svg>
