<?xml version="1.0" encoding="UTF-8" standalone="no"?>
<svg
   xmlns:dc="http://purl.org/dc/elements/1.1/"
   xmlns:cc="http://creativecommons.org/ns#"
   xmlns:rdf="http://www.w3.org/1999/02/22-rdf-syntax-ns#"
   xmlns:svg="http://www.w3.org/2000/svg"
   xmlns="http://www.w3.org/2000/svg"
   id="Слой_1"
   data-name="Слой 1"
   viewBox="0 0 24 24"
   version="1.1">
  <metadata
     id="metadata43">
    <rdf:RDF>
      <cc:Work
         rdf:about="">
        <cc:license
           rdf:resource="http://creativecommons.org/licenses/by-sa/4.0/" />
        <dc:format>image/svg+xml</dc:format>
        <dc:type
           rdf:resource="http://purl.org/dc/dcmitype/StillImage" />
        <dc:title>svg_file</dc:title>
      </cc:Work>
      <cc:License
         rdf:about="http://creativecommons.org/licenses/by-sa/4.0/">
        <cc:permits
           rdf:resource="http://creativecommons.org/ns#Reproduction" />
        <cc:permits
           rdf:resource="http://creativecommons.org/ns#Distribution" />
        <cc:requires
           rdf:resource="http://creativecommons.org/ns#Notice" />
        <cc:requires
           rdf:resource="http://creativecommons.org/ns#Attribution" />
        <cc:permits
           rdf:resource="http://creativecommons.org/ns#DerivativeWorks" />
        <cc:requires
           rdf:resource="http://creativecommons.org/ns#ShareAlike" />
      </cc:License>
    </rdf:RDF>
  </metadata>
  <defs
     id="defs27305">
    <style
       id="style27303">.cls-1{fill:#b9b9b9;}.cls-2{fill:#1a81c4;}.cls-3{fill:#fff;}</style>
  </defs>
  <title
     id="title27307">svg_file</title>
  <rect
     class="cls-1"
     x="3"
     y="0"
     width="21"
     height="24"
     rx="3.5044518"
     id="rect27309"
     style="stroke-width:0.999998" />
  <g
     id="layer3" />
  <g
     id="layer4"
     style="display:inline">
    <g
       id="g1550"
       transform="translate(1.357192,-23.759477)">
      <g
         transform="matrix(0.66211999,0,0,0.66211999,-151.67273,261.29794)"
         id="g931"
         style="clip-rule:evenodd;fill-rule:evenodd;stroke-linejoin:round;stroke-miterlimit:2" />
      <path
         d="m 11.996598,39.996598 c 0.03607,-0.643084 0.350464,-1.211312 0.826822,-1.612814 0.466151,-0.394697 1.092222,-0.636279 1.77954,-0.636279 0.683914,0 1.309986,0.241242 1.776136,0.636279 0.476359,0.401502 0.789395,0.96973 0.826823,1.612814 0.03607,0.660097 -0.229673,1.27596 -0.694123,1.731903 -0.476358,0.462749 -1.150065,0.755369 -1.908836,0.755369 -0.758772,0 -1.435881,-0.290579 -1.908837,-0.755369 C 12.227972,41.272558 11.962572,40.660097 12,40 Z"
         style="clip-rule:evenodd;fill:#1a81c4;fill-opacity:1;fill-rule:nonzero;stroke-width:0.340256;stroke-linejoin:round;stroke-miterlimit:2"
         id="path933" />
      <path
         d="m 7.913525,41.357622 c 0.0044,0.25179 0.08472,0.741759 0.205174,1.122845 0.25315,0.80981 0.683915,1.558373 1.279363,2.215068 0.612461,0.677109 1.367829,1.221519 2.238885,1.609411 0.915289,0.404905 1.908837,0.612461 2.939813,0.612461 1.030976,-0.0014 2.024524,-0.21232 2.939813,-0.622669 0.871055,-0.391294 1.626424,-0.935704 2.238885,-1.616216 0.59885,-0.6635 1.027573,-1.412063 1.279362,-2.221873 0.127597,-0.408307 0.208237,-0.823419 0.240562,-1.238532 0.03164,-0.408307 0.01837,-0.820017 -0.03981,-1.231727 -0.113646,-0.799602 -0.391294,-1.551568 -0.816615,-2.23208 -0.387892,-0.629474 -0.891471,-1.177286 -1.490322,-1.640034 l 0.0014,-10e-4 -6.022533,-4.627483 c -0.0054,-0.0041 -0.0099,-0.0085 -0.01565,-0.01225 -0.394697,-0.303509 -1.061599,-0.302488 -1.493725,0.0017 -0.43893,0.307591 -0.489968,0.816614 -0.09867,1.136455 l -0.0017,0.0017 2.514493,2.044939 -7.655762,0.0082 h -0.01021 c -0.632876,6.77e-4 -1.241934,0.415113 -1.361024,0.94251 -0.123853,0.534202 0.30623,0.979937 0.966327,0.979937 l -10e-4,0.0024 3.878919,-0.0075 -6.941224,5.307995 c -0.0088,0.0065 -0.01837,0.01327 -0.02654,0.01974 -0.653292,0.500177 -0.864251,1.333804 -0.452541,1.857799 0.418515,0.534202 1.306584,0.537604 1.966681,0.0031 l 3.776845,-3.096327 c 0,0 -0.05512,0.418515 -0.0507,0.666902 z m 9.731324,1.398453 c -0.779186,0.792797 -1.871408,1.245337 -3.048695,1.245337 -1.180688,0.002 -2.27291,-0.442333 -3.052097,-1.23513 -0.381087,-0.387891 -0.660097,-0.830224 -0.833627,-1.30318 -0.169108,-0.466151 -0.234777,-0.959523 -0.191224,-1.456297 0.04117,-0.486566 0.18612,-0.952717 0.418515,-1.371232 0.227291,-0.41171 0.541007,-0.785991 0.925496,-1.102429 0.758772,-0.615864 1.721696,-0.952718 2.728854,-0.952718 1.010561,-0.0014 1.973486,0.329709 2.732257,0.945912 0.384489,0.314397 0.697525,0.687318 0.925497,1.099028 0.232394,0.418515 0.377684,0.881263 0.418515,1.371232 0.04287,0.496774 -0.0228,0.990145 -0.191905,1.456296 -0.17285,0.476358 -0.452541,0.918691 -0.833627,1.306583 z"
         style="clip-rule:evenodd;fill:#e49435;fill-opacity:1;fill-rule:nonzero;stroke-width:0.340256;stroke-linejoin:round;stroke-miterlimit:2"
         id="path935" />
    </g>
    <rect
       class="cls-2"
       x="0"
       y="3"
       width="20"
       height="7"
       id="rect27311"
       style="stroke-width:0.904827" />
    <path
       class="cls-3"
       d="M 2.0688,7.9416479 H 0.99590004 V 6.8772203 H 2.0688 Z"
       id="path27313"
       style="stroke-width:1" />
    <g
       aria-label="pcb3d"
       id="text909"
       style="font-style:normal;font-variant:normal;font-weight:bold;font-stretch:normal;font-size:8px;line-height:1.25;font-family:'Noto Sans';-inkscape-font-specification:'Noto Sans, Bold';font-variant-ligatures:normal;font-variant-caps:normal;font-variant-numeric:normal;font-variant-east-asian:normal;letter-spacing:0px;word-spacing:0px;fill:#ffffff;fill-opacity:1;stroke:none">
      <path
         d="m 5.1800132,5.0823102 q 0.4906664,0 0.7946662,0.3839998 0.3039999,0.3786664 0.3039999,1.1199993 0,0.7413329 -0.3146665,1.130666 -0.3146665,0.3839998 -0.8053329,0.3839998 -0.3146665,0 -0.501333,-0.112 Q 4.4706803,7.8716419 4.3533471,7.7276419 h -0.042667 q 0.042667,0.2239999 0.042667,0.4266665 V 9.327641 H 3.5586809 V 5.1356435 h 0.6453329 l 0.112,0.3786664 h 0.037333 Q 4.4706803,5.33831 4.6680135,5.2103101 4.8653468,5.0823102 5.1800132,5.0823102 Z M 4.9240134,5.7169765 q -0.3093332,0 -0.4373331,0.1919999 -0.1226666,0.1919998 -0.1333332,0.5866663 v 0.085333 q 0,0.421333 0.1226666,0.6506662 0.1279999,0.2239999 0.4586664,0.2239999 0.2719998,0 0.3999997,-0.2239999 0.1333333,-0.2293332 0.1333333,-0.6559996 0,-0.8586661 -0.5439997,-0.8586658 z"
         style="font-style:normal;font-variant:normal;font-weight:bold;font-stretch:normal;font-size:5.33333px;font-family:'Noto Sans';-inkscape-font-specification:'Noto Sans, Bold';font-variant-ligatures:normal;font-variant-caps:normal;font-variant-numeric:normal;font-variant-east-asian:normal"
         id="path1570" />
      <path
         d="m 8.1186751,8.1009751 q -0.6506663,0 -1.0079994,-0.3573332 -0.3519998,-0.3626664 -0.3519998,-1.1359993 0,-0.533333 0.1813332,-0.8693328 Q 7.1213424,5.40231 7.4413422,5.2423101 7.7666753,5.0823102 8.1880084,5.0823102 q 0.2986665,0 0.517333,0.058667 0.2239999,0.058667 0.3893331,0.1386666 L 8.860008,5.8929764 Q 8.6733414,5.8183097 8.5080082,5.7703098 q -0.1599999,-0.048 -0.3199998,-0.048 -0.6186663,0 -0.6186663,0.8799995 0,0.4373331 0.1599999,0.6453329 0.1653332,0.2079999 0.4586664,0.2079999 0.2506665,0 0.4426664,-0.064 0.1919999,-0.069333 0.3733331,-0.1866665 V 7.8823085 Q 8.8226747,7.9996418 8.6200081,8.0476418 8.4226749,8.1009751 8.1186751,8.1009751 Z"
         style="font-style:normal;font-variant:normal;font-weight:bold;font-stretch:normal;font-size:5.33333px;font-family:'Noto Sans';-inkscape-font-specification:'Noto Sans, Bold';font-variant-ligatures:normal;font-variant-caps:normal;font-variant-numeric:normal;font-variant-east-asian:normal"
         id="path1572" />
      <path
         d="m 10.470673,4.9383103 q 0,0.1653332 -0.01067,0.3253331 -0.01067,0.1599999 -0.02133,0.2506665 h 0.032 q 0.117334,-0.1813332 0.314667,-0.3039998 0.197333,-0.1279999 0.512,-0.1279999 0.490666,0 0.794666,0.3839998 0.304,0.3786664 0.304,1.1199993 0,0.7466662 -0.309334,1.130666 -0.309333,0.3839998 -0.810666,0.3839998 -0.32,0 -0.506666,-0.112 Q 10.588007,7.8716419 10.470673,7.7276419 H 10.41734 L 10.284007,8.0476418 H 9.6760071 v -4.053331 h 0.7946659 z m 0.570667,0.7786662 q -0.309333,0 -0.437333,0.1919999 -0.122667,0.1919998 -0.133334,0.5866663 v 0.085333 q 0,0.421333 0.122667,0.6506662 0.128,0.2239999 0.458666,0.2239999 0.245334,0 0.389333,-0.2239999 0.144,-0.2293332 0.144,-0.6559996 0,-0.4266664 -0.149333,-0.6399996 -0.144,-0.2186665 -0.394666,-0.2186662 z"
         style="font-style:normal;font-variant:normal;font-weight:bold;font-stretch:normal;font-size:5.33333px;font-family:'Noto Sans';-inkscape-font-specification:'Noto Sans, Bold';font-variant-ligatures:normal;font-variant-caps:normal;font-variant-numeric:normal;font-variant-east-asian:normal"
         id="path1574" />
      <path
         d="m 15.361334,5.0929768 q 0,0.3946665 -0.24,0.629333 -0.234666,0.2346665 -0.581333,0.3199998 v 0.016 q 0.458667,0.053333 0.693333,0.2773332 0.24,0.2239998 0.24,0.6026663 0,0.3306665 -0.165333,0.597333 -0.16,0.2613331 -0.501333,0.4159997 -0.336,0.1493333 -0.869333,0.1493333 -0.618666,0 -1.098666,-0.2079999 V 7.2103089 q 0.245333,0.1226666 0.512,0.1866666 0.272,0.064 0.501333,0.064 0.432,0 0.602666,-0.1493332 0.176,-0.1493333 0.176,-0.4213331 0,-0.1599999 -0.08,-0.2666665 -0.08,-0.1119999 -0.282666,-0.1653332 -0.197334,-0.058667 -0.554667,-0.058667 h -0.288 V 5.7809764 h 0.293334 q 0.351999,0 0.533333,-0.064 0.186666,-0.069333 0.250666,-0.1813332 0.06933,-0.1173333 0.06933,-0.2666666 0,-0.2026665 -0.128,-0.3146664 -0.122666,-0.1173333 -0.415999,-0.1173333 -0.272,0 -0.474667,0.096 -0.197333,0.090667 -0.335999,0.1813333 L 12.844002,4.5596438 q 0.224,-0.1599999 0.522667,-0.2666665 0.304,-0.1066666 0.719999,-0.1066666 0.586667,0 0.928,0.2399999 0.346666,0.2346665 0.346666,0.6666662 z"
         style="font-style:normal;font-variant:normal;font-weight:bold;font-stretch:normal;font-size:5.33333px;font-family:'Noto Sans';-inkscape-font-specification:'Noto Sans, Bold';font-variant-ligatures:normal;font-variant-caps:normal;font-variant-numeric:normal;font-variant-east-asian:normal"
         id="path1576" />
      <path
         d="m 17.025326,8.1009751 q -0.485333,0 -0.794667,-0.3786665 Q 15.92666,7.3383088 15.92666,6.596976 q 0,-0.7466663 0.309333,-1.130666 0.309333,-0.3839998 0.810666,-0.3839998 0.314666,0 0.517333,0.1226666 0.202667,0.1226666 0.32,0.3039998 h 0.02667 q -0.016,-0.085333 -0.03733,-0.2453332 -0.02133,-0.1653332 -0.02133,-0.3359998 V 3.9943108 h 0.794666 v 4.053331 h -0.608 L 17.883992,7.6689753 h -0.032 q -0.117333,0.1813332 -0.314667,0.3093332 -0.197333,0.1226666 -0.511999,0.1226666 z m 0.277333,-0.6346663 q 0.330666,0 0.464,-0.1919999 0.133333,-0.1973332 0.138666,-0.5866663 v -0.085333 q 0,-0.4266664 -0.133333,-0.6506663 -0.128,-0.2239999 -0.48,-0.2239999 -0.261333,0 -0.410666,0.2293332 -0.149333,0.2239999 -0.149333,0.6506663 0,0.4266664 0.149333,0.645333 0.149333,0.2133332 0.421333,0.2133329 z"
         style="font-style:normal;font-variant:normal;font-weight:bold;font-stretch:normal;font-size:5.33333px;font-family:'Noto Sans';-inkscape-font-specification:'Noto Sans, Bold';font-variant-ligatures:normal;font-variant-caps:normal;font-variant-numeric:normal;font-variant-east-asian:normal"
         id="path1578" />
    </g>
  </g>
</svg>
