<?xml version="1.0" encoding="UTF-8" standalone="no"?>
<svg
   xmlns:dc="http://purl.org/dc/elements/1.1/"
   xmlns:cc="http://creativecommons.org/ns#"
   xmlns:rdf="http://www.w3.org/1999/02/22-rdf-syntax-ns#"
   xmlns:svg="http://www.w3.org/2000/svg"
   xmlns="http://www.w3.org/2000/svg"
   id="Слой_1"
   data-name="Слой 1"
   viewBox="0 0 24 24"
   version="1.1">
  <metadata
     id="metadata43">
    <rdf:RDF>
      <cc:Work
         rdf:about="">
        <cc:license
           rdf:resource="http://creativecommons.org/licenses/by-sa/4.0/" />
        <dc:format>image/svg+xml</dc:format>
        <dc:type
           rdf:resource="http://purl.org/dc/dcmitype/StillImage" />
        <dc:title>svg_file</dc:title>
      </cc:Work>
      <cc:License
         rdf:about="http://creativecommons.org/licenses/by-sa/4.0/">
        <cc:permits
           rdf:resource="http://creativecommons.org/ns#Reproduction" />
        <cc:permits
           rdf:resource="http://creativecommons.org/ns#Distribution" />
        <cc:requires
           rdf:resource="http://creativecommons.org/ns#Notice" />
        <cc:requires
           rdf:resource="http://creativecommons.org/ns#Attribution" />
        <cc:permits
           rdf:resource="http://creativecommons.org/ns#DerivativeWorks" />
        <cc:requires
           rdf:resource="http://creativecommons.org/ns#ShareAlike" />
      </cc:License>
    </rdf:RDF>
  </metadata>
  <defs
     id="defs27305">
    <style
       id="style27303">.cls-1{fill:#b9b9b9;}.cls-2{fill:#1a81c4;}.cls-3{fill:#fff;}</style>
  </defs>
  <title
     id="title27307">svg_file</title>
  <rect
     class="cls-1"
     x="3"
     y="0"
     width="21"
     height="24"
     rx="3.5044518"
     id="rect27309"
     style="stroke-width:0.999998" />
  <g
     id="g875"
     transform="translate(-1.6418913,-0.001699)">
    <path
       class="cls-2"
       d="m 9.9181016,18.701498 a 5.4038,5.4038 0 0 0 1.3330004,-3.244199 l 5.2506,-0.9556 -0.9591,5.247099 a 5.4038,5.4038 0 0 0 -3.2442,1.333"
       id="path157899"
       style="fill:none;stroke:#545454;stroke-width:0.9528px;stroke-miterlimit:10" />
    <rect
       class="cls-2"
       x="19.586359"
       y="6.1656432"
       width="4.6677999"
       height="2.1094999"
       transform="rotate(45.0009)"
       id="rect157901"
       style="fill:none;stroke:#545454;stroke-width:0.9528px;stroke-miterlimit:10" />
    <path
       class="cls-2"
       d="m 12.564602,17.179998 a 0.8876,0.8876 0 1 1 0,1.2553 0.8874,0.8874 0 0 1 0,-1.2553 z"
       id="path157903"
       style="fill:none;stroke:#545454;stroke-width:0.9528px;stroke-miterlimit:10" />
    <path
       class="cls-2"
       d="m 17.678902,12.065699 a 0.8876,0.8876 0 1 1 0,1.2553 0.8875,0.8875 0 0 1 0,-1.2553 z"
       id="path157905"
       style="fill:none;stroke:#545454;stroke-width:0.9528px;stroke-miterlimit:10" />
    <path
       class="cls-2"
       d="m 9.1874016,12.005899 a 0.8877,0.8877 0 1 1 0,1.2554 0.8877,0.8877 0 0 1 0,-1.2554 z"
       id="path157907"
       style="fill:none;stroke:#545454;stroke-width:0.9528px;stroke-miterlimit:10" />
    <path
       class="cls-2"
       d="m 17.731402,20.549898 a 0.8877,0.8877 0 1 1 0,1.2553 0.8876,0.8876 0 0 1 0,-1.2553 z"
       id="path157909"
       style="fill:none;stroke:#545454;stroke-width:0.9528px;stroke-miterlimit:10" />
    <path
       class="cls-2"
       d="m 18.927402,20.506698 a 6.0423,6.0423 0 0 0 -0.0043,-7.097799 l 4.7706,4.770599"
       id="path157911"
       style="fill:none;stroke:#545454;stroke-width:0.9528px;stroke-miterlimit:10" />
    <path
       class="cls-2"
       d="m 10.450402,12.104499 a 6.0416,6.0416 0 0 1 7.1871,0.0068 l -4.7883,-4.7883003"
       id="path157913"
       style="fill:none;stroke:#545454;stroke-width:0.9528px;stroke-miterlimit:10" />
    <line
       class="cls-2"
       x1="16.5"
       y1="14.5"
       x2="13.851202"
       y2="17.148699"
       id="line157915"
       style="fill:none;stroke:#545454;stroke-width:0.9528px;stroke-miterlimit:10" />
    <rect
       class="cls-2"
       x="14.438107"
       y="-4.6257401"
       width="1.476"
       height="1.476"
       transform="rotate(45)"
       id="rect157917"
       style="fill:none;stroke:#545454;stroke-width:0.9528px;stroke-miterlimit:10" />
    <rect
       class="cls-2"
       x="27.942106"
       y="-4.6270676"
       width="1.4762"
       height="1.476"
       transform="rotate(45.0027)"
       id="rect157919"
       style="fill:none;stroke:#545454;stroke-width:0.9528px;stroke-miterlimit:10" />
  </g>
  <rect
     class="cls-2"
     x="0"
     y="2"
     width="19"
     height="9"
     id="rect27311"
     style="stroke-width:0.999998" />
  <path
     class="cls-3"
     d="M 2.0688,7.9416479 H 0.99590004 V 6.8772203 H 2.0688 Z"
     id="path27313"
     style="stroke-width:1" />
  <g
     aria-label="eps"
     id="text909"
     style="font-style:normal;font-variant:normal;font-weight:bold;font-stretch:normal;font-size:8px;line-height:1.25;font-family:'Noto Sans';-inkscape-font-specification:'Noto Sans, Bold';font-variant-ligatures:normal;font-variant-caps:normal;font-variant-numeric:normal;font-variant-east-asian:normal;letter-spacing:0px;word-spacing:0px;fill:#ffffff;fill-opacity:1;stroke:none">
    <path
       d="m 5.5666811,3.5996418 q 0.904,0 1.432,0.52 0.528,0.512 0.528,1.464 v 0.576 h -2.816 q 0.016,0.504 0.296,0.792 0.288,0.288 0.792,0.288 0.424,0 0.768,-0.08 0.344,-0.088 0.712,-0.264 v 0.92 q -0.32,0.16 -0.68,0.232 -0.352,0.08 -0.856,0.08 -0.656,0 -1.16,-0.24 -0.504,-0.248 -0.792,-0.744 -0.288,-0.496 -0.288,-1.248 0,-0.768 0.256,-1.272 0.264,-0.512 0.728,-0.768 0.464,-0.256 1.08,-0.256 z m 0.008,0.848 q -0.344,0 -0.576,0.224 -0.224,0.224 -0.264,0.696 h 1.672 q -0.008,-0.4 -0.208,-0.656 -0.2,-0.264 -0.624,-0.264 z"
       id="path9252" />
    <path
       d="m 10.926678,3.5996418 q 0.736,0 1.192,0.576 0.456,0.568 0.456,1.68 0,1.112 -0.472,1.696 -0.472,0.576 -1.208,0.576 -0.472,0 -0.752,-0.168 -0.2800001,-0.176 -0.4560001,-0.392 h -0.064 q 0.064,0.336 0.064,0.64 v 1.76 h -1.192 v -6.288 h 0.968 l 0.168,0.568 h 0.056 q 0.176,-0.264 0.4720001,-0.456 0.296,-0.192 0.768,-0.192 z m -0.384,0.952 q -0.464,0 -0.6560001,0.288 -0.184,0.288 -0.2,0.88 v 0.128 q 0,0.632 0.184,0.976 0.1920001,0.336 0.6880001,0.336 0.408,0 0.6,-0.336 0.2,-0.344 0.2,-0.984 0,-1.288 -0.816,-1.288 z"
       id="path9254" />
    <path
       d="m 16.606673,6.7516418 q 0,0.664 -0.472,1.024 -0.464,0.352 -1.392,0.352 -0.456,0 -0.784,-0.064 -0.328,-0.056 -0.656,-0.192 v -0.984 q 0.352,0.16 0.76,0.264 0.408,0.104 0.72,0.104 0.352,0 0.496,-0.104 0.152,-0.104 0.152,-0.272 0,-0.112 -0.064,-0.2 -0.056,-0.088 -0.256,-0.2 -0.2,-0.112 -0.624,-0.288 -0.408,-0.176 -0.672,-0.344 -0.264,-0.176 -0.392,-0.416 -0.128,-0.248 -0.128,-0.616 0,-0.608 0.472,-0.912 0.472,-0.304 1.256,-0.304 0.408,0 0.776,0.08 0.368,0.08 0.76,0.264 l -0.36,0.856 q -0.32,-0.136 -0.608,-0.224 -0.288,-0.096 -0.584,-0.096 -0.528,0 -0.528,0.288 0,0.104 0.064,0.192 0.072,0.08 0.264,0.176 0.2,0.096 0.584,0.256 0.376,0.152 0.648,0.32 0.272,0.16 0.416,0.408 0.152,0.24 0.152,0.632 z"
       id="path9256" />
  </g>
</svg>
