<?xml version="1.0" encoding="UTF-8" standalone="no"?>
<svg
   xmlns:dc="http://purl.org/dc/elements/1.1/"
   xmlns:cc="http://creativecommons.org/ns#"
   xmlns:rdf="http://www.w3.org/1999/02/22-rdf-syntax-ns#"
   xmlns:svg="http://www.w3.org/2000/svg"
   xmlns="http://www.w3.org/2000/svg"
   id="Слой_1"
   data-name="Слой 1"
   viewBox="0 0 24 24"
   version="1.1">
  <metadata
     id="metadata43">
    <rdf:RDF>
      <cc:Work
         rdf:about="">
        <cc:license
           rdf:resource="http://creativecommons.org/licenses/by-sa/4.0/" />
        <dc:format>image/svg+xml</dc:format>
        <dc:type
           rdf:resource="http://purl.org/dc/dcmitype/StillImage" />
        <dc:title>html</dc:title>
      </cc:Work>
      <cc:License
         rdf:about="http://creativecommons.org/licenses/by-sa/4.0/">
        <cc:permits
           rdf:resource="http://creativecommons.org/ns#Reproduction" />
        <cc:permits
           rdf:resource="http://creativecommons.org/ns#Distribution" />
        <cc:requires
           rdf:resource="http://creativecommons.org/ns#Notice" />
        <cc:requires
           rdf:resource="http://creativecommons.org/ns#Attribution" />
        <cc:permits
           rdf:resource="http://creativecommons.org/ns#DerivativeWorks" />
        <cc:requires
           rdf:resource="http://creativecommons.org/ns#ShareAlike" />
      </cc:License>
    </rdf:RDF>
  </metadata>
  <defs
     id="defs157629">
    <style
       id="style157627">.cls-1{fill:#b9b9b9;}.cls-2{fill:#1a81c4;}.cls-3{fill:#fff;}.cls-4{fill:#545454;stroke:#545454;stroke-miterlimit:10;stroke-width:0.75px;}</style>
  </defs>
  <title
     id="title157631">html</title>
  <rect
     class="cls-1"
     x="3"
     y="0"
     width="21"
     height="24"
     rx="3.5044518"
     id="rect157633"
     style="stroke-width:0.999998" />
  <rect
     class="cls-2"
     x="0"
     y="2"
     width="15.5"
     height="9"
     id="rect157635"
     style="stroke-width:0.903207" />
  <path
     class="cls-4"
     d="m 6.884917,17.091735 v -0.481468 l 3.499998,-1.902291 v 0.498663 l -3.048298,1.635713 3.048698,1.627476 v 0.523684 z"
     id="path157645" />
  <path
     class="cls-4"
     d="m 12.315515,19.5 h -0.4433 l 2.1539,-6.088054 h 0.4593 z"
     id="path157647" />
  <path
     class="cls-4"
     d="m 19.472715,16.609753 v 0.481982 l -3.5,1.902292 v -0.506489 l 3.0571,-1.628196 -3.0571,-1.62758 v -0.523786 z"
     id="path157649" />
  <g
     aria-label="css"
     id="text859"
     style="font-style:normal;font-variant:normal;font-weight:bold;font-stretch:normal;font-size:8px;line-height:1.25;font-family:'Noto Sans';-inkscape-font-specification:'Noto Sans, Bold';font-variant-ligatures:normal;font-variant-caps:normal;font-variant-numeric:normal;font-variant-east-asian:normal;letter-spacing:0px;word-spacing:0px;fill:#ffffff;fill-opacity:1;stroke:none">
    <path
       d="m 4.8301248,9.1561509 q -0.976,0 -1.512,-0.536 -0.528,-0.544 -0.528,-1.704 0,-0.8 0.272,-1.304 0.272,-0.504 0.752,-0.744 0.488,-0.24 1.12,-0.24 0.448,0 0.776,0.088 0.336,0.088 0.584,0.208 l -0.352,0.92 q -0.28,-0.112 -0.528,-0.184 -0.24,-0.072 -0.48,-0.072 -0.928,0 -0.928,1.32 0,0.656 0.24,0.968 0.248,0.312 0.688,0.312 0.376,0 0.664,-0.096 0.288,-0.104 0.56,-0.28 v 1.016 q -0.272,0.176 -0.576,0.248 -0.296,0.08 -0.752,0.08 z"
       id="path876" />
    <path
       d="m 10.214124,7.7801509 q 0,0.664 -0.4719997,1.024 -0.464,0.352 -1.392,0.352 -0.456,0 -0.784,-0.064 -0.328,-0.056 -0.656,-0.192 v -0.984 q 0.352,0.16 0.76,0.264 0.408,0.104 0.72,0.104 0.352,0 0.496,-0.104 0.152,-0.104 0.152,-0.272 0,-0.112 -0.064,-0.2 -0.056,-0.088 -0.256,-0.2 -0.2,-0.112 -0.624,-0.288 -0.408,-0.176 -0.672,-0.344 -0.264,-0.176 -0.392,-0.416 -0.128,-0.248 -0.128,-0.616 0,-0.608 0.472,-0.912 0.472,-0.304 1.256,-0.304 0.408,0 0.776,0.08 0.368,0.08 0.7599997,0.264 l -0.3599997,0.856 q -0.32,-0.136 -0.608,-0.224 -0.288,-0.096 -0.584,-0.096 -0.528,0 -0.528,0.288 0,0.104 0.064,0.192 0.072,0.08 0.264,0.176 0.2,0.096 0.584,0.256 0.376,0.152 0.648,0.32 0.272,0.16 0.4159997,0.408 0.152,0.24 0.152,0.632 z"
       id="path878" />
    <path
       d="m 14.190122,7.7801509 q 0,0.664 -0.472,1.024 -0.464,0.352 -1.392,0.352 -0.456,0 -0.784,-0.064 -0.328,-0.056 -0.656,-0.192 v -0.984 q 0.352,0.16 0.76,0.264 0.408,0.104 0.72,0.104 0.352,0 0.496,-0.104 0.152,-0.104 0.152,-0.272 0,-0.112 -0.064,-0.2 -0.056,-0.088 -0.256,-0.2 -0.2,-0.112 -0.624,-0.288 -0.408,-0.176 -0.672,-0.344 -0.264,-0.176 -0.392,-0.416 -0.128,-0.248 -0.128,-0.616 0,-0.608 0.472,-0.912 0.472,-0.304 1.256,-0.304 0.408,0 0.776,0.08 0.368,0.08 0.76,0.264 l -0.36,0.856 q -0.32,-0.136 -0.608,-0.224 -0.288,-0.096 -0.584,-0.096 -0.528,0 -0.528,0.288 0,0.104 0.064,0.192 0.072,0.08 0.264,0.176 0.2,0.096 0.584,0.256 0.376,0.152 0.648,0.32 0.272,0.16 0.416,0.408 0.152,0.24 0.152,0.632 z"
       id="path880" />
  </g>
  <path
     class="cls-3"
     d="M 2,9.0361 H 0.9267 V 8 H 2 Z"
     id="path26647"
     style="fill:#ffffff" />
</svg>
