<?xml version="1.0" encoding="UTF-8" standalone="no"?>
<svg
   xmlns:dc="http://purl.org/dc/elements/1.1/"
   xmlns:cc="http://creativecommons.org/ns#"
   xmlns:rdf="http://www.w3.org/1999/02/22-rdf-syntax-ns#"
   xmlns:svg="http://www.w3.org/2000/svg"
   xmlns="http://www.w3.org/2000/svg"
   id="Слой_1"
   data-name="Слой 1"
   viewBox="0 0 16.000001 17"
   version="1.1"
   width="16"
   height="17">
  <metadata
     id="metadata43">
    <rdf:RDF>
      <cc:Work
         rdf:about="">
        <cc:license
           rdf:resource="http://creativecommons.org/licenses/by-sa/4.0/" />
        <dc:format>image/svg+xml</dc:format>
        <dc:type
           rdf:resource="http://purl.org/dc/dcmitype/StillImage" />
        <dc:title>zip</dc:title>
      </cc:Work>
      <cc:License
         rdf:about="http://creativecommons.org/licenses/by-sa/4.0/">
        <cc:permits
           rdf:resource="http://creativecommons.org/ns#Reproduction" />
        <cc:permits
           rdf:resource="http://creativecommons.org/ns#Distribution" />
        <cc:requires
           rdf:resource="http://creativecommons.org/ns#Notice" />
        <cc:requires
           rdf:resource="http://creativecommons.org/ns#Attribution" />
        <cc:permits
           rdf:resource="http://creativecommons.org/ns#DerivativeWorks" />
        <cc:requires
           rdf:resource="http://creativecommons.org/ns#ShareAlike" />
      </cc:License>
    </rdf:RDF>
  </metadata>
  <defs
     id="defs27736">
    <style
       id="style27734">.cls-1{fill:#545454;}.cls-2{fill:#e49435;}.cls-3{fill:#9e9e9e;}.cls-4{fill:#b9b9b9;}</style>
  </defs>
  <title
     id="title27738">zip</title>
  <polygon
     class="cls-1"
     points="23.989,20.14 12.883,25 12.883,10.331 24,5.82 "
     id="polygon27740"
     transform="matrix(0.72727273,0,0,0.70833333,-1.4545455,-0.70833333)"
     style="stroke-width:1.39326" />
  <polygon
     class="cls-2"
     points="2,20.084 12.883,25 12.883,10.05 2,5.46 "
     id="polygon27742"
     transform="matrix(0.72727273,0,0,0.70833333,-1.4545455,-0.70833333)"
     style="stroke-width:1.39326" />
  <polygon
     class="cls-3"
     points="24,5.82 17.927,3.3 7.369,7.895 12.894,10.41 23.761,5.92 "
     id="polygon27744"
     transform="matrix(0.72727273,0,0,0.70833333,-1.4545455,-0.70833333)"
     style="stroke-width:1.39326" />
  <polygon
     class="cls-4"
     points="7.369,7.895 17.927,3.3 12.384,1 2,5.46 "
     id="polygon27746"
     transform="matrix(0.72727273,0,0,0.70833333,-1.4545455,-0.70833333)"
     style="stroke-width:1.39326" />
  <g
     id="g5473"
     transform="translate(-3.1406462,0.49999997)">
    <g
       id="g5499"
       transform="translate(-3.4066893e-7,1.0000001)">
      <g
         id="g5507"
         transform="translate(5.9999996,1)">
        <rect
           class="cls-2"
           x="0"
           y="7.0574999"
           width="10.132647"
           height="5"
           id="rect27311"
           style="fill:#1a81c4;stroke-width:0.544312" />
        <path
           class="cls-3"
           d="M 1.158115,11 H 0.56205953 V 10.408651 H 1.158115 Z"
           id="path27313"
           style="fill:#ffffff;stroke-width:0.555556" />
        <g
           aria-label="rar"
           id="text4813"
           style="font-style:normal;font-variant:normal;font-weight:bold;font-stretch:normal;font-size:5.33333px;line-height:1.25;font-family:'Noto Sans';-inkscape-font-specification:'Noto Sans, Bold';font-variant-ligatures:normal;font-variant-caps:normal;font-variant-numeric:normal;font-variant-east-asian:normal;letter-spacing:0px;word-spacing:0px;fill:#ffffff;fill-opacity:1;stroke:none">
          <path
             d="m 3.9417098,8.0458741 q 0.058667,0 0.1386666,0.00533 0.08,0.00533 0.128,0.016 l -0.058667,0.7466662 q -0.037333,-0.010667 -0.1119999,-0.016 -0.069333,-0.010667 -0.1226666,-0.010667 -0.2026666,0 -0.3893331,0.074667 -0.1866666,0.069333 -0.3039998,0.2293332 -0.112,0.1599999 -0.112,0.4373331 V 11.011206 H 2.3150441 V 8.0992074 H 2.9177105 L 3.0350437,8.5898738 H 3.072377 Q 3.200377,8.3658739 3.4243768,8.205874 3.6483767,8.0458741 3.9417098,8.0458741 Z"
             id="path2138" />
          <path
             d="m 5.8243654,8.0405408 q 0.5866663,0 0.8959995,0.2559998 0.3146665,0.2506665 0.3146665,0.7733329 V 11.011206 H 6.480365 L 6.3256984,10.616539 h -0.021333 q -0.1866665,0.234667 -0.3946664,0.341333 -0.2079999,0.106667 -0.5706663,0.106667 -0.3893331,0 -0.645333,-0.224 -0.2559998,-0.229333 -0.2559998,-0.698666 0,-0.4639999 0.3253331,-0.6826664 0.3253331,-0.2239999 0.9759994,-0.2453332 l 0.5066664,-0.016 V 9.0698735 q 0,-0.2293332 -0.1226666,-0.3359998 -0.1173333,-0.1066666 -0.3306665,-0.1066666 -0.2133332,0 -0.4159997,0.064 -0.2026666,0.058667 -0.4053331,0.1493332 L 4.7096994,8.301874 q 0.2346665,-0.1226666 0.517333,-0.1919999 0.2879999,-0.069333 0.597333,-0.069333 z m 0.1119999,1.631999 q -0.3839997,0.010667 -0.533333,0.1386666 -0.1493332,0.1279999 -0.1493332,0.3359996 0,0.181333 0.1066666,0.261333 0.1066666,0.07467 0.2773331,0.07467 0.2559999,0 0.4319998,-0.149333 0.1759999,-0.154667 0.1759999,-0.432 V 9.6618731 Z"
             id="path2140" />
          <path
             d="m 9.4776872,8.0458741 q 0.058667,0 0.1386666,0.00533 0.08,0.00533 0.1279999,0.016 l -0.058667,0.7466662 q -0.037333,-0.010667 -0.1119999,-0.016 -0.069333,-0.010667 -0.1226666,-0.010667 -0.2026666,0 -0.3893331,0.074667 Q 8.8750209,8.9312069 8.7576876,9.0912068 8.6456877,9.2512067 8.6456877,9.5285399 V 11.011206 H 7.8510215 V 8.0992074 h 0.6026663 l 0.1173333,0.4906664 h 0.037333 Q 8.7363543,8.3658739 8.9603542,8.205874 9.184354,8.0458741 9.4776872,8.0458741 Z"
             id="path2142" />
        </g>
      </g>
    </g>
  </g>
</svg>
