<?xml version="1.0" encoding="UTF-8" standalone="no"?>
<svg
   xmlns:dc="http://purl.org/dc/elements/1.1/"
   xmlns:cc="http://creativecommons.org/ns#"
   xmlns:rdf="http://www.w3.org/1999/02/22-rdf-syntax-ns#"
   xmlns:svg="http://www.w3.org/2000/svg"
   xmlns="http://www.w3.org/2000/svg"
   id="Слой_1"
   data-name="Слой 1"
   viewBox="0 0 14.0078 13.9848"
   version="1.1"
   width="14.0078"
   height="13.9848">
  <metadata
     id="metadata43">
    <rdf:RDF>
      <cc:Work
         rdf:about="">
        <dc:format>image/svg+xml</dc:format>
        <dc:type
           rdf:resource="http://purl.org/dc/dcmitype/StillImage" />
        <dc:title>post_rpt</dc:title>
        <cc:license
           rdf:resource="http://creativecommons.org/licenses/by/4.0/" />
      </cc:Work>
      <cc:License
         rdf:about="http://creativecommons.org/licenses/by/4.0/">
        <cc:permits
           rdf:resource="http://creativecommons.org/ns#Reproduction" />
        <cc:permits
           rdf:resource="http://creativecommons.org/ns#Distribution" />
        <cc:requires
           rdf:resource="http://creativecommons.org/ns#Notice" />
        <cc:requires
           rdf:resource="http://creativecommons.org/ns#Attribution" />
        <cc:permits
           rdf:resource="http://creativecommons.org/ns#DerivativeWorks" />
      </cc:License>
    </rdf:RDF>
  </metadata>
  <defs
     id="defs159331">
    <style
       id="style159329">.cls-1{fill:#b9b9b9;}.cls-2{fill:#1a81c4;}.cls-3{fill:#fff;}.cls-4{fill:#bf2641;}.cls-5{fill:none;stroke:#f5f5f5;stroke-linecap:round;stroke-linejoin:round;stroke-width:2px;}</style>
  </defs>
  <title
     id="title159333">post_rpt</title>
  <path
     class="cls-3"
     d="m -7.9336004,-0.06719914 h -1.0735 V -1.1036991 h 1.0735 z"
     id="path159339" />
  <path
     class="cls-3"
     d="m -4.1917004,-3.9036991 -0.4609,-0.018 a 0.96,0.96 0 0 0 -0.5264,0.1338 0.8793,0.8793 0 0 0 -0.3252,0.377 v 3.34369996 h -1.0781 V -4.8776991 h 0.9844 l 0.0712,0.6982 a 1.5456,1.5456 0 0 1 0.4678,-0.5781 1.0838,1.0838 0 0 1 0.6582,-0.209 0.9823,0.9823 0 0 1 0.1826,0.0156 1.4452,1.4452 0 0 1 0.1543,0.0381 z"
     id="path159341" />
  <path
     class="cls-3"
     d="m 0.76639958,-2.3122991 a 2.7166,2.7166 0 0 1 -0.4922,1.69339996 1.625,1.625 0 0 1 -1.36999998,0.6455 1.68,1.68 0 0 1 -0.7227,-0.1475 1.4832,1.4832 0 0 1 -0.541,-0.4307 V 1.7824009 h -1.0783 v -6.6601 h 0.9092 l 0.1064,0.6045 a 1.6071,1.6071 0 0 1 0.5567,-0.5157 1.5582,1.5582 0 0 1 0.7558,-0.1777 1.5937,1.5937 0 0 1 1.38189998,0.7051 3.1693,3.1693 0 0 1 0.4942,1.8555 z m -1.0732,-0.0957 a 2.3439,2.3439 0 0 0 -0.2774,-1.2051 0.9,0.9 0 0 0 -0.82709998,-0.4687 1.0651,1.0651 0 0 0 -0.5713,0.1445 1.0532,1.0532 0 0 0 -0.377,0.4014 v 2.1709 a 0.9969,0.9969 0 0 0 0.377,0.38859996 1.1373,1.1373 0 0 0 0.58,0.1358 0.9249,0.9249 0 0 0 0.82319998,-0.40629996 1.8858,1.8858 0 0 0 0.2725,-1.0683 z"
     id="path159343" />
  <path
     class="cls-3"
     d="m 3.0455996,-6.0466991 v 1.169 h 0.86 v 0.8008 h -0.86 v 2.6582 a 0.582,0.582 0 0 0 0.1279,0.42479996 0.4692,0.4692 0 0 0 0.3418,0.1269 1.0134,1.0134 0 0 0 0.1729,-0.0156 0.9933,0.9933 0 0 0 0.1592,-0.043 l 0.1162,0.792 a 1.2639,1.2639 0 0 1 -0.3282,0.1172 1.8184,1.8184 0 0 1 -0.3955,0.043 1.2309,1.2309 0 0 1 -0.9306,-0.35 1.53,1.53 0 0 1 -0.3369,-1.09529996 v -2.6582 h -0.7325 v -0.8008 h 0.7325 v -1.169 z"
     id="path159345" />
  <g
     id="g848"
     transform="rotate(-90,7.0038502,16.99605)">
    <g
       id="g842">
      <ellipse
         class="cls-4"
         cx="17.0075"
         cy="16.996099"
         rx="6.9924002"
         ry="7.0039001"
         id="ellipse159347" />
      <g
         id="g959"
         transform="matrix(0,0.01982019,-0.01982019,0,22.228456,11.8581)"
         style="fill:#ffffff;fill-opacity:1">
        <g
           id="g957"
           style="fill:#ffffff;fill-opacity:1">
          <g
             id="g955"
             style="fill:#ffffff;fill-opacity:1">
            <path
               d="m 487.083,225.514 -75.08,-75.08 v -86.73 c 0,-15.682 -12.708,-28.391 -28.413,-28.391 -15.669,0 -28.377,12.709 -28.377,28.391 V 93.645 L 299.31,37.74 C 271.671,10.116 223.616,10.165 196.04,37.79 L 8.312,225.514 c -11.082,11.104 -11.082,29.071 0,40.158 11.087,11.101 29.089,11.101 40.172,0 L 236.194,77.943 c 6.115,-6.083 16.893,-6.083 22.976,-0.018 l 187.742,187.747 c 5.567,5.551 12.825,8.312 20.081,8.312 7.271,0 14.541,-2.764 20.091,-8.312 11.086,-11.086 11.086,-29.053 -10e-4,-40.158 z"
               id="path951"
               style="fill:#ffffff;fill-opacity:1" />
            <path
               d="m 257.561,131.836 c -5.454,-5.451 -14.285,-5.451 -19.723,0 L 72.712,296.913 c -2.607,2.606 -4.085,6.164 -4.085,9.877 v 120.401 c 0,28.253 22.908,51.16 51.16,51.16 h 81.754 v -126.61 h 92.299 v 126.61 h 81.755 c 28.251,0 51.159,-22.907 51.159,-51.159 V 306.79 c 0,-3.713 -1.465,-7.271 -4.085,-9.877 z"
               id="path953"
               style="fill:#ffffff;fill-opacity:1" />
          </g>
        </g>
      </g>
    </g>
  </g>
</svg>
