<?xml version="1.0" standalone="no"?>
 <!DOCTYPE svg PUBLIC "-//W3C//DTD SVG 1.1//EN" 
 "http://www.w3.org/Graphics/SVG/1.1/DTD/svg11.dtd"> 
<svg
  xmlns:svg="http://www.w3.org/2000/svg"
  xmlns="http://www.w3.org/2000/svg"
  xmlns:xlink="http://www.w3.org/1999/xlink"
  version="1.1"
  width="29.700220cm" height="21.000720cm" viewBox="0 0 116930 82680">
<title>SVG Picture created as Filter_A.svg date 2022/11/25 15:01:10 </title>
  <desc>Picture generated by Eeschema-SVG </desc>
<g style="fill:#000000; fill-opacity:1.000000;stroke:#000000; stroke-opacity:1.000000;
stroke-linecap:round; stroke-linejoin:round;"
 transform="translate(0 0) scale(1 1)">
</g>
<g style="fill:#840000; fill-opacity:0.0; 
stroke:#840000; stroke-width:0.000000; stroke-opacity:1; 
stroke-linecap:round; stroke-linejoin:round;">
</g>
<g style="fill:#840000; fill-opacity:0.0; 
stroke:#840000; stroke-width:60.000000; stroke-opacity:1; 
stroke-linecap:round; stroke-linejoin:round;">
<rect x="69685.905512" y="65357.165354" width="42519.685039" height="12598.425197" rx="0.000000" />
<rect x="3937.007874" y="3937.007874" width="109055.984252" height="74805.984252" rx="0.000000" />
<rect x="4724.409449" y="4724.409449" width="107481.181102" height="73231.181102" rx="0.000000" />
<path d="M23622 4724
L23622 3937
" />
<path d="M43307 4724
L43307 3937
" />
<path d="M62992 4724
L62992 3937
" />
<path d="M82677 4724
L82677 3937
" />
<path d="M102362 4724
L102362 3937
" />
<text x="13779.527559" y="4586.614173"
textLength="549.960630" font-size="682.401575" lengthAdjust="spacingAndGlyphs"
text-anchor="start" opacity="0">1</text>
<g class="stroked-text"><desc>1</desc>
<path d="M14199 4562
L13907 4562
" />
<path d="M14053 4562
L14053 4050
L14004 4123
L13955 4172
L13907 4196
" />
</g><text x="33464.566929" y="4586.614173"
textLength="547.440945" font-size="682.401575" lengthAdjust="spacingAndGlyphs"
text-anchor="start" opacity="0">2</text>
<g class="stroked-text"><desc>2</desc>
<path d="M33592 4099
L33616 4074
L33665 4050
L33787 4050
L33835 4074
L33860 4099
L33884 4147
L33884 4196
L33860 4269
L33567 4562
L33884 4562
" />
</g><text x="53149.606299" y="4586.614173"
textLength="547.440945" font-size="682.401575" lengthAdjust="spacingAndGlyphs"
text-anchor="start" opacity="0">3</text>
<g class="stroked-text"><desc>3</desc>
<path d="M53252 4050
L53569 4050
L53398 4245
L53472 4245
L53520 4269
L53545 4294
L53569 4342
L53569 4464
L53545 4513
L53520 4537
L53472 4562
L53325 4562
L53277 4537
L53252 4513
" />
</g><text x="72834.645669" y="4586.614173"
textLength="547.440945" font-size="682.401575" lengthAdjust="spacingAndGlyphs"
text-anchor="start" opacity="0">4</text>
<g class="stroked-text"><desc>4</desc>
<path d="M73205 4221
L73205 4562
" />
<path d="M73083 4026
L72962 4391
L73278 4391
" />
</g><text x="92519.685039" y="4586.614173"
textLength="547.440945" font-size="682.401575" lengthAdjust="spacingAndGlyphs"
text-anchor="start" opacity="0">5</text>
<g class="stroked-text"><desc>5</desc>
<path d="M92915 4050
L92671 4050
L92647 4294
L92671 4269
L92720 4245
L92842 4245
L92890 4269
L92915 4294
L92939 4342
L92939 4464
L92915 4513
L92890 4537
L92842 4562
L92720 4562
L92671 4537
L92647 4513
" />
</g><text x="112204.724409" y="4586.614173"
textLength="547.440945" font-size="682.401575" lengthAdjust="spacingAndGlyphs"
text-anchor="start" opacity="0">6</text>
<g class="stroked-text"><desc>6</desc>
<path d="M112575 4050
L112478 4050
L112429 4074
L112405 4099
L112356 4172
L112332 4269
L112332 4464
L112356 4513
L112380 4537
L112429 4562
L112527 4562
L112575 4537
L112600 4513
L112624 4464
L112624 4342
L112600 4294
L112575 4269
L112527 4245
L112429 4245
L112380 4269
L112356 4294
L112332 4342
" />
</g><path d="M23622 77955
L23622 78742
" />
<path d="M43307 77955
L43307 78742
" />
<path d="M62992 77955
L62992 78742
" />
<path d="M82677 77955
L82677 78742
" />
<path d="M102362 77955
L102362 78742
" />
<text x="13779.527559" y="78605.196850"
textLength="547.440945" font-size="682.401575" lengthAdjust="spacingAndGlyphs"
text-anchor="start" opacity="0">1</text>
<g class="stroked-text"><desc>1</desc>
<path d="M14199 78580
L13907 78580
" />
<path d="M14053 78580
L14053 78068
L14004 78142
L13955 78190
L13907 78215
" />
</g><text x="33464.566929" y="78605.196850"
textLength="547.440945" font-size="682.401575" lengthAdjust="spacingAndGlyphs"
text-anchor="start" opacity="0">2</text>
<g class="stroked-text"><desc>2</desc>
<path d="M33592 78117
L33616 78093
L33665 78068
L33787 78068
L33835 78093
L33860 78117
L33884 78166
L33884 78215
L33860 78288
L33567 78580
L33884 78580
" />
</g><text x="53149.606299" y="78605.196850"
textLength="547.440945" font-size="682.401575" lengthAdjust="spacingAndGlyphs"
text-anchor="start" opacity="0">3</text>
<g class="stroked-text"><desc>3</desc>
<path d="M53252 78068
L53569 78068
L53398 78263
L53472 78263
L53520 78288
L53545 78312
L53569 78361
L53569 78483
L53545 78532
L53520 78556
L53472 78580
L53325 78580
L53277 78556
L53252 78532
" />
</g><text x="72834.645669" y="78605.196850"
textLength="547.440945" font-size="682.401575" lengthAdjust="spacingAndGlyphs"
text-anchor="start" opacity="0">4</text>
<g class="stroked-text"><desc>4</desc>
<path d="M73205 78239
L73205 78580
" />
<path d="M73083 78044
L72962 78410
L73278 78410
" />
</g><text x="92519.685039" y="78605.196850"
textLength="547.440945" font-size="682.401575" lengthAdjust="spacingAndGlyphs"
text-anchor="start" opacity="0">5</text>
<g class="stroked-text"><desc>5</desc>
<path d="M92915 78068
L92671 78068
L92647 78312
L92671 78288
L92720 78263
L92842 78263
L92890 78288
L92915 78312
L92939 78361
L92939 78483
L92915 78532
L92890 78556
L92842 78580
L92720 78580
L92671 78556
L92647 78532
" />
</g><text x="112204.724409" y="78605.196850"
textLength="547.440945" font-size="682.401575" lengthAdjust="spacingAndGlyphs"
text-anchor="start" opacity="0">6</text>
<g class="stroked-text"><desc>6</desc>
<path d="M112575 78068
L112478 78068
L112429 78093
L112405 78117
L112356 78190
L112332 78288
L112332 78483
L112356 78532
L112380 78556
L112429 78580
L112527 78580
L112575 78556
L112600 78532
L112624 78483
L112624 78361
L112600 78312
L112575 78288
L112527 78263
L112429 78263
L112380 78288
L112356 78312
L112332 78361
" />
</g><path d="M3937 23622
L4724 23622
" />
<path d="M3937 43307
L4724 43307
" />
<path d="M3937 62992
L4724 62992
" />
<text x="4330.708661" y="14035.433071"
textLength="498.700787" font-size="682.401575" lengthAdjust="spacingAndGlyphs"
text-anchor="middle" opacity="0">A</text>
<g class="stroked-text"><desc>A</desc>
<path d="M4208 13864
L4452 13864
" />
<path d="M4160 14011
L4330 13499
L4501 14011
" />
</g><text x="4330.708661" y="33720.472441"
textLength="571.811024" font-size="682.401575" lengthAdjust="spacingAndGlyphs"
text-anchor="middle" opacity="0">B</text>
<g class="stroked-text"><desc>B</desc>
<path d="M4367 33427
L4440 33452
L4464 33476
L4489 33525
L4489 33598
L4464 33647
L4440 33671
L4391 33696
L4196 33696
L4196 33184
L4367 33184
L4415 33208
L4440 33233
L4464 33281
L4464 33330
L4440 33379
L4415 33403
L4367 33427
L4196 33427
" />
</g><text x="4330.708661" y="53405.511811"
textLength="571.811024" font-size="682.401575" lengthAdjust="spacingAndGlyphs"
text-anchor="middle" opacity="0">C</text>
<g class="stroked-text"><desc>C</desc>
<path d="M4489 53332
L4464 53356
L4391 53381
L4342 53381
L4269 53356
L4221 53307
L4196 53259
L4172 53161
L4172 53088
L4196 52991
L4221 52942
L4269 52893
L4342 52869
L4391 52869
L4464 52893
L4489 52918
" />
</g><text x="4330.708661" y="73090.551181"
textLength="571.811024" font-size="682.401575" lengthAdjust="spacingAndGlyphs"
text-anchor="middle" opacity="0">D</text>
<g class="stroked-text"><desc>D</desc>
<path d="M4196 73066
L4196 72554
L4318 72554
L4391 72578
L4440 72627
L4464 72676
L4489 72773
L4489 72846
L4464 72944
L4440 72993
L4391 73041
L4318 73066
L4196 73066
" />
</g><path d="M112992 23622
L112205 23622
" />
<path d="M112992 43307
L112205 43307
" />
<path d="M112992 62992
L112205 62992
" />
<text x="112599.291339" y="14035.433071"
textLength="498.700787" font-size="682.401575" lengthAdjust="spacingAndGlyphs"
text-anchor="middle" opacity="0">A</text>
<g class="stroked-text"><desc>A</desc>
<path d="M112477 13864
L112721 13864
" />
<path d="M112428 14011
L112599 13499
L112769 14011
" />
</g><text x="112599.291339" y="33720.472441"
textLength="571.811024" font-size="682.401575" lengthAdjust="spacingAndGlyphs"
text-anchor="middle" opacity="0">B</text>
<g class="stroked-text"><desc>B</desc>
<path d="M112635 33427
L112708 33452
L112733 33476
L112757 33525
L112757 33598
L112733 33647
L112708 33671
L112660 33696
L112465 33696
L112465 33184
L112635 33184
L112684 33208
L112708 33233
L112733 33281
L112733 33330
L112708 33379
L112684 33403
L112635 33427
L112465 33427
" />
</g><text x="112599.291339" y="53405.511811"
textLength="571.811024" font-size="682.401575" lengthAdjust="spacingAndGlyphs"
text-anchor="middle" opacity="0">C</text>
<g class="stroked-text"><desc>C</desc>
<path d="M112757 53332
L112733 53356
L112660 53381
L112611 53381
L112538 53356
L112489 53307
L112465 53259
L112440 53161
L112440 53088
L112465 52991
L112489 52942
L112538 52893
L112611 52869
L112660 52869
L112733 52893
L112757 52918
" />
</g><text x="112599.291339" y="73090.551181"
textLength="571.811024" font-size="682.401575" lengthAdjust="spacingAndGlyphs"
text-anchor="middle" opacity="0">D</text>
<g class="stroked-text"><desc>D</desc>
<path d="M112465 73066
L112465 72554
L112587 72554
L112660 72578
L112708 72627
L112733 72676
L112757 72773
L112757 72846
L112733 72944
L112708 72993
L112660 73041
L112587 73066
L112465 73066
" />
</g><text x="78741.023622" y="76321.732283"
textLength="2759.645669" font-size="787.401575" lengthAdjust="spacingAndGlyphs"
text-anchor="start" opacity="0">Date: </text>
<g class="stroked-text"><desc>Date: </desc>
<path d="M78911 76293
L78911 75703
L79052 75703
L79136 75731
L79192 75787
L79220 75843
L79249 75956
L79249 76040
L79220 76152
L79192 76209
L79136 76265
L79052 76293
L78911 76293
" />
<path d="M79755 76293
L79755 75984
L79727 75928
L79670 75899
L79558 75899
L79502 75928
" />
<path d="M79755 76265
L79699 76293
L79558 76293
L79502 76265
L79474 76209
L79474 76152
L79502 76096
L79558 76068
L79699 76068
L79755 76040
" />
<path d="M79952 75899
L80177 75899
" />
<path d="M80036 75703
L80036 76209
L80064 76265
L80120 76293
L80177 76293
" />
<path d="M80598 76265
L80542 76293
L80430 76293
L80373 76265
L80345 76209
L80345 75984
L80373 75928
L80430 75899
L80542 75899
L80598 75928
L80627 75984
L80627 76040
L80345 76096
" />
<path d="M80880 76237
L80908 76265
L80880 76293
L80852 76265
L80880 76237
L80880 76293
" />
<path d="M80880 75928
L80908 75956
L80880 75984
L80852 75956
L80880 75928
L80880 75984
" />
</g><path d="M69685 76577
L112205 76577
" />
<text x="70079.606299" y="77424.094488"
textLength="21826.023622" font-size="787.401575" lengthAdjust="spacingAndGlyphs"
text-anchor="start" opacity="0">KiCad E.D.A.  eeschema 6.0.9+dfsg-1~bpo11+1</text>
<g class="stroked-text"><desc>KiCad E.D.A.  eeschema 6.0.9+dfsg-1~bpo11+1</desc>
<path d="M70250 77395
L70250 76805
" />
<path d="M70587 77395
L70334 77058
" />
<path d="M70587 76805
L70250 77142
" />
<path d="M70840 77395
L70840 77002
" />
<path d="M70840 76805
L70812 76833
L70840 76861
L70868 76833
L70840 76805
L70840 76861
" />
<path d="M71459 77339
L71431 77367
L71346 77395
L71290 77395
L71206 77367
L71150 77311
L71121 77255
L71093 77142
L71093 77058
L71121 76946
L71150 76889
L71206 76833
L71290 76805
L71346 76805
L71431 76833
L71459 76861
" />
<path d="M71965 77395
L71965 77086
L71937 77030
L71881 77002
L71768 77002
L71712 77030
" />
<path d="M71965 77367
L71909 77395
L71768 77395
L71712 77367
L71684 77311
L71684 77255
L71712 77199
L71768 77170
L71909 77170
L71965 77142
" />
<path d="M72499 77395
L72499 76805
" />
<path d="M72499 77367
L72443 77395
L72331 77395
L72274 77367
L72246 77339
L72218 77283
L72218 77114
L72246 77058
L72274 77030
L72331 77002
L72443 77002
L72499 77030
" />
<path d="M73231 77086
L73427 77086
" />
<path d="M73512 77395
L73231 77395
L73231 76805
L73512 76805
" />
<path d="M73765 77339
L73793 77367
L73765 77395
L73737 77367
L73765 77339
L73765 77395
" />
<path d="M74046 77395
L74046 76805
L74187 76805
L74271 76833
L74327 76889
L74355 76946
L74384 77058
L74384 77142
L74355 77255
L74327 77311
L74271 77367
L74187 77395
L74046 77395
" />
<path d="M74637 77339
L74665 77367
L74637 77395
L74609 77367
L74637 77339
L74637 77395
" />
<path d="M74890 77227
L75171 77227
" />
<path d="M74834 77395
L75030 76805
L75227 77395
" />
<path d="M75424 77339
L75452 77367
L75424 77395
L75396 77367
L75424 77339
L75424 77395
" />
<path d="M76830 77367
L76774 77395
L76661 77395
L76605 77367
L76577 77311
L76577 77086
L76605 77030
L76661 77002
L76774 77002
L76830 77030
L76858 77086
L76858 77142
L76577 77199
" />
<path d="M77336 77367
L77280 77395
L77168 77395
L77111 77367
L77083 77311
L77083 77086
L77111 77030
L77168 77002
L77280 77002
L77336 77030
L77364 77086
L77364 77142
L77083 77199
" />
<path d="M77589 77367
L77646 77395
L77758 77395
L77814 77367
L77842 77311
L77842 77283
L77814 77227
L77758 77199
L77674 77199
L77618 77170
L77589 77114
L77589 77086
L77618 77030
L77674 77002
L77758 77002
L77814 77030
" />
<path d="M78349 77367
L78292 77395
L78180 77395
L78124 77367
L78096 77339
L78067 77283
L78067 77114
L78096 77058
L78124 77030
L78180 77002
L78292 77002
L78349 77030
" />
<path d="M78602 77395
L78602 76805
" />
<path d="M78855 77395
L78855 77086
L78827 77030
L78771 77002
L78686 77002
L78630 77030
L78602 77058
" />
<path d="M79361 77367
L79305 77395
L79192 77395
L79136 77367
L79108 77311
L79108 77086
L79136 77030
L79192 77002
L79305 77002
L79361 77030
L79389 77086
L79389 77142
L79108 77199
" />
<path d="M79642 77395
L79642 77002
" />
<path d="M79642 77058
L79670 77030
L79727 77002
L79811 77002
L79867 77030
L79895 77086
L79895 77395
" />
<path d="M79895 77086
L79923 77030
L79980 77002
L80064 77002
L80120 77030
L80148 77086
L80148 77395
" />
<path d="M80683 77395
L80683 77086
L80655 77030
L80598 77002
L80486 77002
L80430 77030
" />
<path d="M80683 77367
L80627 77395
L80486 77395
L80430 77367
L80402 77311
L80402 77255
L80430 77199
L80486 77170
L80627 77170
L80683 77142
" />
<path d="M81667 76805
L81555 76805
L81498 76833
L81470 76861
L81414 76946
L81386 77058
L81386 77283
L81414 77339
L81442 77367
L81498 77395
L81611 77395
L81667 77367
L81695 77339
L81723 77283
L81723 77142
L81695 77086
L81667 77058
L81611 77030
L81498 77030
L81442 77058
L81414 77086
L81386 77142
" />
<path d="M81976 77339
L82004 77367
L81976 77395
L81948 77367
L81976 77339
L81976 77395
" />
<path d="M82370 76805
L82426 76805
L82483 76833
L82511 76861
L82539 76917
L82567 77030
L82567 77170
L82539 77283
L82511 77339
L82483 77367
L82426 77395
L82370 77395
L82314 77367
L82286 77339
L82258 77283
L82229 77170
L82229 77030
L82258 76917
L82286 76861
L82314 76833
L82370 76805
" />
<path d="M82820 77339
L82848 77367
L82820 77395
L82792 77367
L82820 77339
L82820 77395
" />
<path d="M83129 77395
L83242 77395
L83298 77367
L83326 77339
L83382 77255
L83411 77142
L83411 76917
L83382 76861
L83354 76833
L83298 76805
L83186 76805
L83129 76833
L83101 76861
L83073 76917
L83073 77058
L83101 77114
L83129 77142
L83186 77170
L83298 77170
L83354 77142
L83382 77114
L83411 77058
" />
<path d="M83664 77170
L84114 77170
" />
<path d="M83889 77395
L83889 76946
" />
<path d="M84648 77395
L84648 76805
" />
<path d="M84648 77367
L84592 77395
L84479 77395
L84423 77367
L84395 77339
L84367 77283
L84367 77114
L84395 77058
L84423 77030
L84479 77002
L84592 77002
L84648 77030
" />
<path d="M84845 77002
L85070 77002
" />
<path d="M84929 77395
L84929 76889
L84957 76833
L85013 76805
L85070 76805
" />
<path d="M85238 77367
L85295 77395
L85407 77395
L85463 77367
L85492 77311
L85492 77283
L85463 77227
L85407 77199
L85323 77199
L85267 77170
L85238 77114
L85238 77086
L85267 77030
L85323 77002
L85407 77002
L85463 77030
" />
<path d="M85998 77002
L85998 77480
L85970 77536
L85941 77564
L85885 77592
L85801 77592
L85745 77564
" />
<path d="M85998 77367
L85941 77395
L85829 77395
L85773 77367
L85745 77339
L85717 77283
L85717 77114
L85745 77058
L85773 77030
L85829 77002
L85941 77002
L85998 77030
" />
<path d="M86279 77170
L86729 77170
" />
<path d="M87319 77395
L86982 77395
" />
<path d="M87151 77395
L87151 76805
L87094 76889
L87038 76946
L86982 76974
" />
<path d="M87488 77170
L87516 77142
L87573 77114
L87685 77170
L87741 77142
L87769 77114
" />
<path d="M87994 77395
L87994 76805
" />
<path d="M87994 77030
L88051 77002
L88163 77002
L88219 77030
L88247 77058
L88276 77114
L88276 77283
L88247 77339
L88219 77367
L88163 77395
L88051 77395
L87994 77367
" />
<path d="M88529 77002
L88529 77592
" />
<path d="M88529 77030
L88585 77002
L88697 77002
L88754 77030
L88782 77058
L88810 77114
L88810 77283
L88782 77339
L88754 77367
L88697 77395
L88585 77395
L88529 77367
" />
<path d="M89147 77395
L89091 77367
L89063 77339
L89035 77283
L89035 77114
L89063 77058
L89091 77030
L89147 77002
L89232 77002
L89288 77030
L89316 77058
L89344 77114
L89344 77283
L89316 77339
L89288 77367
L89232 77395
L89147 77395
" />
<path d="M89907 77395
L89569 77395
" />
<path d="M89738 77395
L89738 76805
L89682 76889
L89625 76946
L89569 76974
" />
<path d="M90469 77395
L90132 77395
" />
<path d="M90300 77395
L90300 76805
L90244 76889
L90188 76946
L90132 76974
" />
<path d="M90722 77170
L91172 77170
" />
<path d="M90947 77395
L90947 76946
" />
<path d="M91763 77395
L91425 77395
" />
<path d="M91594 77395
L91594 76805
L91538 76889
L91481 76946
L91425 76974
" />
</g><path d="M69685 75396
L112205 75396
" />
</g>
<g style="fill:#840000; fill-opacity:0.0; 
stroke:#840000; stroke-width:118.110236; stroke-opacity:1; 
stroke-linecap:round; stroke-linejoin:round;">
<text x="103544.173228" y="76321.732283"
textLength="2337.834646" font-size="787.401575" lengthAdjust="spacingAndGlyphs"
text-anchor="start" opacity="0">Rev: </text>
<g class="stroked-text"><desc>Rev: </desc>
<path d="M104098 76293
L103902 76012
" />
<path d="M103761 76293
L103761 75703
L103986 75703
L104042 75731
L104070 75759
L104098 75815
L104098 75899
L104070 75956
L104042 75984
L103986 76012
L103761 76012
" />
<path d="M104577 76265
L104520 76293
L104408 76293
L104352 76265
L104323 76209
L104323 75984
L104352 75928
L104408 75899
L104520 75899
L104577 75928
L104605 75984
L104605 76040
L104323 76096
" />
<path d="M104802 75899
L104942 76293
L105083 75899
" />
<path d="M105308 76237
L105336 76265
L105308 76293
L105280 76265
L105308 76237
L105308 76293
" />
<path d="M105308 75928
L105336 75956
L105308 75984
L105280 75956
L105308 75928
L105308 75984
" />
</g></g>
<g style="fill:#840000; fill-opacity:0.0; 
stroke:#840000; stroke-width:60.000000; stroke-opacity:1; 
stroke-linecap:round; stroke-linejoin:round;">
<text x="70079.606299" y="76321.732283"
textLength="3781.220472" font-size="787.401575" lengthAdjust="spacingAndGlyphs"
text-anchor="start" opacity="0">Size: A4</text>
<g class="stroked-text"><desc>Size: A4</desc>
<path d="M70222 76265
L70306 76293
L70447 76293
L70503 76265
L70531 76237
L70559 76181
L70559 76124
L70531 76068
L70503 76040
L70447 76012
L70334 75984
L70278 75956
L70250 75928
L70222 75871
L70222 75815
L70250 75759
L70278 75731
L70334 75703
L70475 75703
L70559 75731
" />
<path d="M70812 76293
L70812 75899
" />
<path d="M70812 75703
L70784 75731
L70812 75759
L70840 75731
L70812 75703
L70812 75759
" />
<path d="M71037 75899
L71346 75899
L71037 76293
L71346 76293
" />
<path d="M71796 76265
L71740 76293
L71628 76293
L71571 76265
L71543 76209
L71543 75984
L71571 75928
L71628 75899
L71740 75899
L71796 75928
L71825 75984
L71825 76040
L71543 76096
" />
<path d="M72078 76237
L72106 76265
L72078 76293
L72049 76265
L72078 76237
L72078 76293
" />
<path d="M72078 75928
L72106 75956
L72078 75984
L72049 75956
L72078 75928
L72078 75984
" />
<path d="M72781 76124
L73062 76124
" />
<path d="M72724 76293
L72921 75703
L73118 76293
" />
<path d="M73568 75899
L73568 76293
" />
<path d="M73427 75674
L73287 76096
L73652 76096
" />
</g><text x="103544.173228" y="77424.094488"
textLength="3350.196850" font-size="787.401575" lengthAdjust="spacingAndGlyphs"
text-anchor="start" opacity="0">Id: 1/1</text>
<g class="stroked-text"><desc>Id: 1/1</desc>
<path d="M103714 77395
L103714 76805
" />
<path d="M104249 77395
L104249 76805
" />
<path d="M104249 77367
L104192 77395
L104080 77395
L104024 77367
L103995 77339
L103967 77283
L103967 77114
L103995 77058
L104024 77030
L104080 77002
L104192 77002
L104249 77030
" />
<path d="M104530 77339
L104558 77367
L104530 77395
L104502 77367
L104530 77339
L104530 77395
" />
<path d="M104530 77030
L104558 77058
L104530 77086
L104502 77058
L104530 77030
L104530 77086
" />
<path d="M105570 77395
L105233 77395
" />
<path d="M105402 77395
L105402 76805
L105345 76889
L105289 76946
L105233 76974
" />
<path d="M106245 76777
L105739 77536
" />
<path d="M106751 77395
L106414 77395
" />
<path d="M106583 77395
L106583 76805
L106526 76889
L106470 76946
L106414 76974
" />
</g><path d="M69685 73821
L112205 73821
" />
</g>
<g style="fill:#840000; fill-opacity:0.0; 
stroke:#840000; stroke-width:157.480315; stroke-opacity:1; 
stroke-linecap:round; stroke-linejoin:round;">
<text x="70079.606299" y="74924.094488"
textLength="8055.000000" font-size="1049.842520" lengthAdjust="spacingAndGlyphs"
text-anchor="start" opacity="0">Title: Filter A</text>
<g class="stroked-text"><desc>Title: Filter A</desc>
<path d="M70360 74099
L70810 74099
" />
<path d="M70486 74886
L70585 74099
" />
<path d="M70974 74886
L71039 74361
" />
<path d="M71072 74099
L71030 74136
L71063 74174
L71105 74136
L71072 74099
L71063 74174
" />
<path d="M71302 74361
L71602 74361
" />
<path d="M71447 74099
L71363 74774
L71391 74849
L71461 74886
L71536 74886
" />
<path d="M71911 74886
L71841 74849
L71812 74774
L71897 74099
" />
<path d="M72516 74849
L72436 74886
L72286 74886
L72216 74849
L72187 74774
L72225 74474
L72272 74399
L72352 74361
L72501 74361
L72572 74399
L72600 74474
L72591 74549
L72206 74624
" />
<path d="M72895 74811
L72928 74849
L72886 74886
L72853 74849
L72895 74811
L72886 74886
" />
<path d="M72947 74399
L72980 74436
L72937 74474
L72905 74436
L72947 74399
L72937 74474
" />
<path d="M74175 74474
L73912 74474
" />
<path d="M73861 74886
L73959 74099
L74334 74099
" />
<path d="M74536 74886
L74601 74361
" />
<path d="M74634 74099
L74592 74136
L74625 74174
L74667 74136
L74634 74099
L74625 74174
" />
<path d="M75023 74886
L74953 74849
L74925 74774
L75009 74099
" />
<path d="M75276 74361
L75576 74361
" />
<path d="M75421 74099
L75337 74774
L75365 74849
L75435 74886
L75510 74886
" />
<path d="M76078 74849
L75998 74886
L75848 74886
L75778 74849
L75750 74774
L75787 74474
L75834 74399
L75914 74361
L76064 74361
L76134 74399
L76162 74474
L76153 74549
L75768 74624
" />
<path d="M76448 74886
L76513 74361
" />
<path d="M76495 74511
L76542 74436
L76584 74399
L76663 74361
L76738 74361
" />
<path d="M77526 74661
L77901 74661
" />
<path d="M77423 74886
L77784 74099
L77948 74886
" />
</g></g>
<g style="fill:#840000; fill-opacity:0.0; 
stroke:#840000; stroke-width:60.000000; stroke-opacity:1; 
stroke-linecap:round; stroke-linejoin:round;">
<text x="70079.606299" y="73408.346457"
textLength="10384.685039" font-size="787.401575" lengthAdjust="spacingAndGlyphs"
text-anchor="start" opacity="0">File: Filter_A.kicad_sch</text>
<g class="stroked-text"><desc>File: Filter_A.kicad_sch</desc>
<path d="M70447 73070
L70250 73070
" />
<path d="M70250 73380
L70250 72789
L70531 72789
" />
<path d="M70756 73380
L70756 72986
" />
<path d="M70756 72789
L70728 72817
L70756 72845
L70784 72817
L70756 72789
L70756 72845
" />
<path d="M71121 73380
L71065 73352
L71037 73295
L71037 72789
" />
<path d="M71571 73352
L71515 73380
L71403 73380
L71346 73352
L71318 73295
L71318 73070
L71346 73014
L71403 72986
L71515 72986
L71571 73014
L71600 73070
L71600 73127
L71318 73183
" />
<path d="M71853 73323
L71881 73352
L71853 73380
L71825 73352
L71853 73323
L71853 73380
" />
<path d="M71853 73014
L71881 73042
L71853 73070
L71825 73042
L71853 73014
L71853 73070
" />
<path d="M72781 73070
L72584 73070
" />
<path d="M72584 73380
L72584 72789
L72865 72789
" />
<path d="M73090 73380
L73090 72986
" />
<path d="M73090 72789
L73062 72817
L73090 72845
L73118 72817
L73090 72789
L73090 72845
" />
<path d="M73456 73380
L73399 73352
L73371 73295
L73371 72789
" />
<path d="M73596 72986
L73821 72986
" />
<path d="M73681 72789
L73681 73295
L73709 73352
L73765 73380
L73821 73380
" />
<path d="M74243 73352
L74187 73380
L74074 73380
L74018 73352
L73990 73295
L73990 73070
L74018 73014
L74074 72986
L74187 72986
L74243 73014
L74271 73070
L74271 73127
L73990 73183
" />
<path d="M74524 73380
L74524 72986
" />
<path d="M74524 73098
L74552 73042
L74580 73014
L74637 72986
L74693 72986
" />
<path d="M74749 73436
L75199 73436
" />
<path d="M75312 73211
L75593 73211
" />
<path d="M75255 73380
L75452 72789
L75649 73380
" />
<path d="M75846 73323
L75874 73352
L75846 73380
L75818 73352
L75846 73323
L75846 73380
" />
<path d="M76127 73380
L76127 72789
" />
<path d="M76183 73155
L76352 73380
" />
<path d="M76352 72986
L76127 73211
" />
<path d="M76605 73380
L76605 72986
" />
<path d="M76605 72789
L76577 72817
L76605 72845
L76633 72817
L76605 72789
L76605 72845
" />
<path d="M77139 73352
L77083 73380
L76971 73380
L76915 73352
L76886 73323
L76858 73267
L76858 73098
L76886 73042
L76915 73014
L76971 72986
L77083 72986
L77139 73014
" />
<path d="M77646 73380
L77646 73070
L77618 73014
L77561 72986
L77449 72986
L77393 73014
" />
<path d="M77646 73352
L77589 73380
L77449 73380
L77393 73352
L77364 73295
L77364 73239
L77393 73183
L77449 73155
L77589 73155
L77646 73127
" />
<path d="M78180 73380
L78180 72789
" />
<path d="M78180 73352
L78124 73380
L78011 73380
L77955 73352
L77927 73323
L77899 73267
L77899 73098
L77927 73042
L77955 73014
L78011 72986
L78124 72986
L78180 73014
" />
<path d="M78321 73436
L78771 73436
" />
<path d="M78883 73352
L78939 73380
L79052 73380
L79108 73352
L79136 73295
L79136 73267
L79108 73211
L79052 73183
L78967 73183
L78911 73155
L78883 73098
L78883 73070
L78911 73014
L78967 72986
L79052 72986
L79108 73014
" />
<path d="M79642 73352
L79586 73380
L79474 73380
L79417 73352
L79389 73323
L79361 73267
L79361 73098
L79389 73042
L79417 73014
L79474 72986
L79586 72986
L79642 73014
" />
<path d="M79895 73380
L79895 72789
" />
<path d="M80148 73380
L80148 73070
L80120 73014
L80064 72986
L79980 72986
L79923 73014
L79895 73042
" />
</g><path d="M69685 71459
L112205 71459
" />
<text x="70079.606299" y="72345.354331"
textLength="3856.417323" font-size="787.401575" lengthAdjust="spacingAndGlyphs"
text-anchor="start" opacity="0">Sheet: /</text>
<g class="stroked-text"><desc>Sheet: /</desc>
<path d="M70222 72289
L70306 72317
L70447 72317
L70503 72289
L70531 72260
L70559 72204
L70559 72148
L70531 72092
L70503 72064
L70447 72035
L70334 72007
L70278 71979
L70250 71951
L70222 71895
L70222 71839
L70250 71782
L70278 71754
L70334 71726
L70475 71726
L70559 71754
" />
<path d="M70812 72317
L70812 71726
" />
<path d="M71065 72317
L71065 72007
L71037 71951
L70981 71923
L70897 71923
L70840 71951
L70812 71979
" />
<path d="M71571 72289
L71515 72317
L71403 72317
L71346 72289
L71318 72232
L71318 72007
L71346 71951
L71403 71923
L71515 71923
L71571 71951
L71600 72007
L71600 72064
L71318 72120
" />
<path d="M72078 72289
L72021 72317
L71909 72317
L71853 72289
L71825 72232
L71825 72007
L71853 71951
L71909 71923
L72021 71923
L72078 71951
L72106 72007
L72106 72064
L71825 72120
" />
<path d="M72274 71923
L72499 71923
" />
<path d="M72359 71726
L72359 72232
L72387 72289
L72443 72317
L72499 72317
" />
<path d="M72696 72260
L72724 72289
L72696 72317
L72668 72289
L72696 72260
L72696 72317
" />
<path d="M72696 71951
L72724 71979
L72696 72007
L72668 71979
L72696 71951
L72696 72007
" />
<path d="M73849 71698
L73343 72457
" />
</g></g>
<g style="fill:#840000; fill-opacity:0.0; 
stroke:#840000; stroke-width:118.110236; stroke-opacity:1; 
stroke-linecap:round; stroke-linejoin:round;">
<text x="70079.606299" y="71164.251969"
textLength="60.000000" font-size="787.401575" lengthAdjust="spacingAndGlyphs"
text-anchor="start" opacity="0"></text>
<g class="stroked-text"><desc></desc>
</g></g>
<g style="fill:#840000; fill-opacity:0.0; 
stroke:#840000; stroke-width:60.000000; stroke-opacity:1; 
stroke-linecap:round; stroke-linejoin:round;">
<text x="70079.606299" y="69983.149606"
textLength="118.110236" font-size="787.401575" lengthAdjust="spacingAndGlyphs"
text-anchor="start" opacity="0"></text>
<g class="stroked-text"><desc></desc>
</g><text x="70079.606299" y="68802.047244"
textLength="60.000000" font-size="787.401575" lengthAdjust="spacingAndGlyphs"
text-anchor="start" opacity="0"></text>
<g class="stroked-text"><desc></desc>
</g><text x="70079.606299" y="67620.944882"
textLength="60.000000" font-size="787.401575" lengthAdjust="spacingAndGlyphs"
text-anchor="start" opacity="0"></text>
<g class="stroked-text"><desc></desc>
</g><text x="70079.606299" y="66439.842520"
textLength="60.000000" font-size="787.401575" lengthAdjust="spacingAndGlyphs"
text-anchor="start" opacity="0"></text>
<g class="stroked-text"><desc></desc>
</g><path d="M77559 75396
L77559 76577
" />
<path d="M102756 75396
L102756 77955
" />
<g >
<path style="fill:#840000; fill-opacity:0.0; 
stroke:#840000; stroke-width:60.000000; stroke-opacity:1; 
stroke-linecap:round; stroke-linejoin:round;fill:none"
d="M 65000.000000,34000.000000
65000.000000,34500.000000
65500.000000,34500.000000
65000.000000,35000.000000
64500.000000,34500.000000
65000.000000,34500.000000
" /> 
</g>
<g style="fill:#006464; fill-opacity:0.0; 
stroke:#006464; stroke-width:60.000000; stroke-opacity:1; 
stroke-linecap:round; stroke-linejoin:round;">
<text x="65000.000000" y="35999.330709"
textLength="2060.000000" font-size="666.653543" lengthAdjust="spacingAndGlyphs"
text-anchor="middle" opacity="0">GND1</text>
<g class="stroked-text"><desc>GND1</desc>
<path d="M64380 35499
L64333 35475
L64261 35475
L64190 35499
L64142 35546
L64119 35594
L64095 35689
L64095 35761
L64119 35856
L64142 35904
L64190 35951
L64261 35975
L64309 35975
L64380 35951
L64404 35927
L64404 35761
L64309 35761
" />
<path d="M64619 35975
L64619 35475
L64904 35975
L64904 35475
" />
<path d="M65142 35975
L65142 35475
L65261 35475
L65333 35499
L65380 35546
L65404 35594
L65428 35689
L65428 35761
L65404 35856
L65380 35904
L65333 35951
L65261 35975
L65142 35975
" />
<path d="M65904 35975
L65619 35975
" />
<path d="M65761 35975
L65761 35475
L65714 35546
L65666 35594
L65619 35618
" />
</g></g>
</g>
<g style="fill:#006464; fill-opacity:0.0; 
stroke:#006464; stroke-width:60.000000; stroke-opacity:1; 
stroke-linecap:round; stroke-linejoin:round;">
<g >
</g>
<g style="fill:#840000; fill-opacity:0.0; 
stroke:#840000; stroke-width:60.000000; stroke-opacity:1; 
stroke-linecap:round; stroke-linejoin:round;">
</g>
<g style="fill:#840000; fill-opacity:0.0; 
stroke:#840000; stroke-width:100.000000; stroke-opacity:1; 
stroke-linecap:round; stroke-linejoin:round;">
<rect x="48500.000000" y="29600.000000" width="2000.000000" height="800.000000" rx="0.000000" />
</g>
<g style="fill:#840000; fill-opacity:0.0; 
stroke:#840000; stroke-width:60.000000; stroke-opacity:1; 
stroke-linecap:round; stroke-linejoin:round;">
<path d="M50500 30000
L51000 30000
" />
<path d="M48500 30000
L48000 30000
" />
</g>
<g style="fill:#006464; fill-opacity:0.0; 
stroke:#006464; stroke-width:60.000000; stroke-opacity:1; 
stroke-linecap:round; stroke-linejoin:round;">
<text x="49500.000000" y="28393.346457"
textLength="1036.181102" font-size="666.653543" lengthAdjust="spacingAndGlyphs"
text-anchor="middle" opacity="0">R1</text>
<g class="stroked-text"><desc>R1</desc>
<path d="M49416 28369
L49250 28131
" />
<path d="M49130 28369
L49130 27869
L49321 27869
L49369 27893
L49392 27917
L49416 27964
L49416 28036
L49392 28083
L49369 28107
L49321 28131
L49130 28131
" />
<path d="M49892 28369
L49607 28369
" />
<path d="M49750 28369
L49750 27869
L49702 27940
L49654 27988
L49607 28012
" />
</g><text x="49500.000000" y="29392.125984"
textLength="940.944882" font-size="666.653543" lengthAdjust="spacingAndGlyphs"
text-anchor="middle" opacity="0">1k</text>
<g class="stroked-text"><desc>1k</desc>
<path d="M49440 29368
L49154 29368
" />
<path d="M49297 29368
L49297 28868
L49250 28939
L49202 28987
L49154 29011
" />
<path d="M49654 29368
L49654 28868
" />
<path d="M49702 29177
L49845 29368
" />
<path d="M49845 29034
L49654 29225
" />
</g></g>
</g>
<g style="fill:#006464; fill-opacity:0.0; 
stroke:#006464; stroke-width:60.000000; stroke-opacity:1; 
stroke-linecap:round; stroke-linejoin:round;">
<g >
</g>
<g style="fill:#840000; fill-opacity:0.0; 
stroke:#840000; stroke-width:60.000000; stroke-opacity:1; 
stroke-linecap:round; stroke-linejoin:round;">
</g>
<g style="fill:#840000; fill-opacity:0.0; 
stroke:#840000; stroke-width:200.000000; stroke-opacity:1; 
stroke-linecap:round; stroke-linejoin:round;">
<path style="fill:#840000; fill-opacity:0.0; 
stroke:#840000; stroke-width:200.000000; stroke-opacity:1; 
stroke-linecap:round; stroke-linejoin:round;fill:none"
d="M 52200.000000,32300.000000
53800.000000,32300.000000
" /> 
<path style="fill:#840000; fill-opacity:0.0; 
stroke:#840000; stroke-width:200.000000; stroke-opacity:1; 
stroke-linecap:round; stroke-linejoin:round;fill:none"
d="M 52200.000000,31700.000000
53800.000000,31700.000000
" /> 
</g>
<g style="fill:#840000; fill-opacity:0.0; 
stroke:#840000; stroke-width:60.000000; stroke-opacity:1; 
stroke-linecap:round; stroke-linejoin:round;">
<path d="M53000 31600
L53000 30500
" />
<path d="M53000 32400
L53000 33500
" />
</g>
<g style="fill:#006464; fill-opacity:0.0; 
stroke:#006464; stroke-width:60.000000; stroke-opacity:1; 
stroke-linecap:round; stroke-linejoin:round;">
<text x="52019.330709" y="33249.960630"
textLength="1036.181102" font-size="666.653543" lengthAdjust="spacingAndGlyphs"
text-anchor="middle" opacity="0">C2</text>
<g class="stroked-text"><desc>C2</desc>
<path d="M51935 33178
L51912 33202
L51840 33226
L51793 33226
L51721 33202
L51674 33154
L51650 33107
L51626 33011
L51626 32940
L51650 32845
L51674 32797
L51721 32749
L51793 32726
L51840 32726
L51912 32749
L51935 32773
" />
<path d="M52126 32773
L52150 32749
L52197 32726
L52316 32726
L52364 32749
L52388 32773
L52412 32821
L52412 32868
L52388 32940
L52102 33226
L52412 33226
" />
</g><text x="51686.023622" y="34249.960630"
textLength="2369.527559" font-size="666.653543" lengthAdjust="spacingAndGlyphs"
text-anchor="middle" opacity="0">100nF</text>
<g class="stroked-text"><desc>100nF</desc>
<path d="M50912 34226
L50626 34226
" />
<path d="M50769 34226
L50769 33726
L50721 33797
L50674 33845
L50626 33868
" />
<path d="M51221 33726
L51269 33726
L51316 33749
L51340 33773
L51364 33821
L51388 33916
L51388 34035
L51364 34130
L51340 34178
L51316 34202
L51269 34226
L51221 34226
L51174 34202
L51150 34178
L51126 34130
L51102 34035
L51102 33916
L51126 33821
L51150 33773
L51174 33749
L51221 33726
" />
<path d="M51697 33726
L51745 33726
L51793 33749
L51816 33773
L51840 33821
L51864 33916
L51864 34035
L51840 34130
L51816 34178
L51793 34202
L51745 34226
L51697 34226
L51650 34202
L51626 34178
L51602 34130
L51578 34035
L51578 33916
L51602 33821
L51626 33773
L51650 33749
L51697 33726
" />
<path d="M52078 33892
L52078 34226
" />
<path d="M52078 33940
L52102 33916
L52150 33892
L52221 33892
L52269 33916
L52293 33964
L52293 34226
" />
<path d="M52697 33964
L52531 33964
" />
<path d="M52531 34226
L52531 33726
L52769 33726
" />
</g></g>
</g>
<g style="fill:#006464; fill-opacity:0.0; 
stroke:#006464; stroke-width:60.000000; stroke-opacity:1; 
stroke-linecap:round; stroke-linejoin:round;">
<g >
</g>
<g style="fill:#840000; fill-opacity:0.0; 
stroke:#840000; stroke-width:60.000000; stroke-opacity:1; 
stroke-linecap:round; stroke-linejoin:round;">
<path style="fill:#840000; fill-opacity:0.0; 
stroke:#840000; stroke-width:60.000000; stroke-opacity:1; 
stroke-linecap:round; stroke-linejoin:round;fill:none"
d="M 55500.000000,32000.000000
55500.000000,32500.000000
56000.000000,32500.000000
55500.000000,33000.000000
55000.000000,32500.000000
55500.000000,32500.000000
" /> 
</g>
<g style="fill:#006464; fill-opacity:0.0; 
stroke:#006464; stroke-width:60.000000; stroke-opacity:1; 
stroke-linecap:round; stroke-linejoin:round;">
<text x="55500.000000" y="33999.330709"
textLength="2060.000000" font-size="666.653543" lengthAdjust="spacingAndGlyphs"
text-anchor="middle" opacity="0">GND1</text>
<g class="stroked-text"><desc>GND1</desc>
<path d="M54880 33499
L54833 33475
L54761 33475
L54690 33499
L54642 33546
L54619 33594
L54595 33689
L54595 33761
L54619 33856
L54642 33904
L54690 33951
L54761 33975
L54809 33975
L54880 33951
L54904 33927
L54904 33761
L54809 33761
" />
<path d="M55119 33975
L55119 33475
L55404 33975
L55404 33475
" />
<path d="M55642 33975
L55642 33475
L55761 33475
L55833 33499
L55880 33546
L55904 33594
L55928 33689
L55928 33761
L55904 33856
L55880 33904
L55833 33951
L55761 33975
L55642 33975
" />
<path d="M56404 33975
L56119 33975
" />
<path d="M56261 33975
L56261 33475
L56214 33546
L56166 33594
L56119 33618
" />
</g></g>
</g>
<g style="fill:#006464; fill-opacity:0.0; 
stroke:#006464; stroke-width:60.000000; stroke-opacity:1; 
stroke-linecap:round; stroke-linejoin:round;">
<g >
</g>
<g style="fill:#840000; fill-opacity:0.0; 
stroke:#840000; stroke-width:60.000000; stroke-opacity:1; 
stroke-linecap:round; stroke-linejoin:round;">
<path style="fill:#840000; fill-opacity:0.0; 
stroke:#840000; stroke-width:60.000000; stroke-opacity:1; 
stroke-linecap:round; stroke-linejoin:round;fill:none"
d="M 53000.000000,34000.000000
53000.000000,34500.000000
53500.000000,34500.000000
53000.000000,35000.000000
52500.000000,34500.000000
53000.000000,34500.000000
" /> 
</g>
<g style="fill:#006464; fill-opacity:0.0; 
stroke:#006464; stroke-width:60.000000; stroke-opacity:1; 
stroke-linecap:round; stroke-linejoin:round;">
<text x="53000.000000" y="35999.330709"
textLength="2060.000000" font-size="666.653543" lengthAdjust="spacingAndGlyphs"
text-anchor="middle" opacity="0">GND1</text>
<g class="stroked-text"><desc>GND1</desc>
<path d="M52380 35499
L52333 35475
L52261 35475
L52190 35499
L52142 35546
L52119 35594
L52095 35689
L52095 35761
L52119 35856
L52142 35904
L52190 35951
L52261 35975
L52309 35975
L52380 35951
L52404 35927
L52404 35761
L52309 35761
" />
<path d="M52619 35975
L52619 35475
L52904 35975
L52904 35475
" />
<path d="M53142 35975
L53142 35475
L53261 35475
L53333 35499
L53380 35546
L53404 35594
L53428 35689
L53428 35761
L53404 35856
L53380 35904
L53333 35951
L53261 35975
L53142 35975
" />
<path d="M53904 35975
L53619 35975
" />
<path d="M53761 35975
L53761 35475
L53714 35546
L53666 35594
L53619 35618
" />
</g></g>
</g>
<g style="fill:#006464; fill-opacity:0.0; 
stroke:#006464; stroke-width:60.000000; stroke-opacity:1; 
stroke-linecap:round; stroke-linejoin:round;">
<g >
</g>
<g style="fill:#840000; fill-opacity:0.0; 
stroke:#840000; stroke-width:60.000000; stroke-opacity:1; 
stroke-linecap:round; stroke-linejoin:round;">
<path style="fill:#840000; fill-opacity:0.0; 
stroke:#840000; stroke-width:60.000000; stroke-opacity:1; 
stroke-linecap:round; stroke-linejoin:round;fill:none"
d="M 47000.000000,34000.000000
47000.000000,34500.000000
47500.000000,34500.000000
47000.000000,35000.000000
46500.000000,34500.000000
47000.000000,34500.000000
" /> 
</g>
<g style="fill:#006464; fill-opacity:0.0; 
stroke:#006464; stroke-width:60.000000; stroke-opacity:1; 
stroke-linecap:round; stroke-linejoin:round;">
<text x="47000.000000" y="35999.330709"
textLength="2060.000000" font-size="666.653543" lengthAdjust="spacingAndGlyphs"
text-anchor="middle" opacity="0">GND1</text>
<g class="stroked-text"><desc>GND1</desc>
<path d="M46380 35499
L46333 35475
L46261 35475
L46190 35499
L46142 35546
L46119 35594
L46095 35689
L46095 35761
L46119 35856
L46142 35904
L46190 35951
L46261 35975
L46309 35975
L46380 35951
L46404 35927
L46404 35761
L46309 35761
" />
<path d="M46619 35975
L46619 35475
L46904 35975
L46904 35475
" />
<path d="M47142 35975
L47142 35475
L47261 35475
L47333 35499
L47380 35546
L47404 35594
L47428 35689
L47428 35761
L47404 35856
L47380 35904
L47333 35951
L47261 35975
L47142 35975
" />
<path d="M47904 35975
L47619 35975
" />
<path d="M47761 35975
L47761 35475
L47714 35546
L47666 35594
L47619 35618
" />
</g></g>
</g>
<g style="fill:#006464; fill-opacity:0.0; 
stroke:#006464; stroke-width:60.000000; stroke-opacity:1; 
stroke-linecap:round; stroke-linejoin:round;">
<g >
</g>
<g style="fill:#840000; fill-opacity:0.0; 
stroke:#840000; stroke-width:60.000000; stroke-opacity:1; 
stroke-linecap:round; stroke-linejoin:round;">
</g>
<g style="fill:#840000; fill-opacity:0.0; 
stroke:#840000; stroke-width:200.000000; stroke-opacity:1; 
stroke-linecap:round; stroke-linejoin:round;">
<path style="fill:#840000; fill-opacity:0.0; 
stroke:#840000; stroke-width:200.000000; stroke-opacity:1; 
stroke-linecap:round; stroke-linejoin:round;fill:none"
d="M 46200.000000,32300.000000
47800.000000,32300.000000
" /> 
<path style="fill:#840000; fill-opacity:0.0; 
stroke:#840000; stroke-width:200.000000; stroke-opacity:1; 
stroke-linecap:round; stroke-linejoin:round;fill:none"
d="M 46200.000000,31700.000000
47800.000000,31700.000000
" /> 
</g>
<g style="fill:#840000; fill-opacity:0.0; 
stroke:#840000; stroke-width:60.000000; stroke-opacity:1; 
stroke-linecap:round; stroke-linejoin:round;">
<path d="M47000 31600
L47000 30500
" />
<path d="M47000 32400
L47000 33500
" />
</g>
<g style="fill:#006464; fill-opacity:0.0; 
stroke:#006464; stroke-width:60.000000; stroke-opacity:1; 
stroke-linecap:round; stroke-linejoin:round;">
<text x="48669.330709" y="31921.338583"
textLength="1036.181102" font-size="666.653543" lengthAdjust="spacingAndGlyphs"
text-anchor="middle" opacity="0">C1</text>
<g class="stroked-text"><desc>C1</desc>
<path d="M48585 31849
L48562 31873
L48490 31897
L48443 31897
L48371 31873
L48324 31826
L48300 31778
L48276 31683
L48276 31611
L48300 31516
L48324 31468
L48371 31421
L48443 31397
L48490 31397
L48562 31421
L48585 31445
" />
<path d="M49062 31897
L48776 31897
" />
<path d="M48919 31897
L48919 31397
L48871 31468
L48824 31516
L48776 31540
" />
</g><text x="49336.023622" y="32920.118110"
textLength="2369.527559" font-size="666.653543" lengthAdjust="spacingAndGlyphs"
text-anchor="middle" opacity="0">100nF</text>
<g class="stroked-text"><desc>100nF</desc>
<path d="M48562 32896
L48276 32896
" />
<path d="M48419 32896
L48419 32396
L48371 32467
L48324 32515
L48276 32539
" />
<path d="M48871 32396
L48919 32396
L48966 32420
L48990 32443
L49014 32491
L49038 32586
L49038 32705
L49014 32801
L48990 32848
L48966 32872
L48919 32896
L48871 32896
L48824 32872
L48800 32848
L48776 32801
L48752 32705
L48752 32586
L48776 32491
L48800 32443
L48824 32420
L48871 32396
" />
<path d="M49347 32396
L49395 32396
L49443 32420
L49466 32443
L49490 32491
L49514 32586
L49514 32705
L49490 32801
L49466 32848
L49443 32872
L49395 32896
L49347 32896
L49300 32872
L49276 32848
L49252 32801
L49228 32705
L49228 32586
L49252 32491
L49276 32443
L49300 32420
L49347 32396
" />
<path d="M49728 32562
L49728 32896
" />
<path d="M49728 32610
L49752 32586
L49800 32562
L49871 32562
L49919 32586
L49943 32634
L49943 32896
" />
<path d="M50347 32634
L50181 32634
" />
<path d="M50181 32896
L50181 32396
L50419 32396
" />
</g></g>
</g>
<g style="fill:#006464; fill-opacity:0.0; 
stroke:#006464; stroke-width:60.000000; stroke-opacity:1; 
stroke-linecap:round; stroke-linejoin:round;">
<g >
</g>
<g style="fill:#840000; fill-opacity:0.0; 
stroke:#840000; stroke-width:60.000000; stroke-opacity:1; 
stroke-linecap:round; stroke-linejoin:round;">
</g>
<g style="fill:#FFFFC2; fill-opacity:0.0; 
stroke:#FFFFC2; stroke-width:60.000000; stroke-opacity:1; 
stroke-linecap:round; stroke-linejoin:round;">
</g>
<g style="fill:#FFFFC2; fill-opacity:0.6; 
stroke:#FFFFC2; stroke-width:0.039370; stroke-opacity:1; 
stroke-linecap:round; stroke-linejoin:round;">
<rect x="41000.000000" y="29500.000000" width="1000.000000" height="2000.000000" rx="0.000000" />
</g>
<g style="fill:#840000; fill-opacity:0.6; 
stroke:#840000; stroke-width:0.039370; stroke-opacity:1; 
stroke-linecap:round; stroke-linejoin:round;">
</g>
<g style="fill:#840000; fill-opacity:0.0; 
stroke:#840000; stroke-width:100.000000; stroke-opacity:1; 
stroke-linecap:round; stroke-linejoin:round;">
<rect x="41000.000000" y="29500.000000" width="1000.000000" height="2000.000000" rx="0.000000" />
</g>
<g style="fill:#840000; fill-opacity:0.0; 
stroke:#840000; stroke-width:60.000000; stroke-opacity:1; 
stroke-linecap:round; stroke-linejoin:round;">
<rect x="41500.000000" y="30950.000000" width="500.000000" height="100.000000" rx="0.000000" />
<rect x="41500.000000" y="29950.000000" width="500.000000" height="100.000000" rx="0.000000" />
</g>
<g style="fill:#840000; fill-opacity:0.0; 
stroke:#840000; stroke-width:100.000000; stroke-opacity:1; 
stroke-linecap:round; stroke-linejoin:round;">
<rect x="41000.000000" y="29500.000000" width="1000.000000" height="2000.000000" rx="0.000000" />
</g>
<g style="fill:#840000; fill-opacity:0.0; 
stroke:#840000; stroke-width:60.000000; stroke-opacity:1; 
stroke-linecap:round; stroke-linejoin:round;">
<path d="M42000 30000
L43500 30000
" />
</g>
<g style="fill:#A90000; fill-opacity:0.0; 
stroke:#A90000; stroke-width:60.000000; stroke-opacity:1; 
stroke-linecap:round; stroke-linejoin:round;">
<text x="42750.000000" y="29900.000000"
textLength="536.181102" font-size="666.653543" lengthAdjust="spacingAndGlyphs"
text-anchor="middle" opacity="0">1</text>
<g class="stroked-text"><desc>1</desc>
<path d="M42892 29876
L42607 29876
" />
<path d="M42750 29876
L42750 29376
L42702 29447
L42654 29495
L42607 29519
" />
</g></g>
<g style="fill:#840000; fill-opacity:0.0; 
stroke:#840000; stroke-width:60.000000; stroke-opacity:1; 
stroke-linecap:round; stroke-linejoin:round;">
<path d="M42000 31000
L43500 31000
" />
</g>
<g style="fill:#A90000; fill-opacity:0.0; 
stroke:#A90000; stroke-width:60.000000; stroke-opacity:1; 
stroke-linecap:round; stroke-linejoin:round;">
<text x="42750.000000" y="30900.000000"
textLength="536.181102" font-size="666.653543" lengthAdjust="spacingAndGlyphs"
text-anchor="middle" opacity="0">2</text>
<g class="stroked-text"><desc>2</desc>
<path d="M42607 30423
L42630 30400
L42678 30376
L42797 30376
L42845 30400
L42869 30423
L42892 30471
L42892 30519
L42869 30590
L42583 30876
L42892 30876
" />
</g></g>
<g style="fill:#006464; fill-opacity:0.0; 
stroke:#006464; stroke-width:60.000000; stroke-opacity:1; 
stroke-linecap:round; stroke-linejoin:round;">
<text x="41499.960630" y="28293.346457"
textLength="917.125984" font-size="666.653543" lengthAdjust="spacingAndGlyphs"
text-anchor="middle" opacity="0">J1</text>
<g class="stroked-text"><desc>J1</desc>
<path d="M41333 27769
L41333 28126
L41309 28198
L41261 28245
L41190 28269
L41142 28269
" />
<path d="M41833 28269
L41547 28269
" />
<path d="M41690 28269
L41690 27769
L41642 27840
L41595 27888
L41547 27912
" />
</g><text x="41500.000000" y="29292.125984"
textLength="750.472441" font-size="666.653543" lengthAdjust="spacingAndGlyphs"
text-anchor="middle" opacity="0">In</text>
<g class="stroked-text"><desc>In</desc>
<path d="M41273 29268
L41273 28768
" />
<path d="M41511 28934
L41511 29268
" />
<path d="M41511 28982
L41535 28958
L41583 28934
L41654 28934
L41702 28958
L41726 29006
L41726 29268
" />
</g></g>
</g>
<g style="fill:#006464; fill-opacity:0.0; 
stroke:#006464; stroke-width:60.000000; stroke-opacity:1; 
stroke-linecap:round; stroke-linejoin:round;">
<g >
</g>
<g style="fill:#840000; fill-opacity:0.0; 
stroke:#840000; stroke-width:60.000000; stroke-opacity:1; 
stroke-linecap:round; stroke-linejoin:round;">
<path style="fill:#840000; fill-opacity:0.0; 
stroke:#840000; stroke-width:60.000000; stroke-opacity:1; 
stroke-linecap:round; stroke-linejoin:round;fill:none"
d="M 43500.000000,32000.000000
43500.000000,32500.000000
44000.000000,32500.000000
43500.000000,33000.000000
43000.000000,32500.000000
43500.000000,32500.000000
" /> 
</g>
<g style="fill:#006464; fill-opacity:0.0; 
stroke:#006464; stroke-width:60.000000; stroke-opacity:1; 
stroke-linecap:round; stroke-linejoin:round;">
<text x="43500.000000" y="33999.330709"
textLength="2060.000000" font-size="666.653543" lengthAdjust="spacingAndGlyphs"
text-anchor="middle" opacity="0">GND1</text>
<g class="stroked-text"><desc>GND1</desc>
<path d="M42880 33499
L42833 33475
L42761 33475
L42690 33499
L42642 33546
L42619 33594
L42595 33689
L42595 33761
L42619 33856
L42642 33904
L42690 33951
L42761 33975
L42809 33975
L42880 33951
L42904 33927
L42904 33761
L42809 33761
" />
<path d="M43119 33975
L43119 33475
L43404 33975
L43404 33475
" />
<path d="M43642 33975
L43642 33475
L43761 33475
L43833 33499
L43880 33546
L43904 33594
L43928 33689
L43928 33761
L43904 33856
L43880 33904
L43833 33951
L43761 33975
L43642 33975
" />
<path d="M44404 33975
L44119 33975
" />
<path d="M44261 33975
L44261 33475
L44214 33546
L44166 33594
L44119 33618
" />
</g></g>
</g>
<g style="fill:#006464; fill-opacity:0.0; 
stroke:#006464; stroke-width:60.000000; stroke-opacity:1; 
stroke-linecap:round; stroke-linejoin:round;">
<g >
</g>
<g style="fill:#840000; fill-opacity:0.0; 
stroke:#840000; stroke-width:60.000000; stroke-opacity:1; 
stroke-linecap:round; stroke-linejoin:round;">
<path style="fill:#840000; fill-opacity:0.0; 
stroke:#840000; stroke-width:60.000000; stroke-opacity:1; 
stroke-linecap:round; stroke-linejoin:round;fill:none"
d="M 65000.000000,34000.000000
65000.000000,33500.000000
64600.000000,33250.000000
65000.000000,33000.000000
65400.000000,33250.000000
65000.000000,33500.000000
" /> 
<path d="M65000 34000
L65000 34000
" />
</g>
<g style="fill:#006464; fill-opacity:0.0; 
stroke:#006464; stroke-width:60.000000; stroke-opacity:1; 
stroke-linecap:round; stroke-linejoin:round;">
<text x="65000.000000" y="32842.165354"
textLength="3774.291339" font-size="666.653543" lengthAdjust="spacingAndGlyphs"
text-anchor="middle" opacity="0">PWR_FLAG</text>
<g class="stroked-text"><desc>PWR_FLAG</desc>
<path d="M63261 32818
L63261 32318
L63452 32318
L63500 32342
L63523 32365
L63547 32413
L63547 32485
L63523 32532
L63500 32556
L63452 32580
L63261 32580
" />
<path d="M63714 32318
L63833 32818
L63928 32461
L64023 32818
L64142 32318
" />
<path d="M64619 32818
L64452 32580
" />
<path d="M64333 32818
L64333 32318
L64523 32318
L64571 32342
L64595 32365
L64619 32413
L64619 32485
L64595 32532
L64571 32556
L64523 32580
L64333 32580
" />
<path d="M64714 32865
L65095 32865
" />
<path d="M65380 32556
L65214 32556
" />
<path d="M65214 32818
L65214 32318
L65452 32318
" />
<path d="M65880 32818
L65642 32818
L65642 32318
" />
<path d="M66023 32675
L66261 32675
" />
<path d="M65976 32818
L66142 32318
L66309 32818
" />
<path d="M66738 32342
L66690 32318
L66619 32318
L66547 32342
L66500 32389
L66476 32437
L66452 32532
L66452 32604
L66476 32699
L66500 32746
L66547 32794
L66619 32818
L66666 32818
L66738 32794
L66761 32770
L66761 32604
L66666 32604
" />
</g></g>
</g>
<g style="fill:#006464; fill-opacity:0.0; 
stroke:#006464; stroke-width:60.000000; stroke-opacity:1; 
stroke-linecap:round; stroke-linejoin:round;">
<g >
</g>
<g style="fill:#840000; fill-opacity:0.0; 
stroke:#840000; stroke-width:60.000000; stroke-opacity:1; 
stroke-linecap:round; stroke-linejoin:round;">
</g>
<g style="fill:#FFFFC2; fill-opacity:0.0; 
stroke:#FFFFC2; stroke-width:60.000000; stroke-opacity:1; 
stroke-linecap:round; stroke-linejoin:round;">
</g>
<g style="fill:#FFFFC2; fill-opacity:0.6; 
stroke:#FFFFC2; stroke-width:0.039370; stroke-opacity:1; 
stroke-linecap:round; stroke-linejoin:round;">
<rect x="59500.000000" y="29500.000000" width="1000.000000" height="2000.000000" rx="0.000000" />
</g>
<g style="fill:#840000; fill-opacity:0.6; 
stroke:#840000; stroke-width:0.039370; stroke-opacity:1; 
stroke-linecap:round; stroke-linejoin:round;">
</g>
<g style="fill:#840000; fill-opacity:0.0; 
stroke:#840000; stroke-width:100.000000; stroke-opacity:1; 
stroke-linecap:round; stroke-linejoin:round;">
<rect x="59500.000000" y="29500.000000" width="1000.000000" height="2000.000000" rx="0.000000" />
</g>
<g style="fill:#840000; fill-opacity:0.0; 
stroke:#840000; stroke-width:60.000000; stroke-opacity:1; 
stroke-linecap:round; stroke-linejoin:round;">
<rect x="59500.000000" y="30950.000000" width="500.000000" height="100.000000" rx="0.000000" />
<rect x="59500.000000" y="29950.000000" width="500.000000" height="100.000000" rx="0.000000" />
</g>
<g style="fill:#840000; fill-opacity:0.0; 
stroke:#840000; stroke-width:100.000000; stroke-opacity:1; 
stroke-linecap:round; stroke-linejoin:round;">
<rect x="59500.000000" y="29500.000000" width="1000.000000" height="2000.000000" rx="0.000000" />
</g>
<g style="fill:#840000; fill-opacity:0.0; 
stroke:#840000; stroke-width:60.000000; stroke-opacity:1; 
stroke-linecap:round; stroke-linejoin:round;">
<path d="M59500 30000
L58000 30000
" />
</g>
<g style="fill:#A90000; fill-opacity:0.0; 
stroke:#A90000; stroke-width:60.000000; stroke-opacity:1; 
stroke-linecap:round; stroke-linejoin:round;">
<text x="58750.000000" y="29900.000000"
textLength="536.181102" font-size="666.653543" lengthAdjust="spacingAndGlyphs"
text-anchor="middle" opacity="0">1</text>
<g class="stroked-text"><desc>1</desc>
<path d="M58892 29876
L58607 29876
" />
<path d="M58750 29876
L58750 29376
L58702 29447
L58654 29495
L58607 29519
" />
</g></g>
<g style="fill:#840000; fill-opacity:0.0; 
stroke:#840000; stroke-width:60.000000; stroke-opacity:1; 
stroke-linecap:round; stroke-linejoin:round;">
<path d="M59500 31000
L58000 31000
" />
</g>
<g style="fill:#A90000; fill-opacity:0.0; 
stroke:#A90000; stroke-width:60.000000; stroke-opacity:1; 
stroke-linecap:round; stroke-linejoin:round;">
<text x="58750.000000" y="30900.000000"
textLength="536.181102" font-size="666.653543" lengthAdjust="spacingAndGlyphs"
text-anchor="middle" opacity="0">2</text>
<g class="stroked-text"><desc>2</desc>
<path d="M58607 30423
L58630 30400
L58678 30376
L58797 30376
L58845 30400
L58869 30423
L58892 30471
L58892 30519
L58869 30590
L58583 30876
L58892 30876
" />
</g></g>
<g style="fill:#006464; fill-opacity:0.0; 
stroke:#006464; stroke-width:60.000000; stroke-opacity:1; 
stroke-linecap:round; stroke-linejoin:round;">
<text x="61259.803150" y="30421.338583"
textLength="917.125984" font-size="666.653543" lengthAdjust="spacingAndGlyphs"
text-anchor="middle" opacity="0">J2</text>
<g class="stroked-text"><desc>J2</desc>
<path d="M61093 29897
L61093 30254
L61069 30326
L61021 30373
L60950 30397
L60902 30397
" />
<path d="M61307 29945
L61331 29921
L61378 29897
L61497 29897
L61545 29921
L61569 29945
L61593 29992
L61593 30040
L61569 30111
L61283 30397
L61593 30397
" />
</g><text x="61462.204724" y="31420.118110"
textLength="1321.889764" font-size="666.653543" lengthAdjust="spacingAndGlyphs"
text-anchor="middle" opacity="0">Out</text>
<g class="stroked-text"><desc>Out</desc>
<path d="M61045 30896
L61140 30896
L61188 30920
L61235 30967
L61259 31062
L61259 31229
L61235 31324
L61188 31372
L61140 31396
L61045 31396
L60997 31372
L60950 31324
L60926 31229
L60926 31062
L60950 30967
L60997 30920
L61045 30896
" />
<path d="M61688 31062
L61688 31396
" />
<path d="M61474 31062
L61474 31324
L61497 31372
L61545 31396
L61616 31396
L61664 31372
L61688 31348
" />
<path d="M61855 31062
L62045 31062
" />
<path d="M61926 30896
L61926 31324
L61950 31372
L61997 31396
L62045 31396
" />
</g></g>
</g>
<g style="fill:#006464; fill-opacity:0.0; 
stroke:#006464; stroke-width:62.519685; stroke-opacity:1; 
stroke-linecap:round; stroke-linejoin:round;">
</g>
<g style="fill:#006464; fill-opacity:0.0; 
stroke:#006464; stroke-width:60.000000; stroke-opacity:1; 
stroke-linecap:round; stroke-linejoin:round;">
</g>
<g style="fill:#725600; fill-opacity:0.0; 
stroke:#725600; stroke-width:60.000000; stroke-opacity:1; 
stroke-linecap:round; stroke-linejoin:round;">
<text x="60575.000000" y="27250.000000"
textLength="1488.582677" font-size="666.653543" lengthAdjust="spacingAndGlyphs"
text-anchor="start" opacity="0">OUT</text>
<g class="stroked-text"><desc>OUT</desc>
<path d="M60819 26726
L60914 26726
L60962 26750
L61009 26797
L61033 26892
L61033 27059
L61009 27154
L60962 27202
L60914 27226
L60819 27226
L60771 27202
L60724 27154
L60700 27059
L60700 26892
L60724 26797
L60771 26750
L60819 26726
" />
<path d="M61247 26726
L61247 27130
L61271 27178
L61295 27202
L61343 27226
L61438 27226
L61485 27202
L61509 27178
L61533 27130
L61533 26726
" />
<path d="M61700 26726
L61985 26726
" />
<path d="M61843 27226
L61843 26726
" />
</g><path style="fill:#725600; fill-opacity:0.0; 
stroke:#725600; stroke-width:60.000000; stroke-opacity:1; 
stroke-linecap:round; stroke-linejoin:round;fill:none"
d="M 60500.000000,27000.000000
60250.000000,26750.000000
60000.000000,26750.000000
60000.000000,27250.000000
60250.000000,27250.000000
Z" /> 
</g>
<g style="fill:#725600; fill-opacity:0.0; 
stroke:#725600; stroke-width:62.519685; stroke-opacity:1; 
stroke-linecap:round; stroke-linejoin:round;">
</g>
<g style="fill:#725600; fill-opacity:0.0; 
stroke:#725600; stroke-width:60.000000; stroke-opacity:1; 
stroke-linecap:round; stroke-linejoin:round;">
<text x="41425.000000" y="27250.000000"
textLength="821.889764" font-size="666.653543" lengthAdjust="spacingAndGlyphs"
text-anchor="end" opacity="0">IN</text>
<g class="stroked-text"><desc>IN</desc>
<path d="M40752 27226
L40752 26726
" />
<path d="M40990 27226
L40990 26726
L41275 27226
L41275 26726
" />
</g><path style="fill:#725600; fill-opacity:0.0; 
stroke:#725600; stroke-width:60.000000; stroke-opacity:1; 
stroke-linecap:round; stroke-linejoin:round;fill:none"
d="M 42000.000000,27000.000000
41750.000000,26750.000000
41500.000000,26750.000000
41500.000000,27250.000000
41750.000000,27250.000000
Z" /> 
</g>
<g style="fill:#009600; fill-opacity:0.0; 
stroke:#009600; stroke-width:60.000000; stroke-opacity:1; 
stroke-linecap:round; stroke-linejoin:round;">
<path d="M57000 30000
L58000 30000
" />
<path d="M57000 27000
L60000 27000
" />
<path d="M44000 30000
L47000 30000
" />
<path d="M47000 30000
L48000 30000
" />
<path d="M47000 33500
L47000 34000
" />
<path d="M47000 30000
L47000 30500
" />
<path d="M55500 32000
L55500 31000
" />
<path d="M55500 31000
L58000 31000
" />
<path d="M42000 27000
L44000 27000
" />
<path d="M57000 30000
L57000 27000
" />
<path d="M53000 30000
L57000 30000
" />
<path d="M53000 30000
L53000 30500
" />
<path d="M51000 30000
L53000 30000
" />
<path d="M53000 33500
L53000 34000
" />
<path d="M44000 27000
L44000 30000
" />
<path d="M43500 31000
L43500 32000
" />
<path d="M43500 30000
L44000 30000
" />
</g>
<g style="fill:#006464; fill-opacity:0.0; 
stroke:#006464; stroke-width:60.000000; stroke-opacity:1; 
stroke-linecap:round; stroke-linejoin:round;">
<text x="53000.000000" y="35999.330709"
textLength="2060.000000" font-size="666.653543" lengthAdjust="spacingAndGlyphs"
text-anchor="middle" opacity="0">GND1</text>
<g class="stroked-text"><desc>GND1</desc>
<path d="M52380 35499
L52333 35475
L52261 35475
L52190 35499
L52142 35546
L52119 35594
L52095 35689
L52095 35761
L52119 35856
L52142 35904
L52190 35951
L52261 35975
L52309 35975
L52380 35951
L52404 35927
L52404 35761
L52309 35761
" />
<path d="M52619 35975
L52619 35475
L52904 35975
L52904 35475
" />
<path d="M53142 35975
L53142 35475
L53261 35475
L53333 35499
L53380 35546
L53404 35594
L53428 35689
L53428 35761
L53404 35856
L53380 35904
L53333 35951
L53261 35975
L53142 35975
" />
<path d="M53904 35975
L53619 35975
" />
<path d="M53761 35975
L53761 35475
L53714 35546
L53666 35594
L53619 35618
" />
</g><text x="52019.330709" y="33249.960630"
textLength="1036.181102" font-size="666.653543" lengthAdjust="spacingAndGlyphs"
text-anchor="middle" opacity="0">C2</text>
<g class="stroked-text"><desc>C2</desc>
<path d="M51935 33178
L51912 33202
L51840 33226
L51793 33226
L51721 33202
L51674 33154
L51650 33107
L51626 33011
L51626 32940
L51650 32845
L51674 32797
L51721 32749
L51793 32726
L51840 32726
L51912 32749
L51935 32773
" />
<path d="M52126 32773
L52150 32749
L52197 32726
L52316 32726
L52364 32749
L52388 32773
L52412 32821
L52412 32868
L52388 32940
L52102 33226
L52412 33226
" />
</g><text x="51686.023622" y="34249.960630"
textLength="2369.527559" font-size="666.653543" lengthAdjust="spacingAndGlyphs"
text-anchor="middle" opacity="0">100nF</text>
<g class="stroked-text"><desc>100nF</desc>
<path d="M50912 34226
L50626 34226
" />
<path d="M50769 34226
L50769 33726
L50721 33797
L50674 33845
L50626 33868
" />
<path d="M51221 33726
L51269 33726
L51316 33749
L51340 33773
L51364 33821
L51388 33916
L51388 34035
L51364 34130
L51340 34178
L51316 34202
L51269 34226
L51221 34226
L51174 34202
L51150 34178
L51126 34130
L51102 34035
L51102 33916
L51126 33821
L51150 33773
L51174 33749
L51221 33726
" />
<path d="M51697 33726
L51745 33726
L51793 33749
L51816 33773
L51840 33821
L51864 33916
L51864 34035
L51840 34130
L51816 34178
L51793 34202
L51745 34226
L51697 34226
L51650 34202
L51626 34178
L51602 34130
L51578 34035
L51578 33916
L51602 33821
L51626 33773
L51650 33749
L51697 33726
" />
<path d="M52078 33892
L52078 34226
" />
<path d="M52078 33940
L52102 33916
L52150 33892
L52221 33892
L52269 33916
L52293 33964
L52293 34226
" />
<path d="M52697 33964
L52531 33964
" />
<path d="M52531 34226
L52531 33726
L52769 33726
" />
</g></g>
<g style="fill:#840000; fill-opacity:0.0; 
stroke:#840000; stroke-width:60.000000; stroke-opacity:1; 
stroke-linecap:round; stroke-linejoin:round;">
<path d="M53000 31600
L53000 30500
" />
<path d="M53000 32400
L53000 33500
" />
</g>
<g style="fill:#006464; fill-opacity:0.0; 
stroke:#006464; stroke-width:60.000000; stroke-opacity:1; 
stroke-linecap:round; stroke-linejoin:round;">
<text x="48669.330709" y="31921.338583"
textLength="1036.181102" font-size="666.653543" lengthAdjust="spacingAndGlyphs"
text-anchor="middle" opacity="0">C1</text>
<g class="stroked-text"><desc>C1</desc>
<path d="M48585 31849
L48562 31873
L48490 31897
L48443 31897
L48371 31873
L48324 31826
L48300 31778
L48276 31683
L48276 31611
L48300 31516
L48324 31468
L48371 31421
L48443 31397
L48490 31397
L48562 31421
L48585 31445
" />
<path d="M49062 31897
L48776 31897
" />
<path d="M48919 31897
L48919 31397
L48871 31468
L48824 31516
L48776 31540
" />
</g><text x="49336.023622" y="32920.118110"
textLength="2369.527559" font-size="666.653543" lengthAdjust="spacingAndGlyphs"
text-anchor="middle" opacity="0">100nF</text>
<g class="stroked-text"><desc>100nF</desc>
<path d="M48562 32896
L48276 32896
" />
<path d="M48419 32896
L48419 32396
L48371 32467
L48324 32515
L48276 32539
" />
<path d="M48871 32396
L48919 32396
L48966 32420
L48990 32443
L49014 32491
L49038 32586
L49038 32705
L49014 32801
L48990 32848
L48966 32872
L48919 32896
L48871 32896
L48824 32872
L48800 32848
L48776 32801
L48752 32705
L48752 32586
L48776 32491
L48800 32443
L48824 32420
L48871 32396
" />
<path d="M49347 32396
L49395 32396
L49443 32420
L49466 32443
L49490 32491
L49514 32586
L49514 32705
L49490 32801
L49466 32848
L49443 32872
L49395 32896
L49347 32896
L49300 32872
L49276 32848
L49252 32801
L49228 32705
L49228 32586
L49252 32491
L49276 32443
L49300 32420
L49347 32396
" />
<path d="M49728 32562
L49728 32896
" />
<path d="M49728 32610
L49752 32586
L49800 32562
L49871 32562
L49919 32586
L49943 32634
L49943 32896
" />
<path d="M50347 32634
L50181 32634
" />
<path d="M50181 32896
L50181 32396
L50419 32396
" />
</g></g>
<g style="fill:#840000; fill-opacity:0.0; 
stroke:#840000; stroke-width:60.000000; stroke-opacity:1; 
stroke-linecap:round; stroke-linejoin:round;">
<path d="M47000 31600
L47000 30500
" />
<path d="M47000 32400
L47000 33500
" />
</g>
<g style="fill:#006464; fill-opacity:0.0; 
stroke:#006464; stroke-width:60.000000; stroke-opacity:1; 
stroke-linecap:round; stroke-linejoin:round;">
<text x="65000.000000" y="32842.165354"
textLength="3774.291339" font-size="666.653543" lengthAdjust="spacingAndGlyphs"
text-anchor="middle" opacity="0">PWR_FLAG</text>
<g class="stroked-text"><desc>PWR_FLAG</desc>
<path d="M63261 32818
L63261 32318
L63452 32318
L63500 32342
L63523 32365
L63547 32413
L63547 32485
L63523 32532
L63500 32556
L63452 32580
L63261 32580
" />
<path d="M63714 32318
L63833 32818
L63928 32461
L64023 32818
L64142 32318
" />
<path d="M64619 32818
L64452 32580
" />
<path d="M64333 32818
L64333 32318
L64523 32318
L64571 32342
L64595 32365
L64619 32413
L64619 32485
L64595 32532
L64571 32556
L64523 32580
L64333 32580
" />
<path d="M64714 32865
L65095 32865
" />
<path d="M65380 32556
L65214 32556
" />
<path d="M65214 32818
L65214 32318
L65452 32318
" />
<path d="M65880 32818
L65642 32818
L65642 32318
" />
<path d="M66023 32675
L66261 32675
" />
<path d="M65976 32818
L66142 32318
L66309 32818
" />
<path d="M66738 32342
L66690 32318
L66619 32318
L66547 32342
L66500 32389
L66476 32437
L66452 32532
L66452 32604
L66476 32699
L66500 32746
L66547 32794
L66619 32818
L66666 32818
L66738 32794
L66761 32770
L66761 32604
L66666 32604
" />
</g></g>
<g style="fill:#840000; fill-opacity:0.0; 
stroke:#840000; stroke-width:60.000000; stroke-opacity:1; 
stroke-linecap:round; stroke-linejoin:round;">
<path d="M65000 34000
L65000 34000
" />
</g>
<g style="fill:#006464; fill-opacity:0.0; 
stroke:#006464; stroke-width:60.000000; stroke-opacity:1; 
stroke-linecap:round; stroke-linejoin:round;">
<text x="65000.000000" y="35999.330709"
textLength="2060.000000" font-size="666.653543" lengthAdjust="spacingAndGlyphs"
text-anchor="middle" opacity="0">GND1</text>
<g class="stroked-text"><desc>GND1</desc>
<path d="M64380 35499
L64333 35475
L64261 35475
L64190 35499
L64142 35546
L64119 35594
L64095 35689
L64095 35761
L64119 35856
L64142 35904
L64190 35951
L64261 35975
L64309 35975
L64380 35951
L64404 35927
L64404 35761
L64309 35761
" />
<path d="M64619 35975
L64619 35475
L64904 35975
L64904 35475
" />
<path d="M65142 35975
L65142 35475
L65261 35475
L65333 35499
L65380 35546
L65404 35594
L65428 35689
L65428 35761
L65404 35856
L65380 35904
L65333 35951
L65261 35975
L65142 35975
" />
<path d="M65904 35975
L65619 35975
" />
<path d="M65761 35975
L65761 35475
L65714 35546
L65666 35594
L65619 35618
" />
</g></g>
<g style="fill:#009600; fill-opacity:0.0; 
stroke:#009600; stroke-width:60.000000; stroke-opacity:1; 
stroke-linecap:round; stroke-linejoin:round;">
</g>
<g style="fill:#009600; fill-opacity:1.0; 
stroke:#009600; stroke-width:60.000000; stroke-opacity:1; 
stroke-linecap:round; stroke-linejoin:round;">
<circle cx="44000.000000" cy="30000.000000" r="180.000000" /> 
<circle cx="53000.000000" cy="30000.000000" r="180.000000" /> 
<circle cx="57000.000000" cy="30000.000000" r="180.000000" /> 
<circle cx="47000.000000" cy="30000.000000" r="180.000000" /> 
</g> 
</svg>
