<?xml version="1.0" standalone="no"?>
 <!DOCTYPE svg PUBLIC "-//W3C//DTD SVG 1.1//EN" 
 "http://www.w3.org/Graphics/SVG/1.1/DTD/svg11.dtd"> 
<svg
  xmlns:svg="http://www.w3.org/2000/svg"
  xmlns="http://www.w3.org/2000/svg"
  xmlns:xlink="http://www.w3.org/1999/xlink"
  version="1.1"
  width="29.700220cm" height="21.000720cm" viewBox="0 0 116930 82680">
<title>SVG Picture created as Filter_A.svg date 2022/11/25 13:33:06 </title>
  <desc>Picture generated by Eeschema-SVG </desc>
<g style="fill:#000000; fill-opacity:1.000000;stroke:#000000; stroke-opacity:1.000000;
stroke-linecap:round; stroke-linejoin:round;"
 transform="translate(0 0) scale(1 1)">
</g>
<g style="fill:#840000; fill-opacity:0.0; 
stroke:#840000; stroke-width:0.000000; stroke-opacity:1; 
stroke-linecap:round; stroke-linejoin:round;">
</g>
<g style="fill:#840000; fill-opacity:0.0; 
stroke:#840000; stroke-width:60.000000; stroke-opacity:1; 
stroke-linecap:round; stroke-linejoin:round;">
<rect x="69685.905512" y="65357.165354" width="42519.685039" height="12598.425197" rx="0.000000" />
<rect x="3937.007874" y="3937.007874" width="109055.984252" height="74805.984252" rx="0.000000" />
<rect x="4724.409449" y="4724.409449" width="107481.181102" height="73231.181102" rx="0.000000" />
<path d="M23622 4724
L23622 3937
" />
<path d="M43307 4724
L43307 3937
" />
<path d="M62992 4724
L62992 3937
" />
<path d="M82677 4724
L82677 3937
" />
<path d="M102362 4724
L102362 3937
" />
<text x="13779.527559" y="4586.614173"
textLength="549.960630" font-size="682.401575" lengthAdjust="spacingAndGlyphs"
text-anchor="start" opacity="0">1</text>
<g class="stroked-text"><desc>1</desc>
<path d="M14199 4562
L13907 4562
" />
<path d="M14053 4562
L14053 4050
L14004 4123
L13955 4172
L13907 4196
" />
</g><text x="33464.566929" y="4586.614173"
textLength="547.440945" font-size="682.401575" lengthAdjust="spacingAndGlyphs"
text-anchor="start" opacity="0">2</text>
<g class="stroked-text"><desc>2</desc>
<path d="M33592 4099
L33616 4074
L33665 4050
L33787 4050
L33835 4074
L33860 4099
L33884 4147
L33884 4196
L33860 4269
L33567 4562
L33884 4562
" />
</g><text x="53149.606299" y="4586.614173"
textLength="547.440945" font-size="682.401575" lengthAdjust="spacingAndGlyphs"
text-anchor="start" opacity="0">3</text>
<g class="stroked-text"><desc>3</desc>
<path d="M53252 4050
L53569 4050
L53398 4245
L53472 4245
L53520 4269
L53545 4294
L53569 4342
L53569 4464
L53545 4513
L53520 4537
L53472 4562
L53325 4562
L53277 4537
L53252 4513
" />
</g><text x="72834.645669" y="4586.614173"
textLength="547.440945" font-size="682.401575" lengthAdjust="spacingAndGlyphs"
text-anchor="start" opacity="0">4</text>
<g class="stroked-text"><desc>4</desc>
<path d="M73205 4221
L73205 4562
" />
<path d="M73083 4026
L72962 4391
L73278 4391
" />
</g><text x="92519.685039" y="4586.614173"
textLength="547.440945" font-size="682.401575" lengthAdjust="spacingAndGlyphs"
text-anchor="start" opacity="0">5</text>
<g class="stroked-text"><desc>5</desc>
<path d="M92915 4050
L92671 4050
L92647 4294
L92671 4269
L92720 4245
L92842 4245
L92890 4269
L92915 4294
L92939 4342
L92939 4464
L92915 4513
L92890 4537
L92842 4562
L92720 4562
L92671 4537
L92647 4513
" />
</g><text x="112204.724409" y="4586.614173"
textLength="547.440945" font-size="682.401575" lengthAdjust="spacingAndGlyphs"
text-anchor="start" opacity="0">6</text>
<g class="stroked-text"><desc>6</desc>
<path d="M112575 4050
L112478 4050
L112429 4074
L112405 4099
L112356 4172
L112332 4269
L112332 4464
L112356 4513
L112380 4537
L112429 4562
L112527 4562
L112575 4537
L112600 4513
L112624 4464
L112624 4342
L112600 4294
L112575 4269
L112527 4245
L112429 4245
L112380 4269
L112356 4294
L112332 4342
" />
</g><path d="M23622 77955
L23622 78742
" />
<path d="M43307 77955
L43307 78742
" />
<path d="M62992 77955
L62992 78742
" />
<path d="M82677 77955
L82677 78742
" />
<path d="M102362 77955
L102362 78742
" />
<text x="13779.527559" y="78605.196850"
textLength="547.440945" font-size="682.401575" lengthAdjust="spacingAndGlyphs"
text-anchor="start" opacity="0">1</text>
<g class="stroked-text"><desc>1</desc>
<path d="M14199 78580
L13907 78580
" />
<path d="M14053 78580
L14053 78068
L14004 78142
L13955 78190
L13907 78215
" />
</g><text x="33464.566929" y="78605.196850"
textLength="547.440945" font-size="682.401575" lengthAdjust="spacingAndGlyphs"
text-anchor="start" opacity="0">2</text>
<g class="stroked-text"><desc>2</desc>
<path d="M33592 78117
L33616 78093
L33665 78068
L33787 78068
L33835 78093
L33860 78117
L33884 78166
L33884 78215
L33860 78288
L33567 78580
L33884 78580
" />
</g><text x="53149.606299" y="78605.196850"
textLength="547.440945" font-size="682.401575" lengthAdjust="spacingAndGlyphs"
text-anchor="start" opacity="0">3</text>
<g class="stroked-text"><desc>3</desc>
<path d="M53252 78068
L53569 78068
L53398 78263
L53472 78263
L53520 78288
L53545 78312
L53569 78361
L53569 78483
L53545 78532
L53520 78556
L53472 78580
L53325 78580
L53277 78556
L53252 78532
" />
</g><text x="72834.645669" y="78605.196850"
textLength="547.440945" font-size="682.401575" lengthAdjust="spacingAndGlyphs"
text-anchor="start" opacity="0">4</text>
<g class="stroked-text"><desc>4</desc>
<path d="M73205 78239
L73205 78580
" />
<path d="M73083 78044
L72962 78410
L73278 78410
" />
</g><text x="92519.685039" y="78605.196850"
textLength="547.440945" font-size="682.401575" lengthAdjust="spacingAndGlyphs"
text-anchor="start" opacity="0">5</text>
<g class="stroked-text"><desc>5</desc>
<path d="M92915 78068
L92671 78068
L92647 78312
L92671 78288
L92720 78263
L92842 78263
L92890 78288
L92915 78312
L92939 78361
L92939 78483
L92915 78532
L92890 78556
L92842 78580
L92720 78580
L92671 78556
L92647 78532
" />
</g><text x="112204.724409" y="78605.196850"
textLength="547.440945" font-size="682.401575" lengthAdjust="spacingAndGlyphs"
text-anchor="start" opacity="0">6</text>
<g class="stroked-text"><desc>6</desc>
<path d="M112575 78068
L112478 78068
L112429 78093
L112405 78117
L112356 78190
L112332 78288
L112332 78483
L112356 78532
L112380 78556
L112429 78580
L112527 78580
L112575 78556
L112600 78532
L112624 78483
L112624 78361
L112600 78312
L112575 78288
L112527 78263
L112429 78263
L112380 78288
L112356 78312
L112332 78361
" />
</g><path d="M3937 23622
L4724 23622
" />
<path d="M3937 43307
L4724 43307
" />
<path d="M3937 62992
L4724 62992
" />
<text x="4330.708661" y="14035.433071"
textLength="498.700787" font-size="682.401575" lengthAdjust="spacingAndGlyphs"
text-anchor="middle" opacity="0">A</text>
<g class="stroked-text"><desc>A</desc>
<path d="M4208 13864
L4452 13864
" />
<path d="M4160 14011
L4330 13499
L4501 14011
" />
</g><text x="4330.708661" y="33720.472441"
textLength="571.811024" font-size="682.401575" lengthAdjust="spacingAndGlyphs"
text-anchor="middle" opacity="0">B</text>
<g class="stroked-text"><desc>B</desc>
<path d="M4367 33427
L4440 33452
L4464 33476
L4489 33525
L4489 33598
L4464 33647
L4440 33671
L4391 33696
L4196 33696
L4196 33184
L4367 33184
L4415 33208
L4440 33233
L4464 33281
L4464 33330
L4440 33379
L4415 33403
L4367 33427
L4196 33427
" />
</g><text x="4330.708661" y="53405.511811"
textLength="571.811024" font-size="682.401575" lengthAdjust="spacingAndGlyphs"
text-anchor="middle" opacity="0">C</text>
<g class="stroked-text"><desc>C</desc>
<path d="M4489 53332
L4464 53356
L4391 53381
L4342 53381
L4269 53356
L4221 53307
L4196 53259
L4172 53161
L4172 53088
L4196 52991
L4221 52942
L4269 52893
L4342 52869
L4391 52869
L4464 52893
L4489 52918
" />
</g><text x="4330.708661" y="73090.551181"
textLength="571.811024" font-size="682.401575" lengthAdjust="spacingAndGlyphs"
text-anchor="middle" opacity="0">D</text>
<g class="stroked-text"><desc>D</desc>
<path d="M4196 73066
L4196 72554
L4318 72554
L4391 72578
L4440 72627
L4464 72676
L4489 72773
L4489 72846
L4464 72944
L4440 72993
L4391 73041
L4318 73066
L4196 73066
" />
</g><path d="M112992 23622
L112205 23622
" />
<path d="M112992 43307
L112205 43307
" />
<path d="M112992 62992
L112205 62992
" />
<text x="112599.291339" y="14035.433071"
textLength="498.700787" font-size="682.401575" lengthAdjust="spacingAndGlyphs"
text-anchor="middle" opacity="0">A</text>
<g class="stroked-text"><desc>A</desc>
<path d="M112477 13864
L112721 13864
" />
<path d="M112428 14011
L112599 13499
L112769 14011
" />
</g><text x="112599.291339" y="33720.472441"
textLength="571.811024" font-size="682.401575" lengthAdjust="spacingAndGlyphs"
text-anchor="middle" opacity="0">B</text>
<g class="stroked-text"><desc>B</desc>
<path d="M112635 33427
L112708 33452
L112733 33476
L112757 33525
L112757 33598
L112733 33647
L112708 33671
L112660 33696
L112465 33696
L112465 33184
L112635 33184
L112684 33208
L112708 33233
L112733 33281
L112733 33330
L112708 33379
L112684 33403
L112635 33427
L112465 33427
" />
</g><text x="112599.291339" y="53405.511811"
textLength="571.811024" font-size="682.401575" lengthAdjust="spacingAndGlyphs"
text-anchor="middle" opacity="0">C</text>
<g class="stroked-text"><desc>C</desc>
<path d="M112757 53332
L112733 53356
L112660 53381
L112611 53381
L112538 53356
L112489 53307
L112465 53259
L112440 53161
L112440 53088
L112465 52991
L112489 52942
L112538 52893
L112611 52869
L112660 52869
L112733 52893
L112757 52918
" />
</g><text x="112599.291339" y="73090.551181"
textLength="571.811024" font-size="682.401575" lengthAdjust="spacingAndGlyphs"
text-anchor="middle" opacity="0">D</text>
<g class="stroked-text"><desc>D</desc>
<path d="M112465 73066
L112465 72554
L112587 72554
L112660 72578
L112708 72627
L112733 72676
L112757 72773
L112757 72846
L112733 72944
L112708 72993
L112660 73041
L112587 73066
L112465 73066
" />
</g><text x="78741.023622" y="76321.732283"
textLength="2759.645669" font-size="787.401575" lengthAdjust="spacingAndGlyphs"
text-anchor="start" opacity="0">Date: </text>
<g class="stroked-text"><desc>Date: </desc>
<path d="M78911 76293
L78911 75703
L79052 75703
L79136 75731
L79192 75787
L79220 75843
L79249 75956
L79249 76040
L79220 76152
L79192 76209
L79136 76265
L79052 76293
L78911 76293
" />
<path d="M79755 76293
L79755 75984
L79727 75928
L79670 75899
L79558 75899
L79502 75928
" />
<path d="M79755 76265
L79699 76293
L79558 76293
L79502 76265
L79474 76209
L79474 76152
L79502 76096
L79558 76068
L79699 76068
L79755 76040
" />
<path d="M79952 75899
L80177 75899
" />
<path d="M80036 75703
L80036 76209
L80064 76265
L80120 76293
L80177 76293
" />
<path d="M80598 76265
L80542 76293
L80430 76293
L80373 76265
L80345 76209
L80345 75984
L80373 75928
L80430 75899
L80542 75899
L80598 75928
L80627 75984
L80627 76040
L80345 76096
" />
<path d="M80880 76237
L80908 76265
L80880 76293
L80852 76265
L80880 76237
L80880 76293
" />
<path d="M80880 75928
L80908 75956
L80880 75984
L80852 75956
L80880 75928
L80880 75984
" />
</g><path d="M69685 76577
L112205 76577
" />
<text x="70079.606299" y="77424.094488"
textLength="21826.023622" font-size="787.401575" lengthAdjust="spacingAndGlyphs"
text-anchor="start" opacity="0">KiCad E.D.A.  eeschema 6.0.9+dfsg-1~bpo11+1</text>
<g class="stroked-text"><desc>KiCad E.D.A.  eeschema 6.0.9+dfsg-1~bpo11+1</desc>
<path d="M70250 77395
L70250 76805
" />
<path d="M70587 77395
L70334 77058
" />
<path d="M70587 76805
L70250 77142
" />
<path d="M70840 77395
L70840 77002
" />
<path d="M70840 76805
L70812 76833
L70840 76861
L70868 76833
L70840 76805
L70840 76861
" />
<path d="M71459 77339
L71431 77367
L71346 77395
L71290 77395
L71206 77367
L71150 77311
L71121 77255
L71093 77142
L71093 77058
L71121 76946
L71150 76889
L71206 76833
L71290 76805
L71346 76805
L71431 76833
L71459 76861
" />
<path d="M71965 77395
L71965 77086
L71937 77030
L71881 77002
L71768 77002
L71712 77030
" />
<path d="M71965 77367
L71909 77395
L71768 77395
L71712 77367
L71684 77311
L71684 77255
L71712 77199
L71768 77170
L71909 77170
L71965 77142
" />
<path d="M72499 77395
L72499 76805
" />
<path d="M72499 77367
L72443 77395
L72331 77395
L72274 77367
L72246 77339
L72218 77283
L72218 77114
L72246 77058
L72274 77030
L72331 77002
L72443 77002
L72499 77030
" />
<path d="M73231 77086
L73427 77086
" />
<path d="M73512 77395
L73231 77395
L73231 76805
L73512 76805
" />
<path d="M73765 77339
L73793 77367
L73765 77395
L73737 77367
L73765 77339
L73765 77395
" />
<path d="M74046 77395
L74046 76805
L74187 76805
L74271 76833
L74327 76889
L74355 76946
L74384 77058
L74384 77142
L74355 77255
L74327 77311
L74271 77367
L74187 77395
L74046 77395
" />
<path d="M74637 77339
L74665 77367
L74637 77395
L74609 77367
L74637 77339
L74637 77395
" />
<path d="M74890 77227
L75171 77227
" />
<path d="M74834 77395
L75030 76805
L75227 77395
" />
<path d="M75424 77339
L75452 77367
L75424 77395
L75396 77367
L75424 77339
L75424 77395
" />
<path d="M76830 77367
L76774 77395
L76661 77395
L76605 77367
L76577 77311
L76577 77086
L76605 77030
L76661 77002
L76774 77002
L76830 77030
L76858 77086
L76858 77142
L76577 77199
" />
<path d="M77336 77367
L77280 77395
L77168 77395
L77111 77367
L77083 77311
L77083 77086
L77111 77030
L77168 77002
L77280 77002
L77336 77030
L77364 77086
L77364 77142
L77083 77199
" />
<path d="M77589 77367
L77646 77395
L77758 77395
L77814 77367
L77842 77311
L77842 77283
L77814 77227
L77758 77199
L77674 77199
L77618 77170
L77589 77114
L77589 77086
L77618 77030
L77674 77002
L77758 77002
L77814 77030
" />
<path d="M78349 77367
L78292 77395
L78180 77395
L78124 77367
L78096 77339
L78067 77283
L78067 77114
L78096 77058
L78124 77030
L78180 77002
L78292 77002
L78349 77030
" />
<path d="M78602 77395
L78602 76805
" />
<path d="M78855 77395
L78855 77086
L78827 77030
L78771 77002
L78686 77002
L78630 77030
L78602 77058
" />
<path d="M79361 77367
L79305 77395
L79192 77395
L79136 77367
L79108 77311
L79108 77086
L79136 77030
L79192 77002
L79305 77002
L79361 77030
L79389 77086
L79389 77142
L79108 77199
" />
<path d="M79642 77395
L79642 77002
" />
<path d="M79642 77058
L79670 77030
L79727 77002
L79811 77002
L79867 77030
L79895 77086
L79895 77395
" />
<path d="M79895 77086
L79923 77030
L79980 77002
L80064 77002
L80120 77030
L80148 77086
L80148 77395
" />
<path d="M80683 77395
L80683 77086
L80655 77030
L80598 77002
L80486 77002
L80430 77030
" />
<path d="M80683 77367
L80627 77395
L80486 77395
L80430 77367
L80402 77311
L80402 77255
L80430 77199
L80486 77170
L80627 77170
L80683 77142
" />
<path d="M81667 76805
L81555 76805
L81498 76833
L81470 76861
L81414 76946
L81386 77058
L81386 77283
L81414 77339
L81442 77367
L81498 77395
L81611 77395
L81667 77367
L81695 77339
L81723 77283
L81723 77142
L81695 77086
L81667 77058
L81611 77030
L81498 77030
L81442 77058
L81414 77086
L81386 77142
" />
<path d="M81976 77339
L82004 77367
L81976 77395
L81948 77367
L81976 77339
L81976 77395
" />
<path d="M82370 76805
L82426 76805
L82483 76833
L82511 76861
L82539 76917
L82567 77030
L82567 77170
L82539 77283
L82511 77339
L82483 77367
L82426 77395
L82370 77395
L82314 77367
L82286 77339
L82258 77283
L82229 77170
L82229 77030
L82258 76917
L82286 76861
L82314 76833
L82370 76805
" />
<path d="M82820 77339
L82848 77367
L82820 77395
L82792 77367
L82820 77339
L82820 77395
" />
<path d="M83129 77395
L83242 77395
L83298 77367
L83326 77339
L83382 77255
L83411 77142
L83411 76917
L83382 76861
L83354 76833
L83298 76805
L83186 76805
L83129 76833
L83101 76861
L83073 76917
L83073 77058
L83101 77114
L83129 77142
L83186 77170
L83298 77170
L83354 77142
L83382 77114
L83411 77058
" />
<path d="M83664 77170
L84114 77170
" />
<path d="M83889 77395
L83889 76946
" />
<path d="M84648 77395
L84648 76805
" />
<path d="M84648 77367
L84592 77395
L84479 77395
L84423 77367
L84395 77339
L84367 77283
L84367 77114
L84395 77058
L84423 77030
L84479 77002
L84592 77002
L84648 77030
" />
<path d="M84845 77002
L85070 77002
" />
<path d="M84929 77395
L84929 76889
L84957 76833
L85013 76805
L85070 76805
" />
<path d="M85238 77367
L85295 77395
L85407 77395
L85463 77367
L85492 77311
L85492 77283
L85463 77227
L85407 77199
L85323 77199
L85267 77170
L85238 77114
L85238 77086
L85267 77030
L85323 77002
L85407 77002
L85463 77030
" />
<path d="M85998 77002
L85998 77480
L85970 77536
L85941 77564
L85885 77592
L85801 77592
L85745 77564
" />
<path d="M85998 77367
L85941 77395
L85829 77395
L85773 77367
L85745 77339
L85717 77283
L85717 77114
L85745 77058
L85773 77030
L85829 77002
L85941 77002
L85998 77030
" />
<path d="M86279 77170
L86729 77170
" />
<path d="M87319 77395
L86982 77395
" />
<path d="M87151 77395
L87151 76805
L87094 76889
L87038 76946
L86982 76974
" />
<path d="M87488 77170
L87516 77142
L87573 77114
L87685 77170
L87741 77142
L87769 77114
" />
<path d="M87994 77395
L87994 76805
" />
<path d="M87994 77030
L88051 77002
L88163 77002
L88219 77030
L88247 77058
L88276 77114
L88276 77283
L88247 77339
L88219 77367
L88163 77395
L88051 77395
L87994 77367
" />
<path d="M88529 77002
L88529 77592
" />
<path d="M88529 77030
L88585 77002
L88697 77002
L88754 77030
L88782 77058
L88810 77114
L88810 77283
L88782 77339
L88754 77367
L88697 77395
L88585 77395
L88529 77367
" />
<path d="M89147 77395
L89091 77367
L89063 77339
L89035 77283
L89035 77114
L89063 77058
L89091 77030
L89147 77002
L89232 77002
L89288 77030
L89316 77058
L89344 77114
L89344 77283
L89316 77339
L89288 77367
L89232 77395
L89147 77395
" />
<path d="M89907 77395
L89569 77395
" />
<path d="M89738 77395
L89738 76805
L89682 76889
L89625 76946
L89569 76974
" />
<path d="M90469 77395
L90132 77395
" />
<path d="M90300 77395
L90300 76805
L90244 76889
L90188 76946
L90132 76974
" />
<path d="M90722 77170
L91172 77170
" />
<path d="M90947 77395
L90947 76946
" />
<path d="M91763 77395
L91425 77395
" />
<path d="M91594 77395
L91594 76805
L91538 76889
L91481 76946
L91425 76974
" />
</g><path d="M69685 75396
L112205 75396
" />
</g>
<g style="fill:#840000; fill-opacity:0.0; 
stroke:#840000; stroke-width:118.110236; stroke-opacity:1; 
stroke-linecap:round; stroke-linejoin:round;">
<text x="103544.173228" y="76321.732283"
textLength="2337.834646" font-size="787.401575" lengthAdjust="spacingAndGlyphs"
text-anchor="start" opacity="0">Rev: </text>
<g class="stroked-text"><desc>Rev: </desc>
<path d="M104098 76293
L103902 76012
" />
<path d="M103761 76293
L103761 75703
L103986 75703
L104042 75731
L104070 75759
L104098 75815
L104098 75899
L104070 75956
L104042 75984
L103986 76012
L103761 76012
" />
<path d="M104577 76265
L104520 76293
L104408 76293
L104352 76265
L104323 76209
L104323 75984
L104352 75928
L104408 75899
L104520 75899
L104577 75928
L104605 75984
L104605 76040
L104323 76096
" />
<path d="M104802 75899
L104942 76293
L105083 75899
" />
<path d="M105308 76237
L105336 76265
L105308 76293
L105280 76265
L105308 76237
L105308 76293
" />
<path d="M105308 75928
L105336 75956
L105308 75984
L105280 75956
L105308 75928
L105308 75984
" />
</g></g>
<g style="fill:#840000; fill-opacity:0.0; 
stroke:#840000; stroke-width:60.000000; stroke-opacity:1; 
stroke-linecap:round; stroke-linejoin:round;">
<text x="70079.606299" y="76321.732283"
textLength="3781.220472" font-size="787.401575" lengthAdjust="spacingAndGlyphs"
text-anchor="start" opacity="0">Size: A4</text>
<g class="stroked-text"><desc>Size: A4</desc>
<path d="M70222 76265
L70306 76293
L70447 76293
L70503 76265
L70531 76237
L70559 76181
L70559 76124
L70531 76068
L70503 76040
L70447 76012
L70334 75984
L70278 75956
L70250 75928
L70222 75871
L70222 75815
L70250 75759
L70278 75731
L70334 75703
L70475 75703
L70559 75731
" />
<path d="M70812 76293
L70812 75899
" />
<path d="M70812 75703
L70784 75731
L70812 75759
L70840 75731
L70812 75703
L70812 75759
" />
<path d="M71037 75899
L71346 75899
L71037 76293
L71346 76293
" />
<path d="M71796 76265
L71740 76293
L71628 76293
L71571 76265
L71543 76209
L71543 75984
L71571 75928
L71628 75899
L71740 75899
L71796 75928
L71825 75984
L71825 76040
L71543 76096
" />
<path d="M72078 76237
L72106 76265
L72078 76293
L72049 76265
L72078 76237
L72078 76293
" />
<path d="M72078 75928
L72106 75956
L72078 75984
L72049 75956
L72078 75928
L72078 75984
" />
<path d="M72781 76124
L73062 76124
" />
<path d="M72724 76293
L72921 75703
L73118 76293
" />
<path d="M73568 75899
L73568 76293
" />
<path d="M73427 75674
L73287 76096
L73652 76096
" />
</g><text x="103544.173228" y="77424.094488"
textLength="3350.196850" font-size="787.401575" lengthAdjust="spacingAndGlyphs"
text-anchor="start" opacity="0">Id: 1/2</text>
<g class="stroked-text"><desc>Id: 1/2</desc>
<path d="M103714 77395
L103714 76805
" />
<path d="M104249 77395
L104249 76805
" />
<path d="M104249 77367
L104192 77395
L104080 77395
L104024 77367
L103995 77339
L103967 77283
L103967 77114
L103995 77058
L104024 77030
L104080 77002
L104192 77002
L104249 77030
" />
<path d="M104530 77339
L104558 77367
L104530 77395
L104502 77367
L104530 77339
L104530 77395
" />
<path d="M104530 77030
L104558 77058
L104530 77086
L104502 77058
L104530 77030
L104530 77086
" />
<path d="M105570 77395
L105233 77395
" />
<path d="M105402 77395
L105402 76805
L105345 76889
L105289 76946
L105233 76974
" />
<path d="M106245 76777
L105739 77536
" />
<path d="M106414 76861
L106442 76833
L106498 76805
L106639 76805
L106695 76833
L106723 76861
L106751 76917
L106751 76974
L106723 77058
L106386 77395
L106751 77395
" />
</g><path d="M69685 73821
L112205 73821
" />
</g>
<g style="fill:#840000; fill-opacity:0.0; 
stroke:#840000; stroke-width:157.480315; stroke-opacity:1; 
stroke-linecap:round; stroke-linejoin:round;">
<text x="70079.606299" y="74924.094488"
textLength="8055.000000" font-size="1049.842520" lengthAdjust="spacingAndGlyphs"
text-anchor="start" opacity="0">Title: Filter A</text>
<g class="stroked-text"><desc>Title: Filter A</desc>
<path d="M70360 74099
L70810 74099
" />
<path d="M70486 74886
L70585 74099
" />
<path d="M70974 74886
L71039 74361
" />
<path d="M71072 74099
L71030 74136
L71063 74174
L71105 74136
L71072 74099
L71063 74174
" />
<path d="M71302 74361
L71602 74361
" />
<path d="M71447 74099
L71363 74774
L71391 74849
L71461 74886
L71536 74886
" />
<path d="M71911 74886
L71841 74849
L71812 74774
L71897 74099
" />
<path d="M72516 74849
L72436 74886
L72286 74886
L72216 74849
L72187 74774
L72225 74474
L72272 74399
L72352 74361
L72501 74361
L72572 74399
L72600 74474
L72591 74549
L72206 74624
" />
<path d="M72895 74811
L72928 74849
L72886 74886
L72853 74849
L72895 74811
L72886 74886
" />
<path d="M72947 74399
L72980 74436
L72937 74474
L72905 74436
L72947 74399
L72937 74474
" />
<path d="M74175 74474
L73912 74474
" />
<path d="M73861 74886
L73959 74099
L74334 74099
" />
<path d="M74536 74886
L74601 74361
" />
<path d="M74634 74099
L74592 74136
L74625 74174
L74667 74136
L74634 74099
L74625 74174
" />
<path d="M75023 74886
L74953 74849
L74925 74774
L75009 74099
" />
<path d="M75276 74361
L75576 74361
" />
<path d="M75421 74099
L75337 74774
L75365 74849
L75435 74886
L75510 74886
" />
<path d="M76078 74849
L75998 74886
L75848 74886
L75778 74849
L75750 74774
L75787 74474
L75834 74399
L75914 74361
L76064 74361
L76134 74399
L76162 74474
L76153 74549
L75768 74624
" />
<path d="M76448 74886
L76513 74361
" />
<path d="M76495 74511
L76542 74436
L76584 74399
L76663 74361
L76738 74361
" />
<path d="M77526 74661
L77901 74661
" />
<path d="M77423 74886
L77784 74099
L77948 74886
" />
</g></g>
<g style="fill:#840000; fill-opacity:0.0; 
stroke:#840000; stroke-width:60.000000; stroke-opacity:1; 
stroke-linecap:round; stroke-linejoin:round;">
<text x="70079.606299" y="73408.346457"
textLength="10384.685039" font-size="787.401575" lengthAdjust="spacingAndGlyphs"
text-anchor="start" opacity="0">File: Filter_A.kicad_sch</text>
<g class="stroked-text"><desc>File: Filter_A.kicad_sch</desc>
<path d="M70447 73070
L70250 73070
" />
<path d="M70250 73380
L70250 72789
L70531 72789
" />
<path d="M70756 73380
L70756 72986
" />
<path d="M70756 72789
L70728 72817
L70756 72845
L70784 72817
L70756 72789
L70756 72845
" />
<path d="M71121 73380
L71065 73352
L71037 73295
L71037 72789
" />
<path d="M71571 73352
L71515 73380
L71403 73380
L71346 73352
L71318 73295
L71318 73070
L71346 73014
L71403 72986
L71515 72986
L71571 73014
L71600 73070
L71600 73127
L71318 73183
" />
<path d="M71853 73323
L71881 73352
L71853 73380
L71825 73352
L71853 73323
L71853 73380
" />
<path d="M71853 73014
L71881 73042
L71853 73070
L71825 73042
L71853 73014
L71853 73070
" />
<path d="M72781 73070
L72584 73070
" />
<path d="M72584 73380
L72584 72789
L72865 72789
" />
<path d="M73090 73380
L73090 72986
" />
<path d="M73090 72789
L73062 72817
L73090 72845
L73118 72817
L73090 72789
L73090 72845
" />
<path d="M73456 73380
L73399 73352
L73371 73295
L73371 72789
" />
<path d="M73596 72986
L73821 72986
" />
<path d="M73681 72789
L73681 73295
L73709 73352
L73765 73380
L73821 73380
" />
<path d="M74243 73352
L74187 73380
L74074 73380
L74018 73352
L73990 73295
L73990 73070
L74018 73014
L74074 72986
L74187 72986
L74243 73014
L74271 73070
L74271 73127
L73990 73183
" />
<path d="M74524 73380
L74524 72986
" />
<path d="M74524 73098
L74552 73042
L74580 73014
L74637 72986
L74693 72986
" />
<path d="M74749 73436
L75199 73436
" />
<path d="M75312 73211
L75593 73211
" />
<path d="M75255 73380
L75452 72789
L75649 73380
" />
<path d="M75846 73323
L75874 73352
L75846 73380
L75818 73352
L75846 73323
L75846 73380
" />
<path d="M76127 73380
L76127 72789
" />
<path d="M76183 73155
L76352 73380
" />
<path d="M76352 72986
L76127 73211
" />
<path d="M76605 73380
L76605 72986
" />
<path d="M76605 72789
L76577 72817
L76605 72845
L76633 72817
L76605 72789
L76605 72845
" />
<path d="M77139 73352
L77083 73380
L76971 73380
L76915 73352
L76886 73323
L76858 73267
L76858 73098
L76886 73042
L76915 73014
L76971 72986
L77083 72986
L77139 73014
" />
<path d="M77646 73380
L77646 73070
L77618 73014
L77561 72986
L77449 72986
L77393 73014
" />
<path d="M77646 73352
L77589 73380
L77449 73380
L77393 73352
L77364 73295
L77364 73239
L77393 73183
L77449 73155
L77589 73155
L77646 73127
" />
<path d="M78180 73380
L78180 72789
" />
<path d="M78180 73352
L78124 73380
L78011 73380
L77955 73352
L77927 73323
L77899 73267
L77899 73098
L77927 73042
L77955 73014
L78011 72986
L78124 72986
L78180 73014
" />
<path d="M78321 73436
L78771 73436
" />
<path d="M78883 73352
L78939 73380
L79052 73380
L79108 73352
L79136 73295
L79136 73267
L79108 73211
L79052 73183
L78967 73183
L78911 73155
L78883 73098
L78883 73070
L78911 73014
L78967 72986
L79052 72986
L79108 73014
" />
<path d="M79642 73352
L79586 73380
L79474 73380
L79417 73352
L79389 73323
L79361 73267
L79361 73098
L79389 73042
L79417 73014
L79474 72986
L79586 72986
L79642 73014
" />
<path d="M79895 73380
L79895 72789
" />
<path d="M80148 73380
L80148 73070
L80120 73014
L80064 72986
L79980 72986
L79923 73014
L79895 73042
" />
</g><path d="M69685 71459
L112205 71459
" />
<text x="70079.606299" y="72345.354331"
textLength="3856.417323" font-size="787.401575" lengthAdjust="spacingAndGlyphs"
text-anchor="start" opacity="0">Sheet: /</text>
<g class="stroked-text"><desc>Sheet: /</desc>
<path d="M70222 72289
L70306 72317
L70447 72317
L70503 72289
L70531 72260
L70559 72204
L70559 72148
L70531 72092
L70503 72064
L70447 72035
L70334 72007
L70278 71979
L70250 71951
L70222 71895
L70222 71839
L70250 71782
L70278 71754
L70334 71726
L70475 71726
L70559 71754
" />
<path d="M70812 72317
L70812 71726
" />
<path d="M71065 72317
L71065 72007
L71037 71951
L70981 71923
L70897 71923
L70840 71951
L70812 71979
" />
<path d="M71571 72289
L71515 72317
L71403 72317
L71346 72289
L71318 72232
L71318 72007
L71346 71951
L71403 71923
L71515 71923
L71571 71951
L71600 72007
L71600 72064
L71318 72120
" />
<path d="M72078 72289
L72021 72317
L71909 72317
L71853 72289
L71825 72232
L71825 72007
L71853 71951
L71909 71923
L72021 71923
L72078 71951
L72106 72007
L72106 72064
L71825 72120
" />
<path d="M72274 71923
L72499 71923
" />
<path d="M72359 71726
L72359 72232
L72387 72289
L72443 72317
L72499 72317
" />
<path d="M72696 72260
L72724 72289
L72696 72317
L72668 72289
L72696 72260
L72696 72317
" />
<path d="M72696 71951
L72724 71979
L72696 72007
L72668 71979
L72696 71951
L72696 72007
" />
<path d="M73849 71698
L73343 72457
" />
</g></g>
<g style="fill:#840000; fill-opacity:0.0; 
stroke:#840000; stroke-width:118.110236; stroke-opacity:1; 
stroke-linecap:round; stroke-linejoin:round;">
<text x="70079.606299" y="71164.251969"
textLength="60.000000" font-size="787.401575" lengthAdjust="spacingAndGlyphs"
text-anchor="start" opacity="0"></text>
<g class="stroked-text"><desc></desc>
</g></g>
<g style="fill:#840000; fill-opacity:0.0; 
stroke:#840000; stroke-width:60.000000; stroke-opacity:1; 
stroke-linecap:round; stroke-linejoin:round;">
<text x="70079.606299" y="69983.149606"
textLength="118.110236" font-size="787.401575" lengthAdjust="spacingAndGlyphs"
text-anchor="start" opacity="0"></text>
<g class="stroked-text"><desc></desc>
</g><text x="70079.606299" y="68802.047244"
textLength="60.000000" font-size="787.401575" lengthAdjust="spacingAndGlyphs"
text-anchor="start" opacity="0"></text>
<g class="stroked-text"><desc></desc>
</g><text x="70079.606299" y="67620.944882"
textLength="60.000000" font-size="787.401575" lengthAdjust="spacingAndGlyphs"
text-anchor="start" opacity="0"></text>
<g class="stroked-text"><desc></desc>
</g><text x="70079.606299" y="66439.842520"
textLength="60.000000" font-size="787.401575" lengthAdjust="spacingAndGlyphs"
text-anchor="start" opacity="0"></text>
<g class="stroked-text"><desc></desc>
</g><path d="M77559 75396
L77559 76577
" />
<path d="M102756 75396
L102756 77955
" />
</g>
<g style="fill:#FFFFFF; fill-opacity:0.0; 
stroke:#FFFFFF; stroke-width:60.000000; stroke-opacity:1; 
stroke-linecap:round; stroke-linejoin:round;">
</g>
<g style="fill:#FFFFFF; fill-opacity:1.0; 
stroke:#FFFFFF; stroke-width:0.039370; stroke-opacity:1; 
stroke-linecap:round; stroke-linejoin:round;">
<rect x="40000.000000" y="25000.000000" width="10000.000000" height="10000.000000" rx="0.000000" />
</g>
<g style="fill:#840000; fill-opacity:1.0; 
stroke:#840000; stroke-width:0.039370; stroke-opacity:1; 
stroke-linecap:round; stroke-linejoin:round;">
</g>
<g style="fill:#840000; fill-opacity:0.0; 
stroke:#840000; stroke-width:60.000000; stroke-opacity:1; 
stroke-linecap:round; stroke-linejoin:round;">
<rect x="40000.000000" y="25000.000000" width="10000.000000" height="10000.000000" rx="0.000000" />
</g>
<g style="fill:#006464; fill-opacity:0.0; 
stroke:#006464; stroke-width:60.000000; stroke-opacity:1; 
stroke-linecap:round; stroke-linejoin:round;">
<text x="40575.000000" y="30250.000000"
textLength="821.889764" font-size="666.653543" lengthAdjust="spacingAndGlyphs"
text-anchor="start" opacity="0">IN</text>
<g class="stroked-text"><desc>IN</desc>
<path d="M40724 30226
L40724 29726
" />
<path d="M40962 30226
L40962 29726
L41247 30226
L41247 29726
" />
</g><path style="fill:#006464; fill-opacity:0.0; 
stroke:#006464; stroke-width:60.000000; stroke-opacity:1; 
stroke-linecap:round; stroke-linejoin:round;fill:none"
d="M 40500.000000,30000.000000
40250.000000,29750.000000
40000.000000,29750.000000
40000.000000,30250.000000
40250.000000,30250.000000
Z" /> 
<text x="49425.000000" y="30250.000000"
textLength="1488.582677" font-size="666.653543" lengthAdjust="spacingAndGlyphs"
text-anchor="end" opacity="0">OUT</text>
<g class="stroked-text"><desc>OUT</desc>
<path d="M48180 29726
L48275 29726
L48323 29750
L48371 29797
L48395 29892
L48395 30059
L48371 30154
L48323 30202
L48275 30226
L48180 30226
L48133 30202
L48085 30154
L48061 30059
L48061 29892
L48085 29797
L48133 29750
L48180 29726
" />
<path d="M48609 29726
L48609 30130
L48633 30178
L48656 30202
L48704 30226
L48799 30226
L48847 30202
L48871 30178
L48895 30130
L48895 29726
" />
<path d="M49061 29726
L49347 29726
" />
<path d="M49204 30226
L49204 29726
" />
</g><path style="fill:#006464; fill-opacity:0.0; 
stroke:#006464; stroke-width:60.000000; stroke-opacity:1; 
stroke-linecap:round; stroke-linejoin:round;fill:none"
d="M 50000.000000,30000.000000
49750.000000,29750.000000
49500.000000,29750.000000
49500.000000,30250.000000
49750.000000,30250.000000
Z" /> 
<text x="41412.204724" y="24567.322835"
textLength="2821.889764" font-size="666.653543" lengthAdjust="spacingAndGlyphs"
text-anchor="middle" opacity="0">Filter A</text>
<g class="stroked-text"><desc>Filter A</desc>
<path d="M40316 24281
L40150 24281
" />
<path d="M40150 24543
L40150 24043
L40388 24043
" />
<path d="M40578 24543
L40578 24210
" />
<path d="M40578 24043
L40555 24067
L40578 24091
L40602 24067
L40578 24043
L40578 24091
" />
<path d="M40888 24543
L40840 24519
L40816 24472
L40816 24043
" />
<path d="M41007 24210
L41197 24210
" />
<path d="M41078 24043
L41078 24472
L41102 24519
L41150 24543
L41197 24543
" />
<path d="M41555 24519
L41507 24543
L41412 24543
L41364 24519
L41340 24472
L41340 24281
L41364 24233
L41412 24210
L41507 24210
L41555 24233
L41578 24281
L41578 24329
L41340 24376
" />
<path d="M41793 24543
L41793 24210
" />
<path d="M41793 24305
L41816 24257
L41840 24233
L41888 24210
L41935 24210
" />
<path d="M42459 24400
L42697 24400
" />
<path d="M42412 24543
L42578 24043
L42745 24543
" />
</g></g>
<g style="fill:#725600; fill-opacity:0.0; 
stroke:#725600; stroke-width:60.000000; stroke-opacity:1; 
stroke-linecap:round; stroke-linejoin:round;">
<text x="44186.023622" y="35882.637795"
textLength="8369.527559" font-size="666.653543" lengthAdjust="spacingAndGlyphs"
text-anchor="middle" opacity="0">File: Circuit.kicad_sch</text>
<g class="stroked-text"><desc>File: Circuit.kicad_sch</desc>
<path d="M40316 35596
L40150 35596
" />
<path d="M40150 35858
L40150 35358
L40388 35358
" />
<path d="M40578 35858
L40578 35525
" />
<path d="M40578 35358
L40555 35382
L40578 35406
L40602 35382
L40578 35358
L40578 35406
" />
<path d="M40888 35858
L40840 35835
L40816 35787
L40816 35358
" />
<path d="M41269 35835
L41221 35858
L41126 35858
L41078 35835
L41055 35787
L41055 35596
L41078 35549
L41126 35525
L41221 35525
L41269 35549
L41293 35596
L41293 35644
L41055 35692
" />
<path d="M41507 35811
L41531 35835
L41507 35858
L41483 35835
L41507 35811
L41507 35858
" />
<path d="M41507 35549
L41531 35573
L41507 35596
L41483 35573
L41507 35549
L41507 35596
" />
<path d="M42412 35811
L42388 35835
L42316 35858
L42269 35858
L42197 35835
L42150 35787
L42126 35739
L42102 35644
L42102 35573
L42126 35477
L42150 35430
L42197 35382
L42269 35358
L42316 35358
L42388 35382
L42412 35406
" />
<path d="M42626 35858
L42626 35525
" />
<path d="M42626 35358
L42602 35382
L42626 35406
L42650 35382
L42626 35358
L42626 35406
" />
<path d="M42864 35858
L42864 35525
" />
<path d="M42864 35620
L42888 35573
L42912 35549
L42959 35525
L43007 35525
" />
<path d="M43388 35835
L43340 35858
L43245 35858
L43197 35835
L43174 35811
L43150 35763
L43150 35620
L43174 35573
L43197 35549
L43245 35525
L43340 35525
L43388 35549
" />
<path d="M43816 35525
L43816 35858
" />
<path d="M43602 35525
L43602 35787
L43626 35835
L43674 35858
L43745 35858
L43793 35835
L43816 35811
" />
<path d="M44055 35858
L44055 35525
" />
<path d="M44055 35358
L44031 35382
L44055 35406
L44078 35382
L44055 35358
L44055 35406
" />
<path d="M44221 35525
L44412 35525
" />
<path d="M44293 35358
L44293 35787
L44316 35835
L44364 35858
L44412 35858
" />
<path d="M44578 35811
L44602 35835
L44578 35858
L44555 35835
L44578 35811
L44578 35858
" />
<path d="M44816 35858
L44816 35358
" />
<path d="M44864 35668
L45007 35858
" />
<path d="M45007 35525
L44816 35715
" />
<path d="M45221 35858
L45221 35525
" />
<path d="M45221 35358
L45197 35382
L45221 35406
L45245 35382
L45221 35358
L45221 35406
" />
<path d="M45674 35835
L45626 35858
L45531 35858
L45483 35835
L45459 35811
L45436 35763
L45436 35620
L45459 35573
L45483 35549
L45531 35525
L45626 35525
L45674 35549
" />
<path d="M46102 35858
L46102 35596
L46078 35549
L46031 35525
L45936 35525
L45888 35549
" />
<path d="M46102 35835
L46055 35858
L45936 35858
L45888 35835
L45864 35787
L45864 35739
L45888 35692
L45936 35668
L46055 35668
L46102 35644
" />
<path d="M46555 35858
L46555 35358
" />
<path d="M46555 35835
L46507 35858
L46412 35858
L46364 35835
L46340 35811
L46316 35763
L46316 35620
L46340 35573
L46364 35549
L46412 35525
L46507 35525
L46555 35549
" />
<path d="M46674 35906
L47055 35906
" />
<path d="M47150 35835
L47197 35858
L47293 35858
L47340 35835
L47364 35787
L47364 35763
L47340 35715
L47293 35692
L47221 35692
L47174 35668
L47150 35620
L47150 35596
L47174 35549
L47221 35525
L47293 35525
L47340 35549
" />
<path d="M47793 35835
L47745 35858
L47650 35858
L47602 35835
L47578 35811
L47555 35763
L47555 35620
L47578 35573
L47602 35549
L47650 35525
L47745 35525
L47793 35549
" />
<path d="M48007 35858
L48007 35358
" />
<path d="M48221 35858
L48221 35596
L48197 35549
L48150 35525
L48078 35525
L48031 35549
L48007 35573
" />
</g><g >
</g>
<g style="fill:#840000; fill-opacity:0.0; 
stroke:#840000; stroke-width:60.000000; stroke-opacity:1; 
stroke-linecap:round; stroke-linejoin:round;">
<path style="fill:#840000; fill-opacity:0.0; 
stroke:#840000; stroke-width:60.000000; stroke-opacity:1; 
stroke-linecap:round; stroke-linejoin:round;fill:none"
d="M 45000.000000,41000.000000
45000.000000,40500.000000
44600.000000,40250.000000
45000.000000,40000.000000
45400.000000,40250.000000
45000.000000,40500.000000
" /> 
<path d="M45000 41000
L45000 41000
" />
</g>
<g style="fill:#006464; fill-opacity:0.0; 
stroke:#006464; stroke-width:60.000000; stroke-opacity:1; 
stroke-linecap:round; stroke-linejoin:round;">
<text x="47538.385827" y="40920.748031"
textLength="3774.291339" font-size="666.653543" lengthAdjust="spacingAndGlyphs"
text-anchor="middle" opacity="0">PWR_FLAG</text>
<g class="stroked-text"><desc>PWR_FLAG</desc>
<path d="M45800 40896
L45800 40396
L45990 40396
L46038 40420
L46062 40444
L46085 40492
L46085 40563
L46062 40611
L46038 40635
L45990 40658
L45800 40658
" />
<path d="M46252 40396
L46371 40896
L46466 40539
L46562 40896
L46681 40396
" />
<path d="M47157 40896
L46990 40658
" />
<path d="M46871 40896
L46871 40396
L47062 40396
L47109 40420
L47133 40444
L47157 40492
L47157 40563
L47133 40611
L47109 40635
L47062 40658
L46871 40658
" />
<path d="M47252 40944
L47633 40944
" />
<path d="M47919 40635
L47752 40635
" />
<path d="M47752 40896
L47752 40396
L47990 40396
" />
<path d="M48419 40896
L48181 40896
L48181 40396
" />
<path d="M48562 40754
L48800 40754
" />
<path d="M48514 40896
L48681 40396
L48847 40896
" />
<path d="M49276 40420
L49228 40396
L49157 40396
L49085 40420
L49038 40468
L49014 40515
L48990 40611
L48990 40682
L49014 40777
L49038 40825
L49085 40873
L49157 40896
L49205 40896
L49276 40873
L49300 40849
L49300 40682
L49205 40682
" />
</g></g>
</g>
<g style="fill:#006464; fill-opacity:0.0; 
stroke:#006464; stroke-width:60.000000; stroke-opacity:1; 
stroke-linecap:round; stroke-linejoin:round;">
<g >
</g>
<g style="fill:#840000; fill-opacity:0.0; 
stroke:#840000; stroke-width:60.000000; stroke-opacity:1; 
stroke-linecap:round; stroke-linejoin:round;">
<path style="fill:#840000; fill-opacity:0.0; 
stroke:#840000; stroke-width:60.000000; stroke-opacity:1; 
stroke-linecap:round; stroke-linejoin:round;fill:none"
d="M 45000.000000,42000.000000
45000.000000,42500.000000
45500.000000,42500.000000
45000.000000,43000.000000
44500.000000,42500.000000
45000.000000,42500.000000
" /> 
</g>
<g style="fill:#006464; fill-opacity:0.0; 
stroke:#006464; stroke-width:60.000000; stroke-opacity:1; 
stroke-linecap:round; stroke-linejoin:round;">
<text x="45000.000000" y="43999.330709"
textLength="1583.818898" font-size="666.653543" lengthAdjust="spacingAndGlyphs"
text-anchor="middle" opacity="0">GND</text>
<g class="stroked-text"><desc>GND</desc>
<path d="M44619 43499
L44571 43475
L44500 43475
L44428 43499
L44380 43546
L44357 43594
L44333 43689
L44333 43761
L44357 43856
L44380 43904
L44428 43951
L44500 43975
L44547 43975
L44619 43951
L44642 43927
L44642 43761
L44547 43761
" />
<path d="M44857 43975
L44857 43475
L45142 43975
L45142 43475
" />
<path d="M45380 43975
L45380 43475
L45500 43475
L45571 43499
L45619 43546
L45642 43594
L45666 43689
L45666 43761
L45642 43856
L45619 43904
L45571 43951
L45500 43975
L45380 43975
" />
</g></g>
</g>
<g style="fill:#006464; fill-opacity:0.0; 
stroke:#006464; stroke-width:62.519685; stroke-opacity:1; 
stroke-linecap:round; stroke-linejoin:round;">
</g>
<g style="fill:#006464; fill-opacity:0.0; 
stroke:#006464; stroke-width:60.000000; stroke-opacity:1; 
stroke-linecap:round; stroke-linejoin:round;">
</g>
<g style="fill:#0000C2; fill-opacity:0.0; 
stroke:#0000C2; stroke-width:60.000000; stroke-opacity:1; 
stroke-linecap:round; stroke-linejoin:round;">
<text x="30500.000000" y="31362.480315"
textLength="7869.527559" font-size="666.653543" lengthAdjust="spacingAndGlyphs"
text-anchor="start" opacity="0">Input for the system</text>
<g class="stroked-text"><desc>Input for the system</desc>
<path d="M30649 31338
L30649 30838
" />
<path d="M30887 31005
L30887 31338
" />
<path d="M30887 31052
L30910 31029
L30958 31005
L31030 31005
L31077 31029
L31101 31076
L31101 31338
" />
<path d="M31339 31005
L31339 31505
" />
<path d="M31339 31029
L31387 31005
L31482 31005
L31530 31029
L31553 31052
L31577 31100
L31577 31243
L31553 31291
L31530 31314
L31482 31338
L31387 31338
L31339 31314
" />
<path d="M32006 31005
L32006 31338
" />
<path d="M31791 31005
L31791 31267
L31815 31314
L31863 31338
L31934 31338
L31982 31314
L32006 31291
" />
<path d="M32172 31005
L32363 31005
" />
<path d="M32244 30838
L32244 31267
L32268 31314
L32315 31338
L32363 31338
" />
<path d="M32839 31005
L33030 31005
" />
<path d="M32910 31338
L32910 30910
L32934 30862
L32982 30838
L33030 30838
" />
<path d="M33268 31338
L33220 31314
L33196 31291
L33172 31243
L33172 31100
L33196 31052
L33220 31029
L33268 31005
L33339 31005
L33387 31029
L33410 31052
L33434 31100
L33434 31243
L33410 31291
L33387 31314
L33339 31338
L33268 31338
" />
<path d="M33649 31338
L33649 31005
" />
<path d="M33649 31100
L33672 31052
L33696 31029
L33744 31005
L33791 31005
" />
<path d="M34268 31005
L34458 31005
" />
<path d="M34339 30838
L34339 31267
L34363 31314
L34410 31338
L34458 31338
" />
<path d="M34625 31338
L34625 30838
" />
<path d="M34839 31338
L34839 31076
L34815 31029
L34768 31005
L34696 31005
L34649 31029
L34625 31052
" />
<path d="M35268 31314
L35220 31338
L35125 31338
L35077 31314
L35053 31267
L35053 31076
L35077 31029
L35125 31005
L35220 31005
L35268 31029
L35291 31076
L35291 31124
L35053 31171
" />
<path d="M35863 31314
L35910 31338
L36006 31338
L36053 31314
L36077 31267
L36077 31243
L36053 31195
L36006 31171
L35934 31171
L35887 31148
L35863 31100
L35863 31076
L35887 31029
L35934 31005
L36006 31005
L36053 31029
" />
<path d="M36244 31005
L36363 31338
" />
<path d="M36482 31005
L36363 31338
L36315 31457
L36291 31481
L36244 31505
" />
<path d="M36649 31314
L36696 31338
L36791 31338
L36839 31314
L36863 31267
L36863 31243
L36839 31195
L36791 31171
L36720 31171
L36672 31148
L36649 31100
L36649 31076
L36672 31029
L36720 31005
L36791 31005
L36839 31029
" />
<path d="M37006 31005
L37196 31005
" />
<path d="M37077 30838
L37077 31267
L37101 31314
L37149 31338
L37196 31338
" />
<path d="M37553 31314
L37506 31338
L37410 31338
L37363 31314
L37339 31267
L37339 31076
L37363 31029
L37410 31005
L37506 31005
L37553 31029
L37577 31076
L37577 31124
L37339 31171
" />
<path d="M37791 31338
L37791 31005
" />
<path d="M37791 31052
L37815 31029
L37863 31005
L37934 31005
L37982 31029
L38006 31076
L38006 31338
" />
<path d="M38006 31076
L38030 31029
L38077 31005
L38149 31005
L38196 31029
L38220 31076
L38220 31338
" />
</g></g>
<g style="fill:#0000C2; fill-opacity:0.0; 
stroke:#0000C2; stroke-width:62.519685; stroke-opacity:1; 
stroke-linecap:round; stroke-linejoin:round;">
</g>
<g style="fill:#0000C2; fill-opacity:0.0; 
stroke:#0000C2; stroke-width:60.000000; stroke-opacity:1; 
stroke-linecap:round; stroke-linejoin:round;">
<text x="51500.000000" y="31362.480315"
textLength="6607.637795" font-size="666.653543" lengthAdjust="spacingAndGlyphs"
text-anchor="start" opacity="0">To Filter B board</text>
<g class="stroked-text"><desc>To Filter B board</desc>
<path d="M51577 30838
L51863 30838
" />
<path d="M51720 31338
L51720 30838
" />
<path d="M52101 31338
L52053 31314
L52030 31291
L52006 31243
L52006 31100
L52030 31052
L52053 31029
L52101 31005
L52172 31005
L52220 31029
L52244 31052
L52268 31100
L52268 31243
L52244 31291
L52220 31314
L52172 31338
L52101 31338
" />
<path d="M53030 31076
L52863 31076
" />
<path d="M52863 31338
L52863 30838
L53101 30838
" />
<path d="M53291 31338
L53291 31005
" />
<path d="M53291 30838
L53268 30862
L53291 30886
L53315 30862
L53291 30838
L53291 30886
" />
<path d="M53601 31338
L53553 31314
L53530 31267
L53530 30838
" />
<path d="M53720 31005
L53910 31005
" />
<path d="M53791 30838
L53791 31267
L53815 31314
L53863 31338
L53910 31338
" />
<path d="M54268 31314
L54220 31338
L54125 31338
L54077 31314
L54053 31267
L54053 31076
L54077 31029
L54125 31005
L54220 31005
L54268 31029
L54291 31076
L54291 31124
L54053 31171
" />
<path d="M54506 31338
L54506 31005
" />
<path d="M54506 31100
L54530 31052
L54553 31029
L54601 31005
L54649 31005
" />
<path d="M55363 31076
L55434 31100
L55458 31124
L55482 31171
L55482 31243
L55458 31291
L55434 31314
L55387 31338
L55196 31338
L55196 30838
L55363 30838
L55410 30862
L55434 30886
L55458 30933
L55458 30981
L55434 31029
L55410 31052
L55363 31076
L55196 31076
" />
<path d="M56077 31338
L56077 30838
" />
<path d="M56077 31029
L56125 31005
L56220 31005
L56268 31029
L56291 31052
L56315 31100
L56315 31243
L56291 31291
L56268 31314
L56220 31338
L56125 31338
L56077 31314
" />
<path d="M56601 31338
L56553 31314
L56530 31291
L56506 31243
L56506 31100
L56530 31052
L56553 31029
L56601 31005
L56672 31005
L56720 31029
L56744 31052
L56768 31100
L56768 31243
L56744 31291
L56720 31314
L56672 31338
L56601 31338
" />
<path d="M57196 31338
L57196 31076
L57172 31029
L57125 31005
L57030 31005
L56982 31029
" />
<path d="M57196 31314
L57149 31338
L57030 31338
L56982 31314
L56958 31267
L56958 31219
L56982 31171
L57030 31148
L57149 31148
L57196 31124
" />
<path d="M57434 31338
L57434 31005
" />
<path d="M57434 31100
L57458 31052
L57482 31029
L57530 31005
L57577 31005
" />
<path d="M57958 31338
L57958 30838
" />
<path d="M57958 31314
L57910 31338
L57815 31338
L57768 31314
L57744 31291
L57720 31243
L57720 31100
L57744 31052
L57768 31029
L57815 31005
L57910 31005
L57958 31029
" />
</g></g>
<g style="fill:#009600; fill-opacity:0.0; 
stroke:#009600; stroke-width:60.000000; stroke-opacity:1; 
stroke-linecap:round; stroke-linejoin:round;">
<path d="M45000 41000
L45000 42000
" />
<path d="M35000 30000
L40000 30000
" />
<path d="M50000 30000
L55000 30000
" />
</g> 
</svg>
